<?xml version="1.0" standalone="no"?>
<!DOCTYPE svg PUBLIC "-//W3C//DTD SVG 1.1//EN" "http://www.w3.org/Graphics/SVG/1.1/DTD/svg11.dtd" >
<svg xmlns="http://www.w3.org/2000/svg" xmlns:xlink="http://www.w3.org/1999/xlink" version="1.1">
<metadata>
Created by FontForge 20170731 at Wed Sep  2 21:10:36 2009
 By Aleksey,,,
Copyright (c) 2009 by abstrkt. All rights reserved.
</metadata>
<defs>
<font id="VremenaItalic" horiz-adv-x="663" >
  <font-face 
    font-family="Vremena Italic"
    font-weight="700"
    font-style="italic"
    font-stretch="normal"
    units-per-em="1000"
    panose-1="2 0 0 0 0 0 0 0 0 0"
    ascent="750"
    descent="-250"
    x-height="450"
    cap-height="650"
    bbox="-119.542 -358 1148 890"
    underline-thickness="50"
    underline-position="-200"
    unicode-range="U+0020-2122"
  />
<missing-glyph horiz-adv-x="300" 
 />
    <glyph glyph-name=".notdef" horiz-adv-x="300" 
 />
    <glyph glyph-name=".null" horiz-adv-x="0" 
 />
    <glyph glyph-name="nonmarkingreturn" horiz-adv-x="333" 
 />
    <glyph glyph-name="space" unicode=" " horiz-adv-x="234" 
 />
    <glyph glyph-name="exclam" unicode="!" horiz-adv-x="262" 
d="M293 665q62 0 40 -93q-8 -30 -33 -95.5t-46.5 -118t-52.5 -125.5t-32 -75q23 343 41 414q23 93 83 93zM84 53q5 25 27 42.5t48 17.5q25 0 37.5 -17t7.5 -43q-7 -25 -29 -42.5t-47 -17.5t-38 17.5t-6 42.5z" />
    <glyph glyph-name="quotedbl" unicode="&#x22;" horiz-adv-x="346" 
d="M264 665q24 0 33 -17.5t2 -44.5t-21 -58t-40.5 -82t-45.5 -91q2 58 0 95.5t-1 73t8 62.5t24 44.5t41 17.5zM410 665q24 0 33 -17.5t2 -44.5t-21 -58t-40.5 -82t-45.5 -91q2 58 0 95.5t-1 73t8 62.5t24 44.5t41 17.5z" />
    <glyph glyph-name="numbersign" unicode="#" horiz-adv-x="504" 
d="M572 665h39l-97 -215h92l-8 -32h-99l-81 -178h115l-8 -32h-121l-98 -218h-40l98 218h-170l-98 -218h-40l98 218h-93l8 32h100l81 178h-116l8 32h123l97 215h39l-97 -215h171zM289 418l-81 -178h171l81 178h-171z" />
    <glyph glyph-name="dollar" unicode="$" horiz-adv-x="502" 
d="M405 750h40l-21 -86q70 -16 86 -40l76 41l-66 -265q-2 55 -6 89.5t-14.5 68.5t-31 51.5t-52.5 21.5l-59 -235l57 -25q55 -24 79.5 -73t5.5 -125q-19 -77 -81 -130t-160 -53h-2l-22 -90h-40l22 90q-68 15 -87 47l-82 -47l66 265q4 -99 29.5 -158.5t82.5 -71.5l62 252
l-57 27q-96 45 -63 176q22 87 86 134.5t131 50.5zM345 253l-21 9l-60 -240h9q49 0 91 30t56 86q8 32 -4.5 57t-28.5 36t-42 22zM238 522q-10 -40 2.5 -62t53.5 -39l27 -11l55 223q-44 -3 -84 -30.5t-54 -80.5z" />
    <glyph glyph-name="ampersand" unicode="&#x26;" horiz-adv-x="635" 
d="M632 106q-24 -54 -60.5 -85t-78.5 -31q-67 0 -102 67q-92 -67 -190 -67q-72 0 -112 45t-22 117q30 120 197 197q-3 7 -8.5 21.5t-8.5 20.5q-30 70 -13 137q15 61 74 99t135 38q77 0 113 -31.5t21 -91.5q-3 -11 -7 -20.5t-11.5 -19t-13.5 -16.5t-19 -17t-21.5 -16
t-26.5 -17.5t-28.5 -17.5t-34.5 -20t-37 -22q60 -142 90 -212q41 42 83 108q-9 12 -29.5 35.5t-29.5 35.5h198q-20 -13 -58.5 -37t-57.5 -37q-47 -73 -96 -129q12 -28 20 -43.5t21.5 -28.5t29.5 -13q48 0 83 51zM269 62q54 0 107 29q-20 44 -55.5 127t-42.5 100
q-79 -50 -97 -129q-14 -59 11.5 -93t76.5 -34zM341 546q-6 -34 -0.5 -61.5t26.5 -82.5q90 51 111 136q23 97 -43 97q-37 0 -61.5 -29t-32.5 -60z" />
    <glyph glyph-name="quotesingle" unicode="'" horiz-adv-x="203" 
d="M266 665q25 0 34 -17.5t2 -44.5q-7 -26 -22 -58t-41.5 -82t-45.5 -91q2 42 0 91.5t-1.5 81.5t7.5 58q7 27 25 44.5t42 17.5z" />
    <glyph glyph-name="parenleft" unicode="(" horiz-adv-x="342" 
d="M208 240q-25 -99 -29 -183t17.5 -156.5t71.5 -114.5q-115 51 -160.5 177.5t-8.5 276.5q37 149 146.5 276t249.5 178q-201 -115 -287 -454z" />
    <glyph glyph-name="parenright" unicode=")" horiz-adv-x="342" 
d="M259 240q85 338 -59 454q115 -51 160 -177.5t8 -276.5t-146 -276.5t-248 -177.5q104 62 175.5 182t109.5 272z" />
    <glyph glyph-name="asterisk" unicode="*" horiz-adv-x="420" 
d="M286 675q25 0 36 -14.5t11 -32.5q0 -19 -18 -59t-29 -80q-11 40 -28.5 80t-17.5 59q0 18 10.5 32.5t35.5 14.5zM109 546q8 25 27.5 31.5t31.5 -1.5q19 -6 51.5 -35.5t66.5 -51.5q-35 2 -68 -0.5t-43.5 -4t-34.5 3.5q-17 5 -27.5 19.5t-3.5 38.5zM463 546q7 -24 -3.5 -39
t-27.5 -20q-24 -5 -34.5 -3.5t-43.5 4.5t-68 1q35 22 67.5 51t50.5 35q12 7 31.5 1t27.5 -30zM176 338q-37 27 -10 66q11 15 49 36.5t71 48.5q-15 -39 -24.5 -82t-20.5 -58q-28 -38 -65 -11zM396 338q-25 -13 -40.5 -8t-25.5 19q-11 16 -20.5 59t-23.5 81q33 -27 70.5 -48.5
t48.5 -36.5q25 -39 -9 -66z" />
    <glyph glyph-name="plus" unicode="+" horiz-adv-x="490" 
d="M136 320v32h163v163h32v-163h164v-32h-164v-164h-32v164h-163z" />
    <glyph glyph-name="comma" unicode="," horiz-adv-x="241" 
d="M63 52q6 26 27.5 43.5t50.5 17.5q78 0 53 -100q-13 -51 -59.5 -99t-111.5 -72q53 26 86 73t38 89q-20 -11 -41 -11q-26 0 -38 17t-5 42z" />
    <glyph glyph-name="hyphen" unicode="-" horiz-adv-x="369" 
d="M94 220l8 32h289l-8 -32h-289z" />
    <glyph glyph-name="period" unicode="." horiz-adv-x="214" 
d="M60 53q6 25 27.5 42.5t47.5 17.5q25 0 38 -17t7 -43q-7 -25 -29 -42.5t-47 -17.5t-38 17.5t-6 42.5z" />
    <glyph glyph-name="slash" unicode="/" horiz-adv-x="279" 
d="M405 665h39l-407 -675h-39z" />
    <glyph glyph-name="zero" unicode="0" horiz-adv-x="502" 
d="M111 328q36 142 117 239.5t188 97.5q72 0 112 -48.5t42.5 -123.5t-17.5 -165q-36 -142 -117 -240t-188 -98q-72 0 -112 48.5t-42.5 124t17.5 165.5zM439 328q7 31 11 47t11 48.5t9 52.5t4 48t-1.5 45t-10 33.5t-20.5 24.5t-33 8q-25 0 -48 -14t-41 -41.5t-32 -54.5
t-27 -67.5t-20 -66t-16 -63.5q-7 -30 -11 -46.5t-11 -49t-9 -52.5t-4 -48t1.5 -45t10 -34t20.5 -25t33 -8q25 0 48 14t41 41.5t32 55t27 68t20 66t16 63.5z" />
    <glyph glyph-name="one" unicode="1" horiz-adv-x="502" 
d="M335 541h-86l216 124l-153 -614l81 -51h-284l104 51z" />
    <glyph glyph-name="two" unicode="2" horiz-adv-x="502" 
d="M412 92l92 63l-94 -155h-384l256 232q73 66 110 117t52 108q14 59 -11.5 90t-75.5 31q-101 0 -186 -126q39 107 101.5 160t139.5 53t116.5 -47t19.5 -127q-12 -49 -55 -100t-137 -135l-180 -164h236z" />
    <glyph glyph-name="three" unicode="3" horiz-adv-x="502" 
d="M192 498q87 167 227 167q67 0 104 -34t20 -100q-20 -80 -131 -145q55 -21 77.5 -66t6.5 -111q-25 -98 -113.5 -158.5t-192.5 -60.5q-69 0 -98.5 20t-21.5 50q4 19 20.5 33.5t40.5 14.5q21 0 33 -12t16.5 -26.5t19.5 -26.5t40 -12q56 0 98.5 39t57.5 99q19 78 -14.5 122
t-105.5 44h-27q76 22 128 60.5t65 88.5q12 48 -9 76t-73 28q-92 0 -168 -90z" />
    <glyph glyph-name="four" unicode="4" horiz-adv-x="502" 
d="M392 51l69 -51h-270l103 51l31 124h-268l489 493l-108 -434h96l-58 -59h-53zM153 234h187l63 254z" />
    <glyph glyph-name="five" unicode="5" horiz-adv-x="502" 
d="M345 650h246l-64 -94h-205l-59 -87q127 -7 187 -66t34 -165q-28 -112 -120 -180t-200 -68q-61 0 -89.5 18t-20.5 51q6 22 23.5 35.5t37.5 13.5t33.5 -11t19.5 -23.5t21 -23.5t38 -11q59 0 112 42.5t68 102.5q8 40 4.5 70t-23.5 50.5t-43.5 33.5t-57.5 20t-65.5 8.5
t-65.5 0.5z" />
    <glyph glyph-name="six" unicode="6" horiz-adv-x="502" 
d="M387 418q80 0 113 -57.5t13 -137.5q-24 -95 -98 -164t-168 -69q-67 0 -105.5 40.5t-43 101t10.5 131.5q45 181 174 295.5t301 105.5q-252 -49 -346 -323q60 77 149 77zM268 20q41 0 77.5 41t55.5 119q14 55 14.5 97t-18.5 70t-59 28q-52 0 -101 -37q-17 -50 -26 -100
q-7 -33 -9.5 -66t0 -69.5t19.5 -59.5t47 -23z" />
    <glyph glyph-name="seven" unicode="7" horiz-adv-x="502" 
d="M151 474l94 176h361l-406 -660h-53l346 565h-247z" />
    <glyph glyph-name="eight" unicode="8" horiz-adv-x="502" 
d="M263 322q-43 43 -62 83q-23 50 -11 96q19 77 82 120.5t140 43.5q71 0 116.5 -37t29.5 -99q-21 -88 -171 -161q54 -53 76 -84q38 -58 22 -124q-21 -83 -89 -126.5t-152 -43.5q-80 0 -125.5 40t-26.5 113q13 52 52.5 93.5t118.5 85.5zM302 454l66 -67q52 38 77.5 68
t36.5 72q11 47 -9 77.5t-67 30.5q-49 0 -86 -26.5t-46 -64.5q-12 -50 28 -90zM282 304q-88 -66 -107 -151q-16 -61 7.5 -97t78.5 -36q51 0 89.5 25t48.5 66q9 35 -14 73q-22 39 -103 120z" />
    <glyph glyph-name="nine" unicode="9" horiz-adv-x="502" 
d="M278 237q-80 0 -113.5 57.5t-13.5 137.5q25 95 99 164t167 69q67 0 105.5 -40.5t43 -101t-10.5 -131.5q-45 -181 -174 -295.5t-301 -105.5q130 25 215.5 109.5t129.5 212.5q-61 -76 -147 -76zM396 635q-42 0 -78 -40.5t-55 -119.5q-14 -55 -14.5 -97t18.5 -70t59 -28
q53 0 101 36q15 43 26 101q7 33 9.5 66t0 69.5t-19.5 59.5t-47 23z" />
    <glyph glyph-name="colon" unicode=":" horiz-adv-x="220" 
d="M72 88q5 25 27 42.5t48 17.5q25 0 37.5 -17t7.5 -43q-7 -25 -29 -42.5t-47 -17.5t-38 17.5t-6 42.5zM139 361q7 25 28.5 42.5t46.5 17.5q26 0 39 -17.5t6 -42.5q-6 -25 -28 -42.5t-47 -17.5t-38 17.5t-7 42.5z" />
    <glyph glyph-name="semicolon" unicode=";" horiz-adv-x="242" 
d="M63 52q6 26 27.5 43.5t50.5 17.5q78 0 53 -100q-13 -51 -59.5 -99t-111.5 -72q53 26 86 73t38 89q-20 -11 -41 -11q-26 0 -38 17t-5 42zM139 361q7 25 28.5 42.5t46.5 17.5q26 0 39 -17.5t6 -42.5q-6 -25 -28 -42.5t-47 -17.5t-38 17.5t-7 42.5z" />
    <glyph glyph-name="less" unicode="&#x3c;" horiz-adv-x="490" 
d="M107 337l342 241v-42l-277 -199l277 -196v-44z" />
    <glyph glyph-name="equal" unicode="=" horiz-adv-x="490" 
d="M135 268v32h360v-32h-360zM135 378v32h360v-32h-360z" />
    <glyph glyph-name="greater" unicode="&#x3e;" horiz-adv-x="490" 
d="M490 338l-342 -241v42l277 199l-277 196v44z" />
    <glyph glyph-name="question" unicode="?" horiz-adv-x="454" 
d="M233 174q16 54 46 100t57.5 72.5t55 68t39.5 89.5q15 61 -6.5 97.5t-70.5 36.5q-39 0 -68.5 -18t-35.5 -43q-3 -11 11 -29.5t11 -38.5q-4 -26 -23 -43t-42 -17q-24 0 -36.5 18t-3.5 54q17 68 82.5 106t134.5 38q86 0 128.5 -42t24.5 -115q-10 -42 -39 -78.5t-66 -64.5
t-74.5 -55.5t-72.5 -62.5t-52 -73zM160 53q5 25 27.5 42.5t47.5 17.5t37.5 -17t7.5 -43q-6 -25 -28 -42.5t-47 -17.5t-38 17.5t-7 42.5z" />
    <glyph glyph-name="at" unicode="@" horiz-adv-x="530" 
d="M95 225q0 -87 57 -146t148 -59q58 0 107 30l16 -25q-57 -35 -123 -35q-103 0 -169 68t-66 167q0 97 68.5 166t166.5 69q103 0 164 -63t61 -162q0 -59 -36.5 -105t-101.5 -46q-26 0 -42.5 14t-19.5 36l-2 2q-40 -52 -95 -52q-50 0 -71 38.5t-5 101.5q17 65 64.5 105
t104.5 40q43 0 57 -30l62 27l-51 -195q-14 -57 14 -57q40 0 66 36t26 85q0 87 -52.5 141t-142.5 54q-85 0 -145 -60t-60 -145zM222 218q-10 -42 0 -66.5t37 -24.5q32 0 62 28l36 137q7 29 -6.5 41.5t-37.5 9.5q-67 -7 -91 -125z" />
    <glyph glyph-name="A" unicode="A" 
d="M-10 0l105 61l396 604l105 -615l67 -50h-261l77 45l-21 130h-246l-80 -120l65 -55h-207zM405 471l-171 -261h216z" />
    <glyph glyph-name="B" unicode="B" horiz-adv-x="608" 
d="M258 599l-73 51h279q113 0 169.5 -36t34.5 -126q-15 -60 -64.5 -100t-115.5 -48q74 -9 113.5 -51t22.5 -108q-44 -181 -288 -181h-309l95 51zM301 320l-70 -285h94q59 0 105 34t66 111q8 41 3 68t-24.5 43t-41.5 22.5t-48 6.5h-84zM373 615l-64 -260h68q138 4 170 134
q10 33 5.5 55.5t-12.5 36.5t-26.5 21.5t-36 10t-40.5 2.5h-64z" />
    <glyph glyph-name="C" unicode="C" horiz-adv-x="620" 
d="M721 665l-60 -245q-14 104 -48 158t-108 54q-93 0 -164 -83.5t-103 -218.5q-30 -123 10.5 -200t136.5 -77q76 0 139 46.5t103 127.5q-33 -106 -114.5 -171.5t-179.5 -65.5q-136 0 -197.5 96t-25.5 241t143 241.5t243 96.5q89 0 135 -45z" />
    <glyph glyph-name="D" unicode="D" horiz-adv-x="659" 
d="M185 650h292q141 0 204 -89t28 -234q-36 -146 -143 -236.5t-247 -90.5h-292l95 51l136 548zM460 615h-87l-142 -580h87q93 0 160.5 76.5t101.5 215.5q35 137 4.5 212.5t-124.5 75.5z" />
    <glyph glyph-name="E" unicode="E" horiz-adv-x="596" 
d="M27 0l95 51l136 548l-73 51h518l-54 -220l-58 185h-218l-64 -260h114l101 103l-60 -240l-48 102h-115l-70 -285h227l156 185l-54 -220h-533z" />
    <glyph glyph-name="F" unicode="F" horiz-adv-x="585" 
d="M27 0l95 51l136 548l-73 51h518l-54 -220l-64 185h-212l-64 -260h107l101 103l-60 -240l-48 102h-108l-67 -269l83 -51h-290z" />
    <glyph glyph-name="G" unicode="G" horiz-adv-x="627" 
d="M714 290l-87 -51l-61 -249l-68 68q-71 -68 -168 -68q-142 0 -199 95t-21 242q36 146 143.5 242t245.5 96q83 0 129 -45l93 45l-64 -265q-7 53 -17 90.5t-28.5 72t-48.5 52t-72 17.5q-173 0 -253 -310q-20 -86 -18.5 -152t34.5 -105.5t94 -39.5q73 0 129 56l38 158l-71 51
h270z" />
    <glyph glyph-name="H" unicode="H" horiz-adv-x="734" 
d="M27 0l95 51l136 548l-73 51h280l-95 -51l-61 -244h288l61 244l-73 51h280l-95 -51l-136 -548l73 -51h-280l95 51l67 269h-288l-67 -269l73 -51h-280z" />
    <glyph glyph-name="I" unicode="I" horiz-adv-x="334" 
d="M465 650l-95 -51l-136 -548l73 -51h-280l95 51l136 548l-73 51h280z" />
    <glyph glyph-name="J" unicode="J" horiz-adv-x="466" 
d="M600 650l-95 -51l-91 -369q-28 -116 -92.5 -178t-153.5 -62q-77 0 -106 29t-21 74q7 33 28.5 53t46.5 20q34 0 44 -22t-2 -47q-30 -75 25 -75q24 0 42.5 16t33.5 52.5t24 68.5t23 91l87 349l-73 51h280z" />
    <glyph glyph-name="K" unicode="K" horiz-adv-x="705" 
d="M27 0l95 51l136 548l-73 51h280l-95 -51l-73 -295l335 286l-63 60h230l-347 -261l161 -333l82 -56h-191l-142 314l-79 -68l-49 -195l73 -51h-280z" />
    <glyph glyph-name="L" unicode="L" horiz-adv-x="603" 
d="M624 220l-54 -220h-543l95 51l136 548l-73 51h300l-119 -61l-135 -554h237z" />
    <glyph glyph-name="M" unicode="M" horiz-adv-x="864" 
d="M27 0l101 63l132 533l-75 54h204l85 -471l311 471h210l-95 -51l-136 -548l73 -51h-280l95 51l127 519l-384 -585l-100 558l-118 -480l73 -63h-223z" />
    <glyph glyph-name="N" unicode="N" horiz-adv-x="712" 
d="M180 63l86 -63h-239l104 63l128 515l-74 72h176l238 -431l91 368l-76 63h229l-104 -63l-148 -602l-297 538z" />
    <glyph glyph-name="O" unicode="O" horiz-adv-x="669" 
d="M110 327q36 144 145 241t241 97q133 0 196 -97t27 -241t-146 -240.5t-243 -96.5q-132 0 -194 96.5t-26 240.5zM240 327q-36 -134 -11.5 -219.5t110.5 -85.5t151.5 83t99.5 222q36 134 10.5 220t-111.5 86t-150.5 -83t-98.5 -223z" />
    <glyph glyph-name="P" unicode="P" horiz-adv-x="602" 
d="M27 0l95 51l136 548l-73 51h309q106 0 160 -50.5t31 -144.5t-102 -144.5t-185 -50.5h-113l-51 -209l73 -51h-280zM373 615l-78 -320h88q59 0 107 41t67 119q20 78 -8.5 119t-87.5 41h-88z" />
    <glyph glyph-name="Q" unicode="Q" horiz-adv-x="669" 
d="M110 327q36 144 145 241t241 97q133 0 196 -97t27 -241q-32 -127 -123.5 -219.5t-206.5 -112.5q-11 -41 -11.5 -84t28 -76.5t82.5 -34.5q-52 -13 -94.5 -7t-67.5 26.5t-41.5 49.5t-17 62.5t4.5 64.5q-104 22 -149 113.5t-13 217.5zM240 327q-36 -134 -11.5 -219.5
t110.5 -85.5t151.5 83t99.5 222q36 134 10.5 220t-111.5 86t-150.5 -83t-98.5 -223z" />
    <glyph glyph-name="R" unicode="R" 
d="M185 650h299q52 0 91.5 -8.5t69 -28.5t38 -53t-1.5 -82q-16 -73 -77 -119t-151 -54q49 -8 75 -35t38 -78l29 -139l71 -53h-188l-38 210q-19 86 -106 86h-39l-61 -245l73 -51h-280l95 51l136 548zM373 615l-70 -284h87q59 0 106 39t63 108q18 73 -12.5 105t-89.5 32h-84z
" />
    <glyph glyph-name="S" unicode="S" horiz-adv-x="543" 
d="M633 665l-58 -235q-12 101 -50.5 152t-109.5 51q-55 0 -103.5 -27.5t-60.5 -75.5q-9 -35 9.5 -57t62.5 -43l143 -68q55 -25 81 -68t7 -121q-18 -75 -84.5 -129t-166.5 -54q-51 0 -91.5 18.5t-57.5 44.5l-96 -63l64 259q15 -109 58.5 -168t130.5 -59q61 0 105 29.5
t57 80.5q2 18 3 30.5t-6 24.5t-12.5 19.5t-17.5 16t-19.5 12.5t-19.5 10l-141 68q-112 52 -84 164q22 92 92.5 140t153.5 48q82 0 128 -44z" />
    <glyph glyph-name="T" unicode="T" horiz-adv-x="637" 
d="M772 650l-54 -220l-64 185h-126l-137 -554l91 -61h-320l117 61l137 554h-126l-156 -185l54 220h584z" />
    <glyph glyph-name="U" unicode="U" horiz-adv-x="720" 
d="M255 599l-73 51h280l-95 -51l-83 -336q-8 -35 -12 -62t-2 -58t14 -51.5t39 -34t68 -13.5q51 0 92.5 19.5t68 52.5t42.5 66.5t25 71.5l82 333l-76 63h229l-104 -63l-82 -328q-12 -48 -33 -91.5t-56 -85.5t-89.5 -67t-121.5 -25q-61 0 -104.5 15.5t-66 40.5t-32.5 60.5
t-8 71t12 76.5z" />
    <glyph glyph-name="V" unicode="V" horiz-adv-x="679" 
d="M847 650l-105 -62l-392 -603l-115 609l-77 56h270l-77 -46l81 -425l271 415l-63 56h207z" />
    <glyph glyph-name="W" unicode="W" horiz-adv-x="981" 
d="M1146 650l-105 -62l-370 -603l-65 451l-284 -451l-88 609l-76 56h270l-77 -46l54 -424l194 307l-17 107l-77 56h270l-76 -46l53 -424l253 414l-66 56h207z" />
    <glyph glyph-name="X" unicode="X" horiz-adv-x="710" 
d="M697 590l-216 -228l136 -315l76 -47h-266l66 40l-100 233l-217 -224l61 -49h-209l108 59l240 251l-123 291l-75 49h266l-67 -41l90 -210l189 202l-56 49h206z" />
    <glyph glyph-name="Y" unicode="Y" horiz-adv-x="682" 
d="M434 650l-74 -42l106 -263l213 252l-55 53h209l-109 -58l-242 -289l-63 -252l73 -51h-280l95 51l57 231l-128 320l-68 48h266z" />
    <glyph glyph-name="Z" unicode="Z" horiz-adv-x="582" 
d="M164 430l54 220h482l-512 -615h252l156 185l-54 -220h-508l511 615h-225z" />
    <glyph glyph-name="bracketleft" unicode="[" horiz-adv-x="240" 
d="M5 -100l211 850h180l-7 -32h-140l-196 -786h140l-8 -32h-180z" />
    <glyph glyph-name="backslash" unicode="\" horiz-adv-x="279" 
d="M276 -10h-39l-72 675h40z" />
    <glyph glyph-name="bracketright" unicode="]" horiz-adv-x="240" 
d="M396 750l-211 -850h-180l8 32h140l196 786h-140l7 32h180z" />
    <glyph glyph-name="asciicircum" unicode="^" horiz-adv-x="441" 
d="M241 665l181 -282h-42l-139 215l-136 -215h-44z" />
    <glyph glyph-name="underscore" unicode="_" horiz-adv-x="490" 
d="M-9 -100l8 32h458l-8 -32h-458z" />
    <glyph glyph-name="grave" unicode="`" horiz-adv-x="246" 
d="M320 461l-131 189h124z" />
    <glyph glyph-name="a" unicode="a" horiz-adv-x="499" 
d="M315 106q-79 -116 -155 -116q-67 0 -91.5 61t3.5 165q32 114 106.5 179t154.5 65q56 0 73 -43l92 43q-76 -309 -101 -413l102 45q-95 -102 -156 -102q-54 0 -40 67q10 40 12 49zM170 206q-34 -154 41 -154q22 1 53 23t57 58l57 234q5 26 -5 45t-40 19q-48 0 -94.5 -62.5
t-68.5 -162.5z" />
    <glyph glyph-name="b" unicode="b" horiz-adv-x="480" 
d="M131 34l-87 -44l148 598l-69 22l183 55l-76 -309q79 104 148 104q72 0 100.5 -64t1.5 -168q-25 -104 -100 -171t-164 -67q-59 0 -85 44zM381 238q13 75 -0.5 118t-56.5 42q-42 0 -100 -69l-59 -239q-8 -35 9.5 -52.5t50.5 -17.5q54 1 96 63t60 155z" />
    <glyph glyph-name="c" unicode="c" horiz-adv-x="432" 
d="M161 209q-4 -82 30 -115.5t90 -28.5q43 5 82 37.5t64 86.5q-27 -96 -84.5 -147.5t-134.5 -51.5q-88 0 -127 67t-14 168t97.5 168t162.5 67q65 0 97 -31.5t22 -77.5q-4 -23 -22.5 -38.5t-40.5 -15.5q-23 0 -30 15.5t-3 35.5q11 44 2.5 63t-41.5 19q-54 0 -99 -66t-51 -155
z" />
    <glyph glyph-name="d" unicode="d" horiz-adv-x="498" 
d="M317 106q-34 -52 -75.5 -84t-81.5 -32q-67 0 -91.5 60.5t3.5 164.5q30 109 101.5 177t152.5 68q46 0 71 -35l40 163q-13 4 -37 11.5t-33 10.5q31 9 92.5 27.5t91.5 27.5l-151 -618l102 45q-93 -102 -156 -102q-54 0 -40 67zM169 205q-31 -153 44 -153q23 0 53.5 22
t58.5 59l52 217q10 41 -3 61.5t-41 20.5q-49 -1 -97 -66t-67 -161z" />
    <glyph glyph-name="e" unicode="e" horiz-adv-x="441" 
d="M327 460q66 0 100 -27.5t29 -75.5q-3 -28 -20 -48t-46 -29.5t-54.5 -14t-60.5 -6.5l-109 -7q-6 -41 -6 -43q-5 -80 30.5 -114.5t92.5 -29.5q44 5 81.5 37t63.5 87q-25 -92 -83 -145.5t-140 -53.5q-89 0 -126 67.5t-12 167.5t97.5 167.5t162.5 67.5zM174 279l84 6
q94 6 101 72q5 36 -10.5 54.5t-40.5 18.5q-42 0 -79 -43.5t-55 -107.5z" />
    <glyph glyph-name="f" unicode="f" horiz-adv-x="346" 
d="M376 423h-100l-86 -410q-22 -102 -75 -162.5t-129 -60.5q-46 0 -72.5 18t-22.5 56q8 61 59 61q25 0 33.5 -17t3.5 -43q-9 -46 17 -46q24 0 40 23.5t25 57.5t23 102q1 7 2 11l86 410h-80l6 27h80l2 10q21 101 76 153t132 52q54 0 77.5 -25t16.5 -62q-5 -21 -21 -35.5
t-35 -14.5q-43 0 -39 52q2 32 -3 43t-21 11q-30 0 -49.5 -45.5t-37.5 -128.5l-2 -10h100z" />
    <glyph glyph-name="g" unicode="g" horiz-adv-x="504" 
d="M169 164q-37 15 -54.5 55t-7.5 88q17 75 76 114t137 39q72 0 112 -30h125l-8 -32h-94q25 -39 12 -99q-18 -71 -76.5 -111.5t-141.5 -40.5q-23 0 -69 12q-38 -16 -38 -37q0 -10 8 -17.5t14.5 -10t23.5 -9.5l127 -48q96 -36 86 -122q-8 -64 -65 -99.5t-156 -35.5
q-88 0 -137.5 29t-47.5 82q4 84 120 114q-29 11 -43.5 25.5t-13.5 39.5q1 26 22 46.5t40.5 29t48.5 18.5zM313 437q-33 0 -61 -32t-40 -84q-17 -53 -6 -101.5t53 -48.5q33 0 60.5 30.5t39.5 82.5q17 53 6.5 103t-52.5 50zM280 -57l-154 58q-43 -37 -48 -90q-3 -48 27.5 -77
t92.5 -29q63 0 96.5 23.5t37.5 55.5q3 39 -52 59z" />
    <glyph glyph-name="h" unicode="h" horiz-adv-x="528" 
d="M322 665l-77 -318q36 44 83 78.5t85 34.5q114 0 74 -164l-61 -249l102 45q-93 -102 -156 -102q-56 0 -40 67l55 226q16 61 10 89t-41 28q-22 0 -57 -24.5t-62 -58.5l-77 -317h-96l144 588l-69 22z" />
    <glyph glyph-name="i" unicode="i" horiz-adv-x="281" 
d="M193 599q5 25 27 43t48 18q25 0 37.5 -17.5t7.5 -43.5q-7 -25 -29 -42t-47 -17t-38 17t-6 42zM78 57l81 326l-70 22l184 55l-101 -413l102 45q-93 -102 -156 -102q-56 0 -40 67z" />
    <glyph glyph-name="j" unicode="j" horiz-adv-x="280" 
d="M111 405l70 -22l-92 -370q-32 -132 -50 -163q-19 -30 -46 -31q-26 0 -14 46q6 25 -2.5 42.5t-33.5 17.5q-26 0 -42 -16.5t-20 -44.5q-4 -38 21.5 -56t71.5 -18q77 0 131.5 59.5t79.5 163.5l110 447zM215 599q5 25 27 43t48 18q25 0 37.5 -17.5t7.5 -43.5q-7 -25 -29 -42
t-47 -17t-38 17t-6 42z" />
    <glyph glyph-name="k" unicode="k" horiz-adv-x="508" 
d="M220 252h6q32 0 56.5 18t59.5 75q17 28 25 39.5t26.5 34t37.5 32t41 9.5t37 -14t11 -40q-2 -23 -17.5 -37.5t-38.5 -14.5q-15 0 -27 10t-17.5 15.5t-18 -6t-33.5 -48.5q-38 -69 -81 -87q25 -3 44 -15t30.5 -26t22.5 -43t16 -49t14 -62q14 8 42 22.5t42 21.5
q-66 -97 -131 -97q-28 0 -40.5 18.5t-20.5 61.5q-7 37 -12 56.5t-14 44.5t-22 36.5t-30 12.5h-14q-9 -37 -27 -110t-27 -110h-96l144 588q-10 3 -22 7l-25.5 8.5t-21.5 6.5q30 9 91 27.5t92 27.5q-17 -69 -51 -206.5t-51 -206.5z" />
    <glyph glyph-name="l" unicode="l" horiz-adv-x="260" 
d="M68 57l131 531l-69 22l183 55l-151 -618l102 45q-93 -102 -156 -102q-56 0 -40 67z" />
    <glyph glyph-name="m" unicode="m" horiz-adv-x="775" 
d="M579 57l55 226q16 61 8.5 89t-41.5 28q-46 0 -113 -83q-2 -15 -4 -21l-72 -296h-96l68 283q16 61 10 89t-39 28q-23 0 -56 -23.5t-62 -59.5l-77 -317h-96l94 383l-69 22l183 55l-27 -113q34 42 80.5 77.5t84.5 35.5q47 0 68 -34t13 -84q35 45 80 81.5t84 36.5
q119 0 79 -164l-61 -249l102 45q-93 -102 -156 -102q-56 0 -40 67z" />
    <glyph glyph-name="n" unicode="n" horiz-adv-x="528" 
d="M272 460l-28 -113q36 43 83.5 78t85.5 35q114 0 74 -164l-61 -249l102 45q-93 -102 -156 -102q-56 0 -40 67l55 226q16 61 10 89t-41 28q-22 0 -56 -24t-63 -59l-77 -317h-96l94 383l-69 22z" />
    <glyph glyph-name="o" unicode="o" horiz-adv-x="474" 
d="M66 225q26 103 98.5 169t165.5 66q89 0 130.5 -66.5t16.5 -168.5q-25 -103 -97.5 -169t-165.5 -66q-89 0 -131 66.5t-17 168.5zM173 210q-11 -94 3 -141t59 -47q53 0 87.5 61t47.5 157q25 187 -62 188q-53 1 -87.5 -60.5t-47.5 -157.5z" />
    <glyph glyph-name="p" unicode="p" horiz-adv-x="491" 
d="M-63 -200l82 45l134 538l-69 22l183 55l-26 -104q79 104 148 104q71 0 99.5 -61.5t2.5 -169.5q-24 -103 -97.5 -171t-154.5 -68q-50 0 -78 35l-46 -180l64 -45h-242zM393 237q15 75 -1 117t-57 42q-44 0 -100 -67l-56 -229q-11 -41 7.5 -60.5t52.5 -18.5q53 2 95 63.5
t59 152.5z" />
    <glyph glyph-name="q" unicode="q" horiz-adv-x="477" 
d="M408 417l92 44l-152 -616l64 -45h-244l84 45l65 261q-78 -115 -158 -115q-63 0 -89 61.5t0 163.5q28 109 101.5 176.5t163.5 67.5q52 0 73 -43zM167 206q-14 -71 -2 -112.5t48 -41.5q23 0 53 22t57 59l55 227q10 35 -3.5 54.5t-41.5 17.5q-52 -1 -101 -68.5t-65 -157.5z
" />
    <glyph glyph-name="r" unicode="r" horiz-adv-x="409" 
d="M160 0h-96l94 383l-69 22l183 55l-28 -112l54 61q25 29 43.5 40t48.5 11q31 0 46.5 -15.5t10.5 -42.5q-4 -25 -21 -40.5t-41 -15.5q-40 0 -36 38q2 29 -16 29q-12 0 -29 -18l-68 -78z" />
    <glyph glyph-name="s" unicode="s" horiz-adv-x="413" 
d="M362 436l57 24l-44 -172q-16 140 -102 140q-39 0 -63.5 -17t-28.5 -47q-5 -27 9 -44t50 -35l54 -27q92 -44 74 -146q-12 -58 -58.5 -90t-109.5 -32q-59 0 -97 31l-69 -31l42 174q25 -142 127 -142q32 0 54.5 16.5t28.5 46.5q7 39 -16 61t-74 43q-54 21 -75.5 53.5
t-12.5 85.5q10 60 55.5 96t110.5 36q57 0 88 -24z" />
    <glyph glyph-name="t" unicode="t" horiz-adv-x="338" 
d="M102 423l207 155l-32 -128h94l-8 -27h-94l-78 -321q-13 -52 24.5 -49.5t88.5 45.5q-80 -108 -153 -108q-83 0 -58 97l81 336h-72z" />
    <glyph glyph-name="u" unicode="u" horiz-adv-x="525" 
d="M86 405l183 55l-72 -293q-11 -44 -13 -68t7 -37.5t32 -13.5q26 0 61 25t63 60l63 250q-12 4 -35 11t-34 11q30 9 91 27.5t92 27.5l-101 -413l103 45q-97 -102 -157 -102q-56 0 -40 67l11 44q-37 -42 -84.5 -76.5t-84.5 -34.5q-115 0 -74 164l58 229z" />
    <glyph glyph-name="v" unicode="v" horiz-adv-x="449" 
d="M203 -15l-84 400l-79 20l168 55l65 -343q93 113 116 176q9 25 -0.5 42.5t-23.5 34.5t-14 36q1 23 18 38.5t40 15.5q39 0 51 -37t-11 -93q-64 -148 -246 -345z" />
    <glyph glyph-name="w" unicode="w" horiz-adv-x="707" 
d="M252 147l211 313l72 -335q87 105 107 169q10 32 -12.5 61.5t-21.5 50.5q1 23 18.5 38.5t40.5 15.5q38 0 51 -36t-12 -92q-39 -84 -95 -162.5t-144 -184.5l-65 325l-217 -325q-12 67 -34.5 200t-33.5 200q-13 4 -39 10t-38 10q19 6 52.5 17t62 20.5t53.5 17.5
q7 -53 22 -156.5t22 -156.5z" />
    <glyph glyph-name="x" unicode="x" horiz-adv-x="504" 
d="M381 341l-50 -68l76 -233l92 53q-22 -30 -38.5 -48.5t-44 -36.5t-54.5 -18q-7 0 -13 1.5t-10.5 3t-9 5.5t-7.5 6.5t-6.5 9t-5.5 10t-5 12t-4.5 12.5t-5 14.5t-4.5 14.5l-31 92l-88 -123q-24 -32 -40.5 -45t-42.5 -13q-24 0 -38.5 15.5t-12.5 38.5q2 24 19.5 39.5
t38.5 15.5q12 0 30.5 -8.5t31.5 -6t29 23.5l64 90l-61 184l-89 23l170 55l52 -160l73 102q23 33 40 45.5t43 12.5q24 0 39 -14.5t12 -38.5q-3 -28 -21 -42t-40 -14q-12 0 -29.5 8t-30.5 6t-28 -24z" />
    <glyph glyph-name="y" unicode="y" horiz-adv-x="444" 
d="M128 -96l80 119l-83 362q-33 8 -79 20q19 6 52.5 17t62 20.5t53.5 17.5l68 -330q69 103 97 164q12 34 4.5 45.5t-21 29.5t-12.5 37q1 24 18 39t41 15q39 0 51 -35t-16 -93q-51 -93 -164 -262l-114 -171q-42 -64 -72 -87t-63 -23q-25 0 -41.5 15.5t-15.5 43.5q2 23 17 38
t37 15q18 0 31.5 -15.5t24.5 -15.5q20 -2 44 34z" />
    <glyph glyph-name="z" unicode="z" horiz-adv-x="424" 
d="M11 -10l332 374h-182l-54 -67l42 153h318l-320 -357q25 7 46 7t59 -10t63 -10q65 0 108 55q-38 -71 -73.5 -108t-86.5 -37q-23 0 -70 10t-72 10q-61 0 -110 -20z" />
    <glyph glyph-name="braceleft" unicode="{" horiz-adv-x="306" 
d="M114 339q42 2 72 31t35 73l18 164q19 170 223 143q-55 -6 -84.5 -35t-37.5 -104l-14 -130q-4 -40 -24.5 -69.5t-50.5 -44t-56 -21t-49 -7.5q18 -1 35.5 -5t38.5 -14t31.5 -25.5t15 -40t-10.5 -57.5l-52 -130q-23 -52 -18.5 -82.5t21 -41.5t51.5 -15q-102 -13 -144.5 20.5
t-8.5 122.5l64 164q17 45 1 73.5t-56 30.5z" />
    <glyph glyph-name="bar" unicode="|" horiz-adv-x="200" 
d="M110 750h40v-950h-40v950z" />
    <glyph glyph-name="braceright" unicode="}" horiz-adv-x="306" 
d="M360 339q-42 -2 -72 -31t-35 -73l-18 -164q-19 -170 -223 -143q54 6 84 35t38 104l14 130q3 39 24 68.5t50.5 44t55.5 21.5t49 8q-18 1 -35.5 5t-38 13.5t-31.5 25.5t-15 40t11 58l52 130q16 39 19 66t-6.5 41.5t-25 21.5t-41.5 10q102 13 144.5 -20.5t8.5 -122.5
l-64 -164q-17 -45 -1 -73.5t56 -30.5z" />
    <glyph glyph-name="asciitilde" unicode="~" horiz-adv-x="490" 
d="M91 285q22 70 65.5 107t94.5 37q58 0 108 -39q24 -19 34.5 -26t30 -14t41.5 -7q73 2 109 77q-19 -69 -67 -107.5t-103 -38.5q-56 0 -103 34q-3 2 -18.5 14.5t-20.5 15.5t-18 10.5t-25 9.5t-26 2q-60 0 -102 -75z" />
    <glyph glyph-name="exclamdown" unicode="&#xa1;" horiz-adv-x="262" 
d="M76 -219q-62 0 -39 93q6 24 22 68.5t38 98.5t40.5 98.5t39 92.5t23.5 56q-23 -343 -41 -414q-22 -93 -83 -93zM285 393q-5 -25 -27 -42.5t-48 -17.5q-25 0 -37.5 17t-7.5 43q7 25 29 42.5t47 17.5t38 -17.5t6 -42.5z" />
    <glyph glyph-name="cent" unicode="&#xa2;" horiz-adv-x="444" 
d="M352 600h40l-35 -140q70 -1 103.5 -32.5t23.5 -76.5q-4 -23 -22 -38.5t-40 -15.5q-23 0 -30.5 16t-3.5 35q9 36 -1.5 58t-36.5 24l-90 -360q22 -3 44 0q38 6 79 35t74 77q-27 -82 -86 -134t-131 -57l-35 -141h-40l36 142q-82 8 -114.5 72.5t-8.5 160.5q22 90 89 154.5
t149 77.5zM172 209q-7 -91 51 -126l85 342q-52 -15 -91.5 -75.5t-44.5 -140.5z" />
    <glyph glyph-name="currency" unicode="&#xa4;" horiz-adv-x="530" 
d="M121 170l90 72q-18 37 -6 83q11 47 47 83l-54 72l38 31l54 -73q44 28 91 28q46 0 76 -27l90 72l22 -31l-89 -71q18 -36 7 -84q-12 -45 -49 -84l54 -71l-38 -31l-54 72q-44 -27 -90 -27q-47 0 -77 27l-90 -72zM248 325q-10 -40 11 -69t62 -29q40 0 76 28.5t47 69.5
q10 41 -12 69.5t-62 28.5q-41 0 -76.5 -29t-45.5 -69z" />
    <glyph glyph-name="yen" unicode="&#xa5;" horiz-adv-x="682" 
d="M210 234q2 6 4.5 16.5t3.5 15.5h143q4 9 5 16q-15 37 -127 320q-23 16 -67 48h266q-12 -7 -37.5 -21t-38.5 -21q8 -21 47 -116.5t59 -146.5q36 42 107 126t107 126q-18 17 -54 53h209q-19 -10 -55.5 -29.5t-54.5 -28.5q-40 -48 -121.5 -144.5t-122.5 -144.5
q-7 -28 -10 -37h143q-1 -6 -3.5 -16.5t-4.5 -15.5h-143q-3 -10 -7.5 -29t-6.5 -29h143q-2 -5 -4.5 -16t-3.5 -16h-143q-7 -31 -23 -93l72 -51h-280l96 51q16 62 23 93h-143q2 5 4.5 16t3.5 16h143q2 10 7 29t7 29h-143z" />
    <glyph glyph-name="brokenbar" unicode="&#xa6;" horiz-adv-x="200" 
d="M109 195h40v-405h-40v405zM109 665h40v-405h-40v405z" />
    <glyph glyph-name="section" unicode="&#xa7;" horiz-adv-x="402" 
d="M436 509q-25 0 -33.5 16t-3.5 35q14 38 4.5 56.5t-61.5 18.5q-38 0 -68.5 -16.5t-38.5 -46.5q-8 -32 4.5 -45.5t50.5 -26.5l89 -32q91 -33 67 -128q-7 -29 -29.5 -56t-54.5 -42q58 -38 37 -120q-14 -58 -71 -95t-133 -37q-79 0 -114.5 31.5t-23.5 77.5q6 22 24.5 36
t38.5 14q24 0 32 -15.5t3 -35.5q-14 -38 -2.5 -58t66.5 -20q39 0 72 16.5t41 46.5q8 32 -6.5 49.5t-51.5 30.5l-89 31q-91 33 -67 129q7 28 29 55.5t55 42.5q-29 19 -37 44.5t3 67.5q14 58 66 95t121 37q84 0 119 -30t23 -76q-5 -22 -23 -36t-38 -14zM320 263q32 -15 40 -20
l11 46q5 21 0.5 37t-20.5 27.5t-29.5 17.5t-40 15.5t-37.5 13.5q-21 8 -40 20l-11 -46q-5 -21 -0.5 -37t20.5 -27.5t29.5 -17.5t40 -15.5t37.5 -13.5z" />
    <glyph glyph-name="copyright" unicode="&#xa9;" horiz-adv-x="560" 
d="M75 225q0 97 68.5 166t166.5 69t166.5 -69t68.5 -166t-68.5 -166t-166.5 -69t-166.5 69t-68.5 166zM105 225q0 -85 60 -145t145 -60t145 60t60 145t-60 145t-145 60t-145 -60t-60 -145zM232 214q10 -54 44.5 -79t72.5 -19q58 11 86 79q-3 -61 -38 -98t-89 -37
q-65 0 -103.5 47t-38.5 118q0 68 43.5 116t105.5 48q51 0 81 -23t30 -55q0 -18 -10.5 -27.5t-24.5 -9.5q-16 0 -24.5 11t-8.5 27q0 31 -14.5 45.5t-41.5 10.5q-37 -6 -59 -51t-11 -103z" />
    <glyph glyph-name="guillemotleft" unicode="&#xab;" horiz-adv-x="424" 
d="M195 236l68 -180l-175 180l265 180zM359 236l48 -180l-156 180l246 180z" />
    <glyph glyph-name="uni00AD" unicode="&#xad;" horiz-adv-x="490" 
d="M144 320l8 32h360l-8 -32h-360z" />
    <glyph glyph-name="registered" unicode="&#xae;" horiz-adv-x="560" 
d="M75 225q0 97 68.5 166t166.5 69t166.5 -69t68.5 -166t-68.5 -166t-166.5 -69t-166.5 69t-68.5 166zM314 377q111 0 111 -80q0 -36 -24.5 -57t-67.5 -25q42 -5 71 -48l43 -66l16 -12q52 57 52 136q0 85 -60 145t-145 60q-79 0 -138 -53h142zM105 225q0 -90 65 -150l43 26
v246l-44 26q-64 -59 -64 -148zM310 20q78 0 135 51h-51l-58 101q-22 38 -58 38h-5v-109l49 -30h-147q57 -51 135 -51zM273 360v-133h24q25 0 43 18t18 52t-18 48.5t-44 14.5h-23z" />
    <glyph glyph-name="degree" unicode="&#xb0;" horiz-adv-x="305" 
d="M180 562q0 43 29.5 73t72.5 30t73 -30t30 -73t-30 -72.5t-73 -29.5t-72.5 29.5t-29.5 72.5zM209 562q0 -30 21.5 -51.5t51.5 -21.5t52 21.5t22 51.5t-22 52t-52 22t-51.5 -22t-21.5 -52z" />
    <glyph glyph-name="plusminus" unicode="&#xb1;" horiz-adv-x="490" 
d="M115 360v32h163v163h32v-163h164v-32h-164v-144h-32v144h-163zM115 150v32h359v-32h-359z" />
    <glyph glyph-name="paragraph" unicode="&#xb6;" horiz-adv-x="522" 
d="M647 623h-65l-205 -823h-36l205 823h-91l-205 -823h-35l120 481q-105 -2 -159 43.5t-30 142.5q22 89 93 136t173 47h242z" />
    <glyph glyph-name="periodcentered" unicode="&#xb7;" horiz-adv-x="214" 
d="M130 335q7 25 28.5 42.5t46.5 17.5q26 0 39 -17.5t6 -42.5q-6 -25 -28 -42.5t-47 -17.5t-38 17.5t-7 42.5z" />
    <glyph glyph-name="guillemotright" unicode="&#xbb;" horiz-adv-x="424" 
d="M187 56l158 180l-68 180l175 -180zM43 56l138 180l-48 180l156 -180z" />
    <glyph glyph-name="questiondown" unicode="&#xbf;" horiz-adv-x="454" 
d="M326 271q-17 -38 -52 -73t-72.5 -62.5t-74.5 -55.5t-66 -64.5t-39 -78.5q-18 -73 24 -115t129 -42q69 0 134.5 38t82.5 106q9 36 -3.5 54t-36.5 18q-23 0 -42 -17t-23 -43q-3 -20 11 -38.5t11 -29.5q-6 -25 -35.5 -43t-68.5 -18q-49 0 -70.5 36.5t-6.5 97.5
q12 48 39.5 89.5t55 68t57.5 72.5t46 100zM399 392q-6 -25 -28 -43t-47 -18t-38 17.5t-7 43.5q6 25 28 42t47 17t38 -17t7 -42z" />
    <glyph glyph-name="Agrave" unicode="&#xc0;" 
d="M-10 0l105 61l396 604l105 -615l67 -50h-261l77 45l-21 130h-246l-80 -120l65 -55h-207zM405 471l-171 -261h216zM521 701l-152 189h118z" />
    <glyph glyph-name="Aacute" unicode="&#xc1;" 
d="M-10 0l105 61l396 604l105 -615l67 -50h-261l77 45l-21 130h-246l-80 -120l65 -55h-207zM405 471l-171 -261h216zM461 701l48 189h124z" />
    <glyph glyph-name="Acircumflex" unicode="&#xc2;" 
d="M-10 0l105 61l396 604l105 -615l67 -50h-261l77 45l-21 130h-246l-80 -120l65 -55h-207zM405 471l-171 -261h216zM506 770l-161 -77l184 172l100 -172z" />
    <glyph glyph-name="Atilde" unicode="&#xc3;" 
d="M-10 0l105 61l396 604l105 -615l67 -50h-261l77 45l-21 130h-246l-80 -120l65 -55h-207zM405 471l-171 -261h216zM342 719q4 67 34.5 101t66.5 40q46 8 93 -21q51 -33 88 -28q20 3 40 20.5t29 53.5q-2 -68 -34 -105.5t-73 -43.5q-50 -8 -96 18q-51 32 -88 32
q-39 0 -60 -67z" />
    <glyph glyph-name="Adieresis" unicode="&#xc4;" 
d="M-10 0l105 61l396 604l105 -615l67 -50h-261l77 45l-21 130h-246l-80 -120l65 -55h-207zM405 471l-171 -261h216zM347 787q6 26 28 43.5t47 17.5t38 -17.5t7 -43.5q-7 -25 -29 -42t-47 -17t-38 17t-6 42zM553 787q6 26 28 43.5t47 17.5t38 -17.5t7 -43.5q-7 -25 -29 -42
t-47 -17t-38 17t-6 42z" />
    <glyph glyph-name="Aring" unicode="&#xc5;" 
d="M-10 0l105 61l396 604l105 -615l67 -50h-261l77 45l-21 130h-246l-80 -120l65 -55h-207zM405 471l-171 -261h216zM442 783q8 34 37.5 58t64.5 24q34 0 52 -23.5t10 -58.5q-9 -35 -39 -58.5t-64 -23.5q-35 0 -52.5 24t-8.5 58zM476 783q-5 -19 5.5 -33.5t29.5 -14.5
q20 0 38 14.5t22 33.5q5 20 -6 34t-30 14t-36.5 -14t-22.5 -34z" />
    <glyph glyph-name="AE" unicode="&#xc6;" horiz-adv-x="922" 
d="M-30 0l106 61l486 548l-73 41h544l-55 -220l-58 185h-218l-65 -260h114l101 103l-60 -240l-49 102h-115l-71 -285h227l156 185l-54 -220h-533l96 51l37 149h-246l-126 -145l63 -55h-207zM271 235h224l89 355z" />
    <glyph glyph-name="Ccedilla" unicode="&#xc7;" horiz-adv-x="620" 
d="M312 -134q1 20 -11.5 28.5t-28.5 8.5q-26 0 -50 -10l94 98q-127 7 -183.5 101.5t-21.5 234.5q37 145 144.5 241.5t243.5 96.5q88 0 134 -45q31 15 91 45l-61 -245q-15 104 -48 158t-107 54q-93 0 -164 -83t-105 -219q-29 -117 7.5 -193t124.5 -82q80 -8 148 39.5
t110 132.5q-33 -103 -111.5 -168t-173.5 -69q-23 -20 -47 -46q33 0 47 -22.5t5 -59.5q-8 -35 -36 -58.5t-60 -23.5q-25 0 -37.5 11t-8.5 27q2 9 9 16t16 7q11 0 14 -7.5t1 -16t2 -14.5t17 -4q17 2 31 21t15 46z" />
    <glyph glyph-name="Egrave" unicode="&#xc8;" horiz-adv-x="596" 
d="M27 0l95 51l136 548l-73 51h518l-54 -220l-58 185h-218l-64 -260h114l101 103l-60 -240l-48 102h-115l-70 -285h227l156 185l-54 -220h-533zM528 701l-152 189h118z" />
    <glyph glyph-name="Eacute" unicode="&#xc9;" horiz-adv-x="596" 
d="M27 0l95 51l136 548l-73 51h518l-54 -220l-58 185h-218l-64 -260h114l101 103l-60 -240l-48 102h-115l-70 -285h227l156 185l-54 -220h-533zM451 701l48 189h124z" />
    <glyph glyph-name="Ecircumflex" unicode="&#xca;" horiz-adv-x="596" 
d="M27 0l95 51l136 548l-73 51h518l-54 -220l-58 185h-218l-64 -260h114l101 103l-60 -240l-48 102h-115l-70 -285h227l156 185l-54 -220h-533zM517 770l-187 -70l210 165l128 -165z" />
    <glyph glyph-name="Edieresis" unicode="&#xcb;" horiz-adv-x="596" 
d="M27 0l95 51l136 548l-73 51h518l-54 -220l-58 185h-218l-64 -260h114l101 103l-60 -240l-48 102h-115l-70 -285h227l156 185l-54 -220h-533zM324 787q6 26 28 43.5t47 17.5t38 -17.5t7 -43.5q-7 -25 -29 -42t-47 -17t-38 17t-6 42zM530 787q6 26 28 43.5t47 17.5
t38 -17.5t7 -43.5q-7 -25 -29 -42t-47 -17t-38 17t-6 42z" />
    <glyph glyph-name="Igrave" unicode="&#xcc;" horiz-adv-x="334" 
d="M465 650l-95 -51l-136 -548l73 -51h-280l95 51l136 548l-73 51h280zM380 701l-152 189h118z" />
    <glyph glyph-name="Iacute" unicode="&#xcd;" horiz-adv-x="334" 
d="M465 650l-95 -51l-136 -548l73 -51h-280l95 51l136 548l-73 51h280zM311 701l48 189h124z" />
    <glyph glyph-name="Icircumflex" unicode="&#xce;" horiz-adv-x="334" 
d="M465 650l-95 -51l-136 -548l73 -51h-280l95 51l136 548l-73 51h280zM359 770l-161 -77l184 172l100 -172z" />
    <glyph glyph-name="Idieresis" unicode="&#xcf;" horiz-adv-x="334" 
d="M465 650l-95 -51l-136 -548l73 -51h-280l95 51l136 548l-73 51h280zM220 799q5 25 27 43t48 18q25 0 37.5 -17.5t7.5 -43.5q-7 -25 -29 -42t-47 -17t-38 17t-6 42zM386 799q5 25 27 43t48 18q25 0 37.5 -17.5t7.5 -43.5q-7 -25 -29 -42t-47 -17t-38 17t-6 42z" />
    <glyph glyph-name="Eth" unicode="&#xd0;" horiz-adv-x="669" 
d="M57 310l8 32h141l64 257l-71 51h292q140 0 202.5 -89t26.5 -234q-37 -146 -144 -236.5t-247 -90.5h-292l96 51l65 259h-141zM473 615h-87l-68 -273h137l-8 -32h-137l-69 -275h87q93 0 160.5 76.5t102.5 215.5q35 137 5.5 212.5t-123.5 75.5z" />
    <glyph glyph-name="Ntilde" unicode="&#xd1;" horiz-adv-x="712" 
d="M180 63l86 -63h-239l104 63l128 515l-74 72h176l238 -431l91 368l-76 63h229l-104 -63l-148 -602l-297 538zM385 719q4 67 34.5 101t66.5 40q46 8 93 -21q51 -33 88 -28q20 3 40 20.5t29 53.5q-2 -68 -34 -105.5t-73 -43.5q-50 -8 -96 18q-51 32 -88 32q-39 0 -60 -67z
" />
    <glyph glyph-name="Ograve" unicode="&#xd2;" horiz-adv-x="669" 
d="M110 327q36 144 145 241t241 97q133 0 196 -97t27 -241t-146 -240.5t-243 -96.5q-132 0 -194 96.5t-26 240.5zM240 327q-36 -134 -11.5 -219.5t110.5 -85.5t151.5 83t99.5 222q36 134 10.5 220t-111.5 86t-150.5 -83t-98.5 -223zM555 701l-152 189h118z" />
    <glyph glyph-name="Oacute" unicode="&#xd3;" horiz-adv-x="669" 
d="M110 327q36 144 145 241t241 97q133 0 196 -97t27 -241t-146 -240.5t-243 -96.5q-132 0 -194 96.5t-26 240.5zM240 327q-36 -134 -11.5 -219.5t110.5 -85.5t151.5 83t99.5 222q36 134 10.5 220t-111.5 86t-150.5 -83t-98.5 -223zM501 701l48 189h124z" />
    <glyph glyph-name="Ocircumflex" unicode="&#xd4;" horiz-adv-x="669" 
d="M110 327q36 144 145 241t241 97q133 0 196 -97t27 -241t-146 -240.5t-243 -96.5q-132 0 -194 96.5t-26 240.5zM240 327q-36 -134 -11.5 -219.5t110.5 -85.5t151.5 83t99.5 222q36 134 10.5 220t-111.5 86t-150.5 -83t-98.5 -223zM521 770l-187 -70l210 165l128 -165z" />
    <glyph glyph-name="Otilde" unicode="&#xd5;" horiz-adv-x="669" 
d="M110 327q36 144 145 241t241 97q133 0 196 -97t27 -241t-146 -240.5t-243 -96.5q-132 0 -194 96.5t-26 240.5zM240 327q-36 -134 -11.5 -219.5t110.5 -85.5t151.5 83t99.5 222q36 134 10.5 220t-111.5 86t-150.5 -83t-98.5 -223zM372 719q4 67 34.5 101t66.5 40
q46 8 93 -21q51 -33 88 -28q20 3 40 20.5t29 53.5q-2 -68 -34 -105.5t-73 -43.5q-50 -8 -96 18q-51 32 -88 32q-39 0 -60 -67z" />
    <glyph glyph-name="Odieresis" unicode="&#xd6;" horiz-adv-x="669" 
d="M110 327q36 144 145 241t241 97q133 0 196 -97t27 -241t-146 -240.5t-243 -96.5q-132 0 -194 96.5t-26 240.5zM240 327q-36 -134 -11.5 -219.5t110.5 -85.5t151.5 83t99.5 222q36 134 10.5 220t-111.5 86t-150.5 -83t-98.5 -223zM381 787q6 26 28 43.5t47 17.5t38 -17.5
t7 -43.5q-7 -25 -29 -42t-47 -17t-38 17t-6 42zM587 787q6 26 28 43.5t47 17.5t38 -17.5t7 -43.5q-7 -25 -29 -42t-47 -17t-38 17t-6 42z" />
    <glyph glyph-name="multiply" unicode="&#xd7;" horiz-adv-x="530" 
d="M155 467l28 28l132 -132l132 132l28 -28l-132 -132l142 -142l-28 -28l-142 142l-142 -142l-28 28l142 142z" />
    <glyph glyph-name="Oslash" unicode="&#xd8;" horiz-adv-x="669" 
d="M680 685l30 -20l-49 -61q48 -46 63.5 -118t-5.5 -159q-36 -144 -146 -240.5t-243 -96.5q-78 0 -134 36l-45 -56l-30 20l47 58q-49 46 -64.5 118t6.5 161q36 144 145 241t241 97q79 0 137 -39zM240 327q-31 -127 -12 -205l361 450q-28 61 -100 61q-86 0 -150.5 -83
t-98.5 -223zM590 327q30 126 12 203l-362 -449q30 -59 99 -59q86 0 151.5 83t99.5 222z" />
    <glyph glyph-name="Ugrave" unicode="&#xd9;" horiz-adv-x="720" 
d="M255 599l-73 51h280l-95 -51l-83 -336q-8 -35 -12 -62t-2 -58t14 -51.5t39 -34t68 -13.5q51 0 92.5 19.5t68 52.5t42.5 66.5t25 71.5l82 333l-76 63h229l-104 -63l-82 -328q-12 -48 -33 -91.5t-56 -85.5t-89.5 -67t-121.5 -25q-61 0 -104.5 15.5t-66 40.5t-32.5 60.5
t-8 71t12 76.5zM561 701l-152 189h118z" />
    <glyph glyph-name="Uacute" unicode="&#xda;" horiz-adv-x="720" 
d="M255 599l-73 51h280l-95 -51l-83 -336q-8 -35 -12 -62t-2 -58t14 -51.5t39 -34t68 -13.5q51 0 92.5 19.5t68 52.5t42.5 66.5t25 71.5l82 333l-76 63h229l-104 -63l-82 -328q-12 -48 -33 -91.5t-56 -85.5t-89.5 -67t-121.5 -25q-61 0 -104.5 15.5t-66 40.5t-32.5 60.5
t-8 71t12 76.5zM518 701l48 189h124z" />
    <glyph glyph-name="Ucircumflex" unicode="&#xdb;" horiz-adv-x="720" 
d="M255 599l-73 51h280l-95 -51l-83 -336q-8 -35 -12 -62t-2 -58t14 -51.5t39 -34t68 -13.5q51 0 92.5 19.5t68 52.5t42.5 66.5t25 71.5l82 333l-76 63h229l-104 -63l-82 -328q-12 -48 -33 -91.5t-56 -85.5t-89.5 -67t-121.5 -25q-61 0 -104.5 15.5t-66 40.5t-32.5 60.5
t-8 71t12 76.5zM545 770l-187 -70l210 165l128 -165z" />
    <glyph glyph-name="Udieresis" unicode="&#xdc;" horiz-adv-x="720" 
d="M182 650l73 -51l-86 -345q-10 -41 -12 -76.5t8 -71t32.5 -60.5t66 -40.5t104.5 -15.5q67 0 121.5 25t89.5 67t56 85.5t33 91.5l82 328l104 63h-229l76 -63l-82 -333q-9 -38 -25 -71.5t-42.5 -66.5t-68 -52.5t-92.5 -19.5q-41 0 -68 13.5t-39 34t-14 51.5t2 58t12 62
l83 336l95 51h-280zM401 787q6 26 28 43.5t47 17.5t38 -17.5t7 -43.5q-7 -25 -29 -42t-47 -17t-38 17t-6 42zM607 787q6 26 28 43.5t47 17.5t38 -17.5t7 -43.5q-7 -25 -29 -42t-47 -17t-38 17t-6 42z" />
    <glyph glyph-name="Yacute" unicode="&#xdd;" horiz-adv-x="682" 
d="M434 650l-74 -42l106 -263l213 252l-55 53h209l-109 -58l-242 -289l-63 -252l73 -51h-280l95 51l57 231l-128 320l-68 48h266zM507 701l48 189h124z" />
    <glyph glyph-name="Thorn" unicode="&#xde;" horiz-adv-x="570" 
d="M469 650l-97 -51l-12 -49h76q110 0 164 -58.5t28 -161.5t-109 -161.5t-193 -58.5h-76l-15 -59l72 -51h-280l96 51l137 548l-71 51h280zM352 520l-95 -380h51q66 0 119.5 48t77.5 142q23 94 -6.5 142t-95.5 48h-51z" />
    <glyph glyph-name="germandbls" unicode="&#xdf;" horiz-adv-x="567" 
d="M321 21l-70 -31l43 174q14 -78 38 -110t71 -32q28 0 51.5 24t25.5 55q3 32 -17.5 50t-66.5 38q-50 22 -63 52t-2 77q8 32 31.5 58.5t52.5 45.5t58 36.5t52 40t29 48.5q10 38 -13 62t-79 24q-60 0 -102 -45.5t-63 -127.5l-114 -460h-97l113 454q26 102 104.5 156.5
t165.5 54.5q77 0 105.5 -36t15.5 -83q-8 -32 -37.5 -60.5t-59.5 -46.5t-57.5 -41.5t-32.5 -45.5q-8 -31 7 -45t87 -52q89 -47 68 -130q-15 -63 -63.5 -99t-107.5 -36q-44 0 -73 31z" />
    <glyph glyph-name="agrave" unicode="&#xe0;" horiz-adv-x="499" 
d="M315 106q-79 -116 -155 -116q-67 0 -91.5 61t3.5 165q32 114 106.5 179t154.5 65q56 0 73 -43l92 43q-76 -309 -101 -413l102 45q-95 -102 -156 -102q-54 0 -40 67q10 40 12 49zM170 206q-34 -154 41 -154q22 1 53 23t57 58l57 234q5 26 -5 45t-40 19q-48 0 -94.5 -62.5
t-68.5 -162.5zM393 501l-152 189h118z" />
    <glyph glyph-name="aacute" unicode="&#xe1;" horiz-adv-x="499" 
d="M315 106q-79 -116 -155 -116q-67 0 -91.5 61t3.5 165q32 114 106.5 179t154.5 65q56 0 73 -43l92 43q-76 -309 -101 -413l102 45q-95 -102 -156 -102q-54 0 -40 67q10 40 12 49zM170 206q-34 -154 41 -154q22 1 53 23t57 58l57 234q5 26 -5 45t-40 19q-48 0 -94.5 -62.5
t-68.5 -162.5zM324 501l48 189h124z" />
    <glyph glyph-name="acircumflex" unicode="&#xe2;" horiz-adv-x="499" 
d="M315 106q-79 -116 -155 -116q-67 0 -91.5 61t3.5 165q32 114 106.5 179t154.5 65q56 0 73 -43l92 43q-76 -309 -101 -413l102 45q-95 -102 -156 -102q-54 0 -40 67q10 40 12 49zM170 206q-34 -154 41 -154q22 1 53 23t57 58l57 234q5 26 -5 45t-40 19q-48 0 -94.5 -62.5
t-68.5 -162.5zM362 580l-152 -80l173 165l91 -165z" />
    <glyph glyph-name="atilde" unicode="&#xe3;" horiz-adv-x="499" 
d="M315 106q-79 -116 -155 -116q-67 0 -91.5 61t3.5 165q32 114 106.5 179t154.5 65q56 0 73 -43l92 43q-76 -309 -101 -413l102 45q-95 -102 -156 -102q-54 0 -40 67q10 40 12 49zM170 206q-34 -154 41 -154q22 1 53 23t57 58l57 234q5 26 -5 45t-40 19q-48 0 -94.5 -62.5
t-68.5 -162.5zM208 514q4 66 33.5 98t63.5 37q25 4 41.5 -1t41.5 -20q31 -20 44.5 -25.5t32.5 -2.5q51 7 67 74q-2 -67 -32.5 -102t-69.5 -41q-47 -6 -87 19q-3 2 -10 6t-9.5 5.5t-8.5 5t-8.5 4.5l-7.5 3t-8 3t-7.5 2t-8.5 1.5t-9 0.5q-37 0 -58 -67z" />
    <glyph glyph-name="adieresis" unicode="&#xe4;" horiz-adv-x="499" 
d="M315 106q-79 -116 -155 -116q-67 0 -91.5 61t3.5 165q32 114 106.5 179t154.5 65q56 0 73 -43l92 43q-76 -309 -101 -413l102 45q-95 -102 -156 -102q-54 0 -40 67q10 40 12 49zM170 206q-34 -154 41 -154q22 1 53 23t57 58l57 234q5 26 -5 45t-40 19q-48 0 -94.5 -62.5
t-68.5 -162.5zM224 599q6 26 28 43.5t47 17.5t38 -17.5t7 -43.5q-7 -25 -29 -42t-47 -17t-38 17t-6 42zM400 599q6 26 28 43.5t47 17.5t38 -17.5t7 -43.5q-7 -25 -29 -42t-47 -17t-38 17t-6 42z" />
    <glyph glyph-name="aring" unicode="&#xe5;" horiz-adv-x="499" 
d="M315 106q-79 -116 -155 -116q-67 0 -91.5 61t3.5 165q32 114 106.5 179t154.5 65q56 0 73 -43l92 43q-76 -309 -101 -413l102 45q-95 -102 -156 -102q-54 0 -40 67q10 40 12 49zM170 206q-34 -154 41 -154q22 1 53 23t57 58l57 234q5 26 -5 45t-40 19q-48 0 -94.5 -62.5
t-68.5 -162.5zM286 583q8 34 37.5 58t64.5 24q34 0 52 -23.5t10 -58.5q-9 -35 -39 -58.5t-64 -23.5q-35 0 -52.5 24t-8.5 58zM320 583q-5 -19 5.5 -33.5t30.5 -14.5q19 0 37 14.5t23 33.5q4 19 -6.5 33.5t-30.5 14.5q-19 0 -36.5 -14t-22.5 -34z" />
    <glyph glyph-name="ae" unicode="&#xe6;" horiz-adv-x="699" 
d="M585 460q66 0 100.5 -27.5t28.5 -75.5q-3 -28 -20 -48t-45.5 -29.5t-54 -14t-60.5 -6.5l-110 -7q-6 -41 -6 -43q-5 -80 31 -114.5t93 -29.5q90 9 144 124q-25 -92 -83 -145.5t-140 -53.5q-102 0 -134 86q-100 -86 -184 -86q-58 0 -84 35t-12 87q6 26 22 47t33 35t50 29.5
t55 23.5t67.5 23.5t68.5 23.5l5 17q16 67 8 93.5t-46 26.5q-75 0 -95 -83q-5 -24 -21 -37.5t-37 -13.5t-29 14t-3 37q13 47 75 79.5t126 32.5q88 0 107 -58q69 58 150 58zM202 48q55 0 120 49q-15 55 3 128q2 11 13 41q-98 -36 -139 -61.5t-52 -65.5q-10 -37 4.5 -64
t50.5 -27zM432 279l84 6q94 6 101 72q5 36 -10.5 54.5t-40.5 18.5q-42 0 -79 -43.5t-55 -107.5z" />
    <glyph glyph-name="ccedilla" unicode="&#xe7;" horiz-adv-x="432" 
d="M199 -134q1 20 -11 28.5t-28 8.5q-27 0 -51 -10l92 97q-85 4 -121.5 70t-12.5 165q25 101 97.5 168t162.5 67q65 0 97 -31.5t22 -77.5q-4 -23 -22.5 -38.5t-40.5 -15.5q-23 0 -30 15.5t-3 35.5q11 44 2.5 63t-41.5 19q-54 0 -99 -66t-51 -155q-4 -82 30 -115.5t90 -28.5
q43 5 82 37.5t64 86.5q-25 -89 -77 -140t-122 -58l-44 -47q34 0 48 -22.5t5 -59.5q-9 -35 -36.5 -58.5t-59.5 -23.5q-25 0 -37.5 11t-9.5 27q6 23 26 23q11 0 13.5 -7.5t0.5 -16t2 -14.5t17 -4q17 2 31 21t15 46z" />
    <glyph glyph-name="egrave" unicode="&#xe8;" horiz-adv-x="441" 
d="M327 460q66 0 100 -27.5t29 -75.5q-3 -28 -20 -48t-46 -29.5t-54.5 -14t-60.5 -6.5l-109 -7q-6 -41 -6 -43q-5 -80 30.5 -114.5t92.5 -29.5q44 5 81.5 37t63.5 87q-25 -92 -83 -145.5t-140 -53.5q-89 0 -126 67.5t-12 167.5t97.5 167.5t162.5 67.5zM174 279l84 6
q94 6 101 72q5 36 -10.5 54.5t-40.5 18.5q-42 0 -79 -43.5t-55 -107.5zM370 501l-152 189h118z" />
    <glyph glyph-name="eacute" unicode="&#xe9;" horiz-adv-x="441" 
d="M327 460q66 0 100 -27.5t29 -75.5q-3 -28 -20 -48t-46 -29.5t-54.5 -14t-60.5 -6.5l-109 -7q-6 -41 -6 -43q-5 -80 30.5 -114.5t92.5 -29.5q44 5 81.5 37t63.5 87q-25 -92 -83 -145.5t-140 -53.5q-89 0 -126 67.5t-12 167.5t97.5 167.5t162.5 67.5zM174 279l84 6
q94 6 101 72q5 36 -10.5 54.5t-40.5 18.5q-42 0 -79 -43.5t-55 -107.5zM288 501l48 189h124z" />
    <glyph glyph-name="ecircumflex" unicode="&#xea;" horiz-adv-x="441" 
d="M327 460q66 0 100 -27.5t29 -75.5q-3 -28 -20 -48t-46 -29.5t-54.5 -14t-60.5 -6.5l-109 -7q-6 -41 -6 -43q-5 -80 30.5 -114.5t92.5 -29.5q44 5 81.5 37t63.5 87q-25 -92 -83 -145.5t-140 -53.5q-89 0 -126 67.5t-12 167.5t97.5 167.5t162.5 67.5zM174 279l84 6
q94 6 101 72q5 36 -10.5 54.5t-40.5 18.5q-42 0 -79 -43.5t-55 -107.5zM345 580l-152 -80l173 165l91 -165z" />
    <glyph glyph-name="edieresis" unicode="&#xeb;" horiz-adv-x="441" 
d="M327 460q66 0 100 -27.5t29 -75.5q-3 -28 -20 -48t-46 -29.5t-54.5 -14t-60.5 -6.5l-109 -7q-6 -41 -6 -43q-5 -80 30.5 -114.5t92.5 -29.5q44 5 81.5 37t63.5 87q-25 -92 -83 -145.5t-140 -53.5q-89 0 -126 67.5t-12 167.5t97.5 167.5t162.5 67.5zM174 279l84 6
q94 6 101 72q5 36 -10.5 54.5t-40.5 18.5q-42 0 -79 -43.5t-55 -107.5zM197 599q6 26 28 43.5t47 17.5t38 -17.5t7 -43.5q-7 -25 -29 -42t-47 -17t-38 17t-6 42zM373 599q6 26 28 43.5t47 17.5t38 -17.5t7 -43.5q-7 -25 -29 -42t-47 -17t-38 17t-6 42z" />
    <glyph glyph-name="igrave" unicode="&#xec;" horiz-adv-x="281" 
d="M78 57l81 326l-70 22l184 55l-101 -413l102 45q-93 -102 -156 -102q-56 0 -40 67zM267 501l-152 189h118z" />
    <glyph glyph-name="iacute" unicode="&#xed;" horiz-adv-x="281" 
d="M78 57l81 326l-70 22l184 55l-101 -413l102 45q-93 -102 -156 -102q-56 0 -40 67zM201 501l48 189h124z" />
    <glyph glyph-name="icircumflex" unicode="&#xee;" horiz-adv-x="281" 
d="M78 57l81 326l-70 22l184 55l-101 -413l102 45q-93 -102 -156 -102q-56 0 -40 67zM252 580l-152 -80l173 165l91 -165z" />
    <glyph glyph-name="idieresis" unicode="&#xef;" horiz-adv-x="281" 
d="M103 599q5 25 27 43t48 18q25 0 37.5 -17.5t7.5 -43.5q-7 -25 -29 -42t-47 -17t-38 17t-6 42zM78 57l81 326l-70 22l184 55l-101 -413l102 45q-93 -102 -156 -102q-56 0 -40 67zM269 599q5 25 27 43t48 18q25 0 37.5 -17.5t7.5 -43.5q-7 -25 -29 -42t-47 -17t-38 17
t-6 42z" />
    <glyph glyph-name="eth" unicode="&#xf0;" horiz-adv-x="480" 
d="M257 505l-16 27l101 58q-63 78 -174 60q45 15 94 15q72 0 130 -47l101 59l16 -27l-94 -54q49 -54 68 -137.5t0 -180.5q-25 -131 -97 -209.5t-176 -78.5q-88 0 -129.5 70t-18.5 175q21 102 90.5 163.5t145.5 61.5q35 0 59.5 -17.5t33.5 -42.5q4 98 -32 163zM170 210
q-10 -95 3 -141.5t59 -46.5q54 0 88.5 61t46.5 157q12 89 -4.5 138t-57.5 50q-49 1 -85.5 -62t-49.5 -156z" />
    <glyph glyph-name="ntilde" unicode="&#xf1;" horiz-adv-x="528" 
d="M272 460l-28 -113q36 43 83.5 78t85.5 35q114 0 74 -164l-61 -249l102 45q-93 -102 -156 -102q-56 0 -40 67l55 226q16 61 10 89t-41 28q-22 0 -56 -24t-63 -59l-77 -317h-96l94 383l-69 22zM205 514q4 66 33.5 98t63.5 37q25 4 41.5 -1t41.5 -20q31 -20 44.5 -25.5
t32.5 -2.5q51 7 67 74q-2 -67 -32.5 -102t-69.5 -41q-47 -6 -87 19q-3 2 -10 6t-9.5 5.5t-8.5 5t-8.5 4.5l-7.5 3t-8 3t-7.5 2t-8.5 1.5t-9 0.5q-37 0 -58 -67z" />
    <glyph glyph-name="ograve" unicode="&#xf2;" horiz-adv-x="474" 
d="M66 225q26 103 98.5 169t165.5 66q89 0 130.5 -66.5t16.5 -168.5q-25 -103 -97.5 -169t-165.5 -66q-89 0 -131 66.5t-17 168.5zM173 210q-11 -94 3 -141t59 -47q53 0 87.5 61t47.5 157q25 187 -62 188q-53 1 -87.5 -60.5t-47.5 -157.5zM360 501l-152 189h118z" />
    <glyph glyph-name="oacute" unicode="&#xf3;" horiz-adv-x="474" 
d="M66 225q26 103 98.5 169t165.5 66q89 0 130.5 -66.5t16.5 -168.5q-25 -103 -97.5 -169t-165.5 -66q-89 0 -131 66.5t-17 168.5zM173 210q-11 -94 3 -141t59 -47q53 0 87.5 61t47.5 157q25 187 -62 188q-53 1 -87.5 -60.5t-47.5 -157.5zM291 501l48 189h124z" />
    <glyph glyph-name="ocircumflex" unicode="&#xf4;" horiz-adv-x="474" 
d="M66 225q26 103 98.5 169t165.5 66q89 0 130.5 -66.5t16.5 -168.5q-25 -103 -97.5 -169t-165.5 -66q-89 0 -131 66.5t-17 168.5zM173 210q-11 -94 3 -141t59 -47q53 0 87.5 61t47.5 157q25 187 -62 188q-53 1 -87.5 -60.5t-47.5 -157.5zM359 580l-152 -80l173 165l91 -165
z" />
    <glyph glyph-name="otilde" unicode="&#xf5;" horiz-adv-x="474" 
d="M66 225q26 103 98.5 169t165.5 66q89 0 130.5 -66.5t16.5 -168.5q-25 -103 -97.5 -169t-165.5 -66q-89 0 -131 66.5t-17 168.5zM173 210q-11 -94 3 -141t59 -47q53 0 87.5 61t47.5 157q25 187 -62 188q-53 1 -87.5 -60.5t-47.5 -157.5zM202 514q4 66 33.5 98t63.5 37
q25 4 41.5 -1t41.5 -20q31 -20 44.5 -25.5t32.5 -2.5q51 7 67 74q-2 -67 -32.5 -102t-69.5 -41q-47 -6 -87 19q-3 2 -10 6t-9.5 5.5t-8.5 5t-8.5 4.5l-7.5 3t-8 3t-7.5 2t-8.5 1.5t-9 0.5q-37 0 -58 -67z" />
    <glyph glyph-name="odieresis" unicode="&#xf6;" horiz-adv-x="474" 
d="M66 225q26 103 98.5 169t165.5 66q89 0 130.5 -66.5t16.5 -168.5q-25 -103 -97.5 -169t-165.5 -66q-89 0 -131 66.5t-17 168.5zM173 210q-11 -94 3 -141t59 -47q53 0 87.5 61t47.5 157q25 187 -62 188q-53 1 -87.5 -60.5t-47.5 -157.5zM207 599q6 26 28 43.5t47 17.5
t38 -17.5t7 -43.5q-7 -25 -29 -42t-47 -17t-38 17t-6 42zM383 599q6 26 28 43.5t47 17.5t38 -17.5t7 -43.5q-7 -25 -29 -42t-47 -17t-38 17t-6 42z" />
    <glyph glyph-name="divide" unicode="&#xf7;" horiz-adv-x="502" 
d="M106 320v32h390v-32h-390zM241 185q0 25 17.5 43t42.5 18t42.5 -17.5t17.5 -43.5q0 -25 -17.5 -42t-42.5 -17t-42.5 17t-17.5 42zM241 485q0 25 17.5 43t42.5 18t42.5 -17.5t17.5 -43.5q0 -25 -17.5 -42t-42.5 -17t-42.5 17t-17.5 42z" />
    <glyph glyph-name="oslash" unicode="&#xf8;" horiz-adv-x="474" 
d="M490 468l28 -28l-53 -53q36 -68 12 -162q-25 -103 -97.5 -169t-165.5 -66q-67 0 -107 37l-49 -49l-28 28l51 53q-39 66 -15 166q26 103 98.5 169t165.5 66q69 0 111 -42zM173 210q-4 -48 -4 -64l204 205q-9 76 -65 77q-53 1 -87.5 -60.5t-47.5 -157.5zM370 240q5 35 5 56
l-204 -204q11 -70 64 -70t87.5 61t47.5 157z" />
    <glyph glyph-name="ugrave" unicode="&#xf9;" horiz-adv-x="525" 
d="M86 405l183 55l-72 -293q-11 -44 -13 -68t7 -37.5t32 -13.5q26 0 61 25t63 60l63 250q-12 4 -35 11t-34 11q30 9 91 27.5t92 27.5l-101 -413l103 45q-97 -102 -157 -102q-56 0 -40 67l11 44q-37 -42 -84.5 -76.5t-84.5 -34.5q-115 0 -74 164l58 229zM364 501l-152 189
h118z" />
    <glyph glyph-name="uacute" unicode="&#xfa;" horiz-adv-x="525" 
d="M86 405l183 55l-72 -293q-11 -44 -13 -68t7 -37.5t32 -13.5q26 0 61 25t63 60l63 250q-12 4 -35 11t-34 11q30 9 91 27.5t92 27.5l-101 -413l103 45q-97 -102 -157 -102q-56 0 -40 67l11 44q-37 -42 -84.5 -76.5t-84.5 -34.5q-115 0 -74 164l58 229zM317 501l48 189h124z
" />
    <glyph glyph-name="ucircumflex" unicode="&#xfb;" horiz-adv-x="525" 
d="M86 405l183 55l-72 -293q-11 -44 -13 -68t7 -37.5t32 -13.5q26 0 61 25t63 60l63 250q-12 4 -35 11t-34 11q30 9 91 27.5t92 27.5l-101 -413l103 45q-97 -102 -157 -102q-56 0 -40 67l11 44q-37 -42 -84.5 -76.5t-84.5 -34.5q-115 0 -74 164l58 229zM359 580l-152 -80
l173 165l91 -165z" />
    <glyph glyph-name="udieresis" unicode="&#xfc;" horiz-adv-x="525" 
d="M86 405l183 55l-72 -293q-11 -44 -13 -68t7 -37.5t32 -13.5q26 0 61 25t63 60l63 250q-12 4 -35 11t-34 11q30 9 91 27.5t92 27.5l-101 -413l103 45q-97 -102 -157 -102q-56 0 -40 67l11 44q-37 -42 -84.5 -76.5t-84.5 -34.5q-115 0 -74 164l58 229zM224 599
q6 26 28 43.5t47 17.5t38 -17.5t7 -43.5q-7 -25 -29 -42t-47 -17t-38 17t-6 42zM400 599q6 26 28 43.5t47 17.5t38 -17.5t7 -43.5q-7 -25 -29 -42t-47 -17t-38 17t-6 42z" />
    <glyph glyph-name="yacute" unicode="&#xfd;" horiz-adv-x="444" 
d="M128 -96l80 119l-83 362q-33 8 -79 20q19 6 52.5 17t62 20.5t53.5 17.5l68 -330q69 103 97 164q12 34 4.5 45.5t-21 29.5t-12.5 37q1 24 18 39t41 15q39 0 51 -35t-16 -93q-51 -93 -164 -262l-114 -171q-42 -64 -72 -87t-63 -23q-25 0 -41.5 15.5t-15.5 43.5q2 23 17 38
t37 15q18 0 31.5 -15.5t24.5 -15.5q20 -2 44 34zM276 501l48 189h124z" />
    <glyph glyph-name="thorn" unicode="&#xfe;" horiz-adv-x="491" 
d="M-63 -200l82 45l181 728l-70 22l184 55l-73 -294q79 104 148 104q71 0 99.5 -61.5t2.5 -169.5q-24 -103 -97.5 -171t-154.5 -68q-50 0 -78 35l-46 -180l64 -45h-242zM393 237q15 75 -1 117t-57 42q-44 0 -100 -67l-56 -229q-11 -41 7.5 -60.5t52.5 -18.5q53 2 95 63.5
t59 152.5z" />
    <glyph glyph-name="ydieresis" unicode="&#xff;" horiz-adv-x="444" 
d="M128 -96l80 119l-83 362q-33 8 -79 20q19 6 52.5 17t62 20.5t53.5 17.5l68 -330q69 103 97 164q12 34 4.5 45.5t-21 29.5t-12.5 37q1 24 18 39t41 15q39 0 51 -35t-16 -93q-51 -93 -164 -262l-114 -171q-42 -64 -72 -87t-63 -23q-25 0 -41.5 15.5t-15.5 43.5q2 23 17 38
t37 15q18 0 31.5 -15.5t24.5 -15.5q20 -2 44 34zM179 599q6 26 28 43.5t47 17.5t38 -17.5t7 -43.5q-7 -25 -29 -42t-47 -17t-38 17t-6 42zM355 599q6 26 28 43.5t47 17.5t38 -17.5t7 -43.5q-7 -25 -29 -42t-47 -17t-38 17t-6 42z" />
    <glyph glyph-name="Abreve" unicode="&#x102;" 
d="M-10 0l105 61l396 604l105 -615l67 -50h-261l77 45l-21 130h-246l-80 -120l65 -55h-207zM405 471l-171 -261h216zM510 737q-58 0 -84.5 35t-19.5 92q30 -64 120 -64q91 0 152 64q-22 -57 -66.5 -92t-101.5 -35z" />
    <glyph glyph-name="abreve" unicode="&#x103;" horiz-adv-x="499" 
d="M315 106q-79 -116 -155 -116q-67 0 -91.5 61t3.5 165q32 114 106.5 179t154.5 65q56 0 73 -43l92 43q-76 -309 -101 -413l102 45q-95 -102 -156 -102q-54 0 -40 67q10 40 12 49zM170 206q-34 -154 41 -154q22 1 53 23t57 58l57 234q5 26 -5 45t-40 19q-48 0 -94.5 -62.5
t-68.5 -162.5zM357 537q-58 0 -84.5 35t-19.5 92q30 -64 120 -64q91 0 152 64q-22 -57 -66.5 -92t-101.5 -35z" />
    <glyph glyph-name="Aogonek" unicode="&#x104;" 
d="M-10 0l106 61l398 604l102 -615l67 -50h-115q-45 -49 -53 -72q-9 -28 -1 -43t30 -15q41 0 69 53q-1 -40 -31 -80t-78 -40q-33 0 -48 21.5t-6 59.5q13 57 87 116h-115l78 45l-22 130h-245l-79 -120l63 -55h-207zM408 471l-173 -261h216z" />
    <glyph glyph-name="aogonek" unicode="&#x105;" horiz-adv-x="499" 
d="M315 106q-79 -116 -155 -116q-67 0 -91.5 61t3.5 165q32 114 106.5 179t154.5 65q56 0 73 -43l92 43q-76 -309 -101 -413l102 45q-87 -69 -104 -127q-9 -27 -2 -42t28 -15q40 0 67 52q-1 -40 -31 -80t-78 -40q-31 0 -47 19.5t-7 53.5q10 41 50 83q-17 -6 -32 -6
q-54 0 -40 67q10 40 12 49zM170 206q-34 -154 41 -154q22 1 53 23t57 58l57 234q5 26 -5 45t-40 19q-48 0 -94.5 -62.5t-68.5 -162.5z" />
    <glyph glyph-name="Cacute" unicode="&#x106;" horiz-adv-x="620" 
d="M721 665l-60 -245q-14 104 -48 158t-108 54q-93 0 -164 -83.5t-103 -218.5q-30 -123 10.5 -200t136.5 -77q76 0 139 46.5t103 127.5q-33 -106 -114.5 -171.5t-179.5 -65.5q-136 0 -197.5 96t-25.5 241t143 241.5t243 96.5q89 0 135 -45zM461 701l75 189h124z" />
    <glyph glyph-name="cacute" unicode="&#x107;" horiz-adv-x="432" 
d="M161 209q-4 -82 30 -115.5t90 -28.5q43 5 82 37.5t64 86.5q-27 -96 -84.5 -147.5t-134.5 -51.5q-88 0 -127 67t-14 168t97.5 168t162.5 67q65 0 97 -31.5t22 -77.5q-4 -23 -22.5 -38.5t-40.5 -15.5q-23 0 -30 15.5t-3 35.5q11 44 2.5 63t-41.5 19q-54 0 -99 -66t-51 -155
zM254 501l92 189h124z" />
    <glyph glyph-name="Ccaron" unicode="&#x10c;" horiz-adv-x="620" 
d="M721 665l-60 -245q-14 104 -48 158t-108 54q-93 0 -164 -83.5t-103 -218.5q-30 -123 10.5 -200t136.5 -77q76 0 139 46.5t103 127.5q-33 -106 -114.5 -171.5t-179.5 -65.5q-136 0 -197.5 96t-25.5 241t143 241.5t243 96.5q89 0 135 -45zM523 804l154 61l-177 -155
l-101 155z" />
    <glyph glyph-name="ccaron" unicode="&#x10d;" horiz-adv-x="432" 
d="M161 209q-4 -82 30 -115.5t90 -28.5q43 5 82 37.5t64 86.5q-27 -96 -84.5 -147.5t-134.5 -51.5q-88 0 -127 67t-14 168t97.5 168t162.5 67q65 0 97 -31.5t22 -77.5q-4 -23 -22.5 -38.5t-40.5 -15.5q-23 0 -30 15.5t-3 35.5q11 44 2.5 63t-41.5 19q-54 0 -99 -66t-51 -155
zM348 601l138 64l-159 -148l-85 148z" />
    <glyph glyph-name="Dcaron" unicode="&#x10e;" horiz-adv-x="659" 
d="M185 650h292q141 0 204 -89t28 -234q-36 -146 -143 -236.5t-247 -90.5h-292l95 51l136 548zM460 615h-87l-142 -580h87q93 0 160.5 76.5t101.5 215.5q35 137 4.5 212.5t-124.5 75.5zM473 804l154 61l-177 -155l-101 155z" />
    <glyph glyph-name="dcaron" unicode="&#x10f;" horiz-adv-x="609" 
d="M317 106q-34 -52 -75.5 -84t-81.5 -32q-67 0 -91.5 60.5t3.5 164.5q30 109 101.5 177t152.5 68q46 0 71 -35l40 163q-13 4 -37 11.5t-33 10.5q31 9 92.5 27.5t91.5 27.5l-151 -618l102 45q-93 -102 -156 -102q-54 0 -40 67zM169 205q-31 -153 44 -153q23 0 53.5 22
t58.5 59l52 217q10 41 -3 61.5t-41 20.5q-49 -1 -97 -66t-67 -161zM599 604q7 26 28.5 43.5t49.5 17.5q35 0 50.5 -24t2.5 -77q-12 -51 -59 -99t-112 -72q53 26 86 72.5t38 89.5q-19 -10 -40 -10q-26 0 -38 17t-6 42z" />
    <glyph glyph-name="Dcroat" unicode="&#x110;" horiz-adv-x="669" 
d="M57 310l8 32h141l64 257l-71 51h292q140 0 202.5 -89t26.5 -234q-37 -146 -144 -236.5t-247 -90.5h-292l96 51l65 259h-141zM473 615h-87l-68 -273h137l-8 -32h-137l-69 -275h87q93 0 160.5 76.5t102.5 215.5q35 137 5.5 212.5t-123.5 75.5z" />
    <glyph glyph-name="dcroat" unicode="&#x111;" horiz-adv-x="498" 
d="M306 513l8 32h112l11 43q-13 4 -37 11.5t-33 10.5q31 9 92.5 27.5t91.5 27.5l-30 -120h103l-8 -32h-103l-113 -466l102 45q-93 -102 -156 -102q-54 0 -40 67l11 49q-34 -52 -75.5 -84t-81.5 -32q-67 0 -91.5 60.5t3.5 164.5q30 109 101.5 177t152.5 68q46 0 71 -35l21 88
h-112zM169 205q-31 -153 44 -153q23 0 53.5 22t58.5 59l52 217q10 41 -3 61.5t-41 20.5q-49 -1 -97 -66t-67 -161z" />
    <glyph glyph-name="Eogonek" unicode="&#x118;" horiz-adv-x="596" 
d="M27 0l96 51l137 548l-71 51h518l-55 -220l-58 185h-218l-65 -260h114l101 103l-60 -240l-49 102h-115l-71 -285h227l156 185l-54 -220h-36q-45 -49 -53 -72q-9 -28 -1 -43t30 -15q41 0 69 53q-1 -40 -31 -80t-78 -40q-33 0 -48 21.5t-6 59.5q13 57 87 116h-466z" />
    <glyph glyph-name="eogonek" unicode="&#x119;" horiz-adv-x="441" 
d="M327 460q66 0 100 -27.5t29 -75.5q-3 -28 -20 -48t-46 -29.5t-54.5 -14t-60.5 -6.5l-109 -7q-6 -41 -6 -43q-5 -80 30.5 -114.5t92.5 -29.5q44 5 81.5 37t63.5 87q-22 -77 -94 -155q-39 -43 -47 -69q-9 -24 -1.5 -40.5t28.5 -16.5q40 0 67 52q-1 -40 -30.5 -80t-77.5 -40
q-32 0 -47.5 19.5t-6.5 53.5q8 38 54 88q-33 -11 -68 -11q-89 0 -126 67.5t-12 167.5t97.5 167.5t162.5 67.5zM174 279l84 6q94 6 101 72q5 36 -10.5 54.5t-40.5 18.5q-42 0 -79 -43.5t-55 -107.5z" />
    <glyph glyph-name="Ecaron" unicode="&#x11a;" horiz-adv-x="596" 
d="M27 0l95 51l136 548l-73 51h518l-54 -220l-58 185h-218l-64 -260h114l101 103l-60 -240l-48 102h-115l-70 -285h227l156 185l-54 -220h-533zM500 804l154 61l-177 -155l-101 155z" />
    <glyph glyph-name="ecaron" unicode="&#x11b;" horiz-adv-x="441" 
d="M327 460q66 0 100 -27.5t29 -75.5q-3 -28 -20 -48t-46 -29.5t-54.5 -14t-60.5 -6.5l-109 -7q-6 -41 -6 -43q-5 -80 30.5 -114.5t92.5 -29.5q44 5 81.5 37t63.5 87q-25 -92 -83 -145.5t-140 -53.5q-89 0 -126 67.5t-12 167.5t97.5 167.5t162.5 67.5zM174 279l84 6
q94 6 101 72q5 36 -10.5 54.5t-40.5 18.5q-42 0 -79 -43.5t-55 -107.5zM341 601l138 64l-159 -148l-85 148z" />
    <glyph glyph-name="Lacute" unicode="&#x139;" horiz-adv-x="603" 
d="M624 220l-54 -220h-543l95 51l136 548l-73 51h300l-119 -61l-135 -554h237zM331 701l75 189h124z" />
    <glyph glyph-name="lacute" unicode="&#x13a;" horiz-adv-x="260" 
d="M68 57l131 531l-69 22l183 55l-151 -618l102 45q-93 -102 -156 -102q-56 0 -40 67zM227 701l92 189h124z" />
    <glyph glyph-name="Lcaron" unicode="&#x13d;" horiz-adv-x="603" 
d="M624 220l-54 -220h-543l95 51l136 548l-73 51h300l-119 -61l-135 -554h237zM370 804l154 61l-177 -155l-101 155z" />
    <glyph glyph-name="lcaron" unicode="&#x13e;" horiz-adv-x="373" 
d="M68 57l131 531l-69 22l183 55l-151 -618l102 45q-93 -102 -156 -102q-56 0 -40 67zM373 604q7 26 28.5 43.5t49.5 17.5q35 0 50.5 -24t2.5 -77q-12 -51 -59 -99t-112 -72q53 26 86 72.5t38 89.5q-19 -10 -40 -10q-26 0 -38 17t-6 42z" />
    <glyph glyph-name="Lslash" unicode="&#x141;" horiz-adv-x="609" 
d="M54 205l-10 27l149 75l73 292l-71 51h300l-119 -61l-55 -217l149 75l9 -27l-167 -85l-75 -300h237l156 185l-54 -220h-543l96 51l55 220z" />
    <glyph glyph-name="lslash" unicode="&#x142;" horiz-adv-x="358" 
d="M39 215l-9 27l131 64l70 282l-69 22l183 55l-75 -305l116 58l9 -27l-134 -67l-67 -277l102 45q-93 -102 -157 -102q-25 0 -36 17t-4 50l53 214z" />
    <glyph glyph-name="Nacute" unicode="&#x143;" horiz-adv-x="712" 
d="M180 63l86 -63h-239l104 63l128 515l-74 72h176l238 -431l91 368l-76 63h229l-104 -63l-148 -602l-297 538zM474 701l75 189h124z" />
    <glyph glyph-name="nacute" unicode="&#x144;" horiz-adv-x="528" 
d="M272 460l-28 -113q36 43 83.5 78t85.5 35q114 0 74 -164l-61 -249l102 45q-93 -102 -156 -102q-56 0 -40 67l55 226q16 61 10 89t-41 28q-22 0 -56 -24t-63 -59l-77 -317h-96l94 383l-69 22zM284 501l92 189h124z" />
    <glyph glyph-name="Ncaron" unicode="&#x147;" horiz-adv-x="712" 
d="M180 63l86 -63h-239l104 63l128 515l-74 72h176l238 -431l91 368l-76 63h229l-104 -63l-148 -602l-297 538zM533 804l154 61l-177 -155l-101 155z" />
    <glyph glyph-name="ncaron" unicode="&#x148;" horiz-adv-x="528" 
d="M272 460l-28 -113q36 43 83.5 78t85.5 35q114 0 74 -164l-61 -249l102 45q-93 -102 -156 -102q-56 0 -40 67l55 226q16 61 10 89t-41 28q-22 0 -56 -24t-63 -59l-77 -317h-96l94 383l-69 22zM364 601l138 64l-159 -148l-85 148z" />
    <glyph glyph-name="Ohungarumlaut" unicode="&#x150;" horiz-adv-x="669" 
d="M110 327q36 144 145 241t241 97q133 0 196 -97t27 -241t-146 -240.5t-243 -96.5q-132 0 -194 96.5t-26 240.5zM240 327q-36 -134 -11.5 -219.5t110.5 -85.5t151.5 83t99.5 222q36 134 10.5 220t-111.5 86t-150.5 -83t-98.5 -223zM395 701l75 189h124zM564 701l75 189h124
z" />
    <glyph glyph-name="ohungarumlaut" unicode="&#x151;" horiz-adv-x="474" 
d="M66 225q26 103 98.5 169t165.5 66q89 0 130.5 -66.5t16.5 -168.5q-25 -103 -97.5 -169t-165.5 -66q-89 0 -131 66.5t-17 168.5zM173 210q-11 -94 3 -141t59 -47q53 0 87.5 61t47.5 157q25 187 -62 188q-53 1 -87.5 -60.5t-47.5 -157.5zM218 501l92 189h124zM384 501
l92 189h124z" />
    <glyph glyph-name="OE" unicode="&#x152;" horiz-adv-x="881" 
d="M502 650h490l-55 -220l-58 185h-198l-65 -260h97l101 103l-60 -240l-49 102h-98l-71 -285h207l156 185l-54 -220h-505q-140 0 -203 91t-26 236q36 145 143 234t248 89zM569 615h-67q-93 0 -160 -75t-102 -213q-36 -137 -6 -214.5t123 -77.5h67z" />
    <glyph glyph-name="oe" unicode="&#x153;" horiz-adv-x="758" 
d="M66 225q26 103 98.5 169t165.5 66q99 0 138 -82q80 82 176 82q66 0 100.5 -27.5t28.5 -75.5q-3 -28 -20 -48t-45.5 -29.5t-54 -14t-60.5 -6.5l-110 -7q-6 -41 -6 -43q-5 -80 31 -114.5t93 -29.5q90 9 144 124q-25 -92 -83 -145.5t-140 -53.5q-95 0 -131 78
q-76 -78 -177 -78q-89 0 -131 66.5t-17 168.5zM173 210q-11 -94 3 -141t59 -47q53 0 87.5 61t47.5 157q25 187 -62 188q-53 1 -87.5 -60.5t-47.5 -157.5zM491 279l84 6q94 6 102 72q4 36 -11.5 54.5t-40.5 18.5q-42 0 -79 -43.5t-55 -107.5z" />
    <glyph glyph-name="Racute" unicode="&#x154;" 
d="M185 650h299q52 0 91.5 -8.5t69 -28.5t38 -53t-1.5 -82q-16 -73 -77 -119t-151 -54q49 -8 75 -35t38 -78l29 -139l71 -53h-188l-38 210q-19 86 -106 86h-39l-61 -245l73 -51h-280l95 51l136 548zM373 615l-70 -284h87q59 0 106 39t63 108q18 73 -12.5 105t-89.5 32h-84z
M427 701l75 189h124z" />
    <glyph glyph-name="racute" unicode="&#x155;" horiz-adv-x="409" 
d="M160 0h-96l94 383l-69 22l183 55l-28 -112l54 61q25 29 43.5 40t48.5 11q31 0 46.5 -15.5t10.5 -42.5q-4 -25 -21 -40.5t-41 -15.5q-40 0 -36 38q2 29 -16 29q-12 0 -29 -18l-68 -78zM250 501l92 189h124z" />
    <glyph glyph-name="Rcaron" unicode="&#x158;" 
d="M185 650h299q52 0 91.5 -8.5t69 -28.5t38 -53t-1.5 -82q-16 -73 -77 -119t-151 -54q49 -8 75 -35t38 -78l29 -139l71 -53h-188l-38 210q-19 86 -106 86h-39l-61 -245l73 -51h-280l95 51l136 548zM373 615l-70 -284h87q59 0 106 39t63 108q18 73 -12.5 105t-89.5 32h-84z
M483 804l154 61l-177 -155l-101 155z" />
    <glyph glyph-name="rcaron" unicode="&#x159;" horiz-adv-x="409" 
d="M160 0h-96l94 383l-69 22l183 55l-28 -112l54 61q25 29 43.5 40t48.5 11q31 0 46.5 -15.5t10.5 -42.5q-4 -25 -21 -40.5t-41 -15.5q-40 0 -36 38q2 29 -16 29q-12 0 -29 -18l-68 -78zM327 601l138 64l-159 -148l-85 148z" />
    <glyph glyph-name="Sacute" unicode="&#x15a;" horiz-adv-x="543" 
d="M633 665l-58 -235q-12 101 -50.5 152t-109.5 51q-55 0 -103.5 -27.5t-60.5 -75.5q-9 -35 9.5 -57t62.5 -43l143 -68q55 -25 81 -68t7 -121q-18 -75 -84.5 -129t-166.5 -54q-51 0 -91.5 18.5t-57.5 44.5l-96 -63l64 259q15 -109 58.5 -168t130.5 -59q61 0 105 29.5
t57 80.5q2 18 3 30.5t-6 24.5t-12.5 19.5t-17.5 16t-19.5 12.5t-19.5 10l-141 68q-112 52 -84 164q22 92 92.5 140t153.5 48q82 0 128 -44zM411 701l48 189h124z" />
    <glyph glyph-name="sacute" unicode="&#x15b;" horiz-adv-x="413" 
d="M362 436l57 24l-44 -172q-16 140 -102 140q-39 0 -63.5 -17t-28.5 -47q-5 -27 9 -44t50 -35l54 -27q92 -44 74 -146q-12 -58 -58.5 -90t-109.5 -32q-59 0 -97 31l-69 -31l42 174q25 -142 127 -142q32 0 54.5 16.5t28.5 46.5q7 39 -16 61t-74 43q-54 21 -75.5 53.5
t-12.5 85.5q10 60 55.5 96t110.5 36q57 0 88 -24zM253 501l69 189h124z" />
    <glyph glyph-name="Scaron" unicode="&#x160;" horiz-adv-x="543" 
d="M633 665l-58 -235q-12 101 -50.5 152t-109.5 51q-55 0 -103.5 -27.5t-60.5 -75.5q-9 -35 9.5 -57t62.5 -43l143 -68q55 -25 81 -68t7 -121q-18 -75 -84.5 -129t-166.5 -54q-51 0 -91.5 18.5t-57.5 44.5l-96 -63l64 259q15 -109 58.5 -168t130.5 -59q61 0 105 29.5
t57 80.5q2 18 3 30.5t-6 24.5t-12.5 19.5t-17.5 16t-19.5 12.5t-19.5 10l-141 68q-112 52 -84 164q22 92 92.5 140t153.5 48q82 0 128 -44zM456 804l154 61l-177 -155l-101 155z" />
    <glyph glyph-name="scaron" unicode="&#x161;" horiz-adv-x="413" 
d="M362 436l57 24l-44 -172q-16 140 -102 140q-39 0 -63.5 -17t-28.5 -47q-5 -27 9 -44t50 -35l54 -27q92 -44 74 -146q-12 -58 -58.5 -90t-109.5 -32q-59 0 -97 31l-69 -31l42 174q25 -142 127 -142q32 0 54.5 16.5t28.5 46.5q7 39 -16 61t-74 43q-54 21 -75.5 53.5
t-12.5 85.5q10 60 55.5 96t110.5 36q57 0 88 -24zM315 601l138 64l-159 -148l-85 148z" />
    <glyph glyph-name="Tcommaaccent" unicode="&#x162;" horiz-adv-x="637" 
d="M772 650l-54 -220l-64 185h-126l-137 -554l91 -61h-320l117 61l137 554h-126l-156 -185l54 220h584zM227 -148q6 26 27.5 43.5t50.5 17.5q78 0 53 -100q-13 -51 -59.5 -99t-111.5 -72q53 26 86 73t38 89q-20 -11 -41 -11q-26 0 -38 17t-5 42z" />
    <glyph glyph-name="tcommaaccent" unicode="&#x163;" horiz-adv-x="338" 
d="M102 423l207 155l-32 -128h94l-8 -27h-94l-78 -321q-13 -52 24.5 -49.5t88.5 45.5q-80 -108 -153 -108q-83 0 -58 97l81 336h-72zM60 -148q6 26 27.5 43.5t50.5 17.5q78 0 53 -100q-13 -51 -59.5 -99t-111.5 -72q53 26 86 73t38 89q-20 -11 -41 -11q-26 0 -38 17t-5 42z
" />
    <glyph glyph-name="Tcaron" unicode="&#x164;" horiz-adv-x="637" 
d="M772 650l-54 -220l-64 185h-126l-137 -554l91 -61h-320l117 61l137 554h-126l-156 -185l54 220h584zM513 804l154 61l-177 -155l-101 155z" />
    <glyph glyph-name="tcaron" unicode="&#x165;" horiz-adv-x="414" 
d="M309 578l-207 -155h72l-81 -336q-25 -97 58 -97q73 0 153 108q-53 -45 -91 -45q-34 -1 -22 49l78 321h94l8 27h-94zM407 604q7 26 28.5 43.5t49.5 17.5q35 0 50.5 -24t2.5 -77q-12 -51 -59 -99t-112 -72q53 26 86 72.5t38 89.5q-19 -10 -40 -10q-26 0 -38 17t-6 42z" />
    <glyph glyph-name="Uring" unicode="&#x16e;" horiz-adv-x="720" 
d="M182 650l73 -51l-86 -345q-10 -41 -12 -76.5t8 -71t32.5 -60.5t66 -40.5t104.5 -15.5q67 0 121.5 25t89.5 67t56 85.5t33 91.5l82 328l104 63h-229l76 -63l-82 -333q-9 -38 -25 -71.5t-42.5 -66.5t-68 -52.5t-92.5 -19.5q-41 0 -68 13.5t-39 34t-14 51.5t2 58t12 62
l83 336l95 51h-280zM479 783q8 34 37.5 58t64.5 24q34 0 52 -23.5t10 -58.5q-9 -35 -39 -58.5t-64 -23.5q-35 0 -52.5 24t-8.5 58zM513 783q-5 -19 5.5 -33.5t29.5 -14.5q20 0 38 14.5t22 33.5q5 20 -6 34t-30 14t-36.5 -14t-22.5 -34z" />
    <glyph glyph-name="uring" unicode="&#x16f;" horiz-adv-x="525" 
d="M86 405l183 55l-72 -293q-11 -44 -13 -68t7 -37.5t32 -13.5q26 0 61 25t63 60l63 250q-12 4 -35 11t-34 11q30 9 91 27.5t92 27.5l-101 -413l103 45q-97 -102 -157 -102q-56 0 -40 67l11 44q-37 -42 -84.5 -76.5t-84.5 -34.5q-115 0 -74 164l58 229zM283 583
q8 34 37.5 58t64.5 24q34 0 52 -23.5t10 -58.5q-9 -35 -39 -58.5t-64 -23.5q-35 0 -52.5 24t-8.5 58zM317 583q-5 -19 5.5 -33.5t30.5 -14.5q19 0 37 14.5t23 33.5q4 19 -6.5 33.5t-30.5 14.5q-19 0 -36.5 -14t-22.5 -34z" />
    <glyph glyph-name="Uhungarumlaut" unicode="&#x170;" horiz-adv-x="720" 
d="M255 599l-73 51h280l-95 -51l-83 -336q-8 -35 -12 -62t-2 -58t14 -51.5t39 -34t68 -13.5q51 0 92.5 19.5t68 52.5t42.5 66.5t25 71.5l82 333l-76 63h229l-104 -63l-82 -328q-12 -48 -33 -91.5t-56 -85.5t-89.5 -67t-121.5 -25q-61 0 -104.5 15.5t-66 40.5t-32.5 60.5
t-8 71t12 76.5zM406 701l75 189h124zM575 701l75 189h124z" />
    <glyph glyph-name="uhungarumlaut" unicode="&#x171;" horiz-adv-x="525" 
d="M86 405l183 55l-72 -293q-11 -44 -13 -68t7 -37.5t32 -13.5q26 0 61 25t63 60l63 250q-12 4 -35 11t-34 11q30 9 91 27.5t92 27.5l-101 -413l103 45q-97 -102 -157 -102q-56 0 -40 67l11 44q-37 -42 -84.5 -76.5t-84.5 -34.5q-115 0 -74 164l58 229zM208 501l92 189h124z
M374 501l92 189h124z" />
    <glyph glyph-name="Ydieresis" unicode="&#x178;" horiz-adv-x="682" 
d="M434 650l-74 -42l106 -263l213 252l-55 53h209l-109 -58l-242 -289l-63 -252l73 -51h-280l95 51l57 231l-128 320l-68 48h266zM393 787q6 26 28 43.5t47 17.5t38 -17.5t7 -43.5q-7 -25 -29 -42t-47 -17t-38 17t-6 42zM599 787q6 26 28 43.5t47 17.5t38 -17.5t7 -43.5
q-7 -25 -29 -42t-47 -17t-38 17t-6 42z" />
    <glyph glyph-name="Zacute" unicode="&#x179;" horiz-adv-x="582" 
d="M164 430l54 220h482l-512 -615h252l156 185l-54 -220h-508l511 615h-225zM417 701l69 189h124z" />
    <glyph glyph-name="zacute" unicode="&#x17a;" horiz-adv-x="424" 
d="M11 -10l332 374h-182l-54 -67l42 153h318l-320 -357q25 7 46 7t59 -10t63 -10q65 0 108 55q-38 -71 -73.5 -108t-86.5 -37q-23 0 -70 10t-72 10q-61 0 -110 -20zM257 501l69 189h124z" />
    <glyph glyph-name="Zdotaccent" unicode="&#x17b;" horiz-adv-x="582" 
d="M164 430l54 220h482l-512 -615h252l156 185l-54 -220h-508l511 615h-225zM420 799q5 25 27 43t48 18q25 0 37.5 -17.5t7.5 -43.5q-7 -25 -29 -42t-47 -17t-38 17t-6 42z" />
    <glyph glyph-name="zdotaccent" unicode="&#x17c;" horiz-adv-x="424" 
d="M11 -10q49 20 110 20q25 0 72 -10t70 -10q51 0 86.5 37t73.5 108q-43 -55 -108 -55q-25 0 -63 10t-59 10t-46 -7l320 357h-318l-42 -153l54 67h182zM271 599q5 25 27 43t48 18q25 0 37.5 -17.5t7.5 -43.5q-7 -25 -29 -42t-47 -17t-38 17t-6 42z" />
    <glyph glyph-name="Zcaron" unicode="&#x17d;" horiz-adv-x="582" 
d="M490 804l154 61l-177 -155l-101 155zM164 430l54 220h482l-512 -615h252l156 185l-54 -220h-508l511 615h-225z" />
    <glyph glyph-name="zcaron" unicode="&#x17e;" horiz-adv-x="424" 
d="M11 -10l332 374h-182l-54 -67l42 153h318l-320 -357q25 7 46 7t59 -10t63 -10q65 0 108 55q-38 -71 -73.5 -108t-86.5 -37q-23 0 -70 10t-72 10q-61 0 -110 -20zM321 601l138 64l-159 -148l-85 148z" />
    <glyph glyph-name="Scommaaccent" unicode="&#x218;" horiz-adv-x="543" 
d="M633 665l-58 -235q-12 101 -50.5 152t-109.5 51q-55 0 -103.5 -27.5t-60.5 -75.5q-9 -35 9.5 -57t62.5 -43l143 -68q55 -25 81 -68t7 -121q-18 -75 -84.5 -129t-166.5 -54q-51 0 -91.5 18.5t-57.5 44.5l-96 -63l64 259q15 -109 58.5 -168t130.5 -59q61 0 105 29.5
t57 80.5q2 18 3 30.5t-6 24.5t-12.5 19.5t-17.5 16t-19.5 12.5t-19.5 10l-141 68q-112 52 -84 164q22 92 92.5 140t153.5 48q82 0 128 -44zM173 -148q6 26 27.5 43.5t50.5 17.5q78 0 53 -100q-13 -51 -59.5 -99t-111.5 -72q53 26 86 73t38 89q-20 -11 -41 -11q-26 0 -38 17
t-5 42z" />
    <glyph glyph-name="scommaaccent" unicode="&#x219;" horiz-adv-x="413" 
d="M362 436l57 24l-44 -172q-16 140 -102 140q-39 0 -63.5 -17t-28.5 -47q-5 -27 9 -44t50 -35l54 -27q92 -44 74 -146q-12 -58 -58.5 -90t-109.5 -32q-59 0 -97 31l-69 -31l42 174q25 -142 127 -142q32 0 54.5 16.5t28.5 46.5q7 39 -16 61t-74 43q-54 21 -75.5 53.5
t-12.5 85.5q10 60 55.5 96t110.5 36q57 0 88 -24zM77 -148q6 26 27.5 43.5t50.5 17.5q78 0 53 -100q-13 -51 -59.5 -99t-111.5 -72q53 26 86 73t38 89q-20 -11 -41 -11q-26 0 -38 17t-5 42z" />
    <glyph glyph-name="afii10023" unicode="&#x401;" horiz-adv-x="596" 
d="M27 0l95 51l136 548l-73 51h518l-54 -220l-58 185h-218l-64 -260h114l101 103l-60 -240l-48 102h-115l-70 -285h227l156 185l-54 -220h-533zM324 787q6 26 28 43.5t47 17.5t38 -17.5t7 -43.5q-7 -25 -29 -42t-47 -17t-38 17t-6 42zM530 787q6 26 28 43.5t47 17.5
t38 -17.5t7 -43.5q-7 -25 -29 -42t-47 -17t-38 17t-6 42z" />
    <glyph glyph-name="afii10051" unicode="&#x402;" horiz-adv-x="767" 
d="M773 222l-3 -16q-25 -100 -82 -158t-130 -58q-47 0 -72.5 18t-20.5 56q5 27 22.5 44t43.5 17q46 0 32 -60q-11 -46 15 -46q37 0 58 54q12 30 38 133l3 10q17 72 -1.5 103t-79.5 31q-86 0 -147 -63l-57 -226l60 -61h-290l118 61l139 554h-126l-156 -185l55 220h584
l-55 -220l-64 185h-126l-74 -298q98 93 197 93q167 0 119 -188z" />
    <glyph glyph-name="afii10052" unicode="&#x403;" horiz-adv-x="574" 
d="M702 650l-50 -206l-68 171h-211l-137 -554l91 -61h-300l95 51l136 548l-73 51h517zM435 701l48 189h124z" />
    <glyph glyph-name="afii10053" unicode="&#x404;" horiz-adv-x="620" 
d="M721 665l-60 -245q-14 104 -48 158t-108 54q-87 0 -156 -76t-105 -201h171l95 103l-68 -240l-36 102h-170q-27 -120 14 -193.5t135 -73.5q76 0 139 46.5t103 127.5q-33 -106 -114.5 -171.5t-179.5 -65.5q-136 0 -197.5 96t-25.5 241t143 241.5t243 96.5q89 0 135 -45z
" />
    <glyph glyph-name="afii10054" unicode="&#x405;" horiz-adv-x="543" 
d="M633 665l-58 -235q-12 101 -50.5 152t-109.5 51q-55 0 -103.5 -27.5t-60.5 -75.5q-9 -35 9.5 -57t62.5 -43l143 -68q55 -25 81 -68t7 -121q-18 -75 -84.5 -129t-166.5 -54q-51 0 -91.5 18.5t-57.5 44.5l-96 -63l64 259q15 -109 58.5 -168t130.5 -59q61 0 105 29.5
t57 80.5q2 18 3 30.5t-6 24.5t-12.5 19.5t-17.5 16t-19.5 12.5t-19.5 10l-141 68q-112 52 -84 164q22 92 92.5 140t153.5 48q82 0 128 -44z" />
    <glyph glyph-name="uni0406" unicode="&#x406;" horiz-adv-x="334" 
d="M465 650l-95 -51l-136 -548l73 -51h-280l95 51l136 548l-73 51h280z" />
    <glyph glyph-name="afii10056" unicode="&#x407;" horiz-adv-x="334" 
d="M465 650l-95 -51l-136 -548l73 -51h-280l95 51l136 548l-73 51h280zM220 799q5 25 27 43t48 18q25 0 37.5 -17.5t7.5 -43.5q-7 -25 -29 -42t-47 -17t-38 17t-6 42zM386 799q5 25 27 43t48 18q25 0 37.5 -17.5t7.5 -43.5q-7 -25 -29 -42t-47 -17t-38 17t-6 42z" />
    <glyph glyph-name="afii10057" unicode="&#x408;" horiz-adv-x="466" 
d="M600 650l-95 -51l-91 -369q-28 -116 -92.5 -178t-153.5 -62q-77 0 -106 29t-21 74q7 33 28.5 53t46.5 20q34 0 44 -22t-2 -47q-30 -75 25 -75q24 0 42.5 16t33.5 52.5t24 68.5t23 91l87 349l-73 51h280z" />
    <glyph glyph-name="afii10058" unicode="&#x409;" horiz-adv-x="959" 
d="M621 615h-215l-84 -335q-72 -290 -220 -290q-34 0 -53 17t-14 51q5 30 25.5 43.5t42.5 13.5q16 0 24.5 -7.5t11 -16t9.5 -13.5t19 -2q21 6 38.5 28t31.5 59t22.5 66t18.5 71l75 299l-77 51h550l-97 -51l-52 -209h113q106 0 160 -50.5t30 -144.5q-23 -94 -102 -144.5
t-185 -50.5h-309l96 51zM588 35h88q59 0 108 41t68 119q20 78 -8.5 119t-87.5 41h-88z" />
    <glyph glyph-name="afii10059" unicode="&#x40a;" horiz-adv-x="982" 
d="M640 599l-71 51h280l-97 -51l-52 -209h113q106 0 160 -50.5t30 -144.5q-23 -94 -102 -144.5t-185 -50.5h-309l96 51l67 269h-268l-67 -269l72 -51h-280l96 51l137 548l-71 51h280l-97 -51l-61 -244h268zM611 35h88q59 0 108 41t68 119q20 78 -8.5 119t-87.5 41h-88z" />
    <glyph glyph-name="afii10060" unicode="&#x40b;" horiz-adv-x="784" 
d="M590 57l45 176q17 61 5.5 89t-60.5 28q-70 0 -131 -63q-9 -37 -28 -113t-29 -113q17 -11 48 -32.5t42 -28.5h-320q23 11 64 33t54 28q59 231 139 554h-126q-26 -31 -78 -92.5t-78 -92.5q9 36 27.5 109.5t27.5 110.5h584q-9 -37 -27.5 -110.5t-27.5 -109.5
q-10 31 -31.5 92.5t-32.5 92.5h-126q-12 -49 -37 -148.5t-37 -149.5q98 93 181 93q77 0 98 -45t-2 -119q-8 -33 -24.5 -99.5t-25.5 -99.5q35 15 103 45q-96 -102 -157 -102q-55 0 -40 67z" />
    <glyph glyph-name="afii10061" unicode="&#x40c;" horiz-adv-x="694" 
d="M465 650l-95 -51l-61 -244h61q36 1 65 26.5t60 77.5l72 123q51 83 125 83q37 0 57 -18t11 -51q-7 -32 -28.5 -49t-47.5 -17q-18 0 -27.5 8t-11.5 18t-6.5 18t-12.5 8q-16 0 -32 -25l-72 -119q-46 -73 -96 -95q111 -12 143 -159l30 -133l71 -51h-186l-38 205
q-21 115 -96 115h-49l-67 -269l73 -51h-280l95 51l136 548l-73 51h280zM468 701l48 189h124z" />
    <glyph glyph-name="afii10062" unicode="&#x40e;" horiz-adv-x="652" 
d="M807 650l-99 -59l-367 -516q-32 -45 -60.5 -65t-64.5 -20t-54.5 19t-11.5 51q7 30 28.5 46.5t46.5 16.5q17 0 26 -7.5t11 -16.5t6.5 -16.5t13.5 -7.5q18 0 36 26l52 72l-139 429l-63 48h250l-70 -41l106 -316l216 302l-63 55h200zM459 866q22 0 35 -13.5t8 -33.5
q-5 -16 -18.5 -31t-13.5 -24q2 -26 65 -26q62 0 77 26q7 6 0 22.5t-2 32.5q5 21 24 34t44 13q29 0 39 -17t4 -41q-11 -47 -66 -70.5t-126 -23.5t-113 23.5t-31 70.5q6 24 25.5 41t48.5 17z" />
    <glyph glyph-name="afii10145" unicode="&#x40f;" horiz-adv-x="714" 
d="M305 -200l-10 200h-268l96 51l137 548l-71 51h280l-100 -51l-141 -564h271l141 564l-71 51h280l-97 -51l-137 -548l72 -51h-271z" />
    <glyph glyph-name="afii10017" unicode="&#x410;" 
d="M-10 0l105 61l396 604l105 -615l67 -50h-261l77 45l-21 130h-246l-80 -120l65 -55h-207zM405 471l-171 -261h216z" />
    <glyph glyph-name="afii10018" unicode="&#x411;" horiz-adv-x="602" 
d="M677 650l-41 -200l-78 165h-185l-56 -225h113q106 0 160 -50.5t31 -144.5t-101 -144.5t-184 -50.5h-309l95 51l136 548l-73 51h492zM397 355h-88l-78 -320h88q59 0 107 41t67 119q20 78 -8.5 119t-87.5 41z" />
    <glyph glyph-name="afii10019" unicode="&#x412;" horiz-adv-x="608" 
d="M258 599l-73 51h279q113 0 169.5 -36t34.5 -126q-15 -60 -64.5 -100t-115.5 -48q74 -9 113.5 -51t22.5 -108q-44 -181 -288 -181h-309l95 51zM301 320l-70 -285h94q59 0 105 34t66 111q8 41 3 68t-24.5 43t-41.5 22.5t-48 6.5h-84zM373 615l-64 -260h68q138 4 170 134
q10 33 5.5 55.5t-12.5 36.5t-26.5 21.5t-36 10t-40.5 2.5h-64z" />
    <glyph glyph-name="afii10020" unicode="&#x413;" horiz-adv-x="574" 
d="M702 650l-50 -206l-68 171h-211l-137 -554l91 -61h-300l95 51l136 548l-73 51h517z" />
    <glyph glyph-name="afii10021" unicode="&#x414;" horiz-adv-x="690" 
d="M-28 -200l57 235h27q25 0 47.5 11.5t39.5 27.5t34 45t27.5 51t23.5 59.5t18.5 56t15.5 54.5l73 259l-89 51h575l-95 -51l-139 -564h90l-58 -235l-68 200h-412zM617 615h-236l-81 -295q-65 -230 -147 -285h322z" />
    <glyph glyph-name="afii10022" unicode="&#x415;" horiz-adv-x="596" 
d="M27 0l95 51l136 548l-73 51h518l-54 -220l-58 185h-218l-64 -260h114l101 103l-60 -240l-48 102h-115l-70 -285h227l156 185l-54 -220h-533z" />
    <glyph glyph-name="afii10024" unicode="&#x416;" horiz-adv-x="1006" 
d="M521 650h280l-95 -51l-61 -244h47q37 0 62 24t59 80l70 123q53 83 125 83q37 0 57 -18t11 -51q-7 -32 -28 -49.5t-49 -17.5q-18 0 -27.5 8.5t-11.5 18t-5.5 18t-11.5 8.5q-18 0 -33 -25l-70 -119q-45 -75 -92 -94q111 -10 141 -160l24 -134l69 -50h-186l-30 205
q-21 115 -91 115h-38l-67 -269l73 -51h-280l95 51l67 269h-38q-73 0 -147 -115l-130 -205h-186l92 50l89 134q104 150 218 160q-36 19 -45 94l-12 119q-3 25 -20 25q-9 0 -18 -13t-23.5 -26.5t-37.5 -13.5q-28 0 -41.5 17.5t-6.5 49.5q9 34 37.5 51.5t65.5 17.5q75 0 83 -83
l12 -123q3 -23 5 -36.5t7 -28.5t11.5 -22t17.5 -12t27 -5h48l61 244z" />
    <glyph glyph-name="afii10025" unicode="&#x417;" horiz-adv-x="551" 
d="M170 403l64 262l71 -46q66 46 138 46q212 0 169 -174q-15 -58 -60 -98t-103 -50q62 -7 94.5 -48.5t16.5 -108.5q-22 -91 -101.5 -143.5t-191.5 -52.5q-100 0 -142.5 56t-23.5 150q14 -147 157 -147q70 0 118 39.5t64 103.5q14 57 -12.5 92.5t-86.5 35.5h-57l8 35h41
q55 2 100 36.5t62 101.5q18 73 -6 106t-76 33q-37 0 -72.5 -20t-67 -57t-54 -71t-49.5 -81z" />
    <glyph glyph-name="afii10026" unicode="&#x418;" horiz-adv-x="736" 
d="M27 0l95 51l136 548l-73 51h280l-95 -51l-116 -469l401 450l5 19l-73 51h280l-95 -51l-136 -548l73 -51h-280l95 51l114 462l-401 -450l-3 -12l73 -51h-280z" />
    <glyph glyph-name="afii10027" unicode="&#x419;" horiz-adv-x="736" 
d="M471 866q22 0 35 -13.5t8 -33.5q-5 -16 -18.5 -31t-13.5 -24q2 -26 65 -26q62 0 77 26q7 6 0 22.5t-2 32.5q5 21 24 34t44 13q29 0 39 -17t4 -41q-11 -47 -66 -70.5t-126 -23.5t-113 23.5t-31 70.5q6 24 25.5 41t48.5 17zM27 0l95 51l136 548l-73 51h280l-95 -51
l-116 -469l401 450l5 19l-73 51h280l-95 -51l-136 -548l73 -51h-280l95 51l114 462l-401 -450l-3 -12l73 -51h-280z" />
    <glyph glyph-name="afii10028" unicode="&#x41a;" horiz-adv-x="694" 
d="M465 650l-95 -51l-61 -244h61q36 1 65 26.5t60 77.5l72 123q51 83 125 83q37 0 57 -18t11 -51q-7 -32 -28.5 -49t-47.5 -17q-18 0 -27.5 8t-11.5 18t-6.5 18t-12.5 8q-16 0 -32 -25l-72 -119q-46 -73 -96 -95q111 -12 143 -159l30 -133l71 -51h-186l-38 205
q-21 115 -96 115h-49l-67 -269l73 -51h-280l95 51l136 548l-73 51h280z" />
    <glyph glyph-name="afii10029" unicode="&#x41b;" horiz-adv-x="711" 
d="M350 599l-78 51h570l-96 -51l-135 -548l73 -51h-280l95 51l139 564h-235l-82 -335q-71 -290 -220 -290q-34 0 -54.5 17.5t-12.5 50.5q7 30 27 43.5t41 13.5q16 0 24.5 -7.5t11 -16t9.5 -13.5t19 -2q62 17 110 224z" />
    <glyph glyph-name="afii10030" unicode="&#x41c;" horiz-adv-x="864" 
d="M24 0l104 60l132 536l-75 54h204l85 -471l311 471h210l-95 -51l-136 -548l73 -51h-280l95 51l127 519l-384 -585l-100 558l-118 -483l76 -60h-229z" />
    <glyph glyph-name="afii10031" unicode="&#x41d;" horiz-adv-x="734" 
d="M27 0l95 51l136 548l-73 51h280l-95 -51l-61 -244h288l61 244l-73 51h280l-95 -51l-136 -548l73 -51h-280l95 51l67 269h-288l-67 -269l73 -51h-280z" />
    <glyph glyph-name="afii10032" unicode="&#x41e;" horiz-adv-x="669" 
d="M110 327q36 144 145 241t241 97q133 0 196 -97t27 -241t-146 -240.5t-243 -96.5q-132 0 -194 96.5t-26 240.5zM240 327q-36 -134 -11.5 -219.5t110.5 -85.5t151.5 83t99.5 222q36 134 10.5 220t-111.5 86t-150.5 -83t-98.5 -223z" />
    <glyph glyph-name="afii10033" unicode="&#x41f;" horiz-adv-x="724" 
d="M27 0l95 51l136 548l-73 51h670l-95 -51l-136 -548l73 -51h-280l98 51l139 564h-281l-139 -564l73 -51h-280z" />
    <glyph glyph-name="afii10034" unicode="&#x420;" horiz-adv-x="602" 
d="M27 0l95 51l136 548l-73 51h309q106 0 160 -50.5t31 -144.5t-102 -144.5t-185 -50.5h-113l-51 -209l73 -51h-280zM373 615l-78 -320h88q59 0 107 41t67 119q20 78 -8.5 119t-87.5 41h-88z" />
    <glyph glyph-name="afii10035" unicode="&#x421;" horiz-adv-x="620" 
d="M721 665l-60 -245q-14 104 -48 158t-108 54q-93 0 -164 -83.5t-103 -218.5q-30 -123 10.5 -200t136.5 -77q76 0 139 46.5t103 127.5q-33 -106 -114.5 -171.5t-179.5 -65.5q-136 0 -197.5 96t-25.5 241t143 241.5t243 96.5q89 0 135 -45z" />
    <glyph glyph-name="afii10036" unicode="&#x422;" horiz-adv-x="644" 
d="M772 650l-54 -220l-64 185h-126l-137 -554l91 -61h-320l117 61l137 554h-126l-156 -185l54 220h584z" />
    <glyph glyph-name="afii10037" unicode="&#x423;" horiz-adv-x="652" 
d="M807 650l-99 -59l-367 -516q-32 -45 -60.5 -65t-64.5 -20t-54.5 19t-11.5 51q7 30 28.5 46.5t46.5 16.5q17 0 26 -7.5t11 -16.5t6.5 -16.5t13.5 -7.5q18 0 36 26l52 72l-139 429l-63 48h250l-70 -41l106 -316l216 302l-63 55h200z" />
    <glyph glyph-name="afii10038" unicode="&#x424;" horiz-adv-x="741" 
d="M668 650l-95 -51l-13 -49h44q110 0 164 -58.5t29 -161.5t-108 -161.5t-193 -58.5h-44l-14 -59l72 -51h-280l96 51l14 59h-43q-110 0 -164 58.5t-29 161.5t108 161.5t193 58.5h43l13 49l-73 51h280zM552 520l-92 -380h19q66 0 119 48t76 142q23 93 -6.5 141.5t-96.5 48.5
h-19zM330 140h18l92 380h-18q-66 0 -119 -48t-76 -142q-23 -93 6.5 -141.5t96.5 -48.5z" />
    <glyph glyph-name="afii10039" unicode="&#x425;" horiz-adv-x="710" 
d="M697 590l-216 -228l136 -315l76 -47h-266l66 40l-100 233l-217 -224l61 -49h-209l108 59l240 251l-123 291l-75 49h266l-67 -41l90 -210l189 202l-56 49h206z" />
    <glyph glyph-name="afii10040" unicode="&#x426;" horiz-adv-x="730" 
d="M27 0l95 51l136 548l-73 51h280l-95 -51l-139 -564h284l139 564l-73 51h280l-95 -51l-139 -564h90l-58 -235l-68 200h-564z" />
    <glyph glyph-name="afii10041" unicode="&#x427;" horiz-adv-x="694" 
d="M455 650l-95 -51l-27 -110q-27 -105 -8.5 -145t94.5 -40q62 0 135 41l64 254l-73 51h280l-95 -51l-136 -548l73 -51h-290l107 56l64 259q-83 -62 -181 -62q-99 0 -140.5 49t-11.5 170l33 127l-73 51h280z" />
    <glyph glyph-name="afii10042" unicode="&#x428;" horiz-adv-x="1017" 
d="M1148 650l-95 -51l-136 -548l73 -51h-963l95 51l136 548l-73 51h280l-95 -51l-139 -564h229l139 564l-73 51h280l-95 -51l-139 -564h230l139 564l-73 51h280z" />
    <glyph glyph-name="afii10043" unicode="&#x429;" horiz-adv-x="1017" 
d="M1004 35l-58 -235l-68 200h-851l95 51l136 548l-73 51h280l-95 -51l-139 -564h229l139 564l-73 51h280l-95 -51l-139 -564h230l139 564l-73 51h280l-95 -51l-139 -564h90z" />
    <glyph glyph-name="afii10044" unicode="&#x42a;" horiz-adv-x="691" 
d="M130 424l55 226h376l-95 -51l-53 -209h106q106 0 160 -50.5t31 -144.5t-101 -144.5t-184 -50.5h-302l95 51l139 564h-38q-103 0 -189 -191zM327 35h81q59 0 107 41t67 119q20 78 -8.5 119t-87.5 41h-81z" />
    <glyph glyph-name="afii10045" unicode="&#x42b;" horiz-adv-x="901" 
d="M594 0l95 51l135 548l-72 51h280l-96 -51l-135 -548l73 -51h-280zM185 650l73 -51l-136 -548l-95 -51h298q106 0 184 50.5t101 144.5t-31 144.5t-160 50.5h-102l53 209l95 51h-280zM308 35h-77l78 320h77q59 0 87.5 -41t8.5 -119q-19 -78 -67 -119t-107 -41z" />
    <glyph glyph-name="afii10046" unicode="&#x42c;" horiz-adv-x="602" 
d="M258 599l-73 51h280l-95 -51l-53 -209h113q106 0 160 -50.5t31 -144.5t-101 -144.5t-184 -50.5h-309l95 51zM231 35h88q59 0 107 41t67 119q20 78 -8.5 119t-87.5 41h-88z" />
    <glyph glyph-name="afii10047" unicode="&#x42d;" horiz-adv-x="608" 
d="M550 314l1 6h-181l-91 -102l60 240l40 -103h183q33 106 8.5 186t-104.5 91q-88 13 -169 -54.5t-139 -177.5l64 265l70 -45q69 45 163 45q142 0 195 -95.5t17 -242.5q-35 -143 -144 -240t-245 -97q-103 0 -158 71.5t-22 195.5q-4 -92 40 -141.5t116 -52.5q98 -5 183 66
t113 185z" />
    <glyph glyph-name="afii10048" unicode="&#x42e;" horiz-adv-x="986" 
d="M27 0l95 51l136 548l-73 51h280l-95 -51l-61 -244h135q41 134 145 222t229 88q132 0 193 -97t25 -241t-144 -240.5t-240 -96.5q-130 0 -190 94.5t-27 235.5h-134l-67 -269l73 -51h-280zM567 327q-36 -134 -13 -219.5t107 -85.5t148 82.5t98 222.5q36 134 12 220t-108 86
t-147 -83t-97 -223z" />
    <glyph glyph-name="afii10049" unicode="&#x42f;" horiz-adv-x="671" 
d="M499 650h303l-95 -51l-136 -548l73 -51h-280l95 51l61 245h-50q-84 0 -151 -96l-132 -200h-186l95 53l78 111q89 123 174 145q-165 22 -130 164q23 92 98 134.5t183 42.5zM528 331l70 284h-88q-59 0 -106 -34.5t-64 -107.5q-17 -68 12 -105t85 -37h91z" />
    <glyph glyph-name="afii10065" unicode="&#x430;" horiz-adv-x="499" 
d="M315 106q-79 -116 -155 -116q-67 0 -91.5 61t3.5 165q32 114 106.5 179t154.5 65q56 0 73 -43l92 43q-76 -309 -101 -413l102 45q-95 -102 -156 -102q-54 0 -40 67q10 40 12 49zM170 206q-34 -154 41 -154q22 1 53 23t57 58l57 234q5 26 -5 45t-40 19q-48 0 -94.5 -62.5
t-68.5 -162.5z" />
    <glyph glyph-name="afii10066" unicode="&#x431;" horiz-adv-x="473" 
d="M474 218q-24 -101 -95.5 -164.5t-166.5 -63.5q-96 0 -130 81.5t-4 206.5q34 137 105.5 232t172.5 110l152 22l70 49q-32 -142 -125 -154l-135 -17q-64 -7 -103 -44q-37 -37 -78 -146q80 109 186 111q91 1 132 -60.5t19 -162.5zM173 205q-10 -92 4 -138t58 -46q52 0 86 60
t44 154q11 89 -4.5 131t-59.5 42q-51 0 -85.5 -61t-42.5 -142z" />
    <glyph glyph-name="afii10067" unicode="&#x432;" horiz-adv-x="432" 
d="M441 338q-8 -38 -43.5 -60.5t-82.5 -29.5v-3q50 -1 77.5 -39t14.5 -91q-16 -65 -77 -95t-132 -30q-91 0 -126.5 61t-0.5 187q60 222 240 222q26 0 50 -5.5t46.5 -18.5t32 -38.5t1.5 -59.5zM302 115q4 26 5.5 52.5t-18 43.5t-58.5 11l-66 -7l-7 -24q-14 -46 -16.5 -82
t12 -61.5t48.5 -25.5q40 0 65 27.5t35 65.5zM341 334q12 38 2 66t-43 28q-37 0 -68 -42t-51 -112l-8 -28l72 9q77 15 96 79z" />
    <glyph glyph-name="afii10068" unicode="&#x433;" horiz-adv-x="387" 
d="M106 345q17 52 62.5 83.5t98.5 31.5q63 0 100.5 -33t30.5 -89q-3 -25 -15 -43t-37 -32.5t-46 -23t-61 -22.5q-50 -19 -72 -39.5t-26 -60.5q-4 -39 19.5 -59.5t61.5 -20.5q85 0 144 98q-23 -72 -71 -108.5t-110 -36.5q-67 0 -106 33t-30 90q2 13 5.5 23.5t11 20.5
t12.5 16.5t18 15t18.5 12.5t23.5 11.5t22.5 9.5t26.5 10.5t26 10.5q42 16 63.5 35t26.5 54q6 38 -15 61t-55 23q-71 0 -127 -71z" />
    <glyph glyph-name="afii10069" unicode="&#x434;" horiz-adv-x="480" 
d="M62 235q21 102 90.5 163.5t145.5 61.5q35 0 59.5 -17.5t33.5 -42.5q7 132 -57 200t-166 50q45 15 94 15q120 0 186 -113t35 -274q-25 -131 -97 -209.5t-176 -78.5q-88 0 -129.5 70t-18.5 175zM170 210q-10 -95 3 -141.5t59 -46.5q54 0 88.5 61t46.5 157q12 89 -4.5 138
t-57.5 50q-49 1 -85.5 -62t-49.5 -156z" />
    <glyph glyph-name="afii10070" unicode="&#x435;" horiz-adv-x="441" 
d="M327 460q66 0 100 -27.5t29 -75.5q-3 -28 -20 -48t-46 -29.5t-54.5 -14t-60.5 -6.5l-109 -7q-6 -41 -6 -43q-5 -80 30.5 -114.5t92.5 -29.5q44 5 81.5 37t63.5 87q-25 -92 -83 -145.5t-140 -53.5q-89 0 -126 67.5t-12 167.5t97.5 167.5t162.5 67.5zM174 279l84 6
q94 6 101 72q5 36 -10.5 54.5t-40.5 18.5q-42 0 -79 -43.5t-55 -107.5z" />
    <glyph glyph-name="afii10072" unicode="&#x436;" horiz-adv-x="886" 
d="M89 268q27 90 76 141t117 51q67 0 91.5 -57.5t6.5 -150.5h61l48 198h96l-48 -198h60q28 91 88 149.5t132 58.5q57 0 79.5 -31t12.5 -78q-5 -23 -23 -38.5t-40 -15.5t-30 15.5t-4 35.5q5 23 7 38t0.5 26t-7.5 15t-18 3q-35 -5 -70 -69t-49 -152q-12 -80 8 -115t56 -34
q37 0 69 31t66 91q-27 -90 -75.5 -141t-116.5 -51q-72 0 -95.5 66t1.5 164h-59l-53 -220h-96l53 220h-61q-25 -100 -87.5 -165t-137.5 -65q-57 0 -79.5 30.5t-12.5 78.5q5 23 23 38.5t40 15.5q23 0 30 -15.5t3 -35.5q-11 -44 -7.5 -64.5t25.5 -17.5q36 5 71 69t48 152
q12 80 -7.5 115t-55.5 34q-37 0 -69 -31t-67 -91z" />
    <glyph glyph-name="afii10073" unicode="&#x437;" horiz-adv-x="402" 
d="M173 252h22q42 0 72.5 22.5t41.5 60.5q11 42 -1 68t-48 26q-76 0 -164 -148l44 179l44 -36q46 36 109 36t95 -30t20 -86q-8 -42 -43 -68.5t-78 -33.5v-3q47 -2 71 -37.5t13 -85.5q-10 -45 -42.5 -74.5t-70.5 -40.5t-82 -11q-64 0 -102.5 40t-26.5 108q7 -50 39 -75
t81 -25q40 0 69.5 23t38.5 65q9 39 -9.5 66.5t-59.5 27.5h-39z" />
    <glyph glyph-name="afii10074" unicode="&#x438;" horiz-adv-x="525" 
d="M86 405l183 55l-72 -293q-11 -44 -13 -68t7 -37.5t32 -13.5q26 0 61 25t63 60l63 250q-12 4 -35 11t-34 11q30 9 91 27.5t92 27.5l-101 -413l103 45q-97 -102 -157 -102q-56 0 -40 67l11 44q-37 -42 -84.5 -76.5t-84.5 -34.5q-115 0 -74 164l58 229z" />
    <glyph glyph-name="afii10075" unicode="&#x439;" horiz-adv-x="514" 
d="M299 648q20 0 29 -10.5t5 -29.5q-3 -14 -16.5 -28t-12.5 -23q2 -27 45 -27q44 0 58 27q4 9 -2 23t-3 28q4 18 20 29t36 11q27 0 36 -16t4 -36q-11 -45 -56 -66t-99 -21q-53 0 -86.5 21t-23.5 66q5 21 22 36.5t44 15.5zM72 405l183 55l-72 -293q-11 -44 -13 -68t7 -37.5
t32 -13.5q26 0 61 25t63 60l63 250q-12 4 -35 11t-34 11q31 9 92 27.5t91 27.5l-101 -413l103 45q-97 -102 -157 -102q-56 0 -40 67l11 44q-37 -42 -84.5 -76.5t-84.5 -34.5q-115 0 -74 164l58 229z" />
    <glyph glyph-name="afii10076" unicode="&#x43a;" horiz-adv-x="508" 
d="M220 252h6q32 0 56.5 18t59.5 75q17 28 25 39.5t26.5 34t37.5 32t41 9.5t37 -14t11 -40q-2 -23 -17.5 -37.5t-38.5 -14.5q-15 0 -27 10t-17.5 15.5t-18 -6t-33.5 -48.5q-38 -69 -81 -87q25 -3 44 -15t30.5 -26t22.5 -43t16 -49t14 -62q14 8 42 22.5t42 21.5
q-66 -97 -131 -97q-28 0 -40.5 18.5t-20.5 61.5q-7 37 -12 56.5t-14 44.5t-22 36.5t-30 12.5h-14q-9 -37 -27 -110t-27 -110h-96q16 64 47 191.5t46 191.5q-12 4 -35 11t-34 11q31 9 92 27.5t91 27.5q-9 -34 -25.5 -104t-25.5 -104z" />
    <glyph glyph-name="afii10077" unicode="&#x43b;" horiz-adv-x="518" 
d="M319 57l89 361h-124l-49 -195q-57 -233 -174 -233q-23 0 -38 13.5t-12 39.5q3 27 20 40t37 12q17 0 26.5 -16.5t21.5 -15.5q39 2 84 180l37 150l-65 57h340l-98 -403l102 45q-93 -102 -157 -102q-25 0 -36 17t-4 50z" />
    <glyph glyph-name="afii10078" unicode="&#x43c;" horiz-adv-x="694" 
d="M495 57l71 289l-245 -361q-10 59 -25 177t-25 177l-29 -116q-57 -233 -174 -233q-23 0 -38 13.5t-12 40.5q3 26 19.5 39t35.5 12q16 0 26.5 -16.5t23.5 -15.5q39 4 84 180l33 133l-71 36l184 48l37 -311l208 301h90l-99 -403l102 45q-93 -102 -156 -102q-56 0 -40 67z
" />
    <glyph glyph-name="afii10079" unicode="&#x43d;" horiz-adv-x="530" 
d="M331 57l41 163h-158l-54 -220h-96l93 383l-69 22l183 55l-51 -208h158l50 198h96l-98 -403l102 45q-93 -102 -157 -102q-25 0 -36 17t-4 50z" />
    <glyph glyph-name="afii10080" unicode="&#x43e;" horiz-adv-x="471" 
d="M63 225q26 103 98.5 169t165.5 66q89 0 130.5 -66.5t16.5 -168.5q-25 -103 -97.5 -169t-165.5 -66q-89 0 -131 66.5t-17 168.5zM170 210q-11 -94 3 -141t59 -47q53 0 87.5 61t47.5 157q25 187 -62 188q-53 1 -87.5 -60.5t-47.5 -157.5z" />
    <glyph glyph-name="afii10081" unicode="&#x43f;" horiz-adv-x="528" 
d="M272 460l-28 -113q36 43 83.5 78t85.5 35q114 0 74 -164l-61 -249l102 45q-93 -102 -156 -102q-56 0 -40 67l55 226q16 61 10 89t-41 28q-22 0 -56 -24t-63 -59l-77 -317h-96l94 383l-69 22z" />
    <glyph glyph-name="afii10082" unicode="&#x440;" horiz-adv-x="491" 
d="M-63 -200l82 45l134 538l-69 22l183 55l-26 -104q79 104 148 104q71 0 99.5 -61.5t2.5 -169.5q-24 -103 -97.5 -171t-154.5 -68q-50 0 -78 35l-46 -180l64 -45h-242zM393 237q15 75 -1 117t-57 42q-44 0 -100 -67l-56 -229q-11 -41 7.5 -60.5t52.5 -18.5q53 2 95 63.5
t59 152.5z" />
    <glyph glyph-name="afii10083" unicode="&#x441;" horiz-adv-x="432" 
d="M161 209q-4 -82 30 -115.5t90 -28.5q43 5 82 37.5t64 86.5q-27 -96 -84.5 -147.5t-134.5 -51.5q-88 0 -127 67t-14 168t97.5 168t162.5 67q65 0 97 -31.5t22 -77.5q-4 -23 -22.5 -38.5t-40.5 -15.5q-23 0 -30 15.5t-3 35.5q11 44 2.5 63t-41.5 19q-54 0 -99 -66t-51 -155
z" />
    <glyph glyph-name="afii10084" unicode="&#x442;" horiz-adv-x="775" 
d="M579 57l55 226q16 61 8.5 89t-41.5 28q-46 0 -113 -83q-2 -15 -4 -21l-72 -296h-96l68 283q16 61 10 89t-39 28q-23 0 -56 -23.5t-62 -59.5l-77 -317h-96l94 383l-69 22l183 55l-27 -113q34 42 80.5 77.5t84.5 35.5q47 0 68 -34t13 -84q35 45 80 81.5t84 36.5
q119 0 79 -164l-61 -249l102 45q-93 -102 -156 -102q-56 0 -40 67z" />
    <glyph glyph-name="afii10085" unicode="&#x443;" horiz-adv-x="444" 
d="M128 -96l80 119l-83 362q-33 8 -79 20q19 6 52.5 17t62 20.5t53.5 17.5l68 -330q69 103 97 164q12 34 4.5 45.5t-21 29.5t-12.5 37q1 24 18 39t41 15q39 0 51 -35t-16 -93q-51 -93 -164 -262l-114 -171q-42 -64 -72 -87t-63 -23q-25 0 -41.5 15.5t-15.5 43.5q2 23 17 38
t37 15q18 0 31.5 -15.5t24.5 -15.5q20 -2 44 34z" />
    <glyph glyph-name="afii10086" unicode="&#x444;" horiz-adv-x="688" 
d="M156 -200l84 45l52 204q-20 -29 -49.5 -44t-58.5 -15q-75 0 -104.5 63t-2.5 172t85.5 172t130.5 63q31 0 53.5 -16.5t31.5 -42.5l41 170l-65 34l184 55l-64 -259q19 29 48.5 44t58.5 15q75 0 104.5 -63t2.5 -172t-85.5 -172t-130.5 -63q-31 0 -53 16.5t-31 42.5l-52 -204
l64 -45h-244zM543 424q-42 0 -76 -54l-72 -291q1 -23 15.5 -38.5t39.5 -15.5q44 0 78.5 59t54.5 141q12 49 14 93t-11.5 75t-42.5 31zM317 424q-43 0 -79.5 -60t-56.5 -139q-49 -200 36 -200q43 0 82 54l72 291q-3 24 -17 39t-37 15z" />
    <glyph glyph-name="afii10087" unicode="&#x445;" horiz-adv-x="506" 
d="M382 341l-50 -69l77 -232l92 53q-22 -29 -39 -48t-44.5 -37t-54.5 -18q-7 0 -13.5 1t-11.5 4.5t-9 6t-8 9t-6.5 10t-6 13t-5.5 13.5t-5.5 15.5t-5.5 16.5l-31 93l-89 -124q-24 -32 -40.5 -45t-42.5 -13q-24 0 -38.5 15.5t-12.5 38.5q2 24 19.5 39.5t38.5 15.5
q12 0 30.5 -8.5t31.5 -6t29 23.5l65 91l-62 183l-89 23l170 55l52 -161l74 103q24 33 41 45.5t43 12.5q24 0 39 -14.5t12 -38.5q-3 -28 -21.5 -42t-40.5 -14q-12 0 -29.5 8t-30.5 6t-28 -24z" />
    <glyph glyph-name="afii10088" unicode="&#x446;" horiz-adv-x="514" 
d="M72 405q31 9 92 27.5t91 27.5q-12 -49 -36 -146.5t-36 -146.5q-11 -44 -13 -68t7 -37.5t32 -13.5q26 0 61 25t63 60q11 42 32 125.5t31 124.5q-12 4 -35 11t-34 11q31 9 92 27.5t91 27.5q-17 -69 -50.5 -206.5t-50.5 -206.5q17 8 51.5 23t51.5 22l-2 -1q-2 -2 -3.5 -6
t-2.5 -5l-1 -1q-29 -40 -38 -73q-5 -18 -5 -29q-1 -13 3.5 -37.5t2.5 -40.5q-7 -60 -97 -99q21 37 26 75q2 18 -0.5 42.5t0.5 37.5q2 15 8.5 27.5t12 19t19.5 20.5q-24 -18 -52 -26q-20 -6 -39 -4q-43 6 -29 65q2 7 5.5 22t5.5 22q-37 -42 -84.5 -76.5t-84.5 -34.5
q-115 0 -74 164q10 38 29.5 114.5t28.5 114.5q-12 4 -35 11t-34 11z" />
    <glyph glyph-name="afii10089" unicode="&#x447;" horiz-adv-x="483" 
d="M284 57l37 147q-59 -44 -114 -44q-14 0 -26.5 1.5t-29 6.5t-27.5 14.5t-21.5 25.5t-10.5 38.5t6 54.5l21 82l-69 22l183 55l-36 -147q-16 -51 -6.5 -83t55.5 -32q44 0 81 30l38 155l-69 22l183 55l-101 -413l103 45q-96 -102 -157 -102q-56 0 -40 67z" />
    <glyph glyph-name="afii10090" unicode="&#x448;" horiz-adv-x="769" 
d="M326 405l184 55l-72 -293q-16 -61 -11.5 -89t36.5 -28q27 0 62 24t63 59l63 250l-70 22q31 9 92 27.5t92 27.5l-101 -413l102 45q-95 -102 -157 -102q-56 0 -40 67l12 44q-97 -111 -163 -111q-48 0 -70 31t-17 86q-93 -117 -168 -117q-121 0 -80 164l58 229l-70 22
l184 55l-72 -293q-16 -61 -11.5 -89t36.5 -28q56 0 125 83q1 2 2.5 9t2.5 12l58 229z" />
    <glyph glyph-name="afii10091" unicode="&#x449;" horiz-adv-x="769" 
d="M326 405q30 9 92 27.5t92 27.5q-12 -49 -36 -146.5t-36 -146.5q-16 -61 -11.5 -89t36.5 -28q27 0 62 24t63 59q11 41 32 124.5t31 125.5q-12 3 -35 10.5t-35 11.5q31 9 92 27.5t92 27.5q-76 -309 -101 -413l102 45l-1 -1q-2 -2 -4 -6t-3 -5v-1q-40 -49 -44 -92
q-2 -15 3.5 -43t3.5 -45q-7 -59 -97 -99q22 40 25 75q2 18 -0.5 42.5t0.5 37.5q5 31 42 68q-25 -19 -54 -27q-20 -6 -38 -4q-44 6 -30 65q2 7 6 22t6 22q-97 -111 -163 -111q-48 0 -70 31t-17 86q-93 -117 -168 -117q-121 0 -80 164q10 38 29.5 114.5t28.5 114.5
q-12 3 -35.5 10.5t-34.5 11.5q30 9 92 27.5t92 27.5q-12 -49 -36 -146.5t-36 -146.5q-16 -61 -11.5 -89t36.5 -28q56 0 125 83q7 37 17.5 78.5t24.5 93t21 78.5q-12 3 -35 10.5t-35 11.5z" />
    <glyph glyph-name="afii10092" unicode="&#x44a;" horiz-adv-x="455" 
d="M187 423q-40 0 -67.5 -23.5t-65.5 -92.5l35 143q37 1 105 4.5t105 5.5l-56 -190q37 34 85 34q75 0 107.5 -43t17.5 -117q-15 -75 -76.5 -114t-134.5 -40q-77 0 -110 51.5t-8 134.5l72 247h-9zM310 281q-31 0 -57 -34.5t-39 -88.5q-35 -144 41 -144q30 0 54.5 33.5
t38.5 87.5q35 146 -38 146z" />
    <glyph glyph-name="afii10093" unicode="&#x44b;" horiz-adv-x="654" 
d="M455 57l81 326l-69 22l183 55l-101 -413l102 45q-93 -102 -156 -102q-56 0 -40 67zM70 405l183 55l-55 -190q37 34 85 34q75 0 107.5 -43t16.5 -117q-15 -75 -75.5 -114t-134.5 -40q-77 0 -109.5 51.5t-8.5 134.5l60 207zM265 281q-31 0 -57 -34.5t-39 -88.5
q-7 -28 -9.5 -52.5t0.5 -45.5t15.5 -33.5t34.5 -12.5q30 0 54.5 33.5t37.5 87.5q37 146 -37 146z" />
    <glyph glyph-name="afii10094" unicode="&#x44c;" horiz-adv-x="410" 
d="M70 405l183 55l-55 -190q37 34 85 34q75 0 107.5 -43t16.5 -117q-15 -75 -75.5 -114t-134.5 -40q-77 0 -109.5 51.5t-8.5 134.5l60 207zM265 281q-31 0 -57 -34.5t-39 -88.5q-7 -28 -9.5 -52.5t0.5 -45.5t15.5 -33.5t34.5 -12.5q30 0 54.5 33.5t37.5 87.5q37 146 -37 146
z" />
    <glyph glyph-name="afii10095" unicode="&#x44d;" horiz-adv-x="433" 
d="M175 228l8 32h168q19 74 1.5 121.5t-65.5 47.5q-85 0 -173 -148l44 179l44 -36q50 36 106 36q87 0 119.5 -66t7.5 -169t-92 -169t-163 -66q-71 0 -103.5 52.5t-17.5 139.5q4 -54 27.5 -84t57.5 -36q58 -11 109.5 25t80.5 122l7 19h-166z" />
    <glyph glyph-name="afii10096" unicode="&#x44e;" horiz-adv-x="697" 
d="M272 460l-54 -221l90 6q29 95 98 155t153 60q89 0 128 -66t13 -169q-25 -103 -96.5 -169t-160.5 -66q-85 0 -123 62t-20 161l-90 -6l-50 -207h-96l94 383l-69 22zM407 210q-21 -191 58 -188q49 2 83 63t46 155q7 60 4.5 102t-18 64t-43.5 22q-49 -1 -83.5 -63t-46.5 -155
z" />
    <glyph glyph-name="afii10097" unicode="&#x44f;" horiz-adv-x="517" 
d="M319 57l35 141h-21q-31 -2 -54.5 -17t-47.5 -55l-46 -77q-19 -31 -36 -45t-45 -14q-50 0 -90 90l60 -42l57 93q45 73 106 79q-50 9 -76.5 40.5t-15.5 82.5q26 117 206 117h161l-99 -403l102 45q-93 -102 -156 -102q-56 0 -40 67zM317 230h45l46 188h-45q-100 0 -122 -93
q-9 -41 9 -68t67 -27z" />
    <glyph glyph-name="afii10071" unicode="&#x451;" horiz-adv-x="441" 
d="M327 460q66 0 100 -27.5t29 -75.5q-3 -28 -20 -48t-46 -29.5t-54.5 -14t-60.5 -6.5l-109 -7q-6 -41 -6 -43q-5 -80 30.5 -114.5t92.5 -29.5q44 5 81.5 37t63.5 87q-25 -92 -83 -145.5t-140 -53.5q-89 0 -126 67.5t-12 167.5t97.5 167.5t162.5 67.5zM174 279l84 6
q94 6 101 72q5 36 -10.5 54.5t-40.5 18.5q-42 0 -79 -43.5t-55 -107.5zM197 599q6 26 28 43.5t47 17.5t38 -17.5t7 -43.5q-7 -25 -29 -42t-47 -17t-38 17t-6 42zM373 599q6 26 28 43.5t47 17.5t38 -17.5t7 -43.5q-7 -25 -29 -42t-47 -17t-38 17t-6 42z" />
    <glyph glyph-name="afii10099" unicode="&#x452;" horiz-adv-x="537" 
d="M125 510l206 155q-5 -22 -15.5 -64.5t-16.5 -63.5h94q-1 -4 -3.5 -13t-3.5 -14h-94q-19 -80 -47 -193q29 27 47.5 42.5t55 33t71.5 17.5q46 0 67 -20.5t19.5 -57t-13.5 -86.5l-59 -233q-25 -104 -79.5 -163.5t-131.5 -59.5q-46 0 -71.5 18t-21.5 56q4 28 20 44.5t42 16.5
t34.5 -17.5t1.5 -42.5q-12 -46 14 -46q36 0 58 58q13 31 38 136l56 220q18 61 12 89t-44 28q-63 0 -124 -63q-12 -48 -36 -143.5t-36 -143.5h-95q21 85 63.5 255t63.5 255h-72z" />
    <glyph glyph-name="afii10100" unicode="&#x453;" horiz-adv-x="387" 
d="M106 345q17 52 62.5 83.5t98.5 31.5q63 0 100.5 -33t30.5 -89q-3 -25 -15 -43t-37 -32.5t-46 -23t-61 -22.5q-50 -19 -72 -39.5t-26 -60.5q-4 -39 19.5 -59.5t61.5 -20.5q85 0 144 98q-23 -72 -71 -108.5t-110 -36.5q-67 0 -106 33t-30 90q2 13 5.5 23.5t11 20.5
t12.5 16.5t18 15t18.5 12.5t23.5 11.5t22.5 9.5t26.5 10.5t26 10.5q42 16 63.5 35t26.5 54q6 38 -15 61t-55 23q-71 0 -127 -71zM244 501l48 189h124z" />
    <glyph glyph-name="afii10101" unicode="&#x454;" horiz-adv-x="432" 
d="M161 209q-4 -82 30 -115.5t90 -28.5q43 5 82 37.5t64 86.5q-27 -96 -84.5 -147.5t-134.5 -51.5q-88 0 -127 67t-14 168t97.5 168t162.5 67q65 0 97 -31.5t22 -77.5q-4 -23 -22.5 -38.5t-40.5 -15.5q-23 0 -30 15.5t-3 35.5q11 44 2.5 63t-41.5 19q-46 0 -86.5 -49
t-56.5 -121h144l-8 -32h-142q-1 -7 -1 -19z" />
    <glyph glyph-name="afii10102" unicode="&#x455;" horiz-adv-x="413" 
d="M362 436l57 24l-44 -172q-16 140 -102 140q-39 0 -63.5 -17t-28.5 -47q-5 -27 9 -44t50 -35l54 -27q92 -44 74 -146q-12 -58 -58.5 -90t-109.5 -32q-59 0 -97 31l-69 -31l42 174q25 -142 127 -142q32 0 54.5 16.5t28.5 46.5q7 39 -16 61t-74 43q-54 21 -75.5 53.5
t-12.5 85.5q10 60 55.5 96t110.5 36q57 0 88 -24z" />
    <glyph glyph-name="afii10103" unicode="&#x456;" horiz-adv-x="281" 
d="M193 599q5 25 27 43t48 18q25 0 37.5 -17.5t7.5 -43.5q-7 -25 -29 -42t-47 -17t-38 17t-6 42zM78 57l81 326l-70 22l184 55l-101 -413l102 45q-93 -102 -156 -102q-56 0 -40 67z" />
    <glyph glyph-name="afii10104" unicode="&#x457;" horiz-adv-x="281" 
d="M103 599q5 25 27 43t48 18q25 0 37.5 -17.5t7.5 -43.5q-7 -25 -29 -42t-47 -17t-38 17t-6 42zM78 57l81 326l-70 22l184 55l-101 -413l102 45q-93 -102 -156 -102q-56 0 -40 67zM269 599q5 25 27 43t48 18q25 0 37.5 -17.5t7.5 -43.5q-7 -25 -29 -42t-47 -17t-38 17
t-6 42z" />
    <glyph glyph-name="afii10105" unicode="&#x458;" horiz-adv-x="280" 
d="M111 405l70 -22l-92 -370q-32 -132 -50 -163q-19 -30 -46 -31q-26 0 -14 46q6 25 -2.5 42.5t-33.5 17.5q-26 0 -42 -16.5t-20 -44.5q-4 -38 21.5 -56t71.5 -18q77 0 131.5 59.5t79.5 163.5l110 447zM215 599q5 25 27 43t48 18q25 0 37.5 -17.5t7.5 -43.5q-7 -25 -29 -42
t-47 -17t-38 17t-6 42z" />
    <glyph glyph-name="afii10106" unicode="&#x459;" horiz-adv-x="665" 
d="M334 176l67 242h-117l-49 -195q-57 -233 -174 -233q-23 0 -38 13.5t-12 39.5q3 27 20 40t37 12q17 0 26.5 -16.5t21.5 -15.5q39 2 84 180l37 150l-65 57h333l-52 -180q37 34 85 34q75 0 107.5 -43t16.5 -117q-15 -75 -75.5 -114t-134.5 -40q-77 0 -109.5 51.5t-8.5 134.5
zM520 281q-31 0 -57 -34.5t-39 -88.5q-7 -28 -9.5 -52.5t0.5 -45.5t15.5 -33.5t34.5 -12.5q30 0 54.5 33.5t37.5 87.5q37 146 -37 146z" />
    <glyph glyph-name="afii10107" unicode="&#x45a;" horiz-adv-x="675" 
d="M507 450l-43 -180q37 34 85 34q75 0 107.5 -43t16.5 -117q-15 -75 -76.5 -114t-134.5 -40q-75 0 -106 50.5t-11 135.5l10 43l-141 1q-9 -37 -27 -110t-27 -110h-96q16 64 47 191.5t46 191.5q-12 4 -35 11t-34 11q31 9 92 27.5t91 27.5q-9 -34 -25.5 -104t-25.5 -104h141
l50 198h96zM530 281q-31 0 -57 -34.5t-39 -88.5q-35 -144 41 -144q30 0 54.5 33.5t38.5 87.5q37 146 -38 146z" />
    <glyph glyph-name="afii10108" unicode="&#x45b;" horiz-adv-x="537" 
d="M125 510l206 155q-5 -22 -15.5 -64.5t-16.5 -63.5h94q-1 -4 -3.5 -13t-3.5 -14h-94q-19 -80 -47 -193q29 27 47.5 42.5t55 33t71.5 17.5q46 0 67 -20.5t19.5 -57t-13.5 -86.5l-50 -199l102 45q-96 -102 -156 -102q-56 0 -40 67l45 176q18 61 12 89t-44 28q-63 0 -124 -63
q-12 -48 -36 -143.5t-36 -143.5h-95q21 85 63.5 255t63.5 255h-72z" />
    <glyph glyph-name="afii10109" unicode="&#x45c;" horiz-adv-x="508" 
d="M220 252h6q32 0 56.5 18t59.5 75q17 28 25 39.5t26.5 34t37.5 32t41 9.5t37 -14t11 -40q-2 -23 -17.5 -37.5t-38.5 -14.5q-15 0 -27 10t-17.5 15.5t-18 -6t-33.5 -48.5q-38 -69 -81 -87q25 -3 44 -15t30.5 -26t22.5 -43t16 -49t14 -62q14 8 42 22.5t42 21.5
q-66 -97 -131 -97q-28 0 -40.5 18.5t-20.5 61.5q-7 37 -12 56.5t-14 44.5t-22 36.5t-30 12.5h-14q-9 -37 -27 -110t-27 -110h-96q16 64 47 191.5t46 191.5q-12 4 -35 11t-34 11q31 9 92 27.5t91 27.5q-9 -34 -25.5 -104t-25.5 -104zM307 501l48 189h124q-29 -32 -86.5 -94.5
t-85.5 -94.5z" />
    <glyph glyph-name="afii10110" unicode="&#x45e;" horiz-adv-x="444" 
d="M128 -96l80 119l-83 362q-33 8 -79 20q19 6 52.5 17t62 20.5t53.5 17.5l68 -330q69 103 97 164q12 34 4.5 45.5t-21 29.5t-12.5 37q1 24 18 39t41 15q39 0 51 -35t-16 -93q-51 -93 -164 -262l-114 -171q-42 -64 -72 -87t-63 -23q-25 0 -41.5 15.5t-15.5 43.5q2 23 17 38
t37 15q18 0 31.5 -15.5t24.5 -15.5q20 -2 44 34zM290 648q20 0 29 -10.5t5 -29.5q-3 -14 -16.5 -28t-12.5 -23q2 -27 45 -27q44 0 58 27q4 9 -2 23t-3 28q4 18 20 29t36 11q27 0 36 -16t4 -36q-11 -45 -56 -66t-99 -21q-53 0 -86.5 21t-23.5 66q5 21 22 36.5t44 15.5z" />
    <glyph glyph-name="afii10193" unicode="&#x45f;" horiz-adv-x="525" 
d="M86 405l183 55l-72 -293q-11 -44 -13 -68t7 -37.5t32 -13.5q26 0 61 25t63 60l63 250q-12 4 -35 11t-34 11q30 9 91 27.5t92 27.5l-101 -413l103 45q-97 -102 -157 -102q-56 0 -40 67l11 44q-7 -8 -31.5 -31t-37 -42t-14.5 -44q-1 -15 4 -43t3 -45q-7 -59 -97 -99
q22 40 25 75q2 18 -0.5 42.5t0.5 37.5q5 30 25 50q-29 -12 -46 -12q-115 0 -74 164l58 229z" />
    <glyph glyph-name="afii10050" unicode="&#x490;" horiz-adv-x="574" 
d="M730 770l-64 -260l-82 105h-211l-137 -554l91 -61h-300l95 51l136 548l-73 51h409z" />
    <glyph glyph-name="afii10098" unicode="&#x491;" horiz-adv-x="387" 
d="M106 345q36 66 38 105q1 14 -3.5 42.5t-2.5 45.5q7 62 97 99q-21 -37 -26 -75q-2 -18 0.5 -42t-0.5 -38q-4 -28 -22 -44q38 22 80 22q63 0 100.5 -33t30.5 -89q-3 -25 -15 -43t-37 -32.5t-46 -23t-61 -22.5q-50 -19 -72 -39.5t-26 -60.5q-4 -39 19.5 -59.5t61.5 -20.5
q85 0 144 98q-23 -72 -71 -108.5t-110 -36.5q-67 0 -106 33t-30 90q2 13 5.5 23.5t11 20.5t12.5 16.5t18 15t18.5 12.5t23.5 11.5t22.5 9.5t26.5 10.5t26 10.5q42 16 63.5 35t26.5 54q6 38 -15 61t-55 23q-71 0 -127 -71z" />
    <glyph glyph-name="endash" unicode="&#x2013;" horiz-adv-x="490" 
d="M84 220l8 32h430l-8 -32h-430z" />
    <glyph glyph-name="emdash" unicode="&#x2014;" horiz-adv-x="591" 
d="M54 220l8 32h591l-8 -32h-591z" />
    <glyph glyph-name="quoteleft" unicode="&#x2018;" horiz-adv-x="241" 
d="M305 460q-6 -26 -27.5 -44t-50.5 -18q-35 0 -50.5 24t-2.5 77q12 51 59 99t112 72q-53 -26 -86 -72.5t-38 -89.5q19 10 41 10q25 0 37 -16.5t6 -41.5z" />
    <glyph glyph-name="quoteright" unicode="&#x2019;" horiz-adv-x="241" 
d="M200 604q7 26 28.5 43.5t49.5 17.5q35 0 50.5 -24t2.5 -77q-12 -51 -59 -99t-112 -72q53 26 86 72.5t38 89.5q-19 -10 -40 -10q-26 0 -38 17t-6 42z" />
    <glyph glyph-name="quotesinglbase" unicode="&#x201a;" horiz-adv-x="241" 
d="M63 52q6 26 27.5 43.5t50.5 17.5q78 0 53 -100q-13 -51 -59.5 -99t-111.5 -72q53 26 86 73t38 89q-20 -11 -41 -11q-26 0 -38 17t-5 42z" />
    <glyph glyph-name="quotedblleft" unicode="&#x201c;" horiz-adv-x="417" 
d="M481 460q-6 -26 -27.5 -44t-50.5 -18q-35 0 -50.5 24t-2.5 77q12 51 59 99t112 72q-53 -26 -86 -72.5t-38 -89.5q19 10 41 10q25 0 37 -16.5t6 -41.5zM305 460q-6 -26 -27.5 -44t-50.5 -18q-35 0 -50.5 24t-2.5 77q12 51 59 99t112 72q-53 -26 -86 -72.5t-38 -89.5
q19 10 41 10q25 0 37 -16.5t6 -41.5z" />
    <glyph glyph-name="quotedblright" unicode="&#x201d;" horiz-adv-x="417" 
d="M200 604q7 26 28.5 43.5t49.5 17.5q35 0 50.5 -24t2.5 -77q-12 -51 -59 -99t-112 -72q53 26 86 72.5t38 89.5q-19 -10 -40 -10q-26 0 -38 17t-6 42zM376 604q7 26 28.5 43.5t49.5 17.5q35 0 50.5 -24t2.5 -77q-12 -51 -59 -99t-112 -72q53 26 86 72.5t38 89.5
q-19 -10 -40 -10q-26 0 -38 17t-6 42z" />
    <glyph glyph-name="quotedblbase" unicode="&#x201e;" horiz-adv-x="417" 
d="M63 52q6 26 27.5 43.5t50.5 17.5q78 0 53 -100q-13 -51 -59.5 -99t-111.5 -72q53 26 86 73t38 89q-20 -11 -41 -11q-26 0 -38 17t-5 42zM239 52q6 26 27.5 43.5t50.5 17.5q78 0 53 -100q-13 -51 -59.5 -99t-111.5 -72q53 26 86 73t38 89q-20 -11 -41 -11q-26 0 -38 17
t-5 42z" />
    <glyph glyph-name="dagger" unicode="&#x2020;" horiz-adv-x="403" 
d="M365 511q0 -4 2.5 -56.5t-2.5 -74.5q-10 -79 -20 -102q-18 -33 -46 -33q-14 0 -22 7t-9.5 12.5t-3.5 14.5q-4 10 -6 54q22 33 62.5 102t44.5 76zM300 399q-15 28 -15 71q0 46 13 79q22 57 58 70q27 -9 22 -56q-10 -95 -78 -164zM272 493q66 35 93 42q18 5 35 2
q41 -12 43 -44q-19 -35 -65 -43q-21 -3 -38 3q-36 17 -68 40zM351 533q-38 -13 -76 -39t-47 -30q-3 4 -11.5 13.5t-11.5 14.5t-7.5 17.5t0.5 23.5q9 37 50 44q10 1 21 0q14 -2 37 -19.5t45 -24.5z" />
    <glyph glyph-name="daggerdbl" unicode="&#x2021;" horiz-adv-x="389" 
d="M398 629q-4 -14 -13 -29t-27 -40t-32 -49l-4 -16q38 10 72.5 27.5t52.5 17.5q15 0 28 -10.5t7 -36.5q-7 -26 -25 -36.5t-34 -10.5q-18 0 -44 17t-58 28l-36 -147q37 10 72 27.5t53 17.5q15 0 27.5 -10t6.5 -36q-7 -26 -25 -37t-33 -11q-18 0 -44.5 17.5t-57.5 27.5
l-4 -16q2 -26 9 -62.5t3 -54.5q-3 -15 -17.5 -30.5t-40.5 -15.5t-33 15t-3 31q5 18 30.5 54t41.5 64l4 16q-38 -10 -72.5 -27.5t-52.5 -17.5q-15 0 -28 10.5t-6 36.5t25 36.5t33 10.5q18 0 44 -17.5t58 -28.5l37 148q-37 -10 -72.5 -27.5t-53.5 -17.5q-9 0 -17 3t-14.5 14
t-1.5 29q6 26 24.5 37t33.5 11q18 0 43.5 -18t57.5 -28l4 16q-1 28 -8.5 64t-3.5 54q3 15 17.5 30.5t40.5 15.5t33 -15t3 -31z" />
    <glyph glyph-name="bullet" unicode="&#x2022;" horiz-adv-x="350" 
d="M227 453q51 0 87 -36.5t36 -85.5q0 -51 -37 -87t-86 -36q-51 0 -86.5 36.5t-35.5 86.5q0 51 36.5 86.5t85.5 35.5z" />
    <glyph glyph-name="ellipsis" unicode="&#x2026;" horiz-adv-x="572" 
d="M60 53q6 25 27.5 42.5t47.5 17.5q25 0 38 -17t7 -43q-7 -25 -29 -42.5t-47 -17.5t-38 17.5t-6 42.5zM239 53q6 25 27.5 42.5t47.5 17.5q25 0 38 -17t7 -43q-7 -25 -29 -42.5t-47 -17.5t-38 17.5t-6 42.5zM418 53q6 25 27.5 42.5t47.5 17.5q25 0 38 -17t7 -43
q-7 -25 -29 -42.5t-47 -17.5t-38 17.5t-6 42.5z" />
    <glyph glyph-name="perthousand" unicode="&#x2030;" horiz-adv-x="1019" 
d="M699 665h52l-587 -675h-53zM153 497q20 79 68 123.5t106 44.5t84 -44.5t6 -123.5t-68 -124t-106 -45t-84 45t-6 124zM340 497q37 143 -19 143q-19 0 -35 -14t-27.5 -42t-16.5 -43.5t-12 -43.5q-4 -19 -6 -28t-6 -30t-3 -32.5t3 -26t10.5 -21t21.5 -6.5q56 0 90 144z
M445 159q20 79 68.5 123.5t106.5 44.5t83.5 -44.5t5.5 -123.5t-68 -124t-105 -45q-58 0 -84.5 45t-6.5 124zM632 159q37 143 -18 143q-16 0 -30 -11.5t-23 -24.5t-18 -37.5t-12 -36t-9 -33.5q-37 -144 20 -144q19 0 34.5 14t27 42.5t16.5 43.5t12 44zM764 159
q20 79 68.5 123.5t106.5 44.5t83.5 -44.5t5.5 -123.5t-68 -124t-105 -45q-58 0 -84.5 45t-6.5 124zM951 159q37 143 -18 143q-16 0 -30 -11.5t-23 -24.5t-18 -37.5t-12 -36t-9 -33.5q-37 -144 20 -144q19 0 34.5 14t27 42.5t16.5 43.5t12 44z" />
    <glyph glyph-name="guilsinglleft" unicode="&#x2039;" horiz-adv-x="258" 
d="M193 236l48 -180l-153 180l243 180z" />
    <glyph glyph-name="guilsinglright" unicode="&#x203a;" horiz-adv-x="258" 
d="M43 56l138 180l-48 180l153 -180z" />
    <glyph glyph-name="Euro" unicode="&#x20ac;" horiz-adv-x="502" 
d="M94 378l8 32h68q45 116 120.5 185.5t170.5 69.5q47 0 80 -22l68 22l-61 -245q-1 15 -3 39t-3 37t-3.5 32.5t-5 30t-6.5 24.5t-9 21.5t-12.5 14.5t-17 10t-21.5 3q-102 0 -174 -222h153l-8 -32h-155q-7 -24 -12 -48q-4 -14 -7 -30h154l-8 -32h-153q-15 -100 7 -157.5
t81 -57.5q47 0 83.5 31.5t74.5 95.5q-29 -86 -83.5 -138t-126.5 -52q-100 0 -140.5 76t-20.5 202h-66l8 32h63q4 18 7 27q4 17 14 51h-64z" />
    <glyph glyph-name="afii61352" unicode="&#x2116;" horiz-adv-x="944" 
d="M753 417q20 79 68 123.5t106 44.5t84 -44.5t6 -123.5t-68 -124t-106 -45t-84 45t-6 124zM940 417q37 143 -19 143q-19 0 -35 -14t-27.5 -42t-16.5 -43.5t-12 -43.5q-4 -19 -6 -28t-6 -30t-3 -32.5t3 -26t10.5 -21t21.5 -6.5q56 0 90 144zM688 156l8 32h264l-8 -32h-264z
M184 63l85 -63h-239l105 63l129 515l-72 72h182l207 -413l88 350l-74 63h229l-106 -63l-150 -602l-269 538z" />
    <glyph glyph-name="trademark" unicode="&#x2122;" horiz-adv-x="622" 
d="M342 400l43 28l47 187l-18 15h-71l-51 -204l34 -26h-141l48 26l51 204h-53l-60 -61l21 81h322l30 -157l106 157h104l-39 -21l-51 -207l27 -22h-125l39 22l49 196l-153 -224l-43 214l-45 -180l29 -28h-100z" />
    <glyph glyph-name="percent" horiz-adv-x="700" 
d="M699 665h52l-587 -675h-53zM153 497q20 79 68 123.5t106 44.5t84 -44.5t6 -123.5t-68 -124t-106 -45t-84 45t-6 124zM340 497q37 143 -19 143q-19 0 -35 -14t-27.5 -42t-16.5 -43.5t-12 -43.5q-4 -19 -6 -28t-6 -30t-3 -32.5t3 -26t10.5 -21t21.5 -6.5q56 0 90 144z
M445 159q20 79 68.5 123.5t106.5 44.5t83.5 -44.5t5.5 -123.5t-68 -124t-105 -45q-58 0 -84.5 45t-6.5 124zM632 159q37 143 -18 143q-16 0 -30 -11.5t-23 -24.5t-18 -37.5t-12 -36t-9 -33.5q-37 -144 20 -144q19 0 34.5 14t27 42.5t16.5 43.5t12 44z" />
    </font>
</defs>
</svg>
