<?xml version="1.0" standalone="no"?>
<!DOCTYPE svg PUBLIC "-//W3C//DTD SVG 1.1//EN" "http://www.w3.org/Graphics/SVG/1.1/DTD/svg11.dtd" >
<svg xmlns="http://www.w3.org/2000/svg" xmlns:xlink="http://www.w3.org/1999/xlink" version="1.1">
<metadata>
Created by FontForge 20170731 at Wed Sep  2 21:09:31 2009
 By Aleksey,,,
Copyright (c) 2009 by abstrkt. All rights reserved.
</metadata>
<defs>
<font id="Vremena" horiz-adv-x="446" >
  <font-face 
    font-family="Vremena"
    font-weight="400"
    font-stretch="normal"
    units-per-em="1000"
    panose-1="0 0 0 0 0 0 0 0 0 0"
    ascent="750"
    descent="-250"
    x-height="450"
    cap-height="650"
    bbox="-77.2581 -358 996 890"
    underline-thickness="50"
    underline-position="-200"
    unicode-range="U+0020-2122"
  />
<missing-glyph horiz-adv-x="300" 
 />
    <glyph glyph-name=".notdef" horiz-adv-x="300" 
 />
    <glyph glyph-name=".null" horiz-adv-x="0" 
 />
    <glyph glyph-name="nonmarkingreturn" horiz-adv-x="333" 
 />
    <glyph glyph-name="space" unicode=" " horiz-adv-x="234" 
 />
    <glyph glyph-name="exclam" unicode="!" horiz-adv-x="262" 
d="M131 665q61 0 61 -93q0 -81 -61 -414q-1 6 -13.5 75.5t-21.5 124t-17.5 119.5t-8.5 95q0 93 61 93zM71 53q0 25 17.5 42.5t42.5 17.5t42.5 -17.5t17.5 -42.5t-17.5 -42.5t-42.5 -17.5t-42.5 17.5t-17.5 42.5z" />
    <glyph glyph-name="quotedbl" unicode="&#x22;" horiz-adv-x="346" 
d="M99 665q24 0 37.5 -17.5t13.5 -44.5t-7 -58t-21 -81.5t-23 -91.5q-9 41 -22.5 91.5t-20 81.5t-6.5 58t12.5 44.5t36.5 17.5zM245 665q24 0 37.5 -17.5t13.5 -44.5t-7 -58t-21 -81.5t-23 -91.5q-9 41 -22.5 91.5t-20 81.5t-6.5 58t12.5 44.5t36.5 17.5z" />
    <glyph glyph-name="numbersign" unicode="#" horiz-adv-x="504" 
d="M407 665h39l-44 -215h92v-32h-99l-36 -178h115v-32h-121l-44 -218h-40l44 218h-170l-44 -218h-40l44 218h-93v32h100l36 178h-116v32h123l44 215h39l-44 -215h171zM185 418l-36 -178h171l36 178h-171z" />
    <glyph glyph-name="dollar" unicode="$" horiz-adv-x="502" 
d="M219 750h40v-86q73 -16 96 -40l66 41v-265q-33 113 -66.5 168.5t-95.5 62.5v-235l63 -25q61 -24 98 -73t37 -125q0 -77 -49 -130t-147 -53h-2v-90h-40v90q-71 15 -99 47l-70 -47v265q60 -208 169 -230v252l-64 27q-107 45 -107 176q0 87 52 134.5t119 50.5v85zM282 253
l-23 9v-240h9q49 0 83.5 30t34.5 86q0 25 -9.5 44.5t-27 33t-32 21.5t-35.5 16zM109 522q0 -40 17.5 -62t63.5 -39l29 -11v223q-43 -3 -76.5 -30.5t-33.5 -80.5z" />
    <glyph glyph-name="ampersand" unicode="&#x26;" horiz-adv-x="635" 
d="M606 106q-10 -54 -39 -85t-71 -31q-65 0 -119 67q-74 -67 -173 -67q-72 0 -123 45t-51 117q0 121 148 197q-5 7 -14.5 21.5t-13.5 20.5q-47 67 -47 137q0 61 49.5 99t125.5 38t120 -31.5t44 -91.5q0 -11 -2 -20.5t-7 -19t-9.5 -16.5t-14.5 -17t-17 -16t-22.5 -17.5
t-24.5 -17.5t-29 -20t-31 -22q24 -36 142 -212q31 42 56 108q-12 12 -37.5 35.5t-38.5 35.5h198q-16 -13 -49 -37.5t-49 -36.5q-28 -74 -63 -129q20 -29 31 -44t28 -28t33 -13q48 0 70 51zM254 62q53 0 100 29q-53 75 -155 227q-67 -51 -65 -129q1 -59 35 -93t85 -34z
M205 546q0 -29 13 -58t49 -86q77 50 77 136q0 97 -67 97q-37 0 -54.5 -29t-17.5 -60z" />
    <glyph glyph-name="quotesingle" unicode="'" horiz-adv-x="203" 
d="M101 665q25 0 38.5 -17.5t13.5 -44.5t-7.5 -58.5t-21.5 -81.5t-23 -91q-9 42 -22.5 91.5t-21 81.5t-7.5 58q0 27 13.5 44.5t37.5 17.5z" />
    <glyph glyph-name="parenleft" unicode="(" horiz-adv-x="342" 
d="M149 240q0 -152 42 -272t131 -182q-127 51 -204.5 177.5t-77.5 276.5t77.5 276.5t204.5 177.5q-173 -115 -173 -454z" />
    <glyph glyph-name="parenright" unicode=")" horiz-adv-x="342" 
d="M200 240q0 339 -173 454q127 -51 204.5 -177.5t77.5 -276.5t-77.5 -276.5t-204.5 -177.5q89 62 131 182t42 272z" />
    <glyph glyph-name="asterisk" unicode="*" horiz-adv-x="420" 
d="M207 675q25 0 36 -14.5t11 -32.5q0 -19 -18 -59t-29 -80q-11 40 -28.5 80t-17.5 59q0 18 10.5 32.5t35.5 14.5zM33 546q8 25 27.5 31.5t31.5 -1.5q19 -6 51.5 -35.5t66.5 -51.5q-35 2 -68 -0.5t-43.5 -4t-34.5 3.5q-17 5 -27.5 19.5t-3.5 38.5zM387 546q7 -24 -3.5 -39
t-27.5 -20q-24 -5 -34.5 -3.5t-43.5 4.5t-68 1q35 22 67.5 51t50.5 35q12 7 31.5 1t27.5 -30zM100 338q-37 27 -10 66q11 15 49 36.5t71 48.5q-15 -39 -24.5 -82t-20.5 -58q-28 -38 -65 -11zM320 338q-25 -13 -40.5 -8t-25.5 19q-11 16 -20.5 59t-23.5 81q33 -27 70.5 -48.5
t48.5 -36.5q25 -39 -9 -66z" />
    <glyph glyph-name="plus" unicode="+" horiz-adv-x="490" 
d="M66 320v32h163v163h32v-163h164v-32h-164v-164h-32v164h-163z" />
    <glyph glyph-name="comma" unicode="," horiz-adv-x="241" 
d="M50 52q0 26 17 43.5t46 17.5q78 0 78 -100q0 -51 -34.5 -99t-93.5 -72q46 26 67.5 73t15.5 89q-17 -11 -38 -11q-25 0 -41.5 17t-16.5 42z" />
    <glyph glyph-name="hyphen" unicode="-" horiz-adv-x="369" 
d="M40 220v32h289v-32h-289z" />
    <glyph glyph-name="period" unicode="." horiz-adv-x="214" 
d="M47 53q0 25 17.5 42.5t42.5 17.5t42.5 -17.5t17.5 -42.5t-18 -42.5t-43 -17.5t-42 17.5t-17 42.5z" />
    <glyph glyph-name="slash" unicode="/" horiz-adv-x="279" 
d="M240 665h39l-239 -675h-40z" />
    <glyph glyph-name="zero" unicode="0" horiz-adv-x="502" 
d="M30 328q0 91 23 165.5t74.5 123t123.5 48.5t123.5 -48.5t74.5 -123t23 -165.5t-23 -165.5t-74.5 -123.5t-123.5 -49t-123.5 49t-74.5 123.5t-23 165.5zM358 328q0 39 -0.5 63.5t-3.5 66t-10 68t-18 54t-30.5 41.5t-44.5 14t-44.5 -14t-30.5 -41.5t-18 -54t-10 -68
t-3.5 -66t-0.5 -63.5t0.5 -63.5t3.5 -66t10 -68.5t18 -54.5t30.5 -41.5t44.5 -14t44.5 14t30.5 41.5t18 54.5t10 68.5t3.5 66t0.5 63.5z" />
    <glyph glyph-name="one" unicode="1" horiz-adv-x="502" 
d="M201 541h-86l185 124v-614l93 -51h-284l92 51v490z" />
    <glyph glyph-name="two" unicode="2" horiz-adv-x="502" 
d="M390 92l76 63l-56 -155h-384l199 232q56 66 80.5 117t24.5 108q0 59 -33.5 90t-83.5 31q-100 0 -154 -126q12 107 61.5 160t126.5 53t128 -47t51 -127q0 -49 -29.5 -100t-103.5 -135l-139 -164h236z" />
    <glyph glyph-name="three" unicode="3" horiz-adv-x="502" 
d="M69 498q46 167 185 167q66 0 111.5 -34t45.5 -100q0 -81 -95 -145q128 -44 128 -177q0 -98 -73.5 -158.5t-177.5 -60.5q-69 0 -103.5 20t-34.5 50q0 19 13 33.5t37 14.5q21 0 36 -12t23 -26.5t26 -26.5t43 -12q56 0 88.5 39t32.5 99q0 78 -44.5 122t-116.5 44h-27
q70 22 112.5 60.5t43.5 88.5q0 48 -28.5 76t-80.5 28q-93 0 -144 -90z" />
    <glyph glyph-name="four" unicode="4" horiz-adv-x="502" 
d="M380 51l81 -51h-270l91 51v124h-268l366 493v-434h96l-43 -59h-53v-124zM95 234h187v254z" />
    <glyph glyph-name="five" unicode="5" horiz-adv-x="502" 
d="M183 650h246l-40 -94h-205l-37 -87q128 -7 203 -66t75 -165q0 -112 -75 -180t-183 -68q-61 0 -94 18t-33 51q0 22 14 35.5t34 13.5t36 -11t25.5 -23.5t27.5 -23.5t41 -11q59 0 101.5 42.5t42.5 102.5q0 47 -19 81.5t-48.5 54.5t-70.5 31.5t-79 14.5t-79 1z" />
    <glyph glyph-name="six" unicode="6" horiz-adv-x="502" 
d="M283 418q80 0 127.5 -57.5t47.5 -137.5q0 -95 -57 -164t-151 -69q-99 0 -152.5 80.5t-53.5 192.5q0 117 43 209.5t129 145t203 46.5q-124 -25 -188.5 -110t-76.5 -213q42 77 129 77zM264 20q41 0 67 41t26 119q0 86 -26.5 140.5t-85.5 54.5q-51 0 -92 -37q-4 -57 -1 -100
q2 -33 7.5 -66t17.5 -69.5t34.5 -59.5t52.5 -23z" />
    <glyph glyph-name="seven" unicode="7" horiz-adv-x="502" 
d="M34 474l49 176h361l-241 -660h-53l205 565h-247z" />
    <glyph glyph-name="eight" unicode="8" horiz-adv-x="502" 
d="M183 322q-53 43 -82 83q-36 48 -36 96q0 77 52.5 120.5t129.5 43.5q71 0 125.5 -37t54.5 -99q0 -51 -35 -89t-97 -72q72 -57 97 -84q54 -60 54 -124q0 -83 -57.5 -126.5t-141.5 -43.5q-79 0 -134.5 40t-55.5 113q0 52 29 93.5t97 85.5zM189 454l83 -67q43 38 61 68t18 72
q0 47 -28 77.5t-75 30.5q-49 0 -79 -26.5t-30 -64.5q0 -50 50 -90zM206 304q-69 -63 -69 -151q0 -61 32.5 -97t87.5 -36q51 0 83 25t32 66q0 34 -32 73q-30 37 -134 120z" />
    <glyph glyph-name="nine" unicode="9" horiz-adv-x="502" 
d="M219 237q-80 0 -127.5 57.5t-47.5 137.5q0 95 57 164t151 69q99 0 152.5 -80.5t53.5 -192.5q0 -117 -43 -209.5t-129 -145t-203 -46.5q238 48 265 322q-42 -76 -129 -76zM238 635q-42 0 -67.5 -40.5t-25.5 -119.5q0 -86 26.5 -140.5t85.5 -54.5q53 0 91 37q4 40 2 100
q-2 33 -7.5 66t-17.5 70t-34.5 59.5t-52.5 22.5z" />
    <glyph glyph-name="colon" unicode=":" horiz-adv-x="220" 
d="M50 88q0 26 17 43t43 17t43 -17t17 -43q0 -25 -18 -42.5t-43 -17.5t-42 17.5t-17 42.5zM50 361q0 25 17 42.5t43 17.5t43 -17.5t17 -42.5t-18 -42.5t-43 -17.5t-42 17.5t-17 42.5z" />
    <glyph glyph-name="semicolon" unicode=";" horiz-adv-x="242" 
d="M50 52q0 26 17 43.5t46 17.5q78 0 78 -100q0 -51 -34.5 -99t-93.5 -72q46 26 67.5 73t15.5 89q-17 -11 -38 -11q-25 0 -41.5 17t-16.5 42zM50 361q0 25 17 42.5t43 17.5t43 -17.5t17 -42.5t-18 -42.5t-43 -17.5t-42 17.5t-17 42.5z" />
    <glyph glyph-name="less" unicode="&#x3c;" horiz-adv-x="490" 
d="M70 337l342 241v-42l-277 -199l277 -196v-44z" />
    <glyph glyph-name="equal" unicode="=" horiz-adv-x="490" 
d="M65 268v32h360v-32h-360zM65 378v32h360v-32h-360z" />
    <glyph glyph-name="greater" unicode="&#x3e;" horiz-adv-x="490" 
d="M420 338l-342 -241v42l277 199l-277 196v44z" />
    <glyph glyph-name="question" unicode="?" horiz-adv-x="454" 
d="M191 174q2 54 21 100t40 72.5t38.5 68t17.5 89.5q0 61 -30.5 97.5t-79.5 36.5q-39 0 -64 -18t-25 -43q0 -12 18 -30t21 -38q3 -26 -12 -43t-38 -17q-24 0 -41 18t-17 54q0 68 56.5 106t125.5 38q87 0 139.5 -42t52.5 -115q0 -42 -20 -78.5t-50 -64.5t-61 -55.5
t-57.5 -62.5t-34.5 -73zM148 53q0 25 17 42.5t42 17.5q26 0 43.5 -17.5t17.5 -42.5t-18 -42.5t-43 -17.5t-42 17.5t-17 42.5z" />
    <glyph glyph-name="at" unicode="@" horiz-adv-x="530" 
d="M65 225q0 -87 57 -146t148 -59q58 0 107 30l16 -25q-57 -35 -123 -35q-103 0 -169 68t-66 167q0 97 68.5 166t166.5 69q103 0 164 -63t61 -162q0 -60 -27.5 -105.5t-77.5 -45.5q-26 0 -46 14t-27 36l-3 2q-29 -52 -83 -52q-50 0 -78.5 38.5t-24.5 101.5q4 65 43 105
t96 40q43 0 64 -30l56 27l-12 -195q-5 -57 25 -57t47.5 35.5t17.5 85.5q0 87 -52.5 141t-142.5 54q-85 0 -145 -60t-60 -145zM198 218q-1 -42 13.5 -66.5t41.5 -24.5q33 0 56 28l10 137q1 29 -15 41.5t-39 9.5q-64 -7 -67 -125z" />
    <glyph glyph-name="A" unicode="A" horiz-adv-x="663" 
d="M-10 0l91 61l248 604l256 -615l78 -50h-261l67 45l-54 130h-245l-50 -120l77 -55h-207zM290 471l-106 -261h215z" />
    <glyph glyph-name="B" unicode="B" horiz-adv-x="608" 
d="M111 599l-84 51h279q113 0 178 -36t65 -126q0 -60 -40 -100t-103 -48q76 -9 125 -51t49 -108q0 -181 -244 -181h-309l84 51v548zM223 320v-285h94q59 0 97 34t38 111q0 75 -43.5 107.5t-101.5 32.5h-84zM223 615v-260h68q136 4 136 134q0 39 -11.5 65.5t-33 39t-43.5 17
t-52 4.5h-64z" />
    <glyph glyph-name="C" unicode="C" horiz-adv-x="620" 
d="M559 665v-245q-40 104 -87 158t-121 54q-93 0 -143 -83t-50 -219q0 -123 59.5 -200t155.5 -77q76 0 128 46.5t72 127.5q-7 -106 -72.5 -171.5t-163.5 -65.5q-136 0 -221.5 96t-85.5 241t84 241.5t220 96.5q87 0 145 -45z" />
    <glyph glyph-name="D" unicode="D" horiz-adv-x="659" 
d="M27 650h292q141 0 225.5 -89t84.5 -234q0 -146 -85 -236.5t-225 -90.5h-292l84 51v548zM310 615h-87v-580h87q93 0 141.5 76.5t48.5 215.5q0 138 -48.5 213t-141.5 75z" />
    <glyph glyph-name="E" unicode="E" horiz-adv-x="596" 
d="M27 0l84 51v548l-84 51h518v-220l-104 185h-218v-260h114l75 103v-240l-74 102h-115v-285h227l110 185v-220h-533z" />
    <glyph glyph-name="F" unicode="F" horiz-adv-x="585" 
d="M27 0l84 51v548l-84 51h518v-220l-110 185h-212v-260h107l75 103v-240l-74 102h-108v-269l94 -51h-290z" />
    <glyph glyph-name="G" unicode="G" horiz-adv-x="627" 
d="M644 290l-74 -51v-249l-85 68q-55 -68 -151 -68q-142 0 -223 95t-81 242q0 145 84.5 241.5t222.5 96.5q82 0 139 -45l83 45v-265q-20 53 -39 90.5t-45.5 72t-61 52t-76.5 17.5q-175 0 -177 -310q-1 -133 45 -215t137 -82q45 0 70.5 15t45.5 41v158l-84 51h270z" />
    <glyph glyph-name="H" unicode="H" horiz-adv-x="734" 
d="M27 0l84 51v548l-84 51h280l-84 -51v-244h288v244l-84 51h280l-84 -51v-548l84 -51h-280l84 51v269h-288v-269l84 -51h-280z" />
    <glyph glyph-name="I" unicode="I" horiz-adv-x="334" 
d="M307 650l-84 -51v-548l84 -51h-280l84 51v548l-84 51h280z" />
    <glyph glyph-name="J" unicode="J" horiz-adv-x="466" 
d="M442 650l-84 -51v-369q0 -116 -48.5 -178t-137.5 -62q-77 0 -113 29t-39 74q-1 33 15.5 53t41.5 20q34 0 48 -20.5t10 -48.5q-11 -75 44 -75q16 0 28 7t19 25t11.5 33.5t6 48t2 52.5t0.5 62v349l-84 51h280z" />
    <glyph glyph-name="K" unicode="K" horiz-adv-x="705" 
d="M27 0l84 51v548l-84 51h280l-84 -51v-295l266 288l-66 58h230l-126 -75l-168 -185l242 -332l94 -58h-191l-218 314l-63 -68v-195l84 -51h-280z" />
    <glyph glyph-name="L" unicode="L" horiz-adv-x="603" 
d="M570 220v-220h-543l84 51v548l-84 51h300l-104 -61v-554h237z" />
    <glyph glyph-name="M" unicode="M" horiz-adv-x="864" 
d="M27 0l87 63v533l-87 54h204l200 -471l196 471h210l-84 -51v-548l84 -51h-280l84 51v519l-242 -585l-236 558v-480l87 -63h-223z" />
    <glyph glyph-name="N" unicode="N" horiz-adv-x="712" 
d="M166 63l100 -63h-239l90 63v515l-90 72h182l337 -426v363l-90 63h229l-90 -63v-602l-429 538v-460z" />
    <glyph glyph-name="O" unicode="O" horiz-adv-x="669" 
d="M30 327q0 144 86 241t218 97t218.5 -97t86.5 -241t-86.5 -240.5t-218.5 -96.5t-218 96.5t-86 240.5zM160 327q0 -140 44.5 -222.5t130.5 -82.5t130.5 82.5t44.5 222.5t-44.5 223t-130.5 83t-130.5 -83t-44.5 -223z" />
    <glyph glyph-name="P" unicode="P" horiz-adv-x="602" 
d="M27 0l84 51v548l-84 51h309q106 0 172.5 -50.5t66.5 -144.5t-66.5 -144.5t-172.5 -50.5h-113v-209l84 -51h-280zM223 615v-320h88q59 0 97.5 41t38.5 119t-38.5 119t-97.5 41h-88z" />
    <glyph glyph-name="Q" unicode="Q" horiz-adv-x="669" 
d="M30 327q0 144 86 241t218 97t218.5 -97t86.5 -241q0 -127 -69 -219.5t-179 -112.5q-5 -69 32 -131t115 -64q-64 -16 -113 -3.5t-83 45t-51.5 73.5t-17.5 81q-109 22 -176 113.5t-67 217.5zM160 327q0 -140 44.5 -222.5t130.5 -82.5t130.5 82.5t44.5 222.5t-44.5 223
t-130.5 83t-130.5 -83t-44.5 -223z" />
    <glyph glyph-name="R" unicode="R" horiz-adv-x="663" 
d="M27 650h299q239 0 239 -172q0 -73 -49 -119t-137 -54q51 -8 83.5 -35t56.5 -78l64 -139l83 -53h-188l-89 210q-39 86 -127 86h-39v-245l84 -51h-280l84 51v548zM223 615v-284h87q58 0 95.5 39t37.5 108q0 73 -38.5 105t-97.5 32h-84z" />
    <glyph glyph-name="S" unicode="S" horiz-adv-x="543" 
d="M471 665v-235q-37 101 -88 152t-122 51q-55 0 -97 -27.5t-42 -75.5q0 -35 24 -57.5t73 -42.5l159 -68q61 -25 98 -68.5t37 -120.5q0 -75 -53 -129t-153 -54q-51 0 -96.5 18.5t-69.5 44.5l-79 -63v259q42 -109 100 -168t145 -59q61 0 98 30t37 80q0 24 -9 43t-26.5 32.5
t-31 21t-34.5 16.5l-157 68q-124 52 -124 164q0 92 58.5 140t141.5 48q84 0 138 -44z" />
    <glyph glyph-name="T" unicode="T" horiz-adv-x="637" 
d="M614 650v-220l-110 185h-126v-554l104 -61h-320l104 61v554h-126l-110 -185v220h584z" />
    <glyph glyph-name="U" unicode="U" horiz-adv-x="720" 
d="M108 599l-84 51h280l-84 -51v-336q0 -35 3 -62t12.5 -58t26.5 -51.5t47.5 -34t71.5 -13.5q51 0 87.5 19.5t55 52.5t26 66.5t7.5 71.5v333l-90 63h229l-90 -63v-328q0 -48 -10.5 -91.5t-35 -85.5t-73 -67t-115.5 -25q-76 0 -130 23t-82 62.5t-40 83t-12 95.5v345z" />
    <glyph glyph-name="V" unicode="V" horiz-adv-x="679" 
d="M689 650l-91 -62l-244 -603l-264 609l-90 56h270l-67 -46l185 -425l171 415l-77 56h207z" />
    <glyph glyph-name="W" unicode="W" horiz-adv-x="981" 
d="M988 650l-91 -62l-222 -603l-175 451l-174 -451l-237 609l-89 56h270l-67 -46l158 -424l119 307l-43 107l-90 56h270l-66 -46l157 -424l153 414l-80 56h207z" />
    <glyph glyph-name="X" unicode="X" horiz-adv-x="710" 
d="M553 590l-159 -228l212 -315l87 -47h-266l57 40l-157 233l-162 -224l72 -49h-209l95 59l178 251l-195 291l-86 49h266l-58 -41l142 -210l140 202l-68 49h206z" />
    <glyph glyph-name="Y" unicode="Y" horiz-adv-x="682" 
d="M276 650l-65 -42l171 -263l152 252l-68 53h209l-95 -58l-172 -289v-252l84 -51h-280l84 51v231l-207 320l-79 48h266z" />
    <glyph glyph-name="Z" unicode="Z" horiz-adv-x="582" 
d="M60 430v220h482l-364 -615h254l110 185v-220h-508l363 615h-227z" />
    <glyph glyph-name="bracketleft" unicode="[" horiz-adv-x="240" 
d="M30 -100v850h180v-32h-140v-786h140v-32h-180z" />
    <glyph glyph-name="backslash" unicode="\" horiz-adv-x="279" 
d="M279 -10h-39l-240 675h40z" />
    <glyph glyph-name="bracketright" unicode="]" horiz-adv-x="240" 
d="M210 750v-850h-180v32h140v786h-140v32h180z" />
    <glyph glyph-name="asciicircum" unicode="^" horiz-adv-x="441" 
d="M220 665l181 -282h-42l-139 215l-136 -215h-44z" />
    <glyph glyph-name="underscore" unicode="_" horiz-adv-x="490" 
d="M15 -100v32h459v-32h-459z" />
    <glyph glyph-name="grave" unicode="`" horiz-adv-x="246" 
d="M206 461l-179 189h124z" />
    <glyph glyph-name="a" unicode="a" 
d="M367 311v-258l74 30q-48 -93 -111 -93q-58 0 -58 71l-61 -44q-37 -27 -80 -27q-49 0 -78.5 30.5t-29.5 81.5q0 92 117 139l132 53v17q0 67 -15 93.5t-52 26.5q-74 0 -74 -83q0 -24 -12.5 -37.5t-33.5 -13.5q-20 0 -32 14.5t-12 36.5q1 47 54.5 79.5t118.5 32.5
q153 0 153 -149zM272 93v172l-65 -27q-88 -37 -88 -109q0 -37 16.5 -59t47.5 -22q33 0 89 45z" />
    <glyph glyph-name="b" unicode="b" horiz-adv-x="509" 
d="M151 34l-76 -44v598l-73 22l169 55v-301q52 96 129 96q84 0 131 -60t47 -165t-62 -175t-156 -70q-68 0 -109 44zM375 245q-4 71 -33 112.5t-73 40.5q-57 0 -98 -61v-247q0 -36 31.5 -55.5t69.5 -13.5q57 8 83 69.5t20 154.5z" />
    <glyph glyph-name="c" unicode="c" horiz-adv-x="444" 
d="M120 209q10 -55 39 -89.5t61.5 -44.5t66.5 -5q37 6 71 35t54 77q-6 -86 -56.5 -139t-127.5 -53q-95 0 -150.5 66.5t-55.5 168.5q0 100 62.5 167.5t153.5 67.5q72 0 115 -31.5t45 -77.5q0 -23 -14 -38.5t-36 -15.5q-23 0 -34.5 16t-11.5 35q0 44 -22 66t-60 16
q-56 -8 -86 -71t-14 -150z" />
    <glyph glyph-name="d" unicode="d" horiz-adv-x="522" 
d="M428 665v-598l74 -22l-170 -55v96q-52 -96 -129 -96q-84 0 -131 60t-47 165q0 103 63 174t149 71q57 0 95 -35v163l-74 22zM128 205q4 -71 33 -112.5t73 -40.5q57 0 98 61v237q0 41 -31.5 63t-69.5 16q-53 -8 -80.5 -71t-22.5 -153z" />
    <glyph glyph-name="e" unicode="e" 
d="M414 271l-299 -19q0 -23 4 -43q15 -79 64 -113t104 -26q39 6 72.5 34t53.5 78q-4 -86 -55 -139t-130 -53q-96 0 -151 67t-55 168q0 99 59.5 167t149.5 68q183 0 183 -189zM316 293q0 75 -28 109t-75 28q-42 -6 -69 -47.5t-29 -103.5z" />
    <glyph glyph-name="f" unicode="f" horiz-adv-x="344" 
d="M30 423v27h74v10q0 100 46 152.5t119 52.5q55 0 83.5 -25t28.5 -62q0 -21 -12.5 -35.5t-32.5 -14.5q-44 0 -50 52q-5 34 -14 46t-30 7q-28 -7 -35 -47t-7 -126v-10h94v-27h-94v-378l94 -45h-264l74 44v379h-74z" />
    <glyph glyph-name="g" unicode="g" horiz-adv-x="514" 
d="M155 162q-101 47 -101 139q0 71 54 115t134 44q73 0 120 -30h125v-32h-93q34 -37 34 -99q0 -69 -53 -110.5t-133 -41.5q-37 0 -75 10q-35 -17 -35 -49q0 -15 9.5 -23.5t20 -10t28.5 -2.5h141q142 0 142 -116q0 -81 -69.5 -128.5t-180.5 -47.5q-84 0 -138.5 23.5
t-60.5 71.5q-5 42 26 73t79 44q-28 1 -49 19t-21 49q0 68 96 102zM233 437q-36 -1 -57.5 -32.5t-21.5 -83.5q0 -61 22.5 -106t70.5 -44q37 1 57 30.5t20 82.5q0 39 -7.5 72t-29 57t-54.5 24zM312 -9h-171q-43 -31 -35 -80q13 -75 153 -75q80 0 132.5 27.5t52.5 73.5
q0 14 -5 23.5t-17 15.5t-21 9t-29.5 4.5t-28.5 1.5h-31z" />
    <glyph glyph-name="h" unicode="h" horiz-adv-x="547" 
d="M288 0l74 41v242q0 63 -16 90t-58 27q-27 0 -55.5 -17.5t-49.5 -45.5v-296l74 -41h-244l74 41v547l-74 22l170 55v-298q76 93 148 93q70 0 98.5 -42t28.5 -122v-255l74 -41h-244z" />
    <glyph glyph-name="i" unicode="i" horiz-adv-x="284" 
d="M20 405l74 -22v-339l-74 -44h244l-74 44v416zM75 599q0 26 17.5 43.5t42.5 17.5t42.5 -17.5t17.5 -43.5q0 -25 -17.5 -42t-43.5 -17q-25 0 -42 17t-17 42z" />
    <glyph glyph-name="j" unicode="j" horiz-adv-x="271" 
d="M22 405l74 -22v-370q0 -130 -9 -160q-11 -34 -40 -34q-27 0 -27 46q0 60 -46 60q-26 0 -39.5 -17t-11.5 -44q4 -38 34 -56t77 -18q73 0 115.5 61t42.5 162v447zM77 599q0 25 17.5 43t42.5 18t42.5 -17.5t17.5 -43.5q0 -25 -17.5 -42t-42.5 -17t-42.5 17t-17.5 42z" />
    <glyph glyph-name="k" unicode="k" horiz-adv-x="531" 
d="M181 252h9q36 0 63 19t47 74q9 25 15 39t19 35t30 31t39 10q23 0 40.5 -9.5t20.5 -30.5q3 -22 -7 -40q-12 -28 -39 -28q-15 0 -28 10t-18.5 16t-15.5 -5t-24 -48q-26 -70 -68 -87q15 -2 28.5 -6t24.5 -7.5t22 -13t17.5 -14.5t16.5 -19.5t14.5 -20.5t14 -25t12.5 -26
t13.5 -30t14.5 -31q10 -7 30.5 -22t31.5 -23h-147q-5 12 -16 39.5t-18 43.5t-18 39.5t-20.5 38t-22 29.5t-25.5 22t-28 8h-28v-175q50 -30 74 -45h-244q50 30 74 45v543q-9 3 -34.5 10.5t-39.5 11.5q28 9 85 27.5t85 27.5v-413z" />
    <glyph glyph-name="l" unicode="l" horiz-adv-x="277" 
d="M13 0l74 45v543l-74 22l170 55v-620l74 -45h-244z" />
    <glyph glyph-name="m" unicode="m" horiz-adv-x="816" 
d="M281 0l74 41v242q0 63 -15.5 90t-56.5 27q-56 0 -107 -63v-296l74 -41h-244l74 41v342l-74 22l170 55v-93q74 93 148 93q102 0 121 -98q76 98 147 98q132 0 132 -164v-255l74 -41h-244l74 41v242q0 62 -17.5 89.5t-59.5 27.5q-51 0 -102 -63q2 -26 2 -41v-255l74 -41
h-244z" />
    <glyph glyph-name="n" unicode="n" horiz-adv-x="554" 
d="M295 0l74 41v242q0 63 -16 90t-58 27q-27 0 -55.5 -17.5t-49.5 -45.5v-296l74 -41h-244l74 41v342l-74 22l170 55v-93q76 93 148 93q70 0 98.5 -42t28.5 -122v-255l74 -41h-244z" />
    <glyph glyph-name="o" unicode="o" horiz-adv-x="479" 
d="M22 225q0 101 63.5 168t153.5 67q96 0 157 -66t61 -169q0 -101 -63.5 -168t-154.5 -67q-96 0 -156.5 66t-60.5 169zM133 210q11 -90 48 -142.5t83 -45.5q52 8 73 67t9 151q-11 89 -48.5 142t-83.5 46q-52 -6 -72.5 -65.5t-8.5 -152.5z" />
    <glyph glyph-name="p" unicode="p" horiz-adv-x="510" 
d="M2 -200l73 45v538l-73 22l169 55v-96q52 96 129 96q84 0 131 -60t47 -165q0 -103 -63 -174t-149 -71q-57 0 -95 35v-180l74 -45h-243zM375 245q-4 71 -33 112.5t-73 40.5q-57 0 -98 -61v-237q0 -41 31.5 -63t69.5 -16q53 8 80.5 71t22.5 153z" />
    <glyph glyph-name="q" unicode="q" horiz-adv-x="513" 
d="M360 417l75 44v-616l74 -45h-244l74 45v239q-51 -93 -129 -93q-84 0 -131 60t-47 165t62 175t156 70q68 0 110 -44zM135 206q4 -71 33 -112.5t73 -41.5q60 2 98 59v249q0 36 -31 55.5t-70 14.5q-57 -9 -83 -70t-20 -154z" />
    <glyph glyph-name="r" unicode="r" horiz-adv-x="433" 
d="M190 44l74 -44h-244l74 44v339l-74 22l170 55v-80l28 30q46 50 93 50q75 0 77 -58q1 -24 -12.5 -40t-36.5 -16q-37 0 -46 38q-8 29 -30 29q-14 0 -32 -18l-41 -46v-305z" />
    <glyph glyph-name="s" unicode="s" horiz-adv-x="395" 
d="M285 436l52 24l-4 -172q-50 140 -148 140q-36 0 -59 -18t-23 -49q0 -36 29 -52q9 -5 46 -20l84 -34q55 -21 77.5 -53t22.5 -77q0 -63 -44.5 -99t-109.5 -36q-66 0 -104 31l-62 -31v174q60 -142 167 -142q34 0 57 17t23 49q0 15 -6.5 28t-13.5 21t-23.5 17t-26.5 12.5
t-32 11.5t-30 11q-61 22 -89 52t-28 84q0 61 40.5 98t106.5 37q63 0 98 -24z" />
    <glyph glyph-name="t" unicode="t" horiz-adv-x="318" 
d="M20 423l167 155v-128h94v-27h-94v-321q0 -28 11.5 -41t28.5 -10t36 15t35 29q-51 -105 -124 -105q-82 0 -82 97v336h-72z" />
    <glyph glyph-name="u" unicode="u" horiz-adv-x="545" 
d="M3 416l170 44v-293q0 -64 14.5 -90.5t55.5 -26.5q28 0 58.5 17.5t50.5 45.5v280l-74 23l170 44v-393l74 -22l-170 -55v93q-76 -93 -148 -93q-70 0 -98.5 42t-28.5 122v239z" />
    <glyph glyph-name="v" unicode="v" horiz-adv-x="505" 
d="M505 450l-81 -50l-181 -415l-195 420l-75 45h242l-67 -39l121 -271l111 261l-76 49h201z" />
    <glyph glyph-name="w" unicode="w" horiz-adv-x="749" 
d="M749 450l-78 -48l-165 -417l-136 311l-151 -311l-174 422l-72 43h239l-67 -42l105 -268l99 206l-27 60l-73 44h243l-67 -41l106 -261l96 251l-79 51h201z" />
    <glyph glyph-name="x" unicode="x" horiz-adv-x="527" 
d="M-2 0l89 56l124 161l-129 188l-78 45h245l-62 -36l86 -125l85 113l-75 48h204l-93 -55l-101 -134l149 -216l78 -45h-245l62 36l-106 152l-109 -141l80 -47h-204z" />
    <glyph glyph-name="y" unicode="y" horiz-adv-x="525" 
d="M525 450l-82 -51l-204 -500q-24 -64 -49 -87t-59 -23q-28 0 -46.5 15t-18.5 39q0 25 13.5 38.5t34.5 13.5q10 0 17.5 -3t15 -9.5t11.5 -8.5q22 -14 41 30l44 109l-185 391l-78 46h246l-68 -40l133 -278l108 268l-78 50h204z" />
    <glyph glyph-name="z" unicode="z" horiz-adv-x="465" 
d="M331 27l87 116v-143h-381l260 423h-154l-86 -116v143h365l-260 -423h169z" />
    <glyph glyph-name="braceleft" unicode="{" horiz-adv-x="306" 
d="M30 339q41 2 64 31t17 73l-23 164q-12 89 39 122.5t149 20.5q-54 -6 -76.5 -35t-11.5 -104l19 -130q5 -32 -3.5 -57.5t-25 -40.5t-38.5 -25.5t-41 -14t-37 -4.5q18 -1 37 -5t41.5 -14t38.5 -25t24.5 -40.5t3.5 -57.5l-19 -130q-10 -75 12 -104t76 -35q-98 -13 -149 20.5
t-39 122.5l23 164q6 44 -17 73t-64 31z" />
    <glyph glyph-name="bar" unicode="|" horiz-adv-x="200" 
d="M80 750h40v-950h-40v950z" />
    <glyph glyph-name="braceright" unicode="}" horiz-adv-x="306" 
d="M276 339q-41 -2 -64 -31t-17 -73l23 -164q12 -89 -39 -122.5t-149 -20.5q54 6 76 35t12 104l-19 130q-6 39 7.5 68.5t39.5 44t50 21.5t47 8q-23 1 -47 7.5t-50 21t-39.5 44t-7.5 69.5l19 130q11 75 -11.5 104t-76.5 35q98 13 149 -20.5t39 -122.5l-23 -164q-6 -44 17 -73
t64 -31z" />
    <glyph glyph-name="asciitilde" unicode="~" horiz-adv-x="490" 
d="M20 285q4 70 38.5 107t85.5 37q59 0 118 -39q29 -19 41.5 -26t33.5 -14t43 -7q31 1 56.5 20t33.5 57q-2 -69 -40.5 -107.5t-93.5 -38.5q-56 0 -111 34q-5 3 -22.5 14.5t-24.5 15.5t-21 10.5t-26.5 9t-26.5 2.5q-59 0 -84 -75z" />
    <glyph glyph-name="exclamdown" unicode="&#xa1;" horiz-adv-x="262" 
d="M132 -212q-62 0 -62 93q0 76 62 414q0 -1 13 -75t21.5 -125.5t17 -117.5t8.5 -96q0 -93 -60 -93zM191 400q0 -26 -17.5 -43t-42.5 -17t-42.5 17t-17.5 43q0 25 18 42.5t43 17.5t42 -17.5t17 -42.5z" />
    <glyph glyph-name="cent" unicode="&#xa2;" horiz-adv-x="444" 
d="M203 600h40v-140q70 -1 111.5 -32.5t43.5 -76.5q0 -23 -14 -38.5t-36 -15.5q-23 0 -34.5 16t-11.5 35q0 36 -16 58t-43 24v-360q23 -3 44 0q37 6 71 35t54 77q-6 -82 -52 -134t-117 -57v-141h-40v142q-84 8 -132.5 72.5t-48.5 160.5q0 90 51 154.5t130 77.5v143zM120 209
q16 -91 83 -126v342q-49 -15 -73.5 -75.5t-9.5 -140.5z" />
    <glyph glyph-name="currency" unicode="&#xa4;" horiz-adv-x="530" 
d="M79 170l72 72q-27 37 -27 83q0 45 27 83l-72 72l30 31l72 -72q37 27 84 27q45 0 83 -27l72 72l30 -31l-71 -71q27 -38 27 -84q0 -47 -27 -84l71 -71l-30 -31l-72 72q-38 -27 -83 -27q-47 0 -84 27l-72 -72zM167 325q0 -41 28.5 -69.5t69.5 -28.5t69.5 28.5t28.5 69.5
t-28.5 69.5t-69.5 28.5t-69.5 -28.5t-28.5 -69.5z" />
    <glyph glyph-name="yen" unicode="&#xa5;" horiz-adv-x="682" 
d="M153 234v32h143v16q-138 214 -207 320q-13 8 -39.5 24t-39.5 24h266q-11 -7 -32.5 -21t-32.5 -21q57 -87 171 -263q50 84 152 252q-33 25 -68 53h209q-16 -9 -47.5 -29t-47.5 -29q-29 -48 -86.5 -144.5t-85.5 -144.5v-37h143v-32h-143v-58h143v-32h-143v-93l84 -51h-280
l84 51v93h-143v32h143v58h-143z" />
    <glyph glyph-name="brokenbar" unicode="&#xa6;" horiz-adv-x="200" 
d="M79 195h40v-405h-40v405zM79 665h40v-405h-40v405z" />
    <glyph glyph-name="section" unicode="&#xa7;" horiz-adv-x="402" 
d="M309 509q-25 0 -37 15.5t-12 35.5q0 23 -1.5 33.5t-8 22t-22.5 15.5t-44 4q-38 0 -64.5 -16.5t-26.5 -46.5q0 -31 16 -45t57 -27l97 -32q99 -33 99 -128q0 -29 -15.5 -56t-44.5 -42q67 -37 67 -120q0 -58 -47.5 -95t-123.5 -37q-79 0 -122 31.5t-43 77.5q0 22 15 36
t35 14q24 0 35.5 -15.5t11.5 -35.5q0 -43 15 -60.5t70 -17.5q39 0 68 16.5t29 46.5q0 32 -19 49.5t-59 30.5l-97 31q-99 33 -99 129q0 28 15.5 55.5t44.5 42.5q-34 19 -48 44.5t-14 67.5q0 58 42.5 95t111.5 37q84 0 126.5 -30t42.5 -76q0 -22 -15 -36t-35 -14zM255 263
q33 -14 45 -20v46q0 21 -8.5 37t-28 27.5t-34.5 17.5t-43.5 15t-40.5 14q-23 8 -45 20v-46q0 -21 8.5 -37t28 -27.5t34.5 -17.5t43.5 -15t40.5 -14z" />
    <glyph glyph-name="copyright" unicode="&#xa9;" horiz-adv-x="560" 
d="M45 225q0 97 68.5 166t166.5 69t166.5 -69t68.5 -166t-68.5 -166t-166.5 -69t-166.5 69t-68.5 166zM75 225q0 -85 60 -145t145 -60t145 60t60 145t-60 145t-145 60t-145 -60t-60 -145zM202 214q10 -54 44.5 -79t72.5 -19q58 11 86 79q-3 -61 -38 -98t-89 -37
q-65 0 -103.5 47t-38.5 118q0 68 43.5 116t105.5 48q51 0 81 -23t30 -55q0 -18 -10.5 -27.5t-24.5 -9.5q-16 0 -24.5 11t-8.5 27q0 31 -14.5 45.5t-41.5 10.5q-37 -6 -59 -51t-11 -103z" />
    <glyph glyph-name="guillemotleft" unicode="&#xab;" horiz-adv-x="424" 
d="M137 236l113 -180l-220 180l220 180zM301 236l93 -180l-201 180l201 180z" />
    <glyph glyph-name="uni00AD" unicode="&#xad;" horiz-adv-x="490" 
d="M65 320v32h360v-32h-360z" />
    <glyph glyph-name="registered" unicode="&#xae;" horiz-adv-x="560" 
d="M45 225q0 97 68.5 166t166.5 69t166.5 -69t68.5 -166t-68.5 -166t-166.5 -69t-166.5 69t-68.5 166zM284 377q111 0 111 -80q0 -36 -24.5 -57t-67.5 -25q42 -5 71 -48l43 -66l16 -12q52 57 52 136q0 85 -60 145t-145 60q-79 0 -138 -53h142zM75 225q0 -90 65 -150l43 26
v246l-44 26q-64 -59 -64 -148zM280 20q78 0 135 51h-51l-58 101q-22 38 -58 38h-5v-109l49 -30h-147q57 -51 135 -51zM243 360v-133h24q25 0 43 18t18 52t-18 48.5t-44 14.5h-23z" />
    <glyph glyph-name="degree" unicode="&#xb0;" horiz-adv-x="305" 
d="M50 562q0 43 29.5 73t72.5 30t73 -30t30 -73t-30 -72.5t-73 -29.5t-72.5 29.5t-29.5 72.5zM79 562q0 -30 21.5 -51.5t51.5 -21.5t52 21.5t22 51.5t-22 52t-52 22t-51.5 -22t-21.5 -52z" />
    <glyph glyph-name="plusminus" unicode="&#xb1;" horiz-adv-x="490" 
d="M65 360v32h163v163h32v-163h164v-32h-164v-144h-32v144h-163zM65 150v32h359v-32h-359z" />
    <glyph glyph-name="paragraph" unicode="&#xb6;" horiz-adv-x="522" 
d="M492 623h-65v-823h-36v823h-91v-823h-35v481q-104 -2 -169.5 43.5t-65.5 142.5q0 89 59 136t161 47h242v-27z" />
    <glyph glyph-name="periodcentered" unicode="&#xb7;" horiz-adv-x="214" 
d="M47 335q0 25 17.5 42.5t42.5 17.5t42.5 -17.5t17.5 -42.5t-18 -42.5t-43 -17.5t-42 17.5t-17 42.5z" />
    <glyph glyph-name="guillemotright" unicode="&#xbb;" horiz-adv-x="424" 
d="M174 56l113 180l-113 180l220 -180zM30 56l93 180l-93 180l201 -180z" />
    <glyph glyph-name="questiondown" unicode="&#xbf;" horiz-adv-x="454" 
d="M263 279q-8 -38 -34.5 -73t-57.5 -62.5t-61 -55.5t-50 -64.5t-20 -78.5q0 -73 52.5 -115t139.5 -42q69 0 125.5 38.5t56.5 106.5q0 35 -17 53t-41 18q-23 0 -38 -16.5t-12 -42.5q3 -20 21 -38.5t18 -30.5q0 -25 -25 -43t-64 -18q-49 0 -79.5 37t-30.5 98q0 39 11.5 72.5
t28 59t33 51.5t29.5 63.5t15 82.5zM306 400q0 -26 -17 -43t-43 -17t-43 17t-17 43q0 25 18 42.5t43 17.5t42 -17.5t17 -42.5z" />
    <glyph glyph-name="Agrave" unicode="&#xc0;" horiz-adv-x="663" 
d="M-10 0l91 61l248 604l256 -615l78 -50h-261l67 45l-54 130h-245l-50 -120l77 -55h-207zM290 471l-106 -261h215zM221 890h120l23 -180z" />
    <glyph glyph-name="Aacute" unicode="&#xc1;" horiz-adv-x="663" 
d="M-10 0l91 61l248 604l256 -615l78 -50h-261l67 45l-54 130h-245l-50 -120l77 -55h-207zM290 471l-106 -261h215zM283 890h120l-143 -180z" />
    <glyph glyph-name="Acircumflex" unicode="&#xc2;" horiz-adv-x="663" 
d="M-10 0l91 61l248 604l256 -615l78 -50h-261l67 45l-54 130h-245l-50 -120l77 -55h-207zM290 471l-106 -261h215zM329 770l-142 -80l142 175l142 -175z" />
    <glyph glyph-name="Atilde" unicode="&#xc3;" horiz-adv-x="663" 
d="M-10 0l91 61l248 604l256 -615l78 -50h-261l67 45l-54 130h-245l-50 -120l77 -55h-207zM290 471l-106 -261h215zM181 719q-13 67 9 101t57 41q42 8 98 -22q59 -33 94 -28q20 3 35 20.5t16 53.5q15 -68 -7 -105.5t-62 -43.5q-50 -8 -101 18q-59 32 -95 32q-41 0 -44 -67z
" />
    <glyph glyph-name="Adieresis" unicode="&#xc4;" horiz-adv-x="663" 
d="M-10 0l91 61l248 604l256 -615l78 -50h-261l67 45l-54 130h-245l-50 -120l77 -55h-207zM290 471l-106 -261h215zM169 794q0 26 17.5 44t43.5 18t44 -18t18 -44t-18 -43.5t-44 -17.5t-43.5 17.5t-17.5 43.5zM365 794q0 26 17.5 44t43.5 18t44 -18t18 -44q0 -25 -18 -43
t-44 -18t-43.5 17.5t-17.5 43.5z" />
    <glyph glyph-name="Aring" unicode="&#xc5;" horiz-adv-x="663" 
d="M-10 0l91 61l248 604l256 -615l78 -50h-261l67 45l-54 130h-245l-50 -120l77 -55h-207zM290 471l-106 -261h215zM247 783q0 35 23.5 58.5t58.5 23.5t58.5 -23.5t23.5 -58.5t-23.5 -58.5t-58.5 -23.5t-58.5 23.5t-23.5 58.5zM281 783q0 -19 14.5 -33.5t33.5 -14.5t33 14
t14 34t-14 34t-33 14t-33.5 -14.5t-14.5 -33.5z" />
    <glyph glyph-name="AE" unicode="&#xc6;" horiz-adv-x="962" 
d="M10 0l91 61l350 548l-84 41h544v-220l-104 185h-218v-260h114l75 103v-240l-74 102h-115v-285h227l110 185v-220h-533l84 51v149h-246l-91 -145l77 -55h-207zM253 235h224v355z" />
    <glyph glyph-name="Ccedilla" unicode="&#xc7;" horiz-adv-x="620" 
d="M346 -134q-8 37 -49 37q-28 0 -48 -10l70 98q-129 7 -209 101.5t-80 234.5q0 145 84 241.5t220 96.5q87 0 145 -45q13 8 40 23t40 22v-245q-40 104 -87 158t-121 54q-93 0 -143 -83t-50 -219q0 -118 55.5 -193.5t144.5 -81.5q21 -2 50 1q62 9 104.5 54.5t60.5 116.5
q-7 -103 -69 -168t-157 -69q-15 -17 -36 -46q33 0 53 -23t20 -59q0 -35 -22 -58.5t-54 -23.5q-25 0 -40 11t-15 27q0 23 19 23q11 0 15.5 -7.5t5 -16t6 -14.5t17.5 -4q17 2 26 21t4 46z" />
    <glyph glyph-name="Egrave" unicode="&#xc8;" horiz-adv-x="596" 
d="M27 0l84 51v548l-84 51h518v-220l-104 185h-218v-260h114l75 103v-240l-74 102h-115v-285h227l110 185v-220h-533zM208 890h120l23 -180z" />
    <glyph glyph-name="Eacute" unicode="&#xc9;" horiz-adv-x="596" 
d="M27 0l84 51v548l-84 51h518v-220l-104 185h-218v-260h114l75 103v-240l-74 102h-115v-285h227l110 185v-220h-533zM300 890h120l-143 -180z" />
    <glyph glyph-name="Ecircumflex" unicode="&#xca;" horiz-adv-x="596" 
d="M27 0l84 51v548l-84 51h518v-220l-104 185h-218v-260h114l75 103v-240l-74 102h-115v-285h227l110 185v-220h-533zM325 770l-169 -70l169 165l169 -165z" />
    <glyph glyph-name="Edieresis" unicode="&#xcb;" horiz-adv-x="584" 
d="M27 0l84 51v548l-84 51h518v-220l-104 185h-218v-260h114l75 103v-240l-74 102h-115v-285h227l110 185v-220h-533zM142 798q0 25 17.5 42.5t42.5 17.5q26 0 43 -17t17 -43q0 -25 -17.5 -42.5t-42.5 -17.5t-42.5 17.5t-17.5 42.5zM352 798q0 25 17.5 42.5t42.5 17.5
q26 0 43 -17t17 -43q0 -25 -17.5 -42.5t-42.5 -17.5t-42.5 17.5t-17.5 42.5z" />
    <glyph glyph-name="Igrave" unicode="&#xcc;" horiz-adv-x="334" 
d="M307 650l-84 -51v-548l84 -51h-280l84 51v548l-84 51h280zM64 890h120l23 -180z" />
    <glyph glyph-name="Iacute" unicode="&#xcd;" horiz-adv-x="334" 
d="M307 650l-84 -51v-548l84 -51h-280l84 51v548l-84 51h280zM150 890h120l-143 -180z" />
    <glyph glyph-name="Icircumflex" unicode="&#xce;" horiz-adv-x="334" 
d="M307 650l-84 -51v-548l84 -51h-280l84 51v548l-84 51h280zM167 770l-142 -77l142 172l142 -172z" />
    <glyph glyph-name="Idieresis" unicode="&#xcf;" horiz-adv-x="334" 
d="M307 650l-84 -51v-548l84 -51h-280l84 51v548l-84 51h280zM14 794q0 26 18 44t44 18t43.5 -18t17.5 -44t-18 -43.5t-44 -17.5q-25 0 -43 18t-18 43zM196 794q0 26 17.5 44t43.5 18t44 -18t18 -44t-18 -43.5t-44 -17.5q-25 0 -43 17.5t-18 43.5z" />
    <glyph glyph-name="Eth" unicode="&#xd0;" horiz-adv-x="669" 
d="M-20 310v32h141v257l-84 51h292q141 0 225.5 -89t84.5 -234q0 -146 -85 -236.5t-225 -90.5h-292l84 51v259h-141zM320 615h-87v-273h137v-32h-137v-275h87q93 0 141.5 76.5t48.5 215.5q0 138 -48.5 213t-141.5 75z" />
    <glyph glyph-name="Ntilde" unicode="&#xd1;" horiz-adv-x="712" 
d="M166 63l100 -63h-239l90 63v515l-90 72h182l337 -426v363l-90 63h229l-90 -63v-602l-429 538v-460zM206 719q-12 67 10 101t56 40q44 8 99 -21q58 -34 94 -28q20 3 35 20.5t15 53.5q15 -68 -7 -105.5t-62 -43.5q-49 -8 -101 18q-59 32 -95 32q-39 0 -44 -67z" />
    <glyph glyph-name="Ograve" unicode="&#xd2;" horiz-adv-x="669" 
d="M30 327q0 144 86 241t218 97t218.5 -97t86.5 -241t-86.5 -240.5t-218.5 -96.5t-218 96.5t-86 240.5zM160 327q0 -140 44.5 -222.5t130.5 -82.5t130.5 82.5t44.5 222.5t-44.5 223t-130.5 83t-130.5 -83t-44.5 -223zM221 890h120l23 -180z" />
    <glyph glyph-name="Oacute" unicode="&#xd3;" horiz-adv-x="669" 
d="M30 327q0 144 86 241t218 97t218.5 -97t86.5 -241t-86.5 -240.5t-218.5 -96.5t-218 96.5t-86 240.5zM160 327q0 -140 44.5 -222.5t130.5 -82.5t130.5 82.5t44.5 222.5t-44.5 223t-130.5 83t-130.5 -83t-44.5 -223zM327 890h120l-143 -180z" />
    <glyph glyph-name="Ocircumflex" unicode="&#xd4;" horiz-adv-x="669" 
d="M30 327q0 144 86 241t218 97t218.5 -97t86.5 -241t-86.5 -240.5t-218.5 -96.5t-218 96.5t-86 240.5zM160 327q0 -140 44.5 -222.5t130.5 -82.5t130.5 82.5t44.5 222.5t-44.5 223t-130.5 83t-130.5 -83t-44.5 -223zM335 770l-169 -70l169 165l169 -165z" />
    <glyph glyph-name="Otilde" unicode="&#xd5;" horiz-adv-x="669" 
d="M30 327q0 144 86 241t218 97t218.5 -97t86.5 -241t-86.5 -240.5t-218.5 -96.5t-218 96.5t-86 240.5zM160 327q0 -140 44.5 -222.5t130.5 -82.5t130.5 82.5t44.5 222.5t-44.5 223t-130.5 83t-130.5 -83t-44.5 -223zM179 719q-12 67 10 101t56 40q44 8 98 -21
q59 -34 95 -28q19 3 34.5 20.5t15.5 53.5q15 -68 -7 -105.5t-62 -43.5q-49 -8 -101 18q-59 32 -95 32q-39 0 -44 -67z" />
    <glyph glyph-name="Odieresis" unicode="&#xd6;" horiz-adv-x="669" 
d="M30 327q0 144 86 241t218 97t218.5 -97t86.5 -241t-86.5 -240.5t-218.5 -96.5t-218 96.5t-86 240.5zM160 327q0 -140 44.5 -222.5t130.5 -82.5t130.5 82.5t44.5 222.5t-44.5 223t-130.5 83t-130.5 -83t-44.5 -223zM164 794q0 26 18 44t44 18t43.5 -18t17.5 -44t-18 -43.5
t-44 -17.5q-25 0 -43 18t-18 43zM380 794q0 26 17.5 44t43.5 18t44 -18t18 -44t-18 -43.5t-44 -17.5q-25 0 -43 17.5t-18 43.5z" />
    <glyph glyph-name="multiply" unicode="&#xd7;" horiz-adv-x="530" 
d="M105 467l28 28l132 -132l132 132l28 -28l-132 -132l142 -142l-28 -28l-142 142l-142 -142l-28 28l142 142z" />
    <glyph glyph-name="Oslash" unicode="&#xd8;" horiz-adv-x="669" 
d="M510 685l35 -20l-33 -60q60 -45 93.5 -118t33.5 -160q0 -144 -86.5 -240.5t-218.5 -96.5q-78 0 -144 36l-31 -56l-35 20l32 59q-59 45 -92.5 117.5t-33.5 160.5q0 144 86 241t218 97q80 0 144 -38zM160 327q0 -125 38 -204l250 451q-43 59 -113 59q-86 0 -130.5 -83
t-44.5 -223zM510 327q0 125 -38 206l-251 -451q43 -60 114 -60q86 0 130.5 82.5t44.5 222.5z" />
    <glyph glyph-name="Ugrave" unicode="&#xd9;" horiz-adv-x="720" 
d="M108 599l-84 51h280l-84 -51v-336q0 -35 3 -62t12.5 -58t26.5 -51.5t47.5 -34t71.5 -13.5q51 0 87.5 19.5t55 52.5t26 66.5t7.5 71.5v333l-90 63h229l-90 -63v-328q0 -48 -10.5 -91.5t-35 -85.5t-73 -67t-115.5 -25q-76 0 -130 23t-82 62.5t-40 83t-12 95.5v345zM265 890
h120l23 -180z" />
    <glyph glyph-name="Uacute" unicode="&#xda;" horiz-adv-x="720" 
d="M24 650l84 -51v-345q0 -52 12 -95.5t40 -83t82 -62.5t130 -23q67 0 115.5 25t73 67t35 85.5t10.5 91.5v328l90 63h-229l90 -63v-333q0 -38 -7.5 -71.5t-26 -66.5t-55 -52.5t-87.5 -19.5q-41 0 -71.5 13.5t-47.5 34t-26.5 51.5t-12.5 58t-3 62v336l84 51h-280zM364 890
h120l-143 -180z" />
    <glyph glyph-name="Ucircumflex" unicode="&#xdb;" horiz-adv-x="720" 
d="M108 599l-84 51h280l-84 -51v-336q0 -35 3 -62t12.5 -58t26.5 -51.5t47.5 -34t71.5 -13.5q51 0 87.5 19.5t55 52.5t26 66.5t7.5 71.5v333l-90 63h229l-90 -63v-328q0 -48 -10.5 -91.5t-35 -85.5t-73 -67t-115.5 -25q-76 0 -130 23t-82 62.5t-40 83t-12 95.5v345zM366 770
l-169 -70l169 165l169 -165z" />
    <glyph glyph-name="Udieresis" unicode="&#xdc;" horiz-adv-x="720" 
d="M24 650l84 -51v-345q0 -52 12 -95.5t40 -83t82 -62.5t130 -23q67 0 115.5 25t73 67t35 85.5t10.5 91.5v328l90 63h-229l90 -63v-333q0 -38 -7.5 -71.5t-26 -66.5t-55 -52.5t-87.5 -19.5q-41 0 -71.5 13.5t-47.5 34t-26.5 51.5t-12.5 58t-3 62v336l84 51h-280zM198 794
q0 26 17.5 44t43.5 18t44 -18t18 -44t-18 -43.5t-44 -17.5q-25 0 -43 17.5t-18 43.5zM414 794q0 26 17.5 44t43.5 18t44 -18t18 -44q0 -25 -18 -43t-44 -18q-25 0 -43 17.5t-18 43.5z" />
    <glyph glyph-name="Yacute" unicode="&#xdd;" horiz-adv-x="682" 
d="M276 650l-65 -42l171 -263l152 252l-68 53h209l-95 -58l-172 -289v-252l84 -51h-280l84 51v231l-207 320l-79 48h266zM356 890h120l-143 -180z" />
    <glyph glyph-name="Thorn" unicode="&#xde;" horiz-adv-x="570" 
d="M307 650l-84 -51v-49h76q110 0 178.5 -58.5t68.5 -161.5t-68.5 -161.5t-178.5 -58.5h-76v-59l84 -51h-280l84 51v548l-84 51h280zM223 520v-380h51q66 0 107.5 48t41.5 142t-41.5 142t-107.5 48h-51z" />
    <glyph glyph-name="germandbls" unicode="&#xdf;" horiz-adv-x="567" 
d="M316 21l-62 -31v174q33 -78 65 -110t79 -32q29 0 46.5 24t10.5 55q-5 33 -30 50.5t-76 37.5q-55 22 -76 52.5t-21 76.5q0 32 17 58.5t41.5 45.5t49.5 36.5t42 40t17 48.5q0 38 -29 62t-85 24q-60 0 -91 -45t-31 -128v-415l50 -45h-220q13 8 37 22t37 22v410
q0 102 65 156.5t152 54.5q77 0 114 -35.5t37 -83.5q-1 -32 -23 -60.5t-48 -46.5t-47.5 -41.5t-21.5 -45.5q0 -31 18.5 -45t100.5 -52q100 -47 100 -130q0 -63 -39 -99t-98 -36q-43 0 -81 31z" />
    <glyph glyph-name="agrave" unicode="&#xe0;" 
d="M367 53v258q0 149 -153 149q-65 0 -118.5 -32.5t-54.5 -79.5q0 -22 12 -36.5t32 -14.5q21 0 33.5 13.5t12.5 37.5q0 83 74 83q37 0 52 -26.5t15 -93.5v-17l-132 -53q-117 -47 -117 -139q0 -51 29.5 -81.5t78.5 -30.5q43 0 80 27l61 44q0 -71 58 -71q63 0 111 93zM272 93
q-56 -45 -89 -45q-31 0 -47.5 22t-16.5 59q0 72 88 109l65 27v-172zM115 650h108l28 -150z" />
    <glyph glyph-name="aacute" unicode="&#xe1;" 
d="M367 311v-258l74 30q-48 -93 -111 -93q-58 0 -58 71l-61 -44q-37 -27 -80 -27q-49 0 -78.5 30.5t-29.5 81.5q0 92 117 139l132 53v17q0 67 -15 93.5t-52 26.5q-74 0 -74 -83q0 -24 -12.5 -37.5t-33.5 -13.5q-20 0 -32 14.5t-12 36.5q1 47 54.5 79.5t118.5 32.5
q153 0 153 -149zM272 93v172l-65 -27q-88 -37 -88 -109q0 -37 16.5 -59t47.5 -22q33 0 89 45zM200 650h108l-136 -150z" />
    <glyph glyph-name="acircumflex" unicode="&#xe2;" 
d="M367 311v-258l74 30q-48 -93 -111 -93q-58 0 -58 71l-61 -44q-37 -27 -80 -27q-49 0 -78.5 30.5t-29.5 81.5q0 92 117 139l132 53v17q0 67 -15 93.5t-52 26.5q-74 0 -74 -83q0 -24 -12.5 -37.5t-33.5 -13.5q-20 0 -32 14.5t-12 36.5q1 47 54.5 79.5t118.5 32.5
q153 0 153 -149zM272 93v172l-65 -27q-88 -37 -88 -109q0 -37 16.5 -59t47.5 -22q33 0 89 45zM211 580l-129 -80l129 165l129 -165z" />
    <glyph glyph-name="atilde" unicode="&#xe3;" 
d="M367 311v-258l74 30q-48 -93 -111 -93q-58 0 -58 71l-61 -44q-37 -27 -80 -27q-49 0 -78.5 30.5t-29.5 81.5q0 92 117 139l132 53v17q0 67 -15 93.5t-52 26.5q-74 0 -74 -83q0 -24 -12.5 -37.5t-33.5 -13.5q-20 0 -32 14.5t-12 36.5q1 47 54.5 79.5t118.5 32.5
q153 0 153 -149zM272 93v172l-65 -27q-88 -37 -88 -109q0 -37 16.5 -59t47.5 -22q33 0 89 45zM64 514q-13 66 8.5 98t54.5 37q24 4 41.5 -1t46.5 -20q37 -20 51.5 -25.5t32.5 -2.5q49 7 48 74q15 -67 -6.5 -102t-59.5 -41q-45 -6 -91 19q-60 31 -85 31q-38 0 -41 -67z" />
    <glyph glyph-name="adieresis" unicode="&#xe4;" 
d="M367 53v258q0 149 -153 149q-65 0 -118.5 -32.5t-54.5 -79.5q0 -22 12 -36.5t32 -14.5q21 0 33.5 13.5t12.5 37.5q0 83 74 83q37 0 52 -26.5t15 -93.5v-17l-132 -53q-117 -47 -117 -139q0 -51 29.5 -81.5t78.5 -30.5q43 0 80 27l61 44q0 -71 58 -71q63 0 111 93zM272 93
q-56 -45 -89 -45q-31 0 -47.5 22t-16.5 59q0 72 88 109l65 27v-172zM66 599q0 25 17.5 43t42.5 18t42.5 -17.5t17.5 -43.5q0 -25 -17.5 -42t-42.5 -17t-42.5 17t-17.5 42zM234 599q0 26 17.5 43.5t42.5 17.5t42.5 -17.5t17.5 -43.5q0 -25 -17.5 -42t-43.5 -17q-25 0 -42 17
t-17 42z" />
    <glyph glyph-name="aring" unicode="&#xe5;" 
d="M367 53v258q0 149 -153 149q-65 0 -118.5 -32.5t-54.5 -79.5q0 -22 12 -36.5t32 -14.5q21 0 33.5 13.5t12.5 37.5q0 83 74 83q37 0 52 -26.5t15 -93.5v-17l-132 -53q-117 -47 -117 -139q0 -51 29.5 -81.5t78.5 -30.5q43 0 80 27l61 44q0 -71 58 -71q63 0 111 93zM272 93
q-56 -45 -89 -45q-31 0 -47.5 22t-16.5 59q0 72 88 109l65 27v-172zM124 583q0 35 24 58.5t58 23.5t58 -23.5t24 -58.5t-24 -58.5t-58 -23.5t-58 23.5t-24 58.5zM158 583q0 -19 14 -33.5t34 -14.5t34 14.5t14 33.5t-14 33.5t-34 14.5t-34 -14.5t-14 -33.5z" />
    <glyph glyph-name="ae" unicode="&#xe6;" horiz-adv-x="694" 
d="M662 271l-299 -19q2 -102 56 -147t116 -35q39 6 72.5 34t53.5 78q-4 -86 -55 -139t-130 -53q-109 0 -166 86q-77 -86 -162 -86q-59 0 -92 30.5t-33 81.5q0 17 3.5 32.5t13.5 29t18 23.5t26 21.5t29.5 18.5t36.5 18t37.5 16t42 16.5t42.5 16.5v17q0 67 -15 93.5t-52 26.5
q-74 0 -74 -83q0 -24 -12.5 -37.5t-33.5 -13.5q-20 0 -32 14.5t-12 36.5q1 47 54.5 79.5t118.5 32.5q91 0 123 -61q58 61 142 61q183 0 183 -189zM271 225v41q-86 -34 -121 -63.5t-35 -73.5q0 -36 20 -58.5t56 -22.5q55 0 107 50q-27 53 -27 127zM564 293q0 75 -28 109
t-75 28q-42 -6 -69 -47.5t-29 -103.5q33 3 100 7.5t101 6.5z" />
    <glyph glyph-name="ccedilla" unicode="&#xe7;" horiz-adv-x="444" 
d="M246 -134q-8 37 -49 37q-26 0 -48 -10l68 97q-90 4 -142.5 69.5t-52.5 165.5t62.5 167.5t153.5 67.5q72 0 115 -31.5t45 -77.5q0 -23 -14 -38.5t-36 -15.5q-23 0 -34.5 16t-11.5 35q0 44 -22 66t-60 16q-56 -8 -86 -71t-14 -150q10 -55 39 -89.5t61.5 -44.5t66.5 -5
q37 6 71 35t54 77q-6 -81 -51.5 -133t-115.5 -58l-34 -47q34 0 54 -22.5t20 -59.5q0 -35 -22 -58.5t-54 -23.5q-25 0 -40 11t-16 27q0 9 5.5 16t14.5 7q11 0 15.5 -7.5t4.5 -16t5.5 -14.5t17.5 -4q17 2 26 21t4 46z" />
    <glyph glyph-name="egrave" unicode="&#xe8;" 
d="M414 271l-299 -19q0 -23 4 -43q15 -79 64 -113t104 -26q39 6 72.5 34t53.5 78q-4 -86 -55 -139t-130 -53q-96 0 -151 67t-55 168q0 99 59.5 167t149.5 68q183 0 183 -189zM316 293q0 75 -28 109t-75 28q-42 -6 -69 -47.5t-29 -103.5zM119 650h108l28 -150z" />
    <glyph glyph-name="eacute" unicode="&#xe9;" 
d="M414 271l-299 -19q0 -23 4 -43q15 -79 64 -113t104 -26q39 6 72.5 34t53.5 78q-4 -86 -55 -139t-130 -53q-96 0 -151 67t-55 168q0 99 59.5 167t149.5 68q183 0 183 -189zM316 293q0 75 -28 109t-75 28q-42 -6 -69 -47.5t-29 -103.5zM210 650h108l-136 -150z" />
    <glyph glyph-name="ecircumflex" unicode="&#xea;" 
d="M414 271l-299 -19q0 -23 4 -43q15 -79 64 -113t104 -26q39 6 72.5 34t53.5 78q-4 -86 -55 -139t-130 -53q-96 0 -151 67t-55 168q0 99 59.5 167t149.5 68q183 0 183 -189zM316 293q0 75 -28 109t-75 28q-42 -6 -69 -47.5t-29 -103.5zM228 580l-132 -80l132 165l132 -165z
" />
    <glyph glyph-name="edieresis" unicode="&#xeb;" horiz-adv-x="436" 
d="M414 271l-299 -19q0 -23 4 -43q15 -79 64 -113t104 -26q39 6 72.5 34t53.5 78q-4 -86 -55 -139t-130 -53q-96 0 -151 67t-55 168q0 99 59.5 167t149.5 68q183 0 183 -189zM316 293q0 75 -28 109t-75 28q-42 -6 -69 -47.5t-29 -103.5zM70 599q0 25 17.5 43t42.5 18
t42.5 -17.5t17.5 -43.5q0 -25 -17.5 -42t-42.5 -17t-42.5 17t-17.5 42zM266 599q0 25 17.5 43t42.5 18t42.5 -17.5t17.5 -43.5q0 -25 -17.5 -42t-42.5 -17t-42.5 17t-17.5 42z" />
    <glyph glyph-name="igrave" unicode="&#xec;" horiz-adv-x="284" 
d="M20 405l74 -22v-339l-74 -44h244l-74 44v416zM32 650h108l28 -150z" />
    <glyph glyph-name="iacute" unicode="&#xed;" horiz-adv-x="284" 
d="M94 383l-74 22l170 55v-416l74 -44h-244l74 44v339zM120 650h108l-136 -150z" />
    <glyph glyph-name="icircumflex" unicode="&#xee;" horiz-adv-x="284" 
d="M94 383l-74 22l170 55v-416l74 -44h-244l74 44v339zM139 576l-122 -76l122 160l122 -160z" />
    <glyph glyph-name="idieresis" unicode="&#xef;" horiz-adv-x="281" 
d="M15 405l74 -22v-339l-74 -44h244l-74 44v416zM-8 599q0 26 17 43.5t42 17.5t43 -18t18 -43t-17.5 -42t-43.5 -17q-25 0 -42 17t-17 42zM159 599q0 25 17.5 43t42.5 18t42.5 -17.5t17.5 -43.5q0 -25 -17.5 -42t-42.5 -17t-42.5 17t-17.5 42z" />
    <glyph glyph-name="eth" unicode="&#xf0;" horiz-adv-x="473" 
d="M162 505l-16 27l104 60q-77 77 -183 58q43 15 91 15q73 0 139 -47l101 59l16 -27l-92 -53q60 -53 94.5 -136.5t33.5 -182.5q-2 -133 -57 -210.5t-163 -77.5q-94 0 -152.5 70t-54.5 175q3 102 62.5 163.5t139.5 61.5q36 0 67 -17.5t44 -42.5q-15 102 -65 168zM133 210
q11 -89 48.5 -142t83.5 -46q52 8 72.5 67t8.5 151q-11 90 -48 142.5t-83 45.5q-52 -6 -73 -65.5t-9 -152.5z" />
    <glyph glyph-name="ntilde" unicode="&#xf1;" horiz-adv-x="554" 
d="M295 0l74 41v242q0 63 -16 90t-58 27q-27 0 -55.5 -17.5t-49.5 -45.5v-296l74 -41h-244l74 41v342l-74 22l170 55v-93q76 93 148 93q70 0 98.5 -42t28.5 -122v-255l74 -41h-244zM138 514q-13 66 8.5 98t54.5 37q24 4 41.5 -1t46.5 -20q37 -20 51.5 -25.5t32.5 -2.5
q49 7 48 74q15 -67 -6.5 -102t-59.5 -41q-45 -6 -91 19q-60 31 -85 31q-38 0 -41 -67z" />
    <glyph glyph-name="ograve" unicode="&#xf2;" horiz-adv-x="479" 
d="M22 225q0 101 63.5 168t153.5 67q96 0 157 -66t61 -169q0 -101 -63.5 -168t-154.5 -67q-96 0 -156.5 66t-60.5 169zM133 210q11 -90 48 -142.5t83 -45.5q52 8 73 67t9 151q-11 89 -48.5 142t-83.5 46q-52 -6 -72.5 -65.5t-8.5 -152.5zM126 650h108l28 -150z" />
    <glyph glyph-name="oacute" unicode="&#xf3;" horiz-adv-x="479" 
d="M22 225q0 101 63.5 168t153.5 67q96 0 157 -66t61 -169q0 -101 -63.5 -168t-154.5 -67q-96 0 -156.5 66t-60.5 169zM133 210q11 -90 48 -142.5t83 -45.5q52 8 73 67t9 151q-11 89 -48.5 142t-83.5 46q-52 -6 -72.5 -65.5t-8.5 -152.5zM224 650h108l-136 -150z" />
    <glyph glyph-name="ocircumflex" unicode="&#xf4;" horiz-adv-x="479" 
d="M22 225q0 101 63.5 168t153.5 67q96 0 157 -66t61 -169q0 -101 -63.5 -168t-154.5 -67q-96 0 -156.5 66t-60.5 169zM133 210q11 -90 48 -142.5t83 -45.5q52 8 73 67t9 151q-11 89 -48.5 142t-83.5 46q-52 -6 -72.5 -65.5t-8.5 -152.5zM239 580l-139 -80l139 165l139 -165
z" />
    <glyph glyph-name="otilde" unicode="&#xf5;" horiz-adv-x="479" 
d="M22 225q0 101 63.5 168t153.5 67q96 0 157 -66t61 -169q0 -101 -63.5 -168t-154.5 -67q-96 0 -156.5 66t-60.5 169zM133 210q11 -90 48 -142.5t83 -45.5q52 8 73 67t9 151q-11 89 -48.5 142t-83.5 46q-52 -6 -72.5 -65.5t-8.5 -152.5zM96 514q-12 66 9 98t54 37
q24 4 42 -1t47 -20q36 -20 51 -25.5t33 -2.5q48 7 48 74q14 -67 -7.5 -102t-59.5 -41q-44 -6 -91 19q-60 31 -85 31q-36 0 -41 -67z" />
    <glyph glyph-name="odieresis" unicode="&#xf6;" horiz-adv-x="479" 
d="M22 225q0 101 63.5 168t153.5 67q96 0 157 -66t61 -169q0 -101 -63.5 -168t-154.5 -67q-96 0 -156.5 66t-60.5 169zM133 210q11 -90 48 -142.5t83 -45.5q52 8 73 67t9 151q-11 89 -48.5 142t-83.5 46q-52 -6 -72.5 -65.5t-8.5 -152.5zM82 599q0 25 17.5 43t42.5 18
t42.5 -17.5t17.5 -43.5q0 -25 -17.5 -42t-42.5 -17t-42.5 17t-17.5 42zM278 599q0 25 17.5 43t42.5 18t42.5 -17.5t17.5 -43.5q0 -25 -17.5 -42t-42.5 -17t-42.5 17t-17.5 42z" />
    <glyph glyph-name="divide" unicode="&#xf7;" horiz-adv-x="502" 
d="M56 320v32h390v-32h-390zM191 185q0 25 17.5 43t42.5 18t42.5 -17.5t17.5 -43.5q0 -25 -17.5 -42t-42.5 -17t-42.5 17t-17.5 42zM191 485q0 25 17.5 43t42.5 18t42.5 -17.5t17.5 -43.5q0 -25 -17.5 -42t-42.5 -17t-42.5 17t-17.5 42z" />
    <glyph glyph-name="oslash" unicode="&#xf8;" horiz-adv-x="479" 
d="M364 480l35 -20l-26 -45q84 -65 84 -190q0 -101 -63.5 -168t-154.5 -67q-53 0 -99 22l-24 -42l-35 20l25 44q-84 67 -84 191q0 101 63.5 168t153.5 67q56 0 100 -23zM346 240q-6 49 -23 88l-146 -252q38 -61 87 -54q52 8 73 67t9 151zM133 210q6 -51 23 -90l146 253
q-38 62 -88 55q-52 -6 -72.5 -65.5t-8.5 -152.5z" />
    <glyph glyph-name="ugrave" unicode="&#xf9;" horiz-adv-x="545" 
d="M3 416l170 44v-293q0 -64 14.5 -90.5t55.5 -26.5q28 0 58.5 17.5t50.5 45.5v280l-74 23l170 44v-393l74 -22l-170 -55v93q-76 -93 -148 -93q-70 0 -98.5 42t-28.5 122v239zM166 650h108l28 -150z" />
    <glyph glyph-name="uacute" unicode="&#xfa;" horiz-adv-x="545" 
d="M3 416l170 44v-293q0 -64 14.5 -90.5t55.5 -26.5q28 0 58.5 17.5t50.5 45.5v280l-74 23l170 44v-393l74 -22l-170 -55v93q-76 -93 -148 -93q-70 0 -98.5 42t-28.5 122v239zM253 650h108l-136 -150z" />
    <glyph glyph-name="ucircumflex" unicode="&#xfb;" horiz-adv-x="545" 
d="M3 416l170 44v-293q0 -64 14.5 -90.5t55.5 -26.5q28 0 58.5 17.5t50.5 45.5v280l-74 23l170 44v-393l74 -22l-170 -55v93q-76 -93 -148 -93q-70 0 -98.5 42t-28.5 122v239zM258 580l-139 -80l139 165l139 -165z" />
    <glyph glyph-name="udieresis" unicode="&#xfc;" horiz-adv-x="545" 
d="M3 416l170 44v-293q0 -64 14.5 -90.5t55.5 -26.5q28 0 58.5 17.5t50.5 45.5v280l-74 23l170 44v-393l74 -22l-170 -55v93q-76 -93 -148 -93q-70 0 -98.5 42t-28.5 122v239zM108 599q0 26 17.5 43.5t42.5 17.5t42.5 -17.5t17.5 -43.5q0 -25 -17.5 -42t-43.5 -17
q-25 0 -42 17t-17 42zM291 599q0 26 17.5 43.5t42.5 17.5t42.5 -17.5t17.5 -43.5q0 -25 -17.5 -42t-43.5 -17q-25 0 -42 17t-17 42z" />
    <glyph glyph-name="yacute" unicode="&#xfd;" horiz-adv-x="525" 
d="M525 450l-82 -51l-204 -500q-24 -64 -49 -87t-59 -23q-28 0 -46.5 15t-18.5 39q0 25 13.5 38.5t34.5 13.5q10 0 17.5 -3t15 -9.5t11.5 -8.5q22 -14 41 30l44 109l-185 391l-78 46h246l-68 -40l133 -278l108 268l-78 50h204zM277 650h108l-136 -150z" />
    <glyph glyph-name="thorn" unicode="&#xfe;" horiz-adv-x="510" 
d="M2 -200l73 45v743l-73 22l169 55v-301q52 96 129 96q84 0 131 -60t47 -165q0 -103 -63 -174t-149 -71q-57 0 -95 35v-180l74 -45h-243zM375 245q-4 71 -33 112.5t-73 40.5q-57 0 -98 -61v-237q0 -41 31.5 -63t69.5 -16q53 8 80.5 71t22.5 153z" />
    <glyph glyph-name="ydieresis" unicode="&#xff;" horiz-adv-x="525" 
d="M525 450l-82 -51l-204 -500q-24 -64 -49 -87t-59 -23q-28 0 -46.5 15t-18.5 39q0 25 13.5 38.5t34.5 13.5q10 0 17.5 -3t15 -9.5t11.5 -8.5q22 -14 41 30l44 109l-185 391l-78 46h246l-68 -40l133 -278l108 268l-78 50h204zM112 599q0 25 17.5 43t42.5 18t42.5 -17.5
t17.5 -43.5q0 -25 -17.5 -42t-42.5 -17t-42.5 17t-17.5 42zM305 599q0 25 17.5 43t42.5 18t42.5 -17.5t17.5 -43.5q0 -25 -17.5 -42t-42.5 -17t-42.5 17t-17.5 42z" />
    <glyph glyph-name="Abreve" unicode="&#x102;" horiz-adv-x="663" 
d="M-10 0l91 61l248 604l256 -615l78 -50h-261l67 45l-54 130h-245l-50 -120l77 -55h-207zM290 471l-106 -261h215zM327 737q-58 0 -93.5 35t-42.5 92q46 -64 136 -64t136 64q-8 -57 -43.5 -92t-92.5 -35z" />
    <glyph glyph-name="abreve" unicode="&#x103;" 
d="M367 53v258q0 149 -153 149q-65 0 -118.5 -32.5t-54.5 -79.5q0 -22 12 -36.5t32 -14.5q21 0 33.5 13.5t12.5 37.5q0 83 74 83q37 0 52 -26.5t15 -93.5v-17l-132 -53q-117 -47 -117 -139q0 -51 29.5 -81.5t78.5 -30.5q43 0 80 27l61 44q0 -71 58 -71q63 0 111 93zM272 93
q-56 -45 -89 -45q-31 0 -47.5 22t-16.5 59q0 72 88 109l65 27v-172zM218 537q-58 0 -93.5 35t-42.5 92q46 -64 136 -64t136 64q-8 -57 -43.5 -92t-92.5 -35z" />
    <glyph glyph-name="Aogonek" unicode="&#x104;" horiz-adv-x="663" 
d="M-10 0l91 61l248 604l256 -615l78 -50h-115q-32 -48 -34 -72q-3 -27 8.5 -42.5t34.5 -15.5q41 0 55 53q9 -40 -10.5 -80t-67.5 -40q-33 0 -54 21.5t-21 59.5q0 58 58 116h-115l67 45l-54 130h-245l-50 -120l77 -55h-207zM290 471l-106 -261h215z" />
    <glyph glyph-name="aogonek" unicode="&#x105;" 
d="M272 61l-61 -44q-37 -27 -80 -27q-49 0 -78.5 30.5t-29.5 81.5q0 92 117 139l132 53v17q0 67 -15 93.5t-52 26.5q-74 0 -74 -83q0 -24 -12.5 -37.5t-33.5 -13.5q-20 0 -32 14.5t-12 36.5q1 47 54.5 79.5t118.5 32.5q153 0 153 -149v-258l74 30q-2 -3 -14 -17t-16 -18.5
t-14.5 -17.5t-14.5 -20t-11.5 -19t-11 -21t-7 -20t-4.5 -22q-3 -27 8.5 -42.5t34.5 -15.5q41 0 55 53q9 -40 -10.5 -80t-67.5 -40q-33 0 -54.5 21.5t-21.5 59.5q0 55 50 107q-4 -1 -12 -1q-58 0 -58 71zM272 93v172l-65 -27q-88 -37 -88 -109q0 -37 16.5 -59t47.5 -22
q33 0 89 45z" />
    <glyph glyph-name="Cacute" unicode="&#x106;" horiz-adv-x="620" 
d="M559 665v-245q-40 104 -87 158t-121 54q-93 0 -143 -83t-50 -219q0 -123 59.5 -200t155.5 -77q76 0 128 46.5t72 127.5q-7 -106 -72.5 -171.5t-163.5 -65.5q-136 0 -221.5 96t-85.5 241t84 241.5t220 96.5q87 0 145 -45zM300 890h120l-143 -180z" />
    <glyph glyph-name="cacute" unicode="&#x107;" horiz-adv-x="444" 
d="M120 209q10 -55 39 -89.5t61.5 -44.5t66.5 -5q37 6 71 35t54 77q-6 -86 -56.5 -139t-127.5 -53q-95 0 -150.5 66.5t-55.5 168.5q0 100 62.5 167.5t153.5 67.5q72 0 115 -31.5t45 -77.5q0 -23 -14 -38.5t-36 -15.5q-23 0 -34.5 16t-11.5 35q0 44 -22 66t-60 16
q-56 -8 -86 -71t-14 -150zM207 650h108l-136 -150z" />
    <glyph glyph-name="Ccaron" unicode="&#x10c;" horiz-adv-x="620" 
d="M559 665v-245q-40 104 -87 158t-121 54q-93 0 -143 -83t-50 -219q0 -123 59.5 -200t155.5 -77q76 0 128 46.5t72 127.5q-7 -106 -72.5 -171.5t-163.5 -65.5q-136 0 -221.5 96t-85.5 241t84 241.5t220 96.5q87 0 145 -45zM336 804l139 61l-139 -155l-139 155z" />
    <glyph glyph-name="ccaron" unicode="&#x10d;" horiz-adv-x="444" 
d="M120 209q10 -55 39 -89.5t61.5 -44.5t66.5 -5q37 6 71 35t54 77q-6 -86 -56.5 -139t-127.5 -53q-95 0 -150.5 66.5t-55.5 168.5q0 100 62.5 167.5t153.5 67.5q72 0 115 -31.5t45 -77.5q0 -23 -14 -38.5t-36 -15.5q-23 0 -34.5 16t-11.5 35q0 44 -22 66t-60 16
q-56 -8 -86 -71t-14 -150zM223 601l122 64l-122 -148l-122 148z" />
    <glyph glyph-name="Dcaron" unicode="&#x10e;" horiz-adv-x="659" 
d="M27 650h292q141 0 225.5 -89t84.5 -234q0 -146 -85 -236.5t-225 -90.5h-292l84 51v548zM310 615h-87v-580h87q93 0 141.5 76.5t48.5 215.5q0 138 -48.5 213t-141.5 75zM323 804l139 61l-139 -155l-139 155z" />
    <glyph glyph-name="dcaron" unicode="&#x10f;" horiz-adv-x="630" 
d="M428 665v-598l74 -22l-170 -55v96q-52 -96 -129 -96q-84 0 -131 60t-47 165q0 103 63 174t149 71q57 0 95 -35v163l-74 22zM128 205q4 -71 33 -112.5t73 -40.5q57 0 98 61v237q0 41 -31.5 63t-69.5 16q-53 -8 -80.5 -71t-22.5 -153zM482 570q0 26 17 43.5t46 17.5
q35 0 56.5 -24t21.5 -77q0 -52 -34.5 -99.5t-93.5 -71.5q46 26 67.5 73t15.5 89q-16 -10 -38 -10q-25 0 -41.5 17t-16.5 42z" />
    <glyph glyph-name="Dcroat" unicode="&#x110;" horiz-adv-x="669" 
d="M-20 310v32h141v257l-84 51h292q141 0 225.5 -89t84.5 -234q0 -146 -85 -236.5t-225 -90.5h-292l84 51v259h-141zM320 615h-87v-273h137v-32h-137v-275h87q93 0 141.5 76.5t48.5 215.5q0 138 -48.5 213t-141.5 75z" />
    <glyph glyph-name="dcroat" unicode="&#x111;" horiz-adv-x="522" 
d="M217 508v32h115v48l-74 22l170 55v-125h98v-32h-98v-441l74 -22l-170 -55v96q-52 -96 -129 -96q-84 0 -131 60t-47 165q0 103 63 174t149 71q57 0 95 -35v83h-115zM128 205q4 -71 33 -112.5t73 -40.5q57 0 98 61v237q0 41 -31.5 63t-69.5 16q-53 -8 -80.5 -71t-22.5 -153
z" />
    <glyph glyph-name="Eogonek" unicode="&#x118;" horiz-adv-x="596" 
d="M27 0l84 51v548l-84 51h518v-220l-104 185h-218v-260h114l75 103v-240l-74 102h-115v-285h227l110 185v-220h-36q-32 -48 -34 -72q-3 -27 8.5 -42.5t34.5 -15.5q41 0 55 53q9 -40 -10.5 -80t-67.5 -40q-33 0 -54 21.5t-21 59.5q0 58 58 116h-466z" />
    <glyph glyph-name="eogonek" unicode="&#x119;" 
d="M414 271l-299 -19q0 -23 4 -43q15 -79 64 -113t104 -26q39 6 72.5 34t53.5 78q-4 -72 -50 -133q-37 -50 -40 -84q-5 -57 40 -57q40 0 54 52q9 -40 -10.5 -80t-67.5 -40q-31 0 -51.5 19.5t-20.5 53.5q0 45 36 92q-35 -15 -75 -15q-96 0 -151 67t-55 168q0 99 59.5 167
t149.5 68q183 0 183 -189zM316 293q0 75 -28 109t-75 28q-42 -6 -69 -47.5t-29 -103.5z" />
    <glyph glyph-name="Ecaron" unicode="&#x11a;" horiz-adv-x="596" 
d="M27 0l84 51v548l-84 51h518v-220l-104 185h-218v-260h114l75 103v-240l-74 102h-115v-285h227l110 185v-220h-533zM323 804l139 61l-139 -155l-139 155z" />
    <glyph glyph-name="ecaron" unicode="&#x11b;" 
d="M414 271l-299 -19q0 -23 4 -43q15 -79 64 -113t104 -26q39 6 72.5 34t53.5 78q-4 -86 -55 -139t-130 -53q-96 0 -151 67t-55 168q0 99 59.5 167t149.5 68q183 0 183 -189zM316 293q0 75 -28 109t-75 28q-42 -6 -69 -47.5t-29 -103.5zM222 601l122 64l-122 -148l-122 148z
" />
    <glyph glyph-name="Lacute" unicode="&#x139;" horiz-adv-x="603" 
d="M570 0v220l-110 -185h-237v554l104 61h-300l84 -51v-548l-84 -51h543zM223 890h120l-143 -180z" />
    <glyph glyph-name="lacute" unicode="&#x13a;" horiz-adv-x="277" 
d="M13 0l74 45v543l-74 22l170 55v-620l74 -45h-244zM120 850h108l-136 -150z" />
    <glyph glyph-name="Lcaron" unicode="&#x13d;" horiz-adv-x="603" 
d="M570 220v-220h-543l84 51v548l-84 51h300l-104 -61v-554h237zM178 804l139 61l-139 -155l-139 155z" />
    <glyph glyph-name="lcaron" unicode="&#x13e;" horiz-adv-x="335" 
d="M13 0l74 45v543l-74 22l170 55v-620l74 -45h-244zM235 570q0 26 17 43.5t46 17.5q35 0 56.5 -24t21.5 -77q0 -52 -34.5 -99.5t-93.5 -71.5q46 26 67.5 73t15.5 89q-16 -10 -38 -10q-25 0 -41.5 17t-16.5 42z" />
    <glyph glyph-name="Lslash" unicode="&#x141;" horiz-adv-x="609" 
d="M3 205l-16 27l130 75v292l-84 51h300l-104 -61v-217l130 75l16 -27l-146 -85v-300h237l110 185v-220h-543l84 51v220z" />
    <glyph glyph-name="lslash" unicode="&#x142;" horiz-adv-x="317" 
d="M9 215l-16 27l114 64v282l-74 22l170 55v-305l102 58l16 -27l-118 -67v-279l74 -45h-244l74 45v225z" />
    <glyph glyph-name="Nacute" unicode="&#x143;" horiz-adv-x="712" 
d="M266 0l-100 63v460l429 -538v602l90 63h-229l90 -63v-363l-337 426h-182l90 -72v-515l-90 -63h239zM350 890h120l-143 -180z" />
    <glyph glyph-name="nacute" unicode="&#x144;" horiz-adv-x="554" 
d="M295 0l74 41v242q0 63 -16 90t-58 27q-27 0 -55.5 -17.5t-49.5 -45.5v-296l74 -41h-244l74 41v342l-74 22l170 55v-93q76 93 148 93q70 0 98.5 -42t28.5 -122v-255l74 -41h-244zM257 650h108l-136 -150z" />
    <glyph glyph-name="Ncaron" unicode="&#x147;" horiz-adv-x="712" 
d="M166 63l100 -63h-239l90 63v515l-90 72h182l337 -426v363l-90 63h229l-90 -63v-602l-429 538v-460zM355 804l139 61l-139 -155l-139 155z" />
    <glyph glyph-name="ncaron" unicode="&#x148;" horiz-adv-x="554" 
d="M295 0l74 41v242q0 63 -16 90t-58 27q-27 0 -55.5 -17.5t-49.5 -45.5v-296l74 -41h-244l74 41v342l-74 22l170 55v-93q76 93 148 93q70 0 98.5 -42t28.5 -122v-255l74 -41h-244zM272 601l122 64l-122 -148l-122 148z" />
    <glyph glyph-name="Ohungarumlaut" unicode="&#x150;" horiz-adv-x="669" 
d="M30 327q0 144 86 241t218 97t218.5 -97t86.5 -241t-86.5 -240.5t-218.5 -96.5t-218 96.5t-86 240.5zM160 327q0 -140 44.5 -222.5t130.5 -82.5t130.5 82.5t44.5 222.5t-44.5 223t-130.5 83t-130.5 -83t-44.5 -223zM219 890h120l-143 -180zM412 890h120l-143 -180z" />
    <glyph glyph-name="ohungarumlaut" unicode="&#x151;" horiz-adv-x="479" 
d="M22 225q0 101 63.5 168t153.5 67q96 0 157 -66t61 -169q0 -101 -63.5 -168t-154.5 -67q-96 0 -156.5 66t-60.5 169zM133 210q11 -90 48 -142.5t83 -45.5q52 8 73 67t9 151q-11 89 -48.5 142t-83.5 46q-52 -6 -72.5 -65.5t-8.5 -152.5zM161 650h108l-136 -150zM307 650
h108l-136 -150z" />
    <glyph glyph-name="OE" unicode="&#x152;" horiz-adv-x="881" 
d="M340 650h490v-220l-104 185h-198v-260h97l75 103v-240l-74 102h-98v-285h207l110 185v-220h-505q-140 0 -225 90.5t-85 236.5q0 145 84.5 234t225.5 89zM416 615h-67q-93 0 -141.5 -75t-48.5 -213q0 -139 48.5 -215.5t141.5 -76.5h67v580z" />
    <glyph glyph-name="oe" unicode="&#x153;" horiz-adv-x="790" 
d="M22 225q0 101 63.5 168t153.5 67q110 0 173 -86q60 86 162 86q185 0 183 -189l-299 -19q3 -36 4 -43q15 -79 64.5 -113t104.5 -26q85 12 125 112q-4 -86 -55 -139t-130 -53q-108 0 -164 85q-65 -85 -168 -85q-96 0 -156.5 66t-60.5 169zM133 210q11 -90 48 -142.5
t83 -45.5q52 8 73 67t9 151q-11 89 -48.5 142t-83.5 46q-52 -6 -72.5 -65.5t-8.5 -152.5zM659 293q0 75 -28 109t-75 28q-42 -6 -68.5 -47t-29.5 -104z" />
    <glyph glyph-name="Racute" unicode="&#x154;" horiz-adv-x="663" 
d="M27 650h299q239 0 239 -172q0 -73 -49 -119t-137 -54q51 -8 83.5 -35t56.5 -78l64 -139l83 -53h-188l-89 210q-39 86 -127 86h-39v-245l84 -51h-280l84 51v548zM223 615v-284h87q58 0 95.5 39t37.5 108q0 73 -38.5 105t-97.5 32h-84zM310 890h120l-143 -180z" />
    <glyph glyph-name="racute" unicode="&#x155;" horiz-adv-x="433" 
d="M190 44l74 -44h-244l74 44v339l-74 22l170 55v-80l28 30q46 50 93 50q75 0 77 -58q1 -24 -12.5 -40t-36.5 -16q-37 0 -46 38q-8 29 -30 29q-14 0 -32 -18l-41 -46v-305zM187 650h108l-136 -150z" />
    <glyph glyph-name="Rcaron" unicode="&#x158;" horiz-adv-x="663" 
d="M27 650h299q239 0 239 -172q0 -73 -49 -119t-137 -54q51 -8 83.5 -35t56.5 -78l64 -139l83 -53h-188l-89 210q-39 86 -127 86h-39v-245l84 -51h-280l84 51v548zM223 615v-284h87q58 0 95.5 39t37.5 108q0 73 -38.5 105t-97.5 32h-84zM325 804l139 61l-139 -155l-139 155z
" />
    <glyph glyph-name="rcaron" unicode="&#x159;" horiz-adv-x="433" 
d="M190 44l74 -44h-244l74 44v339l-74 22l170 55v-80l28 30q46 50 93 50q75 0 77 -58q1 -24 -12.5 -40t-36.5 -16q-37 0 -46 38q-8 29 -30 29q-14 0 -32 -18l-41 -46v-305zM212 601l122 64l-122 -148l-122 148z" />
    <glyph glyph-name="Sacute" unicode="&#x15a;" horiz-adv-x="543" 
d="M471 665v-235q-37 101 -88 152t-122 51q-55 0 -97 -27.5t-42 -75.5q0 -35 24 -57.5t73 -42.5l159 -68q61 -25 98 -68.5t37 -120.5q0 -75 -53 -129t-153 -54q-51 0 -96.5 18.5t-69.5 44.5l-79 -63v259q42 -109 100 -168t145 -59q61 0 98 30t37 80q0 24 -9 43t-26.5 32.5
t-31 21t-34.5 16.5l-157 68q-124 52 -124 164q0 92 58.5 140t141.5 48q84 0 138 -44zM253 890h120l-143 -180z" />
    <glyph glyph-name="sacute" unicode="&#x15b;" horiz-adv-x="395" 
d="M285 436l52 24l-4 -172q-50 140 -148 140q-36 0 -59 -18t-23 -49q0 -36 29 -52q9 -5 46 -20l84 -34q55 -21 77.5 -53t22.5 -77q0 -63 -44.5 -99t-109.5 -36q-66 0 -104 31l-62 -31v174q60 -142 167 -142q34 0 57 17t23 49q0 15 -6.5 28t-13.5 21t-23.5 17t-26.5 12.5
t-32 11.5t-30 11q-61 22 -89 52t-28 84q0 61 40.5 98t106.5 37q63 0 98 -24zM177 650h108l-136 -150z" />
    <glyph glyph-name="Scaron" unicode="&#x160;" horiz-adv-x="543" 
d="M471 665v-235q-37 101 -88 152t-122 51q-55 0 -97 -27.5t-42 -75.5q0 -35 24 -57.5t73 -42.5l159 -68q61 -25 98 -68.5t37 -120.5q0 -75 -53 -129t-153 -54q-51 0 -96.5 18.5t-69.5 44.5l-79 -63v259q42 -109 100 -168t145 -59q61 0 98 30t37 80q0 24 -9 43t-26.5 32.5
t-31 21t-34.5 16.5l-157 68q-124 52 -124 164q0 92 58.5 140t141.5 48q84 0 138 -44zM273 804l139 61l-139 -155l-139 155z" />
    <glyph glyph-name="scaron" unicode="&#x161;" horiz-adv-x="395" 
d="M285 436l52 24l-4 -172q-50 140 -148 140q-36 0 -59 -18t-23 -49q0 -36 29 -52q9 -5 46 -20l84 -34q55 -21 77.5 -53t22.5 -77q0 -63 -44.5 -99t-109.5 -36q-66 0 -104 31l-62 -31v174q60 -142 167 -142q34 0 57 17t23 49q0 15 -6.5 28t-13.5 21t-23.5 17t-26.5 12.5
t-32 11.5t-30 11q-61 22 -89 52t-28 84q0 61 40.5 98t106.5 37q63 0 98 -24zM192 601l122 64l-122 -148l-122 148z" />
    <glyph glyph-name="Tcommaaccent" unicode="&#x162;" horiz-adv-x="637" 
d="M614 650v-220l-110 185h-126v-554l104 -61h-320l104 61v554h-126l-110 -185v220h584zM253 -148q0 26 17.5 43.5t46.5 17.5q78 0 78 -100q0 -51 -34.5 -99t-93.5 -72q46 26 67.5 73t15.5 89q-17 -11 -38 -11q-26 0 -42.5 17t-16.5 42z" />
    <glyph glyph-name="tcommaaccent" unicode="&#x163;" horiz-adv-x="318" 
d="M20 423l167 155v-128h94v-27h-94v-321q0 -28 11.5 -41t28.5 -10t36 15t35 29q-51 -105 -124 -105q-82 0 -82 97v336h-72zM102 -148q0 26 17 43.5t46 17.5q78 0 78 -100q0 -51 -34.5 -99t-93.5 -72q46 26 67.5 73t15.5 89q-17 -11 -38 -11q-25 0 -41.5 17t-16.5 42z" />
    <glyph glyph-name="Tcaron" unicode="&#x164;" horiz-adv-x="637" 
d="M614 650v-220l-110 185h-126v-554l104 -61h-320l104 61v554h-126l-110 -185v220h584zM323 804l139 61l-139 -155l-139 155z" />
    <glyph glyph-name="tcaron" unicode="&#x165;" horiz-adv-x="414" 
d="M187 578l-167 -155h72v-336q0 -97 82 -97q73 0 124 105q-16 -17 -35 -29t-36 -15t-28.5 10t-11.5 41v321h94v27h-94v128zM273 566q0 26 17 43.5t46 17.5q78 0 78 -100q0 -51 -34.5 -99t-93.5 -72q46 26 67.5 73t15.5 89q-17 -11 -38 -11q-25 0 -41.5 17t-16.5 42z" />
    <glyph glyph-name="Uring" unicode="&#x16e;" horiz-adv-x="720" 
d="M24 650l84 -51v-345q0 -52 12 -95.5t40 -83t82 -62.5t130 -23q67 0 115.5 25t73 67t35 85.5t10.5 91.5v328l90 63h-229l90 -63v-333q0 -38 -7.5 -71.5t-26 -66.5t-55 -52.5t-87.5 -19.5q-41 0 -71.5 13.5t-47.5 34t-26.5 51.5t-12.5 58t-3 62v336l84 51h-280zM288 783
q0 35 24 58.5t58 23.5t58 -23.5t24 -58.5t-24 -58.5t-58 -23.5t-58 23.5t-24 58.5zM322 783q0 -19 14 -33.5t34 -14.5t34 14.5t14 33.5t-14 33.5t-34 14.5t-34 -14.5t-14 -33.5z" />
    <glyph glyph-name="uring" unicode="&#x16f;" horiz-adv-x="545" 
d="M3 416l170 44v-293q0 -64 14.5 -90.5t55.5 -26.5q28 0 58.5 17.5t50.5 45.5v280l-74 23l170 44v-393l74 -22l-170 -55v93q-76 -93 -148 -93q-70 0 -98.5 42t-28.5 122v239zM178 583q0 35 24 58.5t58 23.5t58 -23.5t24 -58.5t-24 -58.5t-58 -23.5t-58 23.5t-24 58.5z
M212 583q0 -19 14 -33.5t34 -14.5q19 0 33 14.5t14 33.5t-14 33.5t-33 14.5q-20 0 -34 -14.5t-14 -33.5z" />
    <glyph glyph-name="Uhungarumlaut" unicode="&#x170;" horiz-adv-x="720" 
d="M24 650l84 -51v-345q0 -52 12 -95.5t40 -83t82 -62.5t130 -23q67 0 115.5 25t73 67t35 85.5t10.5 91.5v328l90 63h-229l90 -63v-333q0 -38 -7.5 -71.5t-26 -66.5t-55 -52.5t-87.5 -19.5q-41 0 -71.5 13.5t-47.5 34t-26.5 51.5t-12.5 58t-3 62v336l84 51h-280zM265 890
h120l-143 -180zM451 890h120l-143 -180z" />
    <glyph glyph-name="uhungarumlaut" unicode="&#x171;" horiz-adv-x="545" 
d="M3 416l170 44v-293q0 -64 14.5 -90.5t55.5 -26.5q28 0 58.5 17.5t50.5 45.5v280l-74 23l170 44v-393l74 -22l-170 -55v93q-76 -93 -148 -93q-70 0 -98.5 42t-28.5 122v239zM177 650h108l-136 -150zM323 650h108l-136 -150z" />
    <glyph glyph-name="Ydieresis" unicode="&#x178;" horiz-adv-x="682" 
d="M276 650l-65 -42l171 -263l152 252l-68 53h209l-95 -58l-172 -289v-252l84 -51h-280l84 51v231l-207 320l-79 48h266zM193 794q0 26 17.5 44t43.5 18t43.5 -18t17.5 -44t-17.5 -43.5t-43.5 -17.5t-43.5 17.5t-17.5 43.5zM408 794q0 26 18 44t44 18t43.5 -18t17.5 -44
t-18 -43.5t-44 -17.5q-25 0 -43 18t-18 43z" />
    <glyph glyph-name="Zacute" unicode="&#x179;" horiz-adv-x="582" 
d="M60 430v220h482l-364 -615h254l110 185v-220h-508l363 615h-227zM277 890h120l-143 -180z" />
    <glyph glyph-name="zacute" unicode="&#x17a;" horiz-adv-x="465" 
d="M331 27l87 116v-143h-381l260 423h-154l-86 -116v143h365l-260 -423h169zM200 650h108l-136 -150z" />
    <glyph glyph-name="Zdotaccent" unicode="&#x17b;" horiz-adv-x="582" 
d="M60 430v220h482l-364 -615h254l110 185v-220h-508l363 615h-227zM227 779q0 26 17.5 43.5t42.5 17.5t42.5 -17.5t17.5 -43.5q0 -25 -17.5 -42t-43.5 -17q-25 0 -42 17t-17 42z" />
    <glyph glyph-name="zdotaccent" unicode="&#x17c;" horiz-adv-x="465" 
d="M418 143l-87 -116h-169l260 423h-365v-143l86 116h154l-260 -423h381v143zM166 604q0 25 17.5 43t42.5 18t42.5 -17.5t17.5 -43.5q0 -25 -17.5 -42t-42.5 -17t-42.5 17t-17.5 42z" />
    <glyph glyph-name="Zcaron" unicode="&#x17d;" horiz-adv-x="582" 
d="M60 430v220h482l-364 -615h254l110 185v-220h-508l363 615h-227zM290 804l139 61l-139 -155l-139 155z" />
    <glyph glyph-name="zcaron" unicode="&#x17e;" horiz-adv-x="465" 
d="M331 27l87 116v-143h-381l260 423h-154l-86 -116v143h365l-260 -423h169zM229 601l122 64l-122 -148l-122 148z" />
    <glyph glyph-name="Scommaaccent" unicode="&#x218;" horiz-adv-x="543" 
d="M471 665v-235q-37 101 -88 152t-122 51q-55 0 -97 -27.5t-42 -75.5q0 -35 24 -57.5t73 -42.5l159 -68q61 -25 98 -68.5t37 -120.5q0 -75 -53 -129t-153 -54q-51 0 -96.5 18.5t-69.5 44.5l-79 -63v259q42 -109 100 -168t145 -59q61 0 98 30t37 80q0 24 -9 43t-26.5 32.5
t-31 21t-34.5 16.5l-157 68q-124 52 -124 164q0 92 58.5 140t141.5 48q84 0 138 -44zM212 -148q0 26 17 43.5t46 17.5q78 0 78 -100q0 -51 -34.5 -99t-93.5 -72q46 26 67.5 73t15.5 89q-17 -11 -38 -11q-25 0 -41.5 17t-16.5 42z" />
    <glyph glyph-name="scommaaccent" unicode="&#x219;" horiz-adv-x="395" 
d="M285 436l52 24l-4 -172q-50 140 -148 140q-36 0 -59 -18t-23 -49q0 -36 29 -52q9 -5 46 -20l84 -34q55 -21 77.5 -53t22.5 -77q0 -63 -44.5 -99t-109.5 -36q-66 0 -104 31l-62 -31v174q60 -142 167 -142q34 0 57 17t23 49q0 15 -6.5 28t-13.5 21t-23.5 17t-26.5 12.5
t-32 11.5t-30 11q-61 22 -89 52t-28 84q0 61 40.5 98t106.5 37q63 0 98 -24zM128 -148q0 26 17 43.5t46 17.5q78 0 78 -100q0 -51 -34.5 -99t-93.5 -72q46 26 67.5 73t15.5 89q-17 -11 -38 -11q-25 0 -41.5 17t-16.5 42z" />
    <glyph glyph-name="afii10023" unicode="&#x401;" horiz-adv-x="584" 
d="M27 0l84 51v548l-84 51h518v-220l-104 185h-218v-260h114l75 103v-240l-74 102h-115v-285h227l110 185v-220h-533zM142 798q0 25 17.5 42.5t42.5 17.5q26 0 43 -17t17 -43q0 -25 -17.5 -42.5t-42.5 -17.5t-42.5 17.5t-17.5 42.5zM352 798q0 25 17.5 42.5t42.5 17.5
q26 0 43 -17t17 -43q0 -25 -17.5 -42.5t-42.5 -17.5t-42.5 17.5t-17.5 42.5z" />
    <glyph glyph-name="afii10051" unicode="&#x402;" horiz-adv-x="749" 
d="M719 222v-16q0 -100 -42.5 -158t-115.5 -58q-47 0 -77 18t-34 56q-2 27 11 44t39 17q47 0 47 -60q0 -46 27 -46q35 0 42 38t7 149v10q0 72 -26.5 103t-87.5 31q-85 0 -131 -63v-226l74 -61h-290l104 61v554h-126l-110 -185v220h584v-220l-110 185h-126v-298q76 93 174 93
q167 0 167 -188z" />
    <glyph glyph-name="afii10052" unicode="&#x403;" horiz-adv-x="574" 
d="M544 650v-206l-110 171h-211v-554l104 -61h-300l84 51v548l-84 51h517zM300 890h120l-143 -180z" />
    <glyph glyph-name="afii10053" unicode="&#x404;" horiz-adv-x="620" 
d="M559 665v-245q-40 104 -87 158t-121 54q-88 0 -138 -76t-55 -201h169l66 103v-240l-65 102h-170q1 -119 60.5 -193t154.5 -74q76 0 128 46.5t72 127.5q-7 -106 -72.5 -171.5t-163.5 -65.5q-136 0 -221.5 96t-85.5 241t84 241.5t220 96.5q87 0 145 -45z" />
    <glyph glyph-name="afii10054" unicode="&#x405;" horiz-adv-x="543" 
d="M465 665v-235q-37 101 -87 152t-121 51q-54 0 -94.5 -27.5t-40.5 -75.5q0 -35 24 -57.5t73 -42.5l162 -68q60 -25 96 -68t36 -121q0 -75 -53 -129t-153 -54q-51 0 -96.5 18.5t-69.5 44.5l-79 -63v259q42 -109 100 -168t145 -59q61 0 98 30t37 80q0 24 -9 43t-26.5 32.5
t-31 21t-34.5 16.5l-157 68q-124 52 -124 164q0 92 57.5 140t139.5 48q81 0 136 -44z" />
    <glyph glyph-name="uni0406" unicode="&#x406;" horiz-adv-x="334" 
d="M307 650l-84 -51v-548l84 -51h-280l84 51v548l-84 51h280z" />
    <glyph glyph-name="afii10056" unicode="&#x407;" horiz-adv-x="334" 
d="M307 650l-84 -51v-548l84 -51h-280l84 51v548l-84 51h280zM14 794q0 26 18 44t44 18t43.5 -18t17.5 -44t-18 -43.5t-44 -17.5q-25 0 -43 18t-18 43zM196 794q0 26 17.5 44t43.5 18t44 -18t18 -44t-18 -43.5t-44 -17.5q-25 0 -43 17.5t-18 43.5z" />
    <glyph glyph-name="afii10057" unicode="&#x408;" horiz-adv-x="466" 
d="M442 650l-84 -51v-369q0 -116 -48.5 -178t-137.5 -62q-77 0 -113 29t-39 74q-1 33 15.5 53t41.5 20q34 0 48 -20.5t10 -48.5q-11 -75 44 -75q16 0 28 7t19 25t11.5 33.5t6 48t2 52.5t0.5 62v349l-84 51h280z" />
    <glyph glyph-name="afii10058" unicode="&#x409;" horiz-adv-x="959" 
d="M468 615h-215v-335q0 -290 -148 -290q-35 0 -59.5 17.5t-24.5 50.5q0 30 16.5 43.5t37.5 13.5q20 0 31 -12t19.5 -21.5t22.5 -5.5q25 7 38.5 48.5t15.5 79t2 96.5v299l-90 51h550l-84 -51v-209h113q106 0 172.5 -50.5t66.5 -144.5t-66.5 -144.5t-172.5 -50.5h-309l84 51
v564zM580 35h88q59 0 97.5 41t38.5 119t-38.5 119t-97.5 41h-88v-320z" />
    <glyph glyph-name="afii10059" unicode="&#x40a;" horiz-adv-x="982" 
d="M491 599l-84 51h280l-84 -51v-209h113q106 0 172.5 -50.5t66.5 -144.5t-66.5 -144.5t-172.5 -50.5h-309l84 51v269h-268v-269l84 -51h-280l84 51v548l-84 51h280l-84 -51v-244h268v244zM603 35h88q59 0 97.5 41t38.5 119t-38.5 119t-97.5 41h-88v-320z" />
    <glyph glyph-name="afii10060" unicode="&#x40b;" horiz-adv-x="762" 
d="M503 0l74 41v192q0 64 -17.5 90.5t-66.5 26.5q-69 0 -115 -63v-226l104 -61h-320l104 61v554h-126l-110 -185v220h584v-220l-110 185h-126v-298q76 93 158 93q77 0 107 -41.5t30 -122.5v-205l74 -41h-244z" />
    <glyph glyph-name="afii10061" unicode="&#x40c;" horiz-adv-x="694" 
d="M307 650l-84 -51v-244h61q36 1 58 26.5t41 77.5l43 123q29 83 104 83q36 0 60.5 -18t24.5 -51q0 -32 -17.5 -49t-43.5 -17q-18 0 -29.5 8t-15.5 18t-10 18t-14 8q-17 0 -26 -25l-43 -119q-27 -72 -73 -95q115 -12 182 -159l62 -133l83 -51h-186l-88 205q-48 115 -124 115
h-49v-269l84 -51h-280l84 51v548l-84 51h280zM313 890h120l-143 -180z" />
    <glyph glyph-name="afii10062" unicode="&#x40e;" horiz-adv-x="652" 
d="M649 650l-84 -59l-241 -516q-22 -46 -45 -65.5t-59 -19.5t-59.5 19t-23.5 51q0 30 16.5 46.5t41.5 16.5q21 0 33 -12t19 -24t18 -12q19 0 30 26l33 72l-244 429l-74 48h250l-61 -41l185 -316l140 302l-75 55h200zM252 866q22 0 38.5 -13.5t16.5 -33.5q0 -16 -10 -31
t-7 -24q8 -26 71 -26q62 0 71 26q3 9 -7 24t-10 31q0 21 15.5 34t40.5 13q29 0 43.5 -17t14.5 -41q0 -47 -48.5 -70.5t-119.5 -23.5t-119.5 23.5t-48.5 70.5q0 24 15 41t44 17z" />
    <glyph glyph-name="afii10145" unicode="&#x40f;" horiz-adv-x="714" 
d="M355 -200l-60 200h-268l84 51v548l-84 51h280l-87 -51v-564h271v564l-84 51h280l-84 -51v-548l84 -51h-271z" />
    <glyph glyph-name="afii10017" unicode="&#x410;" horiz-adv-x="663" 
d="M-10 0l91 61l248 604l256 -615l78 -50h-261l67 45l-54 130h-245l-50 -120l77 -55h-207zM290 471l-106 -261h215z" />
    <glyph glyph-name="afii10018" unicode="&#x411;" horiz-adv-x="602" 
d="M519 650l7 -200l-118 165h-185v-225h113q106 0 172.5 -50.5t66.5 -144.5t-66.5 -144.5t-172.5 -50.5h-309l84 51v548l-84 51h492zM311 355h-88v-320h88q59 0 97.5 41t38.5 119t-38.5 119t-97.5 41z" />
    <glyph glyph-name="afii10019" unicode="&#x412;" horiz-adv-x="608" 
d="M111 599l-84 51h279q113 0 178 -36t65 -126q0 -60 -40 -100t-103 -48q76 -9 125 -51t49 -108q0 -181 -244 -181h-309l84 51v548zM223 320v-285h94q59 0 97 34t38 111q0 75 -43.5 107.5t-101.5 32.5h-84zM223 615v-260h68q136 4 136 134q0 39 -11.5 65.5t-33 39t-43.5 17
t-52 4.5h-64z" />
    <glyph glyph-name="afii10020" unicode="&#x413;" horiz-adv-x="574" 
d="M544 650v-206l-110 171h-211v-554l104 -61h-300l84 51v548l-84 51h517z" />
    <glyph glyph-name="afii10021" unicode="&#x414;" horiz-adv-x="690" 
d="M21 -200v235h27q25 0 45 11.5t33 27.5t23 45.5t15 51t8.5 59t4.5 56t3 54.5l8 259l-100 51h575l-84 -51v-564h90v-235l-118 200h-412zM467 615h-236l-9 -295q-8 -231 -77 -285h322v580z" />
    <glyph glyph-name="afii10022" unicode="&#x415;" horiz-adv-x="593" 
d="M27 0l84 51v548l-84 51h518v-220l-104 185h-218v-260h114l75 103v-240l-74 102h-115v-285h227l110 185v-220h-533z" />
    <glyph glyph-name="afii10024" unicode="&#x416;" horiz-adv-x="1006" 
d="M363 650h280l-84 -51v-244h47q37 0 55.5 23.5t39.5 80.5l41 123q30 83 104 83q37 0 61 -17.5t24 -51.5q0 -32 -17.5 -49.5t-44.5 -17.5q-23 0 -34.5 13.5t-18 26.5t-15.5 13q-17 0 -26 -25l-41 -119q-27 -74 -68 -94q112 -10 179 -160l57 -134l80 -50h-186l-80 205
q-48 115 -119 115h-38v-269l84 -51h-280l84 51v269h-38q-71 0 -119 -115l-80 -205h-186l80 50l57 134q67 150 179 160q-41 19 -68 94l-41 119q-9 25 -26 25q-9 0 -15.5 -13t-18 -26.5t-34.5 -13.5q-27 0 -44.5 17.5t-17.5 49.5q0 34 24 51.5t61 17.5q74 0 104 -83l41 -123
q21 -57 39 -80.5t55 -23.5h48v244z" />
    <glyph glyph-name="afii10025" unicode="&#x417;" horiz-adv-x="551" 
d="M72 403v262l81 -46q57 46 128 46q211 0 211 -174q0 -58 -35.5 -98t-91.5 -50q65 -7 108 -48.5t43 -108.5q0 -91 -66.5 -143.5t-178.5 -52.5q-100 0 -156.5 56t-61.5 150q53 -147 194 -147q70 0 108.5 39.5t38.5 103.5q0 57 -35.5 92.5t-95.5 35.5h-57v35h41
q55 2 91.5 36.5t36.5 101.5q0 73 -32 106t-84 33q-30 0 -56.5 -14.5t-44.5 -35.5t-35.5 -54t-28 -60.5t-22.5 -64.5z" />
    <glyph glyph-name="afii10026" unicode="&#x418;" horiz-adv-x="736" 
d="M27 0l84 51v548l-84 51h280l-84 -51v-469l290 450v19l-84 51h280l-84 -51v-548l84 -51h-280l84 51v462l-290 -450v-12l84 -51h-280z" />
    <glyph glyph-name="afii10027" unicode="&#x419;" horiz-adv-x="736" 
d="M258 866q22 0 38.5 -13.5t16.5 -33.5q0 -16 -10 -31t-7 -24q8 -26 71 -26q62 0 71 26q3 9 -7 24t-10 31q0 21 15.5 34t40.5 13q29 0 43.5 -17t14.5 -41q0 -47 -48.5 -70.5t-119.5 -23.5t-119.5 23.5t-48.5 70.5q0 24 15 41t44 17zM27 0l84 51v548l-84 51h280l-84 -51
v-469l290 450v19l-84 51h280l-84 -51v-548l84 -51h-280l84 51v462l-290 -450v-12l84 -51h-280z" />
    <glyph glyph-name="afii10028" unicode="&#x41a;" horiz-adv-x="694" 
d="M307 650l-84 -51v-244h61q36 1 58 26.5t41 77.5l43 123q29 83 104 83q36 0 60.5 -18t24.5 -51q0 -32 -17.5 -49t-43.5 -17q-18 0 -29.5 8t-15.5 18t-10 18t-14 8q-17 0 -26 -25l-43 -119q-27 -72 -73 -95q115 -12 182 -159l62 -133l83 -51h-186l-88 205q-48 115 -124 115
h-49v-269l84 -51h-280l84 51v548l-84 51h280z" />
    <glyph glyph-name="afii10029" unicode="&#x41b;" horiz-adv-x="711" 
d="M204 599l-90 51h570l-84 -51v-548l84 -51h-280l84 51v564h-235v-335q0 -290 -148 -290q-35 0 -59.5 17.5t-24.5 50.5q0 30 16.5 43.5t37.5 13.5q20 0 31 -12t19.5 -21.5t22.5 -5.5q25 7 38.5 48.5t15.5 79t2 96.5v299z" />
    <glyph glyph-name="afii10030" unicode="&#x41c;" horiz-adv-x="864" 
d="M24 0l90 60v536l-87 54h204l200 -471l196 471h210l-84 -51v-548l84 -51h-280l84 51v519l-242 -585l-236 558v-483l90 -60h-229z" />
    <glyph glyph-name="afii10031" unicode="&#x41d;" horiz-adv-x="734" 
d="M27 0l84 51v548l-84 51h280l-84 -51v-244h288v244l-84 51h280l-84 -51v-548l84 -51h-280l84 51v269h-288v-269l84 -51h-280z" />
    <glyph glyph-name="afii10032" unicode="&#x41e;" horiz-adv-x="669" 
d="M30 327q0 144 86 241t218 97t218.5 -97t86.5 -241t-86.5 -240.5t-218.5 -96.5t-218 96.5t-86 240.5zM160 327q0 -140 44.5 -222.5t130.5 -82.5t130.5 82.5t44.5 222.5t-44.5 223t-130.5 83t-130.5 -83t-44.5 -223z" />
    <glyph glyph-name="afii10033" unicode="&#x41f;" horiz-adv-x="724" 
d="M27 0l84 51v548l-84 51h670l-84 -51v-548l84 -51h-280l87 51v564h-281v-564l84 -51h-280z" />
    <glyph glyph-name="afii10034" unicode="&#x420;" horiz-adv-x="602" 
d="M27 0l84 51v548l-84 51h309q106 0 172.5 -50.5t66.5 -144.5t-66.5 -144.5t-172.5 -50.5h-113v-209l84 -51h-280zM223 615v-320h88q59 0 97.5 41t38.5 119t-38.5 119t-97.5 41h-88z" />
    <glyph glyph-name="afii10035" unicode="&#x421;" horiz-adv-x="620" 
d="M559 665v-245q-40 104 -87 158t-121 54q-93 0 -143 -83t-50 -219q0 -123 59.5 -200t155.5 -77q76 0 128 46.5t72 127.5q-7 -106 -72.5 -171.5t-163.5 -65.5q-136 0 -221.5 96t-85.5 241t84 241.5t220 96.5q87 0 145 -45z" />
    <glyph glyph-name="afii10036" unicode="&#x422;" horiz-adv-x="644" 
d="M614 650v-220l-110 185h-126v-554l104 -61h-320l104 61v554h-126l-110 -185v220h584z" />
    <glyph glyph-name="afii10037" unicode="&#x423;" horiz-adv-x="652" 
d="M649 650l-84 -59l-241 -516q-22 -46 -45 -65.5t-59 -19.5t-59.5 19t-23.5 51q0 30 16.5 46.5t41.5 16.5q21 0 33 -12t19 -24t18 -12q19 0 30 26l33 72l-244 429l-74 48h250l-61 -41l185 -316l140 302l-75 55h200z" />
    <glyph glyph-name="afii10038" unicode="&#x424;" horiz-adv-x="741" 
d="M510 650l-84 -51v-49h44q110 0 178.5 -58.5t68.5 -161.5t-68.5 -161.5t-178.5 -58.5h-44v-59l84 -51h-280l84 51v59h-43q-110 0 -178.5 58.5t-68.5 161.5t68.5 161.5t178.5 58.5h43v49l-84 51h280zM426 520v-380h19q66 0 107.5 48t41.5 142t-41.5 142t-107.5 48h-19z
M296 140h18v380h-18q-66 0 -107.5 -48t-41.5 -142t41.5 -142t107.5 -48z" />
    <glyph glyph-name="afii10039" unicode="&#x425;" horiz-adv-x="710" 
d="M553 590l-159 -228l212 -315l87 -47h-266l57 40l-157 233l-162 -224l72 -49h-209l95 59l178 251l-195 291l-86 49h266l-58 -41l142 -210l140 202l-68 49h206z" />
    <glyph glyph-name="afii10040" unicode="&#x426;" horiz-adv-x="730" 
d="M27 0l84 51v548l-84 51h280l-84 -51v-564h284v564l-84 51h280l-84 -51v-564h90v-235l-118 200h-564z" />
    <glyph glyph-name="afii10041" unicode="&#x427;" horiz-adv-x="694" 
d="M297 650l-84 -51v-110q0 -106 28 -145.5t104 -39.5q63 0 126 41v254l-84 51h280l-84 -51v-548l84 -51h-290l94 56v259q-64 -62 -166 -62q-99 0 -151.5 49t-52.5 170v127l-84 51h280z" />
    <glyph glyph-name="afii10042" unicode="&#x428;" horiz-adv-x="1017" 
d="M990 650l-84 -51v-548l84 -51h-963l84 51v548l-84 51h280l-84 -51v-564h229v564l-84 51h280l-84 -51v-564h230v564l-84 51h280z" />
    <glyph glyph-name="afii10043" unicode="&#x429;" horiz-adv-x="1017" 
d="M996 35v-235l-118 200h-851l84 51v548l-84 51h280l-84 -51v-564h229v564l-84 51h280l-84 -51v-564h230v564l-84 51h280l-84 -51v-564h90z" />
    <glyph glyph-name="afii10044" unicode="&#x42a;" horiz-adv-x="691" 
d="M27 424v226h376l-84 -51v-209h106q106 0 172.5 -50.5t66.5 -144.5t-66.5 -144.5t-172.5 -50.5h-302l84 51v564h-38q-103 0 -142 -191zM319 35h81q59 0 97.5 41t38.5 119t-38.5 119t-97.5 41h-81v-320z" />
    <glyph glyph-name="afii10045" unicode="&#x42b;" horiz-adv-x="901" 
d="M594 0l84 51v548l-84 51h280l-84 -51v-548l84 -51h-280zM27 650l84 -51v-548l-84 -51h298q106 0 172.5 50.5t66.5 144.5t-66.5 144.5t-172.5 50.5h-102v209l84 51h-280zM300 35h-77v320h77q59 0 97.5 -41t38.5 -119t-38.5 -119t-97.5 -41z" />
    <glyph glyph-name="afii10046" unicode="&#x42c;" horiz-adv-x="602" 
d="M111 599l-84 51h280l-84 -51v-209h113q106 0 172.5 -50.5t66.5 -144.5t-66.5 -144.5t-172.5 -50.5h-309l84 51v548zM223 35h88q59 0 97.5 41t38.5 119t-38.5 119t-97.5 41h-88v-320z" />
    <glyph glyph-name="afii10047" unicode="&#x42d;" horiz-adv-x="608" 
d="M473 314v6h-181l-65 -102v240l66 -103h183q4 111 -39 188.5t-125 88.5q-91 13 -155.5 -54.5t-96.5 -177.5v265l80 -45q58 45 153 45q142 0 218 -95t76 -243q0 -143 -85 -240t-220 -97q-103 0 -175.5 71.5t-70.5 195.5q19 -92 75 -141.5t129 -52.5q98 -5 165.5 66.5
t67.5 184.5z" />
    <glyph glyph-name="afii10048" unicode="&#x42e;" horiz-adv-x="986" 
d="M27 0l84 51v548l-84 51h280l-84 -51v-244h135q8 134 90.5 222t207.5 88q132 0 216 -97t84 -241t-84 -240.5t-216 -96.5q-130 0 -213.5 94.5t-85.5 235.5h-134v-269l84 -51h-280zM487 327q0 -140 43 -222.5t127 -82.5t127 82.5t43 222.5t-43 223t-127 83t-127 -83
t-43 -223z" />
    <glyph glyph-name="afii10049" unicode="&#x42f;" horiz-adv-x="671" 
d="M341 650h303l-84 -51v-548l84 -51h-280l84 51v245h-50q-83 0 -127 -96l-84 -200h-186l83 53l50 111q58 123 140 145q-172 22 -172 164q0 92 65.5 134.5t173.5 42.5zM448 331v284h-88q-59 0 -97.5 -34.5t-38.5 -107.5q0 -68 38.5 -105t94.5 -37h91z" />
    <glyph glyph-name="afii10065" unicode="&#x430;" 
d="M367 311v-258l74 30q-48 -93 -111 -93q-58 0 -58 71l-61 -44q-37 -27 -80 -27q-49 0 -78.5 31t-29.5 82q0 91 117 138l132 53v17q0 67 -15 93.5t-52 26.5q-74 0 -74 -83q0 -24 -12.5 -37.5t-33.5 -13.5q-20 0 -32 14.5t-12 36.5q1 47 54.5 79.5t118.5 32.5
q153 0 153 -149zM272 93v172l-65 -27q-88 -37 -88 -109q0 -37 16.5 -59t47.5 -22q33 0 89 45z" />
    <glyph glyph-name="afii10066" unicode="&#x431;" horiz-adv-x="485" 
d="M460 221q0 -99 -62.5 -165t-154.5 -66q-103 0 -160.5 80.5t-57.5 207.5q0 135 48.5 229t144.5 113l162 31l59 49q0 -139 -89 -154l-145 -26q-65 -11 -91 -44q-32 -39 -44 -146q27 55 73.5 82.5t99.5 28.5q99 1 158 -59.5t59 -160.5zM136 205q13 -89 49 -139.5t83 -43.5
q52 8 72.5 64.5t8.5 148.5q-11 87 -46.5 132.5t-83.5 39.5q-51 -6 -72.5 -65t-10.5 -137z" />
    <glyph glyph-name="afii10067" unicode="&#x432;" horiz-adv-x="479" 
d="M261 450q171 0 171 -116q0 -38 -28 -63t-71 -31v-3q55 -6 89.5 -36.5t34.5 -75.5q0 -47 -29.5 -76.5t-66 -39t-80.5 -9.5h-261l74 44v361l-74 45h241zM261 220h-71v-188h71q43 0 67 26.5t24 66.5q0 41 -22 68t-69 27zM241 418h-51v-166h51q42 0 66.5 22t24.5 60
q0 84 -91 84z" />
    <glyph glyph-name="afii10068" unicode="&#x433;" horiz-adv-x="433" 
d="M20 0l74 44v361l-74 45h387v-136l-85 109h-132v-369l91 -54h-261z" />
    <glyph glyph-name="afii10069" unicode="&#x434;" horiz-adv-x="512" 
d="M490 450l-74 -45v-373h73v-192l-94 160h-301l-94 -160v192h26q90 0 99 211l7 162l-90 45h448zM320 418h-148l-8 -195q-6 -154 -59 -191h215v386z" />
    <glyph glyph-name="afii10070" unicode="&#x435;" horiz-adv-x="442" 
d="M417 271l-299 -19q0 -23 4 -43q15 -79 64 -113t104 -26q39 6 72.5 34t53.5 78q-4 -86 -55 -139t-130 -53q-96 0 -151 67t-55 168q0 99 59.5 167t149.5 68q183 0 183 -189zM319 293q0 75 -28 109t-75 28q-42 -6 -69 -47.5t-29 -103.5z" />
    <glyph glyph-name="afii10072" unicode="&#x436;" horiz-adv-x="740" 
d="M248 0l74 45v175h-16q-35 0 -57 -24t-41 -70l-50 -126h-145l57 42l42 91q41 90 124 106q-34 23 -58 86q-15 37 -24.5 48t-14.5 5t-17.5 -16t-27.5 -10q-20 0 -35 15.5t-15 42.5q0 24 18.5 37t42.5 13q40 0 63 -31t42 -84q20 -55 43 -74t55 -19h14v154l-74 44h244l-74 -44
v-154h15q32 0 54.5 19t42.5 74q13 35 23 55.5t32 40t50 19.5q25 0 43.5 -13t18.5 -37q0 -27 -15 -42.5t-35 -15.5q-15 0 -27.5 10t-18 16t-15 -5t-24.5 -48q-24 -63 -58 -86q82 -16 125 -106l41 -91l57 -42h-145l-50 126q-19 46 -41 70t-57 24h-16v-175l74 -45h-244z" />
    <glyph glyph-name="afii10073" unicode="&#x437;" horiz-adv-x="416" 
d="M152 252h25q44 0 68 22.5t25 60.5q1 43 -19 68.5t-63 25.5q-48 0 -79.5 -36.5t-58.5 -111.5v179l52 -36q41 36 104 36q73 0 117 -28.5t44 -87.5q0 -45 -27.5 -70t-71.5 -32v-3q56 -2 86 -34t29 -79q-3 -68 -56 -102t-128 -34q-69 0 -114 39.5t-50 108.5q39 -100 146 -100
q48 0 75 28t27 70q0 84 -89 84h-42v32z" />
    <glyph glyph-name="afii10074" unicode="&#x438;" horiz-adv-x="569" 
d="M20 0l74 44v361l-74 45h244l-74 -45v-292l189 275v17l-74 45h244l-74 -45v-361l74 -44h-244l74 44v290l-189 -273v-17l74 -44h-244z" />
    <glyph glyph-name="afii10075" unicode="&#x439;" horiz-adv-x="569" 
d="M196 648q20 0 32.5 -11t12.5 -29q0 -14 -10 -28t-7 -23q8 -27 61 -27q52 0 62 27q3 9 -7 23t-10 28q0 18 12.5 29t32.5 11q27 0 40 -16t13 -36q0 -45 -42 -66t-101 -21t-100.5 20.5t-41.5 66.5q0 20 13 36t40 16zM20 0l74 44v361l-74 45h244l-74 -45v-292l189 275v17
l-74 45h244l-74 -45v-361l74 -44h-244l74 44v290l-189 -273v-17l74 -44h-244z" />
    <glyph glyph-name="afii10076" unicode="&#x43a;" horiz-adv-x="524" 
d="M190 252h9q35 0 62 19t48 74q9 25 15 39t19 35t30 31t39 10q26 0 45 -12t19 -39q0 -26 -15 -41.5t-35 -15.5q-15 0 -27.5 10t-18.5 16t-15.5 -5t-23.5 -48q-26 -70 -68 -87q34 -3 59 -15.5t45.5 -39.5t31.5 -48.5t32 -67.5q7 -14 10 -22q10 -7 30.5 -22t30.5 -23h-147
q-5 12 -16 39.5t-18 43.5t-18 39.5t-20.5 38t-21.5 29.5t-25.5 22t-27.5 8h-28v-175q12 -8 36.5 -23t37.5 -22h-244q13 7 37.5 22t36.5 23v361q-13 7 -37 22t-37 22h244q-12 -8 -37 -23t-37 -22v-153z" />
    <glyph glyph-name="afii10077" unicode="&#x43b;" horiz-adv-x="522" 
d="M258 0l74 44v374h-152l-1 -195q-3 -101 -18 -150q-12 -36 -38 -59.5t-61 -23.5q-24 0 -43 12.5t-19 39.5t13.5 40.5t32.5 12.5q17 0 30 -16.5t25 -15.5q39 5 39 180v162l-80 45h442l-74 -45v-361l74 -44h-244z" />
    <glyph glyph-name="afii10078" unicode="&#x43c;" horiz-adv-x="659" 
d="M395 0l74 44v330l-154 -374h-20l-160 374v-324l80 -50h-195l80 50v352l-80 48h182l135 -317l131 317h171l-74 -45v-361l74 -44h-244z" />
    <glyph glyph-name="afii10079" unicode="&#x43d;" horiz-adv-x="565" 
d="M20 0l74 44v361l-74 45h244l-74 -45v-153h185v153l-74 45h244l-74 -45v-361l74 -44h-244l74 44v176h-185v-176l74 -44h-244z" />
    <glyph glyph-name="afii10080" unicode="&#x43e;" horiz-adv-x="479" 
d="M22 225q0 101 63.5 168t153.5 67q96 0 157 -66t61 -169q0 -101 -63.5 -168t-154.5 -67q-96 0 -156.5 66t-60.5 169zM131 210q11 -89 48.5 -142.5t84.5 -45.5q53 8 74 67t9 151q-11 89 -48.5 142.5t-84.5 45.5q-52 -6 -73.5 -66t-9.5 -152z" />
    <glyph glyph-name="afii10081" unicode="&#x43f;" horiz-adv-x="575" 
d="M27 0l74 44v361l-74 45h521l-74 -45v-361l74 -44h-244l74 44v374h-181v-374l74 -44h-244z" />
    <glyph glyph-name="afii10082" unicode="&#x440;" horiz-adv-x="523" 
d="M21 -200l74 45v538l-74 22l170 55v-96q24 43 58 69.5t74 26.5q82 0 128.5 -60t46.5 -165q0 -103 -63 -174t-149 -71q-57 0 -95 35v-180l74 -45h-244zM395 245q-4 70 -32.5 111t-72.5 41q-58 0 -99 -60v-237q0 -41 31.5 -63t69.5 -16q53 8 81 71t22 153z" />
    <glyph glyph-name="afii10083" unicode="&#x441;" horiz-adv-x="437" 
d="M123 209q15 -80 65 -113.5t105 -25.5q37 5 69.5 34.5t51.5 77.5q-4 -86 -54 -139t-127 -53q-95 0 -151.5 66.5t-56.5 168.5q0 100 62.5 167.5t153.5 67.5q72 0 115 -31.5t45 -77.5q0 -23 -14 -38.5t-36 -15.5q-23 0 -34.5 16t-11.5 35q0 44 -22 66t-60 16q-56 -8 -86 -71
t-14 -150z" />
    <glyph glyph-name="afii10084" unicode="&#x442;" horiz-adv-x="467" 
d="M101 0l84 43v380h-79l-86 -116v143h427v-143l-87 116h-79v-380l84 -43h-264z" />
    <glyph glyph-name="afii10085" unicode="&#x443;" horiz-adv-x="545" 
d="M545 450l-82 -51l-204 -500q-24 -62 -50 -86t-60 -24q-28 0 -47 15.5t-19 39.5q0 25 14 39.5t36 14.5q10 0 17.5 -3t15.5 -9.5t12 -8.5q24 -16 42 31l43 105l-185 391l-78 46h246l-68 -40l133 -278l108 268l-78 50h204z" />
    <glyph glyph-name="afii10086" unicode="&#x444;" horiz-adv-x="713" 
d="M234 -200l74 45v204q-36 -59 -102 -59q-86 0 -132.5 62t-46.5 173t46.5 173t132.5 62q66 0 102 -59v170l-74 34l170 55v-259q36 59 104 59q86 0 132 -62t46 -173t-46 -173t-132 -62q-68 0 -104 59v-204l74 -45h-244zM476 424q-47 0 -72 -54v-291q25 -54 72 -54
q29 0 50.5 17.5t33 48t16.5 63.5t5 71q0 81 -25.5 140t-79.5 59zM238 424q-55 0 -81 -59t-26 -140q0 -37 5.5 -71t17.5 -63.5t33.5 -47.5t50.5 -18q43 0 70 54v291q-27 54 -70 54z" />
    <glyph glyph-name="afii10087" unicode="&#x445;" horiz-adv-x="523" 
d="M-2 0l92 56l124 161l-129 188l-78 45h245l-62 -36l86 -125l85 113l-75 48h204l-93 -55l-101 -134l149 -216l78 -45h-245l62 36l-106 152l-109 -141l77 -47h-204z" />
    <glyph glyph-name="afii10088" unicode="&#x446;" horiz-adv-x="563" 
d="M264 450l-74 -45v-373h181v373l-74 45h244l-74 -45v-373h73v-192l-94 160h-426l74 44v361l-74 45h244z" />
    <glyph glyph-name="afii10089" unicode="&#x447;" horiz-adv-x="537" 
d="M74 301v104l-74 45h244l-74 -45v-92q0 -55 19.5 -83t67.5 -28q49 0 90 32v171l-74 45h244l-74 -45v-361l74 -44h-244l74 44v166q-50 -50 -126 -50q-17 0 -33.5 2.5t-38 11t-37.5 23t-27 41.5t-11 63z" />
    <glyph glyph-name="afii10090" unicode="&#x448;" horiz-adv-x="782" 
d="M762 450l-74 -45v-361l74 -44h-742l74 44v361l-74 45h234l-64 -44v-374h153v383l-64 35h224l-64 -35v-383h153v374l-64 44h234z" />
    <glyph glyph-name="afii10091" unicode="&#x449;" horiz-adv-x="781" 
d="M664 0h-644l74 44v361l-74 45h234l-64 -44v-374h153v383l-64 35h224l-64 -35v-383h153v374l-64 44h231l-74 -45v-373h73v-192z" />
    <glyph glyph-name="afii10092" unicode="&#x44a;" horiz-adv-x="517" 
d="M316 450l-74 -45v-147h81q71 0 122.5 -31t51.5 -99t-51.5 -98t-122.5 -30h-251l74 44v379q-41 0 -67.5 -25.5t-55.5 -90.5v143h293zM303 226h-61v-194h61q43 0 68.5 28t25.5 68q0 42 -22.5 70t-71.5 28z" />
    <glyph glyph-name="afii10093" unicode="&#x44b;" horiz-adv-x="714" 
d="M694 450l-74 -45v-361l74 -44h-244l74 44v361l-74 45h244zM264 450l-74 -45v-147h81q71 0 122.5 -31t51.5 -99t-51.5 -98t-122.5 -30h-251l74 44v361l-74 45h244zM251 226h-61v-194h61q43 0 68.5 28t25.5 68q0 42 -22.5 70t-71.5 28z" />
    <glyph glyph-name="afii10094" unicode="&#x44c;" horiz-adv-x="465" 
d="M264 450l-74 -45v-147h81q71 0 122.5 -31t51.5 -99t-51.5 -98t-122.5 -30h-251l74 44v361l-74 45h244zM251 226h-61v-194h61q43 0 68.5 28t25.5 68q0 42 -22.5 70t-71.5 28z" />
    <glyph glyph-name="afii10095" unicode="&#x44d;" horiz-adv-x="441" 
d="M152 228v32h174q1 75 -31.5 122t-87.5 47q-98 0 -151 -148v179l52 -36q56 36 102 36q104 0 155.5 -64.5t51.5 -170.5q0 -101 -56.5 -168t-153.5 -67q-76 0 -126 53t-56 139q21 -51 55.5 -80.5t69.5 -35.5q66 -12 113 23.5t59 119.5q1 3 1.5 9.5t0.5 9.5h-172z" />
    <glyph glyph-name="afii10096" unicode="&#x44e;" horiz-adv-x="729" 
d="M20 0l74 44v361l-74 45h244l-74 -45v-166l91 6q7 94 67 154.5t145 60.5q96 0 154.5 -66t58.5 -169q0 -101 -61.5 -168t-151.5 -67q-93 0 -151 62t-61 161l-91 -6v-163l74 -44h-244zM390 210q11 -90 46.5 -142.5t81.5 -45.5q52 8 71 66.5t7 151.5q-11 90 -46.5 142.5
t-81.5 45.5q-52 -6 -71 -65t-7 -153z" />
    <glyph glyph-name="afii10097" unicode="&#x44f;" horiz-adv-x="516" 
d="M252 0l74 45v153h-38q-65 -3 -91 -72l-48 -126h-146l65 46l36 85q32 71 85 77q-119 22 -119 117q0 68 51 96.5t123 28.5h252l-74 -44v-361l74 -45h-244zM263 230h63v188h-62q-43 0 -68.5 -27t-25.5 -66q0 -42 22 -68.5t71 -26.5z" />
    <glyph glyph-name="afii10071" unicode="&#x451;" horiz-adv-x="436" 
d="M414 271l-299 -19q0 -23 4 -43q15 -79 64 -113t104 -26q39 6 72.5 34t53.5 78q-4 -86 -55 -139t-130 -53q-96 0 -151 67t-55 168q0 99 59.5 167t149.5 68q183 0 183 -189zM316 293q0 75 -28 109t-75 28q-42 -6 -69 -47.5t-29 -103.5zM70 599q0 25 17.5 43t42.5 18
t42.5 -17.5t17.5 -43.5q0 -25 -17.5 -42t-42.5 -17t-42.5 17t-17.5 42zM266 599q0 25 17.5 43t42.5 18t42.5 -17.5t17.5 -43.5q0 -25 -17.5 -42t-42.5 -17t-42.5 17t-17.5 42z" />
    <glyph glyph-name="afii10099" unicode="&#x452;" horiz-adv-x="571" 
d="M20 510l167 155v-128h94v-27h-94v-193q76 93 158 93q77 0 107 -41.5t30 -122.5v-233q0 -101 -42.5 -162t-115.5 -61q-47 0 -77 18t-34 56q-2 27 11 44t39 17q47 0 47 -60q0 -46 27 -46q34 0 41.5 39t7.5 141v14v220q0 64 -17.5 90.5t-66.5 26.5q-69 0 -115 -63v-246
l74 -41h-243l74 41v469h-72z" />
    <glyph glyph-name="afii10100" unicode="&#x453;" horiz-adv-x="433" 
d="M20 0l74 44v361l-74 45h387v-136l-85 109h-132v-369l91 -54h-261zM230 650h108l-136 -150z" />
    <glyph glyph-name="afii10101" unicode="&#x454;" horiz-adv-x="437" 
d="M123 209q15 -80 65 -113.5t105 -25.5q37 5 69.5 34.5t51.5 77.5q-4 -86 -54 -139t-127 -53q-95 0 -151.5 66.5t-56.5 168.5q0 100 62.5 167.5t153.5 67.5q72 0 115 -31.5t45 -77.5q0 -23 -14 -38.5t-36 -15.5q-23 0 -34.5 16t-11.5 35q0 44 -22 66t-60 16
q-46 -7 -76.5 -54t-29.5 -116h155v-32h-152q1 -7 3 -19z" />
    <glyph glyph-name="afii10102" unicode="&#x455;" horiz-adv-x="363" 
d="M256 436l52 24l-4 -172q-30 77 -62.5 108.5t-76.5 31.5q-35 0 -57 -17t-22 -44q0 -31 16.5 -46t58.5 -32l71 -30q101 -43 101 -134q0 -62 -45 -98.5t-106 -36.5q-57 0 -95 31l-62 -31v174q34 -75 71.5 -108.5t86.5 -33.5q32 0 52 16t20 42q0 19 -7 35t-14.5 25t-27.5 20
t-29.5 14.5t-36.5 14.5q-62 23 -89.5 52.5t-27.5 83.5q0 60 41.5 97.5t102.5 37.5q52 0 89 -24z" />
    <glyph glyph-name="afii10103" unicode="&#x456;" horiz-adv-x="275" 
d="M15 405l74 -22v-339l-74 -44h244l-74 44v416zM70 599q0 25 17.5 43t42.5 18t42.5 -17.5t17.5 -43.5q0 -25 -17.5 -42t-42.5 -17t-42.5 17t-17.5 42z" />
    <glyph glyph-name="afii10104" unicode="&#x457;" horiz-adv-x="281" 
d="M15 405l74 -22v-339l-74 -44h244l-74 44v416zM-8 599q0 26 17 43.5t42 17.5t43 -18t18 -43t-17.5 -42t-43.5 -17q-25 0 -42 17t-17 42zM159 599q0 25 17.5 43t42.5 18t42.5 -17.5t17.5 -43.5q0 -25 -17.5 -42t-42.5 -17t-42.5 17t-17.5 42z" />
    <glyph glyph-name="afii10105" unicode="&#x458;" horiz-adv-x="271" 
d="M25 405l74 -22v-370q0 -130 -9 -160q-11 -34 -40 -34q-27 0 -27 46q0 60 -47 60q-26 0 -39 -17t-11 -44q4 -38 34 -56t77 -18q73 0 115.5 61t42.5 162v447zM80 599q0 26 17.5 43.5t42.5 17.5t42.5 -17.5t17.5 -43.5q0 -25 -17.5 -42t-43.5 -17q-25 0 -42 17t-17 42z" />
    <glyph glyph-name="afii10106" unicode="&#x459;" horiz-adv-x="673" 
d="M238 0l74 44v374h-132l-1 -195q-3 -101 -18 -150q-12 -36 -38 -59.5t-61 -23.5q-24 0 -43 12.5t-19 39.5t13.5 40.5t32.5 12.5q17 0 30 -16.5t25 -15.5q39 5 39 180v162l-80 45h422l-74 -45v-147h71q71 0 122.5 -31t51.5 -99t-51.5 -98t-122.5 -30h-241zM459 226h-51
v-194h51q43 0 68.5 28t25.5 68q0 42 -22.5 70t-71.5 28z" />
    <glyph glyph-name="afii10107" unicode="&#x45a;" horiz-adv-x="736" 
d="M535 450l-74 -45v-147h81q71 0 122.5 -31t51.5 -99t-51.5 -98t-122.5 -30h-251l74 44v176h-175v-176l74 -44h-244l74 44v361l-74 45h244l-74 -45v-153h175v153l-74 45h244zM522 226h-61v-194h61q43 0 68.5 28t25.5 68q0 42 -22.5 70t-71.5 28z" />
    <glyph glyph-name="afii10108" unicode="&#x45b;" horiz-adv-x="571" 
d="M20 510l167 155v-128h94v-27h-94v-193q76 93 158 93q77 0 107 -41.5t30 -122.5v-205l74 -41h-244l74 41v192q0 64 -17.5 90.5t-66.5 26.5q-69 0 -115 -63v-246l74 -41h-243l74 41v469h-72z" />
    <glyph glyph-name="afii10109" unicode="&#x45c;" horiz-adv-x="524" 
d="M190 252h9q35 0 62 19t48 74q9 25 15 39t19 35t30 31t39 10q26 0 45 -12t19 -39q0 -26 -15 -41.5t-35 -15.5q-15 0 -27.5 10t-18.5 16t-15.5 -5t-23.5 -48q-26 -70 -68 -87q34 -3 59 -15.5t45.5 -39.5t31.5 -48.5t32 -67.5q7 -14 10 -22q10 -7 30.5 -22t30.5 -23h-147
q-5 12 -16 39.5t-18 43.5t-18 39.5t-20.5 38t-21.5 29.5t-25.5 22t-27.5 8h-28v-175q12 -8 36.5 -23t37.5 -22h-244q13 7 37.5 22t36.5 23v361q-13 7 -37 22t-37 22h244q-12 -8 -37 -23t-37 -22v-153zM266 650h108q-22 -25 -68 -75t-68 -75q4 25 14 75t14 75z" />
    <glyph glyph-name="afii10110" unicode="&#x45e;" horiz-adv-x="545" 
d="M545 450l-82 -51l-204 -500q-24 -62 -50 -86t-60 -24q-28 0 -47 15.5t-19 39.5q0 25 14 39.5t36 14.5q10 0 17.5 -3t15.5 -9.5t12 -8.5q24 -16 42 31l43 105l-185 391l-78 46h246l-68 -40l133 -278l108 268l-78 50h204zM196 648q20 0 32.5 -11t12.5 -29q0 -14 -10 -28
t-7 -23q8 -27 61 -27q52 0 62 27q3 9 -7 23t-10 28q0 18 12.5 29t32.5 11q27 0 40 -16t13 -36q0 -45 -42 -66t-101 -21t-100.5 20.5t-41.5 66.5q0 20 13 36t40 16z" />
    <glyph glyph-name="afii10193" unicode="&#x45f;" horiz-adv-x="575" 
d="M548 450l-74 -44v-361l74 -45h-213l-48 -160l-48 160h-212l74 45v361l-74 44h244l-74 -44v-374h181v374l-74 44h244z" />
    <glyph glyph-name="afii10050" unicode="&#x490;" horiz-adv-x="554" 
d="M524 792v-240l-107 63h-194v-554l104 -61h-300l84 51v548l-84 51h390z" />
    <glyph glyph-name="afii10098" unicode="&#x491;" horiz-adv-x="423" 
d="M20 0l74 44v361l-74 45h292l85 109v-206l-85 70h-122v-369l91 -54h-261z" />
    <glyph glyph-name="endash" unicode="&#x2013;" horiz-adv-x="490" 
d="M30 220v32h430v-32h-430z" />
    <glyph glyph-name="emdash" unicode="&#x2014;" horiz-adv-x="591" 
d="M0 220v32h591v-32h-591z" />
    <glyph glyph-name="quoteleft" unicode="&#x2018;" horiz-adv-x="241" 
d="M191 460q0 -26 -17.5 -44t-45.5 -18q-35 0 -56.5 24t-21.5 77q0 51 34.5 99t93.5 72q-46 -26 -67.5 -73t-15.5 -89q16 10 38 10q25 0 41.5 -16.5t16.5 -41.5z" />
    <glyph glyph-name="quoteright" unicode="&#x2019;" horiz-adv-x="241" 
d="M50 604q0 26 17 43.5t46 17.5q35 0 56.5 -24t21.5 -77q0 -52 -34.5 -99.5t-93.5 -71.5q46 26 67.5 73t15.5 89q-16 -10 -38 -10q-25 0 -41.5 17t-16.5 42z" />
    <glyph glyph-name="quotesinglbase" unicode="&#x201a;" horiz-adv-x="241" 
d="M50 52q0 26 17 43.5t46 17.5q78 0 78 -100q0 -51 -34.5 -99t-93.5 -72q46 26 67.5 73t15.5 89q-17 -11 -38 -11q-25 0 -41.5 17t-16.5 42z" />
    <glyph glyph-name="quotedblleft" unicode="&#x201c;" horiz-adv-x="417" 
d="M367 460q0 -26 -17.5 -44t-45.5 -18q-35 0 -56.5 24t-21.5 77q0 51 34.5 99t93.5 72q-46 -26 -67.5 -73t-15.5 -89q16 10 38 10q25 0 41.5 -16.5t16.5 -41.5zM191 460q0 -26 -17.5 -44t-45.5 -18q-35 0 -56.5 24t-21.5 77q0 51 34.5 99t93.5 72q-46 -26 -67.5 -73
t-15.5 -89q16 10 38 10q25 0 41.5 -16.5t16.5 -41.5z" />
    <glyph glyph-name="quotedblright" unicode="&#x201d;" horiz-adv-x="417" 
d="M50 604q0 26 17 43.5t46 17.5q35 0 56.5 -24t21.5 -77q0 -52 -34.5 -99.5t-93.5 -71.5q46 26 67.5 73t15.5 89q-16 -10 -38 -10q-25 0 -41.5 17t-16.5 42zM226 604q0 26 17 43.5t46 17.5q35 0 56.5 -24t21.5 -77q0 -52 -34.5 -99.5t-93.5 -71.5q46 26 67.5 73t15.5 89
q-16 -10 -38 -10q-25 0 -41.5 17t-16.5 42z" />
    <glyph glyph-name="quotedblbase" unicode="&#x201e;" horiz-adv-x="417" 
d="M50 52q0 26 17 43.5t46 17.5q78 0 78 -100q0 -51 -34.5 -99t-93.5 -72q46 26 67.5 73t15.5 89q-17 -11 -38 -11q-25 0 -41.5 17t-16.5 42zM226 52q0 26 17 43.5t46 17.5q78 0 78 -100q0 -51 -34.5 -99t-93.5 -72q46 26 67.5 73t15.5 89q-17 -11 -38 -11q-25 0 -41.5 17
t-16.5 42z" />
    <glyph glyph-name="dagger" unicode="&#x2020;" horiz-adv-x="403" 
d="M201 493q18 -29 62 -143q1 -4 10.5 -24.5t9.5 -32.5q0 -19 -12 -33.5t-33 -14.5q-28 0 -43 34q-4 14 2 98.5t4 115.5zM201 399q-24 34 -37 79q-7 34 -3 71q10 57 40 70q31 -13 41 -70q5 -33 -3 -71q-14 -45 -38 -79zM149 493q43 27 80 40q19 6 38 4q44 -12 53 -44
q-10 -34 -53 -43q-21 -3 -38 3q-42 17 -80 40zM219 533q-35 -13 -67 -39t-39 -30q-2 3 -18.5 16.5t-23 25t-6.5 27.5q0 21 14.5 33.5t33.5 12.5q20 0 49 -19t57 -27z" />
    <glyph glyph-name="daggerdbl" unicode="&#x2021;" horiz-adv-x="389" 
d="M242 629q0 -14 -6 -29t-17.5 -39.5t-19.5 -49.5v-16q36 10 66 27.5t48 17.5q15 0 30.5 -10.5t15.5 -36.5t-15.5 -36.5t-30.5 -10.5q-18 0 -49 17t-65 28v-147q35 10 65.5 27.5t48.5 17.5q9 0 18 -3t18.5 -14t9.5 -29q0 -26 -15.5 -37t-30.5 -11q-18 0 -49 17.5t-65 27.5
v-16q8 -26 25 -62.5t17 -54.5q0 -15 -10.5 -30.5t-36.5 -15.5t-36.5 15.5t-10.5 30.5q0 18 17 54.5t25 63.5v16q-35 -10 -65 -27.5t-48 -17.5q-15 0 -30.5 10.5t-15.5 36.5t15.5 36.5t30.5 10.5q18 0 48.5 -17.5t64.5 -28.5v148q-35 -10 -65 -27.5t-48 -17.5q-9 0 -18 3
t-18.5 14t-9.5 29q0 26 15.5 37t30.5 11q18 0 48 -18t65 -28v16q-8 26 -24.5 63t-16.5 55q0 9 3 18t14 18.5t29 9.5q26 0 37 -15.5t11 -30.5z" />
    <glyph glyph-name="bullet" unicode="&#x2022;" horiz-adv-x="350" 
d="M177 453q51 0 87 -36.5t36 -85.5q0 -51 -37 -87t-86 -36q-51 0 -86.5 36.5t-35.5 86.5q0 51 36.5 86.5t85.5 35.5z" />
    <glyph glyph-name="ellipsis" unicode="&#x2026;" horiz-adv-x="572" 
d="M47 53q0 25 17.5 42.5t42.5 17.5t42.5 -17.5t17.5 -42.5t-18 -42.5t-43 -17.5t-42 17.5t-17 42.5zM226 53q0 25 17 42.5t43 17.5t43 -17.5t17 -42.5t-18 -42.5t-43 -17.5t-42 17.5t-17 42.5zM405 53q0 25 17.5 42.5t42.5 17.5t42.5 -17.5t17.5 -42.5t-18 -42.5t-43 -17.5
t-42 17.5t-17 42.5z" />
    <glyph glyph-name="perthousand" unicode="&#x2030;" horiz-adv-x="1019" 
d="M534 665h52l-419 -675h-53zM30 497q0 79 37 123.5t95 44.5t95 -44.5t37 -123.5t-37 -124t-95 -45t-95 45t-37 124zM217 497q0 143 -55 143t-55 -143q0 -144 55 -144t55 144zM406 159q0 79 37.5 123.5t95.5 44.5t94.5 -44.5t36.5 -123.5t-37 -124t-94 -45q-58 0 -95.5 45
t-37.5 124zM593 159v27t-1.5 29.5t-5 32.5t-9 26.5t-15.5 21t-23 6.5q-56 0 -56 -143q0 -144 56 -144q13 0 23 6.5t15.5 21t9 26.5t5 32.5t1.5 30v27.5zM725 159q0 79 37.5 123.5t95.5 44.5t94.5 -44.5t36.5 -123.5t-37 -124t-94 -45q-58 0 -95.5 45t-37.5 124zM912 159v27
t-1.5 29.5t-5 32.5t-9 26.5t-15.5 21t-23 6.5q-56 0 -56 -143q0 -144 56 -144q13 0 23 6.5t15.5 21t9 26.5t5 32.5t1.5 30v27.5z" />
    <glyph glyph-name="guilsinglleft" unicode="&#x2039;" horiz-adv-x="258" 
d="M135 236l93 -180l-198 180l198 180z" />
    <glyph glyph-name="guilsinglright" unicode="&#x203a;" horiz-adv-x="258" 
d="M30 56l93 180l-93 180l198 -180z" />
    <glyph glyph-name="Euro" unicode="&#x20ac;" horiz-adv-x="502" 
d="M0 378v32h68q16 116 74.5 185.5t153.5 69.5q46 0 85 -22l63 22v-245q-5 14 -13 39l-12 37.5t-11.5 32.5t-12.5 30t-12.5 24.5t-14.5 21t-16 14t-19.5 10.5t-22.5 3q-102 0 -119 -222h153v-32h-154q-1 -16 -1 -48v-30h155v-32h-153q9 -100 45.5 -157.5t95.5 -57.5
q47 0 76 32t50 95q-8 -86 -49 -138t-113 -52q-100 0 -159.5 76t-71.5 202h-65v32h63v27q0 34 1 51h-64z" />
    <glyph glyph-name="afii61352" unicode="&#x2116;" horiz-adv-x="944" 
d="M650 417q0 79 37 123.5t95 44.5t95 -44.5t37 -123.5t-37 -124t-95 -45t-95 45t-37 124zM837 417q0 143 -55 143t-55 -143q0 -144 55 -144t55 144zM650 156v32h264v-32h-264zM169 63l100 -63h-239l90 63v515l-90 72h182l311 -413v350l-90 63h229l-90 -63v-602l-403 538
v-460z" />
    <glyph glyph-name="trademark" unicode="&#x2122;" horiz-adv-x="622" 
d="M243 400l36 28v187l-22 15h-71v-204l41 -26h-141l41 26v204h-53l-44 -61v81h322l70 -157l66 157h104l-33 -21v-207l33 -22h-125l33 22v196l-97 -224l-96 214v-180l36 -28h-100z" />
    <glyph glyph-name="percent" horiz-adv-x="700" 
d="M534 665h52l-419 -675h-53zM30 497q0 79 37 123.5t95 44.5t95 -44.5t37 -123.5t-37 -124t-95 -45t-95 45t-37 124zM217 497q0 143 -55 143t-55 -143q0 -144 55 -144t55 144zM406 159q0 79 37.5 123.5t95.5 44.5t94.5 -44.5t36.5 -123.5t-37 -124t-94 -45q-58 0 -95.5 45
t-37.5 124zM593 159v27t-1.5 29.5t-5 32.5t-9 26.5t-15.5 21t-23 6.5q-56 0 -56 -143q0 -144 56 -144q13 0 23 6.5t15.5 21t9 26.5t5 32.5t1.5 30v27.5z" />
    </font>
</defs>
</svg>
