<?xml version="1.0" standalone="no"?>
<!DOCTYPE svg PUBLIC "-//W3C//DTD SVG 1.1//EN" "http://www.w3.org/Graphics/SVG/1.1/DTD/svg11.dtd" >
<svg xmlns="http://www.w3.org/2000/svg" xmlns:xlink="http://www.w3.org/1999/xlink" version="1.1">
<metadata>
Created by FontForge 20170731 at Wed Sep  2 21:10:49 2009
 By Aleksey,,,
Copyright (c) 2009 by abstrkt. All rights reserved.
</metadata>
<defs>
<font id="VremenaBoldItalic" horiz-adv-x="669" >
  <font-face 
    font-family="Vremena Bold Italic"
    font-weight="400"
    font-style="italic"
    font-stretch="normal"
    units-per-em="1000"
    panose-1="2 0 0 0 0 0 0 0 0 0"
    ascent="750"
    descent="-250"
    x-height="450"
    cap-height="650"
    bbox="-119.485 -358 1162 906"
    underline-thickness="50"
    underline-position="-200"
    unicode-range="U+0020-2122"
  />
<missing-glyph horiz-adv-x="300" 
 />
    <glyph glyph-name=".notdef" horiz-adv-x="300" 
 />
    <glyph glyph-name=".null" horiz-adv-x="0" 
 />
    <glyph glyph-name="nonmarkingreturn" horiz-adv-x="333" 
 />
    <glyph glyph-name="space" unicode=" " horiz-adv-x="220" 
 />
    <glyph glyph-name="exclam" unicode="!" horiz-adv-x="289" 
d="M306 665q34 0 48.5 -26t0.5 -83q-11 -44 -47.5 -126.5t-76.5 -165t-47 -99.5q1 15 1.5 99.5t4.5 166t16 125.5q27 109 100 109zM88 60q7 31 32.5 51t56.5 20t45.5 -20t6.5 -51q-8 -30 -33 -50t-56 -20q-30 0 -45 20t-7 50z" />
    <glyph glyph-name="quotedbl" unicode="&#x22;" horiz-adv-x="381" 
d="M275 665q29 0 40 -22t2 -54q-7 -27 -21.5 -56t-44 -79t-50.5 -89q-1 40 -6 93.5t-5 70t6 60.5q9 33 29.5 54.5t49.5 21.5zM435 665q29 0 40 -22t2 -54q-7 -27 -21.5 -56t-44 -79t-50.5 -89q-1 40 -6 93.5t-5 70t6 60.5q9 33 29.5 54.5t49.5 21.5z" />
    <glyph glyph-name="numbersign" unicode="#" horiz-adv-x="504" 
d="M572 665h39l-97 -215h92l-8 -32h-99l-81 -178h115l-8 -32h-121l-98 -218h-40l98 218h-170l-98 -218h-40l98 218h-93l8 32h100l81 178h-116l8 32h123l97 215h39l-97 -215h171zM289 418l-81 -178h171l81 178h-171z" />
    <glyph glyph-name="dollar" unicode="$" horiz-adv-x="530" 
d="M421 750h40l-21 -86q87 -20 100 -40l76 41l-66 -265q-4 105 -30 164.5t-88 66.5l-53 -211l64 -25q130 -50 90 -208q-21 -85 -90 -141t-169 -56h-2l-22 -90h-40l22 90q-84 19 -101 47l-82 -47l66 265q4 -95 35.5 -156.5t90.5 -73.5l57 228l-65 27q-103 44 -66 193
q23 90 93 139.5t140 52.5zM363 235l-28 9l-55 -222h9q50 0 95 30t59 86q-3 28 1 40.5t-16 26t-26.5 16.5t-30.5 11q-5 2 -8 3zM249 529q-10 -40 2.5 -57.5t56.5 -32.5l33 -11l51 205q-44 -3 -87.5 -29.5t-55.5 -74.5z" />
    <glyph glyph-name="ampersand" unicode="&#x26;" horiz-adv-x="676" 
d="M680 106q-65 -116 -159 -116q-41 0 -67 13t-46 43q-81 -56 -193 -56q-77 0 -121.5 45t-26.5 117q8 33 25 60.5t33.5 45t45 35.5t46.5 26.5t51 23.5l-21 48q-30 68 -15 130q16 63 82 103.5t156 40.5t132.5 -35t27.5 -95q-8 -32 -37 -55t-88 -51t-88 -46q16 -34 46.5 -103
t45.5 -103q27 30 58 81q-7 15 -23 45.5t-23 46.5h191q-20 -16 -60.5 -47.5t-61.5 -47.5q-40 -59 -71 -100q38 -100 78 -100q48 0 83 51zM311 62q39 0 78 17q-23 43 -61.5 131t-43.5 99q-52 -42 -68 -120q-13 -60 15 -93.5t80 -33.5zM382 546q-14 -52 23 -136q63 39 86 128
q12 34 7.5 65.5t-36.5 31.5q-31 0 -51.5 -28t-28.5 -61z" />
    <glyph glyph-name="quotesingle" unicode="'" horiz-adv-x="231" 
d="M280 665q30 0 43 -22t4 -54q-7 -26 -23.5 -56t-46 -78t-51.5 -90q-1 42 -7 93.5t-7.5 70t4.5 60.5q9 32 32 54t52 22z" />
    <glyph glyph-name="parenleft" unicode="(" horiz-adv-x="370" 
d="M243 240q-39 -145 -27 -275.5t80 -178.5q-123 49 -180 170t-17 284t158.5 284t265.5 170q-98 -53 -169.5 -177t-110.5 -277z" />
    <glyph glyph-name="parenright" unicode=")" horiz-adv-x="370" 
d="M245 240q25 98 31 183.5t-14 160t-69 110.5q122 -49 179 -170t17 -284t-157.5 -284t-264.5 -170q91 47 165 173t113 281z" />
    <glyph glyph-name="asterisk" unicode="*" horiz-adv-x="449" 
d="M314 675q56 0 56 -56q0 -18 -6.5 -35t-22 -48t-27.5 -61q-11 31 -26.5 61.5t-22 47.5t-6.5 35q0 56 55 56zM124 536q18 54 71 36q17 -5 31 -16.5t38.5 -36t49.5 -44.5q-32 -2 -69 -7t-46.5 -5.5t-37.5 4.5q-54 16 -37 69zM504 536q18 -54 -36 -70q-28 -5 -37.5 -4.5
t-46.5 6t-70 7.5q26 20 50.5 44t38.5 35.5t31 16.5q53 18 70 -35zM196 313q-45 33 -12 78q10 14 25.5 24t46.5 26t58 34q-9 -32 -15 -66t-10.5 -51.5t-14.5 -31.5q-35 -46 -78 -13zM432 313q-45 -32 -79 13q-10 14 -14.5 31.5t-10.5 51.5t-14 66q27 -18 57.5 -34t46 -26
t25.5 -24q33 -45 -11 -78z" />
    <glyph glyph-name="plus" unicode="+" horiz-adv-x="490" 
d="M136 320v32h163v163h32v-163h164v-32h-164v-164h-32v164h-163z" />
    <glyph glyph-name="comma" unicode="," horiz-adv-x="260" 
d="M64 60q8 31 33.5 51t59.5 20q38 0 54.5 -28.5t2.5 -82.5q-12 -51 -63 -102.5t-116 -75.5q53 26 85.5 71.5t37.5 87.5q-20 -11 -41 -11q-33 0 -47 19.5t-6 50.5z" />
    <glyph glyph-name="hyphen" unicode="-" horiz-adv-x="369" 
d="M94 220l8 32h289l-8 -32h-289z" />
    <glyph glyph-name="period" unicode="." horiz-adv-x="221" 
d="M54 60q8 31 33 51t56 20t45.5 -20t6.5 -51q-8 -30 -32.5 -50t-55.5 -20q-30 0 -45 20t-8 50z" />
    <glyph glyph-name="slash" unicode="/" horiz-adv-x="279" 
d="M405 665h39l-407 -675h-39z" />
    <glyph glyph-name="zero" unicode="0" horiz-adv-x="530" 
d="M111 328q37 145 121.5 241t197.5 96q76 0 119.5 -47t48 -122t-16.5 -168q-36 -145 -121 -241.5t-198 -96.5q-76 0 -119.5 47t-47.5 122.5t16 168.5zM425 328q11 46 19 80t14.5 71.5t7.5 63.5t-2 48t-13.5 33t-27.5 11q-48 0 -83.5 -79.5t-72.5 -227.5q-11 -46 -18.5 -80
t-14.5 -72t-8 -63.5t2 -48t13.5 -33.5t27.5 -11q48 0 84 80.5t72 227.5z" />
    <glyph glyph-name="one" unicode="1" horiz-adv-x="530" 
d="M327 534h-79l252 131l-155 -621l83 -44h-326l102 44z" />
    <glyph glyph-name="two" unicode="2" horiz-adv-x="530" 
d="M437 134l92 63l-105 -197h-384l225 203q75 67 109.5 119.5t49.5 113.5q13 54 -11.5 84t-69.5 30q-86 0 -161 -112q79 227 244 227q77 0 116.5 -47t19.5 -127q-12 -49 -55 -100t-137 -135l-132 -122h199z" />
    <glyph glyph-name="three" unicode="3" horiz-adv-x="530" 
d="M182 457q36 92 102 150t149 58q69 0 108.5 -32t22.5 -102q-18 -75 -138 -145q56 -21 81.5 -66.5t9.5 -110.5q-24 -97 -115 -158t-191 -61q-83 0 -114 27t-21 68q6 26 26.5 45.5t53.5 19.5q35 0 42 -19.5t-1 -43.5t-1 -43.5t42 -19.5q49 0 85 41t52 104q41 166 -92 166
h-20q72 21 118 55.5t58 76.5q12 43 -8.5 70.5t-71.5 27.5q-90 0 -177 -108z" />
    <glyph glyph-name="four" unicode="4" horiz-adv-x="530" 
d="M411 44l50 -44h-270l80 44l33 131h-240l505 500l-110 -441h89l-58 -59h-46zM165 234h154l51 204z" />
    <glyph glyph-name="five" unicode="5" horiz-adv-x="530" 
d="M345 650h260l-82 -122h-213l-36 -59q135 -4 193 -63.5t31 -167.5q-29 -117 -116.5 -182.5t-196.5 -65.5q-64 0 -100.5 23t-25.5 67q9 32 32 51t47 19q30 0 40.5 -17.5t8.5 -38t9.5 -38t44.5 -17.5q61 0 112 37.5t67 100.5q11 42 -2 72.5t-42 45t-68.5 23t-81.5 8
t-80 -0.5z" />
    <glyph glyph-name="six" unicode="6" horiz-adv-x="530" 
d="M401 418q82 0 118 -55.5t15 -139.5q-25 -100 -97.5 -166.5t-175.5 -66.5q-53 0 -89.5 23.5t-51 62.5t-16 89.5t13.5 104.5q45 178 179 290.5t308 103.5q-236 -45 -324 -315q48 69 120 69zM282 20q65 0 105 160q23 77 15.5 136t-53.5 59q-34 0 -69 -30q-17 -54 -27 -107
q-4 -21 -7.5 -42t-6 -47t-1.5 -48t5 -41t14 -29.5t25 -10.5z" />
    <glyph glyph-name="seven" unicode="7" horiz-adv-x="530" 
d="M154 453l105 197h361l-406 -660h-53l325 529h-240z" />
    <glyph glyph-name="eight" unicode="8" horiz-adv-x="530" 
d="M257 308q-25 30 -28 34q-53 59 -31 145q20 82 84.5 130t140.5 48q35 0 64 -7t53.5 -23.5t32 -44t-0.5 -68.5q-13 -51 -58.5 -88t-97.5 -52q10 -9 48 -47q69 -66 43 -168q-22 -87 -94 -132t-157 -45q-81 0 -127.5 40.5t-27.5 117.5q29 110 156 160zM327 470l70 -69
q68 55 86 126q13 51 -5 79.5t-61 28.5q-48 0 -80.5 -23.5t-40.5 -56.5q-8 -30 -0.5 -46t31.5 -39zM276 290q-61 -60 -79 -137q-15 -59 5 -96t78 -37q48 0 84 20t45 57q1 13 2.5 21t-2.5 18.5t-5.5 16.5t-8 14t-9 11t-8.5 9l-7 7q-26 27 -95 96z" />
    <glyph glyph-name="nine" unicode="9" horiz-adv-x="530" 
d="M292 237q-82 0 -118.5 56t-15.5 139q25 100 97.5 166.5t175.5 66.5q53 0 89.5 -23.5t51 -62.5t16 -89.5t-13.5 -104.5q-44 -178 -178.5 -290.5t-308.5 -103.5q235 45 323 313q-48 -67 -118 -67zM410 635q-65 0 -105 -160q-23 -77 -15.5 -136t53.5 -59q35 0 69 29
q12 37 27 108q44 218 -29 218z" />
    <glyph glyph-name="colon" unicode=":" horiz-adv-x="241" 
d="M73 95q7 31 32.5 51t56.5 20t45.5 -20t6.5 -51q-8 -30 -32.5 -50t-55.5 -20q-30 0 -45 20t-8 50zM138 354q8 31 32.5 51t55.5 20t46 -20t7 -51q-8 -30 -33 -50t-56 -20q-30 0 -45 20t-7 50z" />
    <glyph glyph-name="semicolon" unicode=";" horiz-adv-x="260" 
d="M64 60q8 31 33.5 51t59.5 20q38 0 54.5 -28.5t2.5 -82.5q-12 -51 -63 -102.5t-116 -75.5q53 26 85.5 71.5t37.5 87.5q-20 -11 -41 -11q-33 0 -47 19.5t-6 50.5zM138 354q8 31 32.5 51t55.5 20t46 -20t7 -51q-8 -30 -33 -50t-56 -20q-30 0 -45 20t-7 50z" />
    <glyph glyph-name="less" unicode="&#x3c;" horiz-adv-x="490" 
d="M100 337l342 241v-42l-277 -199l277 -196v-44z" />
    <glyph glyph-name="equal" unicode="=" horiz-adv-x="490" 
d="M135 268v32h360v-32h-360zM135 378v32h360v-32h-360z" />
    <glyph glyph-name="greater" unicode="&#x3e;" horiz-adv-x="490" 
d="M490 338l-342 -241v42l277 199l-277 196v44z" />
    <glyph glyph-name="question" unicode="?" horiz-adv-x="489" 
d="M247 174q16 54 44 100t53 73t50.5 68.5t37.5 89.5q15 62 -4 97.5t-67 35.5q-36 0 -63 -15t-33 -39q-2 -8 5 -15.5t16 -14t16 -19t5 -29.5q-5 -32 -31 -55t-59 -23q-29 0 -46 21t-7 62q12 49 52 85.5t87.5 52.5t94.5 16q100 0 145.5 -44.5t27.5 -119.5q-11 -46 -42.5 -83
t-71 -63.5t-80 -51.5t-77 -58t-53.5 -71zM175 60q7 31 32.5 51t56.5 20t45.5 -20t6.5 -51q-8 -30 -33 -50t-56 -20q-30 0 -45 20t-7 50z" />
    <glyph glyph-name="at" unicode="@" horiz-adv-x="530" 
d="M95 225q0 -87 57 -146t148 -59q58 0 107 30l16 -25q-57 -35 -123 -35q-103 0 -169 68t-66 167q0 97 68.5 166t166.5 69q103 0 164 -63t61 -162q0 -70 -40.5 -110.5t-97.5 -40.5q-63 0 -76 37h-4q-34 -37 -78 -37q-54 0 -75.5 43.5t-3.5 107.5q18 65 61.5 103t97.5 38
q46 0 62 -30l72 20l-55 -195q-15 -57 16 -57q35 0 63 31.5t28 89.5q0 87 -52.5 141t-142.5 54q-85 0 -145 -60t-60 -145zM240 230q-31 -103 28 -103q19 0 36 18l42 147q13 55 -22 58q-27 2 -47.5 -28.5t-36.5 -91.5z" />
    <glyph glyph-name="A" unicode="A" 
d="M-10 0l113 79l385 586l122 -620l59 -45h-284l70 42l-24 123h-229l-62 -92l54 -73h-204zM379 434l-155 -234h199z" />
    <glyph glyph-name="B" unicode="B" horiz-adv-x="626" 
d="M238 606l-60 44h300q121 0 177.5 -34.5t34.5 -125.5q-17 -65 -70 -104.5t-132 -45.5q90 -5 132.5 -46t24.5 -112q-44 -182 -295 -182h-330l80 44zM322 320l-70 -285h66q127 0 164 145q18 75 -14.5 107.5t-89.5 32.5h-56zM394 615l-64 -260h40q131 4 163 134
q18 75 -11 100.5t-92 25.5h-36z" />
    <glyph glyph-name="C" unicode="C" horiz-adv-x="613" 
d="M721 665l-60 -245q-19 112 -50 162t-89 50q-86 0 -149.5 -80t-96.5 -216q-31 -125 3.5 -202t126.5 -77q68 0 130.5 51.5t90.5 118.5q-30 -105 -111 -171t-183 -66q-137 0 -199 94.5t-24 242.5q36 149 142.5 243.5t243.5 94.5q89 0 135 -45z" />
    <glyph glyph-name="D" unicode="D" horiz-adv-x="673" 
d="M178 650h306q148 0 212 -84.5t27 -238.5q-39 -154 -144.5 -240.5t-252.5 -86.5h-306l80 44l138 562zM453 615h-59l-142 -580h59q167 0 241 292q70 288 -99 288z" />
    <glyph glyph-name="E" unicode="E" horiz-adv-x="614" 
d="M20 0l80 44l138 562l-60 44h539l-54 -220l-79 185h-190l-64 -260h86l115 103l-60 -240l-62 102h-87l-70 -285h199l177 185l-54 -220h-554z" />
    <glyph glyph-name="F" unicode="F" horiz-adv-x="589" 
d="M20 0l80 44l138 562l-60 44h539l-54 -220l-85 185h-184l-64 -260h86l115 103l-60 -240l-62 102h-87l-68 -276l70 -44h-304z" />
    <glyph glyph-name="G" unicode="G" horiz-adv-x="634" 
d="M714 290l-70 -44l-64 -256l-100 60q-65 -60 -157 -60q-142 0 -197 92.5t-16 244.5q37 150 144.5 244t251.5 94q68 0 115 -45l100 45l-64 -265q-8 36 -11 48.5t-11 43t-13 41.5t-14.5 32t-19.5 29.5t-23.5 19.5t-30 14.5t-36.5 3.5q-37 0 -68 -18.5t-52.5 -46t-41 -71.5
t-31 -82.5t-25.5 -91.5q-76 -297 61 -297q64 0 105 46l44 175l-60 44h284z" />
    <glyph glyph-name="H" unicode="H" horiz-adv-x="734" 
d="M20 0l80 44l138 562l-60 44h294l-80 -44l-62 -251h246l62 251l-60 44h294l-80 -44l-138 -562l60 -44h-294l80 44l68 276h-246l-68 -276l60 -44h-294z" />
    <glyph glyph-name="I" unicode="I" horiz-adv-x="334" 
d="M472 650l-80 -44l-138 -562l60 -44h-294l80 44l138 562l-60 44h294z" />
    <glyph glyph-name="J" unicode="J" horiz-adv-x="466" 
d="M614 650l-80 -44l-92 -376q-28 -116 -99 -178t-171 -62q-86 0 -119 33.5t-23 81.5q10 42 37 65.5t57 23.5q39 0 50 -25t-6 -60q-14 -35 -16 -55t5.5 -26t22.5 -6q45 0 75 87q12 37 37 141l88 356l-60 44h294z" />
    <glyph glyph-name="K" unicode="K" horiz-adv-x="726" 
d="M20 0l80 44l138 562l-60 44h294l-80 -44l-74 -302l320 266l-83 80h237l-311 -255l162 -343l73 -52h-226l-124 299l-62 -53l-50 -202l60 -44h-294z" />
    <glyph glyph-name="L" unicode="L" horiz-adv-x="617" 
d="M631 220l-54 -220h-557l80 44l138 562l-60 44h314l-102 -54l-138 -561h202z" />
    <glyph glyph-name="M" unicode="M" horiz-adv-x="857" 
d="M20 0l100 84l126 512l-68 54h232l75 -422l271 422h239l-80 -44l-138 -562l60 -44h-294l80 44l128 526l-370 -585l-100 558l-112 -459l60 -84h-209z" />
    <glyph glyph-name="N" unicode="N" horiz-adv-x="719" 
d="M179 84l80 -84h-239l110 84l116 473l-68 93h191l251 -398l78 314l-70 84h229l-110 -84l-142 -581l-322 521z" />
    <glyph glyph-name="O" unicode="O" 
d="M110 327q36 149 142.5 243.5t243.5 94.5q138 0 198.5 -94.5t24.5 -243.5q-38 -149 -145 -243t-244 -94t-197.5 94t-22.5 243zM282 327q-18 -73 -25.5 -124t-4.5 -94.5t24.5 -65t62.5 -21.5q78 0 125 77t84 228q18 73 25 124.5t4 95t-25 65t-63 21.5t-73 -21.5
t-56.5 -65.5t-42 -94.5t-35.5 -124.5z" />
    <glyph glyph-name="P" unicode="P" horiz-adv-x="616" 
d="M20 0l80 44l138 562l-60 44h330q115 0 168.5 -49.5t29.5 -145.5t-101.5 -145.5t-192.5 -49.5h-106l-52 -216l60 -44h-294zM394 615l-78 -320h46q64 0 113 40.5t68 119.5q20 79 -9.5 119.5t-93.5 40.5h-46z" />
    <glyph glyph-name="Q" unicode="Q" 
d="M110 327q36 149 142.5 243.5t243.5 94.5q138 0 198.5 -94.5t24.5 -243.5q-32 -126 -115 -214.5t-195 -113.5q-58 -195 79 -199q-139 -32 -200.5 29t-35.5 171q-97 26 -135 114.5t-7 212.5zM282 327q-18 -73 -25.5 -124t-4.5 -94.5t24.5 -65t62.5 -21.5q78 0 125 77
t84 228q18 73 25 124.5t4 95t-25 65t-63 21.5t-73 -21.5t-56.5 -65.5t-42 -94.5t-35.5 -124.5z" />
    <glyph glyph-name="R" unicode="R" horiz-adv-x="677" 
d="M178 650h317q113 0 170 -42.5t34 -134.5q-17 -71 -75 -112t-146 -52q58 -13 83.5 -49t39.5 -96l19 -111l57 -53h-214l-29 200q-11 49 -31.5 72.5t-64.5 23.5h-22l-62 -252l60 -44h-294l80 44l138 562zM394 615l-70 -284h56q55 0 100 37t62 105q17 74 -10.5 108t-84.5 34
h-53z" />
    <glyph glyph-name="S" unicode="S" horiz-adv-x="557" 
d="M641 665l-58 -235q-14 53 -25 84.5t-29.5 62t-44.5 43.5t-63 13q-51 0 -95.5 -24t-55.5 -70q-8 -31 6 -49.5t53 -36.5l158 -72q121 -53 84 -194q-21 -85 -91 -141t-177 -56q-44 0 -83 16t-53 33l-109 -49l60 245q14 -48 23.5 -74.5t26 -57t35 -45.5t47.5 -25.5t68 -10.5
q58 0 98 27.5t51 68.5q9 40 -7 62.5t-51 40.5l-153 73q-112 52 -84 169q25 101 97.5 151.5t156.5 50.5q38 0 72.5 -11.5t50.5 -25.5z" />
    <glyph glyph-name="T" unicode="T" horiz-adv-x="658" 
d="M786 650l-54 -220l-85 185h-91l-138 -561l78 -54h-334l102 54l138 561h-91l-177 -185l54 220h598z" />
    <glyph glyph-name="U" unicode="U" horiz-adv-x="692" 
d="M228 606l-60 44h294l-80 -44l-84 -343q-8 -34 -12 -61.5t-2.5 -58.5t12 -51.5t34.5 -34t61 -13.5q46 0 84 19.5t63.5 52t41.5 67t25 71.5l76 312l-70 84h229l-110 -84l-76 -307q-13 -51 -37.5 -97t-61.5 -85.5t-91 -63t-117 -23.5q-271 0 -203 278z" />
    <glyph glyph-name="V" unicode="V" 
d="M837 650l-113 -79l-385 -586l-122 620l-59 45h284l-70 -42l76 -392l237 361l-52 73h204z" />
    <glyph glyph-name="W" unicode="W" horiz-adv-x="1001" 
d="M1159 650l-113 -79l-360 -586l-73 449l-299 -449l-97 620l-59 45h284l-70 -42l57 -387l175 260l-25 124l-59 45h284l-70 -42l57 -387l216 356l-52 73h204z" />
    <glyph glyph-name="X" unicode="X" horiz-adv-x="696" 
d="M685 576l-189 -203l127 -329l63 -44h-287l58 37l-85 221l-187 -195l58 -63h-223l125 73l213 222l-118 310l-62 45h287l-59 -37l77 -202l163 176l-47 63h213z" />
    <glyph glyph-name="Y" unicode="Y" horiz-adv-x="710" 
d="M455 650l-59 -38l105 -267l206 242l-48 63h209l-122 -73l-229 -274l-64 -259l60 -44h-294l80 44l58 238l-127 324l-62 44h287z" />
    <glyph glyph-name="Z" unicode="Z" horiz-adv-x="582" 
d="M150 430l54 220h496l-483 -615h202l177 185l-54 -220h-522l482 615h-175z" />
    <glyph glyph-name="bracketleft" unicode="[" horiz-adv-x="240" 
d="M5 -100l211 850h180l-7 -32h-140l-196 -786h140l-8 -32h-180z" />
    <glyph glyph-name="backslash" unicode="\" horiz-adv-x="279" 
d="M276 -10h-39l-72 675h40z" />
    <glyph glyph-name="bracketright" unicode="]" horiz-adv-x="240" 
d="M396 750l-211 -850h-180l8 32h140l196 786h-140l7 32h180z" />
    <glyph glyph-name="asciicircum" unicode="^" horiz-adv-x="441" 
d="M290 665l181 -282h-42l-139 215l-136 -215h-44z" />
    <glyph glyph-name="underscore" unicode="_" horiz-adv-x="490" 
d="M-9 -100l8 32h458l-8 -32h-458z" />
    <glyph glyph-name="grave" unicode="`" horiz-adv-x="260" 
d="M334 461l-152 189h159z" />
    <glyph glyph-name="a" unicode="a" horiz-adv-x="513" 
d="M305 106q-39 -57 -71 -86.5t-70 -29.5q-72 0 -99.5 60.5t-2.5 164.5q29 116 105.5 180.5t169.5 64.5q26 0 46.5 -14t26.5 -30l113 44q-16 -66 -49 -200t-49 -200l89 40q-93 -110 -165 -110q-63 0 -54 75q1 1 5.5 20.5t4.5 20.5zM195 205q-33 -157 27 -154q38 1 89 82
l61 249q0 6 1 17t-8 21.5t-26 10.5q-42 -1 -83.5 -67.5t-60.5 -158.5z" />
    <glyph glyph-name="b" unicode="b" horiz-adv-x="493" 
d="M125 34l-95 -44l148 598l-54 29l203 48l-79 -321q79 116 151 116q66 0 97 -61.5t5 -163.5q-27 -115 -105.5 -180t-172.5 -65q-60 0 -98 44zM367 245q8 48 7 82.5t-12 53.5t-31 18q-38 -1 -89 -82l-63 -253q-6 -22 10 -34t37 -11q50 2 86 65.5t55 160.5z" />
    <glyph glyph-name="c" unicode="c" horiz-adv-x="438" 
d="M189 209q-4 -79 28.5 -108.5t78.5 -22.5q80 13 136 104q-27 -87 -89 -139.5t-138 -52.5q-89 0 -129.5 65t-15.5 170t100 170t170 65q67 0 100 -27t26 -75q-3 -25 -23 -47t-50 -22q-27 0 -36 19t-3 39q12 43 5.5 65t-34.5 22q-44 0 -82 -68t-44 -157z" />
    <glyph glyph-name="d" unicode="d" horiz-adv-x="523" 
d="M315 106q-79 -116 -151 -116t-99.5 60.5t-2.5 164.5q28 114 103 179.5t155 65.5q42 0 74 -35l40 163q-9 5 -27 14.5t-27 14.5q34 8 101.5 24t101.5 24l-148 -605l89 40q-93 -110 -165 -110q-63 0 -54 75zM198 205q-15 -71 -9 -112.5t39 -41.5q40 0 95 82l53 219
q10 40 -4.5 60.5t-37.5 19.5q-44 -2 -82 -68t-54 -159z" />
    <glyph glyph-name="e" unicode="e" horiz-adv-x="456" 
d="M341 460q67 0 102.5 -26t31.5 -73q-8 -88 -152 -99l-129 -10q-4 -28 -5 -43q-5 -74 25.5 -105t81.5 -28q87 4 139 106q-20 -81 -84 -136.5t-146 -55.5q-94 0 -132 67t-13 168q24 99 104.5 167t176.5 68zM202 279l67 6q77 5 84 78q3 35 -9 52.5t-29 17.5q-36 0 -67 -44.5
t-46 -109.5z" />
    <glyph glyph-name="f" unicode="f" horiz-adv-x="357" 
d="M409 423h-100l-86 -410q-21 -99 -84 -161t-141 -62q-51 0 -81.5 21.5t-25.5 60.5q4 36 24 55t50 19q29 0 39 -21.5t3 -52.5q-6 -19 -5.5 -36t14.5 -17q7 0 13 2.5t11 8t9 12t8 18t7 21.5t6.5 27t6.5 30.5t7.5 35.5t7.5 39l86 410h-80l6 27h80l2 10q22 106 85.5 155.5
t136.5 49.5q62 0 88.5 -24.5t18.5 -66.5q-6 -29 -26 -45.5t-44 -16.5q-56 0 -44 72q5 35 1.5 45t-16.5 10q-32 0 -62 -148q-2 -7 -2.5 -10.5t-2 -9.5t-2.5 -11l-2 -10h100z" />
    <glyph glyph-name="g" unicode="g" horiz-adv-x="526" 
d="M176 169q-48 19 -67 55.5t-8 82.5q18 73 81.5 113t158.5 40q73 0 121 -28h124l-8 -32h-84q23 -47 11 -93q-19 -73 -81.5 -113t-158.5 -40q-36 0 -76 11q-41 -16 -41 -32q0 -10 10 -16.5t39 -17.5l123 -48q105 -40 94 -132q-9 -70 -73 -104.5t-169 -34.5q-87 0 -139.5 26
t-51.5 78q1 34 24.5 56.5t48 30t59.5 13.5q-17 5 -28.5 10.5t-23.5 14.5t-17 22.5t-3 31.5q4 28 27.5 50t46.5 32.5t61 23.5zM327 438q-29 0 -52 -34.5t-34 -78.5q-34 -147 29 -147q31 0 52.5 32.5t32.5 77.5q38 150 -28 150zM260 -72l-136 52q-11 -9 -22.5 -31t-12.5 -45
q-6 -100 116 -100q47 0 77.5 18.5t34.5 47.5q2 21 -12 33.5t-45 24.5z" />
    <glyph glyph-name="h" unicode="h" horiz-adv-x="538" 
d="M343 665l-77 -318q99 113 168 113q114 0 74 -164l-59 -236l89 40q-93 -110 -165 -110q-32 0 -47.5 18.5t-6.5 56.5l54 218q17 61 15 89t-28 28q-19 0 -48.5 -25.5t-53.5 -57.5l-77 -317h-131l144 588l-54 29z" />
    <glyph glyph-name="i" unicode="i" horiz-adv-x="304" 
d="M180 589q7 31 32.5 51t56.5 20t45.5 -20t6.5 -51q-8 -30 -33 -50t-56 -20q-30 0 -45 20t-7 50zM63 65l79 318l-54 29l203 48l-98 -400l89 40q-93 -110 -165 -110q-32 0 -47.5 18.5t-6.5 56.5z" />
    <glyph glyph-name="j" unicode="j" horiz-adv-x="310" 
d="M124 412l54 -29l-92 -370q-4 -16 -9.5 -39t-8.5 -36t-7 -30.5t-7.5 -27t-8 -21t-8.5 -18t-9.5 -12t-11.5 -8t-13 -2.5q-4 0 -7 1.5t-4 5t-1.5 6.5t0.5 8.5t1.5 9.5t2 11t2.5 11q7 31 -3.5 52.5t-39.5 21.5q-30 0 -50 -19.5t-23 -52.5q-4 -41 25 -62.5t79 -21.5
q80 0 143 59t89 164l110 447zM216 589q7 31 32.5 51t56.5 20t45.5 -20t6.5 -51q-8 -30 -33 -50t-56 -20q-30 0 -45 20t-7 50z" />
    <glyph glyph-name="k" unicode="k" horiz-adv-x="526" 
d="M241 252h13q31 0 52 17.5t55 75.5q3 5 12 21t13.5 23t14 20.5t17.5 20.5t18.5 15t23 11.5t26.5 3.5q23 0 41.5 -12.5t17.5 -40.5q-1 -31 -20 -50t-48 -19q-17 0 -28.5 12.5t-15.5 21t-15 -0.5t-31 -46q-40 -73 -78 -87q61 -8 81.5 -41.5t48.5 -148.5q13 5 39.5 16
t40.5 17q-56 -91 -146 -91q-30 0 -46.5 19.5t-25.5 59.5q-3 12 -6.5 31.5t-6 31.5t-6.5 27.5t-7.5 25t-9 18.5t-12 13t-14.5 4h-4q-9 -37 -27 -110t-27 -110h-131l144 588q-9 5 -27 14.5t-27 14.5q34 8 101.5 24t101.5 24q-17 -69 -51 -206.5t-51 -206.5z" />
    <glyph glyph-name="l" unicode="l" horiz-adv-x="271" 
d="M53 65l129 523l-54 29l203 48l-148 -605l89 40q-93 -110 -165 -110q-32 0 -47.5 18.5t-6.5 56.5z" />
    <glyph glyph-name="m" unicode="m" horiz-adv-x="772" 
d="M553 65l53 218q16 61 15.5 89t-23.5 28q-18 0 -40 -20.5t-56 -62.5q-2 -15 -4 -21l-72 -296h-131l68 283q16 61 15.5 89t-23.5 28q-30 0 -97 -83l-77 -317h-131l94 383l-54 29l203 48l-27 -113q90 113 158 113q51 0 69 -30t13 -88q27 35 43 53.5t49.5 41.5t63.5 23
q68 0 84.5 -45t-5.5 -119l-58 -236l89 40q-93 -110 -165 -110q-32 0 -47.5 18.5t-6.5 56.5z" />
    <glyph glyph-name="n" unicode="n" horiz-adv-x="539" 
d="M293 460l-27 -113q99 113 168 113q114 0 74 -164l-58 -236l89 40q-93 -110 -165 -110q-32 0 -47.5 18.5t-6.5 56.5l53 218q17 61 15 89t-28 28q-35 0 -102 -83l-77 -317h-131l94 383l-54 29z" />
    <glyph glyph-name="o" unicode="o" horiz-adv-x="482" 
d="M60 225q28 109 104.5 172t169.5 63t139.5 -63t18.5 -172q-26 -109 -103.5 -172t-170.5 -63t-138.5 63t-19.5 172zM202 210q-28 -188 34 -188q42 0 70.5 60.5t43.5 157.5q28 188 -34 188q-41 0 -70 -61t-44 -157z" />
    <glyph glyph-name="p" unicode="p" horiz-adv-x="497" 
d="M-70 -200l68 45l134 538l-54 29l203 48l-29 -116q79 116 151 116q66 0 97 -61.5t5 -163.5q-27 -115 -98 -180t-150 -65q-54 0 -82 35l-46 -180l50 -45h-249zM375 242q13 70 2 110t-42 40q-15 0 -42 -21.5t-47 -53.5l-53 -219q-11 -40 6 -59.5t44 -17.5q45 4 80 68t52 153
z" />
    <glyph glyph-name="q" unicode="q" horiz-adv-x="506" 
d="M423 416l113 44l-152 -615l50 -45h-251l70 45l65 261q-79 -116 -151 -116t-101 60.5t-4 164.5q29 115 108 180t173 65q56 0 80 -44zM198 205q-29 -154 37 -154q17 0 42 23.5t47 58.5l61 249q6 22 -6 37t-38 12q-45 -4 -86 -70t-57 -156z" />
    <glyph glyph-name="r" unicode="r" horiz-adv-x="434" 
d="M181 0h-131l94 383l-54 29l203 48l-28 -112l46 56q25 31 47 43.5t52 12.5q33 0 50.5 -18t11.5 -50q-6 -31 -26.5 -49t-47.5 -18q-51 0 -44 59q3 29 -10 29q-10 0 -24 -18l-63 -78z" />
    <glyph glyph-name="s" unicode="s" horiz-adv-x="409" 
d="M371 436l58 24l-46 -172q-25 140 -108 140q-34 0 -57 -14t-29 -37q-8 -27 4 -44.5t46 -34.5l63 -32q43 -22 64 -61.5t8 -91.5q-31 -123 -180 -123q-26 0 -54.5 9t-42.5 22l-77 -31l44 174q18 -75 49 -108.5t80 -33.5q28 0 48 14t25 37q9 36 -13.5 57.5t-66.5 38.5
q-53 21 -76.5 60t-11.5 92q17 72 67 105.5t116 33.5q62 0 90 -24z" />
    <glyph glyph-name="t" unicode="t" horiz-adv-x="337" 
d="M101 423l237 169l-34 -142h73l-8 -27h-73l-78 -321q-10 -40 22 -38q37 3 81 44l4 4q-33 -54 -82 -88t-90 -34q-93 0 -67 104l80 329h-65z" />
    <glyph glyph-name="u" unicode="u" horiz-adv-x="524" 
d="M76 412l203 48l-72 -293q-16 -61 -14 -89t29 -28q19 0 47.5 25.5t52.5 57.5l63 250q-9 5 -27 14.5t-27 14.5q34 8 101.5 24t101.5 24l-98 -400l89 40q-93 -110 -165 -110q-33 0 -48 19t-6 56l9 35q-98 -110 -169 -110q-115 0 -74 164l58 229z" />
    <glyph glyph-name="v" unicode="v" horiz-adv-x="455" 
d="M200 -15l-92 397l-68 30l197 48l63 -310q85 89 100 142q5 16 -7 32.5t-26 35.5t-13 41q1 26 19.5 42.5t45.5 16.5q48 0 61.5 -42.5t-11.5 -91.5q-79 -162 -269 -341z" />
    <glyph glyph-name="w" unicode="w" horiz-adv-x="734" 
d="M286 172l209 288l90 -314q77 89 96 146q5 16 -7.5 32.5t-27 35.5t-11.5 41q3 26 22 42.5t45 16.5q47 0 58.5 -41t-13.5 -87q-41 -85 -101.5 -164.5t-152.5 -182.5l-75 312l-223 -312l-84 396q-4 2 -30.5 13.5t-40.5 17.5q33 8 98.5 24t98.5 24q8 -49 24.5 -144t24.5 -144
z" />
    <glyph glyph-name="x" unicode="x" horiz-adv-x="522" 
d="M375 331l-31 -45l82 -236l81 46q-71 -106 -157 -106q-25 0 -41 12t-22 25t-15 41l-3 9l-23 70l-65 -92q-26 -36 -46 -50.5t-48 -14.5q-24 0 -41.5 16t-14.5 45t21.5 46t47.5 17q14 0 33.5 -9.5t33.5 -8t29 22.5l40 57l-66 200l-83 36l197 48l50 -145l56 80q26 36 46 50.5
t48 14.5q26 0 43.5 -15.5t13.5 -44.5t-24 -46.5t-49 -17.5q-14 0 -34 8t-33 6.5t-26 -19.5z" />
    <glyph glyph-name="y" unicode="y" horiz-adv-x="478" 
d="M145 -96l79 106l-96 372q-22 10 -68 30q33 8 98.5 24t98.5 24l70 -305q62 90 82 137q7 16 -4.5 32.5t-25 35.5t-10.5 41q3 26 22 42.5t45 16.5q48 0 59 -39.5t-17 -88.5q-21 -39 -49.5 -82t-67 -98t-56.5 -82l-122 -171q-46 -64 -76 -88t-61 -24q-30 0 -49.5 19.5
t-15.5 51.5q4 29 22 44t42 15q21 0 35.5 -19.5t22.5 -20.5q20 -3 42 27z" />
    <glyph glyph-name="z" unicode="z" horiz-adv-x="429" 
d="M-10 -10l332 353h-177l-62 -77l59 184h337l-321 -335q17 5 34 5q12 0 51 -9.5t66 -9.5q33 0 68.5 17t54.5 42q-40 -90 -78 -130t-90 -40q-23 0 -72.5 10t-79.5 10q-66 0 -122 -20z" />
    <glyph glyph-name="braceleft" unicode="{" horiz-adv-x="306" 
d="M114 339q41 2 68 30.5t32 73.5l18 164q10 88 72 122t158 21q-49 -5 -67.5 -32t-26.5 -107l-16 -130q-7 -76 -66 -108t-137 -34q27 -1 50 -5t46 -14t34 -25.5t14.5 -40t-11.5 -57.5l-50 -130q-22 -56 -26 -83.5t7.5 -39.5t44.5 -16q-102 -13 -148 21t-12 122l64 164
q17 45 4.5 73.5t-52.5 30.5z" />
    <glyph glyph-name="bar" unicode="|" horiz-adv-x="200" 
d="M110 750h40v-950h-40v950z" />
    <glyph glyph-name="braceright" unicode="}" horiz-adv-x="306" 
d="M360 339q-41 -2 -68 -30.5t-32 -73.5l-18 -164q-10 -88 -72 -122t-158 -21q49 5 67 31.5t27 107.5l16 130q3 40 23 68.5t51 43.5t62 22t66 8q-27 1 -49.5 5t-45.5 13.5t-34 25.5t-14.5 40t11.5 58l50 130q32 81 27 107.5t-53 31.5q102 13 148 -21t12 -122l-64 -164
q-17 -45 -4.5 -73.5t52.5 -30.5z" />
    <glyph glyph-name="asciitilde" unicode="~" horiz-adv-x="490" 
d="M91 285q22 72 68.5 117t95.5 45q58 0 108 -39q24 -19 34.5 -26t30.5 -14t42 -7q31 1 59.5 16t44.5 43q-20 -71 -70.5 -117t-103.5 -46q-56 0 -103 34q-3 2 -18.5 14.5t-20.5 15.5t-18 10.5t-25 9.5t-26 2q-58 0 -98 -58z" />
    <glyph glyph-name="exclamdown" unicode="&#xa1;" horiz-adv-x="289" 
d="M94 -215q-34 0 -48.5 26t-0.5 83q11 44 47.5 126.5t76.5 165t47 99.5q-1 -15 -1.5 -99.5t-4.5 -166t-16 -125.5q-27 -109 -100 -109zM312 390q-7 -31 -32.5 -51t-56.5 -20t-45.5 20t-6.5 51q8 30 33 50t56 20q30 0 45 -20t7 -50z" />
    <glyph glyph-name="cent" unicode="&#xa2;" horiz-adv-x="442" 
d="M359 600h40l-35 -140q67 -3 98.5 -29.5t25.5 -72.5q-4 -26 -24 -47.5t-50 -21.5q-27 0 -35.5 18.5t-3.5 39.5q18 70 -18 83l-88 -350q25 -6 47 -2q83 13 146 104q-26 -79 -84.5 -130.5t-129.5 -59.5l-36 -142h-40l35 141q-88 6 -125 69.5t-11 164.5q24 96 94.5 160
t158.5 73zM200 209q-7 -76 34 -111l82 331q-47 -13 -79 -74t-37 -146z" />
    <glyph glyph-name="currency" unicode="&#xa4;" horiz-adv-x="530" 
d="M121 170l90 72q-18 37 -6 83q11 47 47 83l-54 72l38 31l54 -73q44 28 91 28q46 0 76 -27l90 72l22 -31l-89 -71q18 -36 7 -84q-12 -45 -49 -84l54 -71l-38 -31l-54 72q-44 -27 -90 -27q-47 0 -77 27l-90 -72zM248 325q-10 -40 11 -69t62 -29q40 0 76 28.5t47 69.5
q10 41 -12 69.5t-62 28.5q-41 0 -76.5 -29t-45.5 -69z" />
    <glyph glyph-name="yen" unicode="&#xa5;" horiz-adv-x="710" 
d="M200 248q2 5 4.5 16t3.5 16h150v1l1 1l-126 324q-10 7 -30.5 22t-30.5 22h287q-10 -6 -30.5 -18.5t-30.5 -19.5l105 -267q35 41 103.5 121.5t102.5 120.5q-8 11 -23.5 32t-22.5 31h209q-20 -12 -61.5 -36.5t-61.5 -36.5q-38 -45 -115.5 -137t-115.5 -137q-1 -4 -3 -11.5
t-3 -11.5h150q-2 -5 -4.5 -16t-3.5 -16h-150q-2 -10 -7 -29t-7 -29h150q-1 -6 -3.5 -16t-4.5 -16h-150q-5 -19 -14.5 -57t-14.5 -57q10 -8 30 -22.5t30 -21.5h-294q14 8 40.5 22.5t39.5 21.5q5 19 14.5 57t14.5 57h-150q1 6 3.5 16.5t4.5 15.5h150q2 10 6.5 29t7.5 29h-150z
" />
    <glyph glyph-name="brokenbar" unicode="&#xa6;" horiz-adv-x="200" 
d="M109 195h40v-405h-40v405zM109 665h40v-405h-40v405z" />
    <glyph glyph-name="section" unicode="&#xa7;" horiz-adv-x="430" 
d="M451 516q-34 0 -44 18.5t-4 39.5q2 7 7 19.5t6 18t-2 12t-17.5 9t-40.5 2.5q-99 0 -114 -63q-1 -6 -2 -11t0.5 -9.5l2.5 -7.5t5 -6t6 -5t9.5 -5t10.5 -4t13 -4.5t14 -4.5l102 -35q49 -17 65 -44t5 -74q-7 -29 -30.5 -59.5t-55.5 -45.5q56 -37 35 -128q-16 -63 -72.5 -101
t-138.5 -38q-81 0 -120.5 28.5t-28.5 73.5q6 24 27 40.5t45 16.5q33 0 41 -18t2 -40q-2 -6 -7.5 -20.5t-5.5 -20.5t3.5 -14.5t20 -12t45.5 -3.5q42 0 77 15t43 48q7 26 -7.5 39.5t-53.5 27.5l-102 35q-49 17 -65.5 44t-4.5 74q8 29 31 59.5t55 45.5q-53 34 -32 118
q15 62 71 100.5t131 38.5q82 0 119.5 -24t26.5 -68q-5 -23 -25.5 -40t-45.5 -17zM345 278q32 -15 40 -20l6 25q6 23 -0.5 39t-24 25.5t-35.5 15t-43.5 12t-39.5 12.5q-21 8 -40 20l-6 -25q-6 -23 0.5 -39t24 -25.5t35.5 -15t43.5 -12t39.5 -12.5z" />
    <glyph glyph-name="copyright" unicode="&#xa9;" horiz-adv-x="560" 
d="M75 225q0 97 68.5 166t166.5 69t166.5 -69t68.5 -166t-68.5 -166t-166.5 -69t-166.5 69t-68.5 166zM105 225q0 -85 60 -145t145 -60t145 60t60 145t-60 145t-145 60t-145 -60t-60 -145zM252 215q10 -50 40.5 -74.5t63.5 -18.5q58 9 79 73q-1 -62 -37 -98.5t-90 -36.5
q-65 0 -103.5 47t-38.5 118q0 68 43.5 116t105.5 48q51 0 81 -23t30 -55q0 -23 -11 -34.5t-27 -11.5q-42 0 -42 48q0 33 -9.5 47t-34.5 8q-30 -7 -45 -53t-5 -100z" />
    <glyph glyph-name="guillemotleft" unicode="&#xab;" horiz-adv-x="438" 
d="M216 236l54 -180l-182 180l272 180zM387 236l34 -180l-156 180l246 180z" />
    <glyph glyph-name="uni00AD" unicode="&#xad;" horiz-adv-x="490" 
d="M144 320l8 32h360l-8 -32h-360z" />
    <glyph glyph-name="registered" unicode="&#xae;" horiz-adv-x="560" 
d="M75 225q0 97 68.5 166t166.5 69t166.5 -69t68.5 -166t-68.5 -166t-166.5 -69t-166.5 69t-68.5 166zM321 377q111 0 111 -80q0 -35 -27 -55.5t-72 -24.5q49 -5 78 -50l43 -66l9 -12q52 57 52 136q0 85 -60 145t-145 60q-79 0 -138 -53h149zM105 225q0 -90 65 -150l36 26
v246l-37 26q-64 -59 -64 -148zM310 20q78 0 135 51h-58l-58 101q-22 38 -47 38h-2v-109l42 -30h-147q57 -51 135 -51zM280 360v-133h17q20 0 37 18.5t17 51.5t-17 48t-38 15h-16z" />
    <glyph glyph-name="degree" unicode="&#xb0;" horiz-adv-x="305" 
d="M180 562q0 43 29.5 73t72.5 30t73 -30t30 -73t-30 -72.5t-73 -29.5t-72.5 29.5t-29.5 72.5zM220 562q0 -26 18 -44t44 -18t44.5 18.5t18.5 43.5q0 26 -18.5 44.5t-44.5 18.5q-25 0 -43.5 -18.5t-18.5 -44.5z" />
    <glyph glyph-name="plusminus" unicode="&#xb1;" horiz-adv-x="490" 
d="M115 360v32h163v163h32v-163h164v-32h-164v-144h-32v144h-163zM115 150v32h359v-32h-359z" />
    <glyph glyph-name="paragraph" unicode="&#xb6;" horiz-adv-x="522" 
d="M647 623h-65l-205 -823h-36l205 823h-91l-205 -823h-35l120 481q-105 -2 -159 43.5t-30 142.5q22 89 93 136t173 47h242z" />
    <glyph glyph-name="periodcentered" unicode="&#xb7;" horiz-adv-x="221" 
d="M123 335q7 31 32.5 51t56.5 20t45.5 -20t6.5 -51q-8 -30 -32.5 -50t-55.5 -20q-30 0 -45 20t-8 50z" />
    <glyph glyph-name="guillemotright" unicode="&#xbb;" horiz-adv-x="438" 
d="M194 56l144 180l-54 180l182 -180zM43 56l124 180l-34 180l156 -180z" />
    <glyph glyph-name="questiondown" unicode="&#xbf;" horiz-adv-x="489" 
d="M340 271q-17 -38 -53.5 -71t-77 -58t-80 -51.5t-71 -63.5t-42.5 -83q-18 -75 27.5 -119.5t145.5 -44.5q47 0 94.5 16t87.5 52.5t52 85.5q10 41 -7 62t-46 21q-33 0 -59 -23t-31 -55q-2 -17 5 -29.5t16 -19t16 -14t5 -15.5q-6 -24 -33 -39t-63 -15q-48 0 -67 35.5t-4 97.5
q12 48 37.5 89.5t50.5 68.5t53 73t44 100zM412 385q-7 -31 -32.5 -51t-56.5 -20t-45.5 20t-6.5 51q8 30 33 50t56 20q30 0 45 -20t7 -50z" />
    <glyph glyph-name="Agrave" unicode="&#xc0;" 
d="M-10 0l113 79l385 586l122 -620l59 -45h-284l70 42l-24 123h-229l-62 -92l54 -73h-204zM379 434l-155 -234h199zM514 701l-152 189h139z" />
    <glyph glyph-name="Aacute" unicode="&#xc1;" 
d="M-10 0l113 79l385 586l122 -620l59 -45h-284l70 42l-24 123h-229l-62 -92l54 -73h-204zM379 434l-155 -234h199zM454 701l48 189h159z" />
    <glyph glyph-name="Acircumflex" unicode="&#xc2;" 
d="M-10 0l113 79l385 586l122 -620l59 -45h-284l70 42l-24 123h-229l-62 -92l54 -73h-204zM379 434l-155 -234h199zM496 760l-157 -60l183 165l101 -165z" />
    <glyph glyph-name="Atilde" unicode="&#xc3;" 
d="M-10 0l113 79l385 586l122 -620l59 -45h-284l70 42l-24 123h-229l-62 -92l54 -73h-204zM379 434l-155 -234h199zM333 714q-3 70 34.5 112t80.5 49q48 9 87 -18q26 -17 45.5 -21t37.5 0q25 3 50 23t33 47q6 -71 -34.5 -117t-93.5 -55q-51 -8 -90 17q-40 25 -84 25
q-19 0 -38.5 -14t-27.5 -48z" />
    <glyph glyph-name="Adieresis" unicode="&#xc4;" 
d="M-10 0l113 79l385 586l122 -620l59 -45h-284l70 42l-24 123h-229l-62 -92l54 -73h-204zM379 434l-155 -234h199zM334 798q8 31 33 51t56 20t45.5 -20t6.5 -51q-8 -30 -32.5 -50t-55.5 -20q-30 0 -45 20t-8 50zM554 798q8 31 33 51t56 20t45.5 -20t6.5 -51
q-8 -30 -32.5 -50t-55.5 -20q-30 0 -45 20t-8 50z" />
    <glyph glyph-name="Aring" unicode="&#xc5;" 
d="M-10 0l113 79l385 586l122 -620l59 -45h-284l70 42l-24 123h-229l-62 -92l54 -73h-204zM379 434l-155 -234h199zM439 783q8 34 37.5 58t64.5 24q34 0 52 -23.5t10 -58.5q-9 -35 -39 -58.5t-64 -23.5q-35 0 -52.5 24t-8.5 58zM478 783q-4 -17 5.5 -30t26.5 -13t32.5 13
t20.5 30q4 17 -5.5 29.5t-26.5 12.5t-33 -12.5t-20 -29.5z" />
    <glyph glyph-name="AE" unicode="&#xc6;" horiz-adv-x="954" 
d="M-30 0l114 79l470 530l-72 41h579l-55 -220l-79 185h-190l-65 -260h86l115 103l-60 -240l-63 102h-87l-71 -285h199l177 185l-54 -220h-554l80 44l39 156h-246l-111 -127l52 -73h-204zM264 235h224l88 354z" />
    <glyph glyph-name="Ccedilla" unicode="&#xc7;" horiz-adv-x="613" 
d="M300 -134q2 41 -37 41q-24 0 -48 -13l98 97q-126 7 -181.5 100t-20.5 236q37 149 144 243.5t244 94.5q88 0 134 -45q31 15 91 45l-61 -245q-19 112 -49.5 162t-88.5 50q-86 0 -150 -79.5t-98 -216.5q-27 -105 -5 -178.5t87 -93.5q78 -26 157 28.5t113 134.5
q-29 -101 -107 -167t-177 -70q-8 -7 -16 -14.5t-18 -17t-15 -14.5q32 0 46 -23t5 -59t-36.5 -59t-60.5 -23q-26 0 -38.5 9t-10.5 26q2 9 9.5 17t17.5 8q12 0 15.5 -7.5t1 -16t0.5 -15.5t15 -5q16 2 27 21.5t13 48.5z" />
    <glyph glyph-name="Egrave" unicode="&#xc8;" horiz-adv-x="614" 
d="M20 0l80 44l138 562l-60 44h539l-54 -220l-79 185h-190l-64 -260h86l115 103l-60 -240l-62 102h-87l-70 -285h199l177 185l-54 -220h-554zM514 701l-152 189h139z" />
    <glyph glyph-name="Eacute" unicode="&#xc9;" horiz-adv-x="614" 
d="M20 0l80 44l138 562l-60 44h539l-54 -220l-79 185h-190l-64 -260h86l115 103l-60 -240l-62 102h-87l-70 -285h199l177 185l-54 -220h-554zM444 701l48 189h159z" />
    <glyph glyph-name="Ecircumflex" unicode="&#xca;" horiz-adv-x="614" 
d="M20 0l80 44l138 562l-60 44h539l-54 -220l-79 185h-190l-64 -260h86l115 103l-60 -240l-62 102h-87l-70 -285h199l177 185l-54 -220h-554zM518 760l-177 -60l203 165l121 -165z" />
    <glyph glyph-name="Edieresis" unicode="&#xcb;" horiz-adv-x="614" 
d="M20 0l80 44l138 562l-60 44h539l-54 -220l-79 185h-190l-64 -260h86l115 103l-60 -240l-62 102h-87l-70 -285h199l177 185l-54 -220h-554zM304 798q8 31 33 51t56 20t45.5 -20t6.5 -51q-8 -30 -32.5 -50t-55.5 -20q-30 0 -45 20t-8 50zM524 798q8 31 33 51t56 20
t45.5 -20t6.5 -51q-8 -30 -32.5 -50t-55.5 -20q-30 0 -45 20t-8 50z" />
    <glyph glyph-name="Igrave" unicode="&#xcc;" horiz-adv-x="334" 
d="M472 650l-80 -44l-138 -562l60 -44h-294l80 44l138 562l-60 44h294zM394 701l-152 189h139z" />
    <glyph glyph-name="Iacute" unicode="&#xcd;" horiz-adv-x="334" 
d="M472 650l-80 -44l-138 -562l60 -44h-294l80 44l138 562l-60 44h294zM304 701l48 189h159z" />
    <glyph glyph-name="Icircumflex" unicode="&#xce;" horiz-adv-x="334" 
d="M472 650l-80 -44l-138 -562l60 -44h-294l80 44l138 562l-60 44h294zM356 760l-157 -60l183 165l101 -165z" />
    <glyph glyph-name="Idieresis" unicode="&#xcf;" horiz-adv-x="334" 
d="M472 650l-80 -44l-138 -562l60 -44h-294l80 44l138 562l-60 44h294zM200 789q7 31 32.5 51t56.5 20t45.5 -20t6.5 -51q-8 -30 -33 -50t-56 -20q-30 0 -45 20t-7 50zM380 789q7 31 32.5 51t56.5 20t45.5 -20t6.5 -51q-8 -30 -33 -50t-56 -20q-30 0 -45 20t-7 50z" />
    <glyph glyph-name="Eth" unicode="&#xd0;" horiz-adv-x="683" 
d="M57 310l8 32h120l66 264l-59 44h306q148 0 211.5 -84.5t24.5 -238.5t-145 -240.5t-253 -86.5h-306l80 44l67 266h-120zM466 615h-59l-68 -273h116l-8 -32h-116l-69 -275h59q84 0 145.5 74.5t96.5 217.5q72 288 -97 288z" />
    <glyph glyph-name="Ntilde" unicode="&#xd1;" horiz-adv-x="719" 
d="M179 84l80 -84h-239l110 84l116 473l-68 93h191l251 -398l78 314l-70 84h229l-110 -84l-142 -581l-322 521zM383 714q-3 70 34.5 112t80.5 49q48 9 87 -18q26 -17 45.5 -21t37.5 0q25 3 50 23t33 47q6 -71 -34.5 -117t-93.5 -55q-51 -8 -90 17q-40 25 -84 25
q-19 0 -38.5 -14t-27.5 -48z" />
    <glyph glyph-name="Ograve" unicode="&#xd2;" 
d="M110 327q36 149 142.5 243.5t243.5 94.5q138 0 198.5 -94.5t24.5 -243.5q-38 -149 -145 -243t-244 -94t-197.5 94t-22.5 243zM282 327q-18 -73 -25.5 -124t-4.5 -94.5t24.5 -65t62.5 -21.5q78 0 125 77t84 228q18 73 25 124.5t4 95t-25 65t-63 21.5t-73 -21.5
t-56.5 -65.5t-42 -94.5t-35.5 -124.5zM534 701l-152 189h139z" />
    <glyph glyph-name="Oacute" unicode="&#xd3;" 
d="M110 327q36 149 142.5 243.5t243.5 94.5q138 0 198.5 -94.5t24.5 -243.5q-38 -149 -145 -243t-244 -94t-197.5 94t-22.5 243zM282 327q-18 -73 -25.5 -124t-4.5 -94.5t24.5 -65t62.5 -21.5q78 0 125 77t84 228q18 73 25 124.5t4 95t-25 65t-63 21.5t-73 -21.5
t-56.5 -65.5t-42 -94.5t-35.5 -124.5zM494 701l48 189h159z" />
    <glyph glyph-name="Ocircumflex" unicode="&#xd4;" 
d="M110 327q36 149 142.5 243.5t243.5 94.5q138 0 198.5 -94.5t24.5 -243.5q-38 -149 -145 -243t-244 -94t-197.5 94t-22.5 243zM282 327q-18 -73 -25.5 -124t-4.5 -94.5t24.5 -65t62.5 -21.5q78 0 125 77t84 228q18 73 25 124.5t4 95t-25 65t-63 21.5t-73 -21.5
t-56.5 -65.5t-42 -94.5t-35.5 -124.5zM518 760l-177 -60l203 165l121 -165z" />
    <glyph glyph-name="Otilde" unicode="&#xd5;" 
d="M110 327q36 149 142.5 243.5t243.5 94.5q138 0 198.5 -94.5t24.5 -243.5q-38 -149 -145 -243t-244 -94t-197.5 94t-22.5 243zM282 327q-18 -73 -25.5 -124t-4.5 -94.5t24.5 -65t62.5 -21.5q78 0 125 77t84 228q18 73 25 124.5t4 95t-25 65t-63 21.5t-73 -21.5
t-56.5 -65.5t-42 -94.5t-35.5 -124.5zM363 714q-3 70 34.5 112t80.5 49q48 9 87 -18q26 -17 45.5 -21t37.5 0q25 3 50 23t33 47q6 -71 -34.5 -117t-93.5 -55q-51 -8 -90 17q-40 25 -84 25q-19 0 -38.5 -14t-27.5 -48z" />
    <glyph glyph-name="Odieresis" unicode="&#xd6;" 
d="M110 327q36 149 142.5 243.5t243.5 94.5q138 0 198.5 -94.5t24.5 -243.5q-38 -149 -145 -243t-244 -94t-197.5 94t-22.5 243zM282 327q-18 -73 -25.5 -124t-4.5 -94.5t24.5 -65t62.5 -21.5q78 0 125 77t84 228q18 73 25 124.5t4 95t-25 65t-63 21.5t-73 -21.5
t-56.5 -65.5t-42 -94.5t-35.5 -124.5zM354 798q8 31 33 51t56 20t45.5 -20t6.5 -51q-8 -30 -32.5 -50t-55.5 -20q-30 0 -45 20t-8 50zM574 798q8 31 33 51t56 20t45.5 -20t6.5 -51q-8 -30 -32.5 -50t-55.5 -20q-30 0 -45 20t-8 50z" />
    <glyph glyph-name="multiply" unicode="&#xd7;" horiz-adv-x="530" 
d="M155 467l28 28l132 -132l132 132l28 -28l-132 -132l142 -142l-28 -28l-142 142l-142 -142l-28 28l142 142z" />
    <glyph glyph-name="Oslash" unicode="&#xd8;" 
d="M678 685l30 -20l-46 -57q49 -44 64 -116.5t-7 -164.5q-38 -149 -145 -243t-244 -94q-82 0 -137 35l-44 -55l-30 20l45 56q-48 45 -62.5 117t8.5 164q36 149 142.5 243.5t243.5 94.5q80 0 137 -35zM282 327q-29 -119 -31 -173l324 403q-13 76 -86 76q-41 0 -73 -21.5
t-56.5 -65.5t-42 -94.5t-35.5 -124.5zM548 327q28 115 30 176l-325 -404q11 -77 86 -77q78 0 125 77t84 228z" />
    <glyph glyph-name="Ugrave" unicode="&#xd9;" horiz-adv-x="692" 
d="M228 606l-60 44h294l-80 -44l-84 -343q-8 -34 -12 -61.5t-2.5 -58.5t12 -51.5t34.5 -34t61 -13.5q46 0 84 19.5t63.5 52t41.5 67t25 71.5l76 312l-70 84h229l-110 -84l-76 -307q-13 -51 -37.5 -97t-61.5 -85.5t-91 -63t-117 -23.5q-271 0 -203 278zM554 701l-152 189h139
z" />
    <glyph glyph-name="Uacute" unicode="&#xda;" horiz-adv-x="692" 
d="M228 606l-60 44h294l-80 -44l-84 -343q-8 -34 -12 -61.5t-2.5 -58.5t12 -51.5t34.5 -34t61 -13.5q46 0 84 19.5t63.5 52t41.5 67t25 71.5l76 312l-70 84h229l-110 -84l-76 -307q-13 -51 -37.5 -97t-61.5 -85.5t-91 -63t-117 -23.5q-271 0 -203 278zM504 701l48 189h159z
" />
    <glyph glyph-name="Ucircumflex" unicode="&#xdb;" horiz-adv-x="692" 
d="M228 606l-60 44h294l-80 -44l-84 -343q-8 -34 -12 -61.5t-2.5 -58.5t12 -51.5t34.5 -34t61 -13.5q46 0 84 19.5t63.5 52t41.5 67t25 71.5l76 312l-70 84h229l-110 -84l-76 -307q-13 -51 -37.5 -97t-61.5 -85.5t-91 -63t-117 -23.5q-271 0 -203 278zM528 760l-177 -60
l203 165l121 -165z" />
    <glyph glyph-name="Udieresis" unicode="&#xdc;" horiz-adv-x="692" 
d="M168 650l60 -44l-84 -338q-68 -278 203 -278q63 0 117 23.5t91 63t61.5 85.5t37.5 97l76 307l110 84h-229l70 -84l-76 -312q-9 -37 -25 -71.5t-41.5 -67t-63.5 -52t-84 -19.5q-37 0 -61 13.5t-34.5 34t-12 51.5t2.5 58.5t12 61.5l84 343l80 44h-294zM374 798q8 31 33 51
t56 20t45.5 -20t6.5 -51q-8 -30 -32.5 -50t-55.5 -20q-30 0 -45 20t-8 50zM594 798q8 31 33 51t56 20t45.5 -20t6.5 -51q-8 -30 -32.5 -50t-55.5 -20q-30 0 -45 20t-8 50z" />
    <glyph glyph-name="Yacute" unicode="&#xdd;" horiz-adv-x="710" 
d="M455 650l-59 -38l105 -267l206 242l-48 63h209l-122 -73l-229 -274l-64 -259l60 -44h-294l80 44l58 238l-127 324l-62 44h287zM514 701l48 189h159z" />
    <glyph glyph-name="Thorn" unicode="&#xde;" horiz-adv-x="588" 
d="M476 650l-81 -44l-14 -56h108q100 0 148.5 -58.5t22.5 -161.5t-103.5 -161.5t-177.5 -58.5h-108l-17 -66l60 -44h-294l80 44l141 562l-59 44h294zM373 520l-95 -380h48q56 0 104 48.5t72 141.5q23 93 -1 141.5t-80 48.5h-48z" />
    <glyph glyph-name="germandbls" unicode="&#xdf;" horiz-adv-x="620" 
d="M356 21l-77 -31l43 174q19 -77 46 -109.5t74 -32.5q33 0 52.5 37.5t1.5 59.5q-19 23 -70 50q-52 28 -67 58.5t-2 83.5q9 38 33.5 67t53.5 48t58 36t51.5 39.5t29.5 49.5q9 35 -12 59.5t-72 24.5q-67 0 -110.5 -48.5t-63.5 -126.5l-114 -460h-132l110 440q14 55 43 97
t62 65.5t73.5 38.5t73 19.5t65.5 4.5q64 0 98 -32.5t22 -82.5q-8 -30 -35.5 -57.5t-56.5 -44.5t-55.5 -40.5t-32.5 -48.5q-8 -32 7 -45.5t88 -50.5q47 -24 65 -54t7 -76q-18 -71 -68 -107t-112 -36q-44 0 -77 31z" />
    <glyph glyph-name="agrave" unicode="&#xe0;" horiz-adv-x="513" 
d="M305 106q-39 -57 -71 -86.5t-70 -29.5q-72 0 -99.5 60.5t-2.5 164.5q29 116 105.5 180.5t169.5 64.5q26 0 46.5 -14t26.5 -30l113 44q-16 -66 -49 -200t-49 -200l89 40q-93 -110 -165 -110q-63 0 -54 75q1 1 5.5 20.5t4.5 20.5zM195 205q-33 -157 27 -154q38 1 89 82
l61 249q0 6 1 17t-8 21.5t-26 10.5q-42 -1 -83.5 -67.5t-60.5 -158.5zM414 501l-152 189h139z" />
    <glyph glyph-name="aacute" unicode="&#xe1;" horiz-adv-x="513" 
d="M305 106q-39 -57 -71 -86.5t-70 -29.5q-72 0 -99.5 60.5t-2.5 164.5q29 116 105.5 180.5t169.5 64.5q26 0 46.5 -14t26.5 -30l113 44q-16 -66 -49 -200t-49 -200l89 40q-93 -110 -165 -110q-63 0 -54 75q1 1 5.5 20.5t4.5 20.5zM195 205q-33 -157 27 -154q38 1 89 82
l61 249q0 6 1 17t-8 21.5t-26 10.5q-42 -1 -83.5 -67.5t-60.5 -158.5zM324 501l48 189h159z" />
    <glyph glyph-name="acircumflex" unicode="&#xe2;" horiz-adv-x="513" 
d="M305 106q-39 -57 -71 -86.5t-70 -29.5q-72 0 -99.5 60.5t-2.5 164.5q29 116 105.5 180.5t169.5 64.5q26 0 46.5 -14t26.5 -30l113 44q-16 -66 -49 -200t-49 -200l89 40q-93 -110 -165 -110q-63 0 -54 75q1 1 5.5 20.5t4.5 20.5zM195 205q-33 -157 27 -154q38 1 89 82
l61 249q0 6 1 17t-8 21.5t-26 10.5q-42 -1 -83.5 -67.5t-60.5 -158.5zM365 570l-150 -70l173 165l91 -165z" />
    <glyph glyph-name="atilde" unicode="&#xe3;" horiz-adv-x="513" 
d="M305 106q-39 -57 -71 -86.5t-70 -29.5q-72 0 -99.5 60.5t-2.5 164.5q29 116 105.5 180.5t169.5 64.5q26 0 46.5 -14t26.5 -30l113 44q-16 -66 -49 -200t-49 -200l89 40q-93 -110 -165 -110q-63 0 -54 75q1 1 5.5 20.5t4.5 20.5zM195 205q-33 -157 27 -154q38 1 89 82
l61 249q0 6 1 17t-8 21.5t-26 10.5q-42 -1 -83.5 -67.5t-60.5 -158.5zM221 512q-2 68 31 102.5t69 38.5q45 5 78 -18q27 -18 39 -21.5t33 -0.5q25 3 47 23t27 48q5 -69 -31 -107.5t-83 -44.5q-44 -6 -80 17q-40 25 -73 25q-41 0 -57 -62z" />
    <glyph glyph-name="adieresis" unicode="&#xe4;" horiz-adv-x="513" 
d="M305 106q-39 -57 -71 -86.5t-70 -29.5q-72 0 -99.5 60.5t-2.5 164.5q29 116 105.5 180.5t169.5 64.5q26 0 46.5 -14t26.5 -30l113 44q-16 -66 -49 -200t-49 -200l89 40q-93 -110 -165 -110q-63 0 -54 75q1 1 5.5 20.5t4.5 20.5zM195 205q-33 -157 27 -154q38 1 89 82
l61 249q0 6 1 17t-8 21.5t-26 10.5q-42 -1 -83.5 -67.5t-60.5 -158.5zM204 589q8 31 33 51t56 20t45.5 -20t6.5 -51q-8 -30 -32.5 -50t-55.5 -20q-30 0 -45 20t-8 50zM394 589q8 31 33 51t56 20t45.5 -20t6.5 -51q-8 -30 -32.5 -50t-55.5 -20q-30 0 -45 20t-8 50z" />
    <glyph glyph-name="aring" unicode="&#xe5;" horiz-adv-x="513" 
d="M305 106q-39 -57 -71 -86.5t-70 -29.5q-72 0 -99.5 60.5t-2.5 164.5q29 116 105.5 180.5t169.5 64.5q26 0 46.5 -14t26.5 -30l113 44q-16 -66 -49 -200t-49 -200l89 40q-93 -110 -165 -110q-63 0 -54 75q1 1 5.5 20.5t4.5 20.5zM195 205q-33 -157 27 -154q38 1 89 82
l61 249q0 6 1 17t-8 21.5t-26 10.5q-42 -1 -83.5 -67.5t-60.5 -158.5zM291 583q8 34 37.5 58t64.5 24q34 0 52 -23.5t10 -58.5q-9 -35 -39 -58.5t-64 -23.5q-35 0 -52.5 24t-8.5 58zM330 583q-4 -17 5.5 -30t26.5 -13t32.5 13t20.5 30q4 17 -5.5 29.5t-26.5 12.5t-33 -12.5
t-20 -29.5z" />
    <glyph glyph-name="ae" unicode="&#xe6;" horiz-adv-x="717" 
d="M602 460q67 0 102.5 -26t31.5 -73q-8 -88 -152 -99l-129 -10q-4 -28 -5 -43q-5 -74 25.5 -105t81.5 -28q87 4 139 106q-20 -81 -84 -136.5t-146 -55.5q-103 0 -138 79q-94 -79 -190 -79q-56 0 -81.5 33.5t-13.5 81.5q5 20 14.5 37t19 29t30 25t32.5 20.5t42.5 19
t45.5 16.5l55.5 18.5l58.5 19.5l3 14q12 47 14 73t-7 40t-31 14q-32 0 -54.5 -21.5t-32.5 -61.5q-6 -26 -26 -43t-45 -17q-28 0 -35.5 17.5t-0.5 42.5q15 52 79.5 82t144.5 30q83 0 109 -44q70 44 143 44zM215 51q50 0 104 42q-17 56 2 132q5 19 12 39q-77 -25 -116.5 -52.5
t-50.5 -72.5q-9 -35 6.5 -61.5t42.5 -26.5zM463 279l67 6q77 5 84 78q3 35 -9 52.5t-29 17.5q-36 0 -67 -44.5t-46 -109.5z" />
    <glyph glyph-name="ccedilla" unicode="&#xe7;" horiz-adv-x="438" 
d="M184 -134q2 41 -37 41q-24 0 -48 -13l94 96q-84 5 -121 69.5t-12 165.5q25 105 100 170t170 65q67 0 100 -27t26 -75q-3 -25 -23 -47t-50 -22q-27 0 -36 19t-3 39q12 43 5.5 65t-34.5 22q-44 0 -82 -68t-44 -157q-4 -79 28.5 -108.5t78.5 -22.5q80 13 136 104
q-26 -81 -81 -132t-125 -58l-46 -48q32 0 46 -23t5 -59t-36.5 -59t-60.5 -23q-26 0 -38.5 9t-10.5 26q2 9 9.5 17t17.5 8q12 0 15.5 -7.5t1 -16t0.5 -15.5t15 -5q16 2 27 21.5t13 48.5z" />
    <glyph glyph-name="egrave" unicode="&#xe8;" horiz-adv-x="456" 
d="M341 460q67 0 102.5 -26t31.5 -73q-8 -88 -152 -99l-129 -10q-4 -28 -5 -43q-5 -74 25.5 -105t81.5 -28q87 4 139 106q-20 -81 -84 -136.5t-146 -55.5q-94 0 -132 67t-13 168q24 99 104.5 167t176.5 68zM202 279l67 6q77 5 84 78q3 35 -9 52.5t-29 17.5q-36 0 -67 -44.5
t-46 -109.5zM384 501l-152 189h139z" />
    <glyph glyph-name="eacute" unicode="&#xe9;" horiz-adv-x="456" 
d="M341 460q67 0 102.5 -26t31.5 -73q-8 -88 -152 -99l-129 -10q-4 -28 -5 -43q-5 -74 25.5 -105t81.5 -28q87 4 139 106q-20 -81 -84 -136.5t-146 -55.5q-94 0 -132 67t-13 168q24 99 104.5 167t176.5 68zM202 279l67 6q77 5 84 78q3 35 -9 52.5t-29 17.5q-36 0 -67 -44.5
t-46 -109.5zM274 501l48 189h159z" />
    <glyph glyph-name="ecircumflex" unicode="&#xea;" horiz-adv-x="456" 
d="M341 460q67 0 102.5 -26t31.5 -73q-8 -88 -152 -99l-129 -10q-4 -28 -5 -43q-5 -74 25.5 -105t81.5 -28q87 4 139 106q-20 -81 -84 -136.5t-146 -55.5q-94 0 -132 67t-13 168q24 99 104.5 167t176.5 68zM202 279l67 6q77 5 84 78q3 35 -9 52.5t-29 17.5q-36 0 -67 -44.5
t-46 -109.5zM355 570l-150 -70l173 165l91 -165z" />
    <glyph glyph-name="edieresis" unicode="&#xeb;" horiz-adv-x="456" 
d="M341 460q67 0 102.5 -26t31.5 -73q-8 -88 -152 -99l-129 -10q-4 -28 -5 -43q-5 -74 25.5 -105t81.5 -28q87 4 139 106q-20 -81 -84 -136.5t-146 -55.5q-94 0 -132 67t-13 168q24 99 104.5 167t176.5 68zM202 279l67 6q77 5 84 78q3 35 -9 52.5t-29 17.5q-36 0 -67 -44.5
t-46 -109.5zM184 589q8 31 33 51t56 20t45.5 -20t6.5 -51q-8 -30 -32.5 -50t-55.5 -20q-30 0 -45 20t-8 50zM374 589q8 31 33 51t56 20t45.5 -20t6.5 -51q-8 -30 -32.5 -50t-55.5 -20q-30 0 -45 20t-8 50z" />
    <glyph glyph-name="igrave" unicode="&#xec;" horiz-adv-x="304" 
d="M63 65l79 318l-54 29l203 48l-98 -400l89 40q-93 -110 -165 -110q-32 0 -47.5 18.5t-6.5 56.5zM274 501l-152 189h139z" />
    <glyph glyph-name="iacute" unicode="&#xed;" horiz-adv-x="304" 
d="M63 65l79 318l-54 29l203 48l-98 -400l89 40q-93 -110 -165 -110q-32 0 -47.5 18.5t-6.5 56.5zM194 501l48 189h159z" />
    <glyph glyph-name="icircumflex" unicode="&#xee;" horiz-adv-x="304" 
d="M63 65l79 318l-54 29l203 48l-98 -400l89 40q-93 -110 -165 -110q-32 0 -47.5 18.5t-6.5 56.5zM255 570l-150 -70l173 165l91 -165z" />
    <glyph glyph-name="idieresis" unicode="&#xef;" horiz-adv-x="304" 
d="M90 589q7 31 32.5 51t56.5 20t45.5 -20t6.5 -51q-8 -30 -33 -50t-56 -20q-30 0 -45 20t-7 50zM63 65l79 318l-54 29l203 48l-98 -400l89 40q-93 -110 -165 -110q-32 0 -47.5 18.5t-6.5 56.5zM270 589q7 31 32.5 51t56.5 20t45.5 -20t6.5 -51q-8 -30 -33 -50t-56 -20
q-30 0 -45 20t-7 50z" />
    <glyph glyph-name="eth" unicode="&#xf0;" horiz-adv-x="486" 
d="M258 505l-16 27l87 50q-56 80 -174 68q64 15 104 15q82 -1 140 -43l95 55l16 -27l-85 -49q54 -52 72.5 -136.5t-1.5 -189.5q-27 -131 -103 -208t-186 -77q-92 0 -137.5 66t-21.5 179q22 102 91 163.5t145 61.5q67 0 89 -51q2 87 -27 146zM192 210q-13 -89 -6.5 -138.5
t39.5 -49.5q43 0 72 60.5t43 157.5q27 188 -36 188q-41 0 -69.5 -60.5t-42.5 -157.5z" />
    <glyph glyph-name="ntilde" unicode="&#xf1;" horiz-adv-x="539" 
d="M293 460l-27 -113q99 113 168 113q114 0 74 -164l-58 -236l89 40q-93 -110 -165 -110q-32 0 -47.5 18.5t-6.5 56.5l53 218q17 61 15 89t-28 28q-35 0 -102 -83l-77 -317h-131l94 383l-54 29zM211 512q-2 68 31 102.5t69 38.5q45 5 78 -18q27 -18 39 -21.5t33 -0.5
q25 3 47 23t27 48q5 -69 -31 -107.5t-83 -44.5q-44 -6 -80 17q-40 25 -73 25q-41 0 -57 -62z" />
    <glyph glyph-name="ograve" unicode="&#xf2;" horiz-adv-x="482" 
d="M60 225q28 109 104.5 172t169.5 63t139.5 -63t18.5 -172q-26 -109 -103.5 -172t-170.5 -63t-138.5 63t-19.5 172zM202 210q-28 -188 34 -188q42 0 70.5 60.5t43.5 157.5q28 188 -34 188q-41 0 -70 -61t-44 -157zM374 501l-152 189h139z" />
    <glyph glyph-name="oacute" unicode="&#xf3;" horiz-adv-x="482" 
d="M60 225q28 109 104.5 172t169.5 63t139.5 -63t18.5 -172q-26 -109 -103.5 -172t-170.5 -63t-138.5 63t-19.5 172zM202 210q-28 -188 34 -188q42 0 70.5 60.5t43.5 157.5q28 188 -34 188q-41 0 -70 -61t-44 -157zM284 501l48 189h159z" />
    <glyph glyph-name="ocircumflex" unicode="&#xf4;" horiz-adv-x="482" 
d="M60 225q28 109 104.5 172t169.5 63t139.5 -63t18.5 -172q-26 -109 -103.5 -172t-170.5 -63t-138.5 63t-19.5 172zM202 210q-28 -188 34 -188q42 0 70.5 60.5t43.5 157.5q28 188 -34 188q-41 0 -70 -61t-44 -157zM355 570l-150 -70l173 165l91 -165z" />
    <glyph glyph-name="otilde" unicode="&#xf5;" horiz-adv-x="482" 
d="M60 225q28 109 104.5 172t169.5 63t139.5 -63t18.5 -172q-26 -109 -103.5 -172t-170.5 -63t-138.5 63t-19.5 172zM202 210q-28 -188 34 -188q42 0 70.5 60.5t43.5 157.5q28 188 -34 188q-41 0 -70 -61t-44 -157zM201 512q-2 68 31 102.5t69 38.5q45 5 78 -18
q27 -18 39 -21.5t33 -0.5q25 3 47 23t27 48q5 -69 -31 -107.5t-83 -44.5q-44 -6 -80 17q-40 25 -73 25q-41 0 -57 -62z" />
    <glyph glyph-name="odieresis" unicode="&#xf6;" horiz-adv-x="482" 
d="M60 225q28 109 104.5 172t169.5 63t139.5 -63t18.5 -172q-26 -109 -103.5 -172t-170.5 -63t-138.5 63t-19.5 172zM202 210q-28 -188 34 -188q42 0 70.5 60.5t43.5 157.5q28 188 -34 188q-41 0 -70 -61t-44 -157zM194 589q8 31 33 51t56 20t45.5 -20t6.5 -51
q-8 -30 -32.5 -50t-55.5 -20q-30 0 -45 20t-8 50zM384 589q8 31 33 51t56 20t45.5 -20t6.5 -51q-8 -30 -32.5 -50t-55.5 -20q-30 0 -45 20t-8 50z" />
    <glyph glyph-name="divide" unicode="&#xf7;" horiz-adv-x="530" 
d="M120 320v32h390v-32h-390zM244 189q0 31 20 51t51 20t50.5 -20t19.5 -51q0 -30 -20 -50t-51 -20q-30 0 -50 20t-20 50zM244 482q0 31 20 51t51 20t50.5 -20t19.5 -51q0 -30 -20 -50t-51 -20q-30 0 -50 20t-20 50z" />
    <glyph glyph-name="oslash" unicode="&#xf8;" horiz-adv-x="482" 
d="M495 468l28 -28l-47 -47q42 -65 16 -168q-26 -109 -103.5 -172t-170.5 -63q-70 0 -111 34l-47 -47l-28 28l48 48q-46 64 -20 172q28 109 104.5 172t169.5 63q71 0 115 -38zM202 210q-2 -15 -6 -41l163 163q3 96 -43 96q-41 0 -70 -61t-44 -157zM350 240q1 6 2.5 16
t1.5 15l-161 -161q0 -88 43 -88q42 0 70.5 60.5t43.5 157.5z" />
    <glyph glyph-name="ugrave" unicode="&#xf9;" horiz-adv-x="524" 
d="M76 412l203 48l-72 -293q-16 -61 -14 -89t29 -28q19 0 47.5 25.5t52.5 57.5l63 250q-9 5 -27 14.5t-27 14.5q34 8 101.5 24t101.5 24l-98 -400l89 40q-93 -110 -165 -110q-33 0 -48 19t-6 56l9 35q-98 -110 -169 -110q-115 0 -74 164l58 229zM364 501l-152 189h139z" />
    <glyph glyph-name="uacute" unicode="&#xfa;" horiz-adv-x="524" 
d="M76 412l203 48l-72 -293q-16 -61 -14 -89t29 -28q19 0 47.5 25.5t52.5 57.5l63 250q-9 5 -27 14.5t-27 14.5q34 8 101.5 24t101.5 24l-98 -400l89 40q-93 -110 -165 -110q-33 0 -48 19t-6 56l9 35q-98 -110 -169 -110q-115 0 -74 164l58 229zM324 501l48 189h159z" />
    <glyph glyph-name="ucircumflex" unicode="&#xfb;" horiz-adv-x="524" 
d="M76 412l203 48l-72 -293q-16 -61 -14 -89t29 -28q19 0 47.5 25.5t52.5 57.5l63 250q-9 5 -27 14.5t-27 14.5q34 8 101.5 24t101.5 24l-98 -400l89 40q-93 -110 -165 -110q-33 0 -48 19t-6 56l9 35q-98 -110 -169 -110q-115 0 -74 164l58 229zM355 570l-150 -70l173 165
l91 -165z" />
    <glyph glyph-name="udieresis" unicode="&#xfc;" horiz-adv-x="524" 
d="M76 412l203 48l-72 -293q-16 -61 -14 -89t29 -28q19 0 47.5 25.5t52.5 57.5l63 250q-9 5 -27 14.5t-27 14.5q34 8 101.5 24t101.5 24l-98 -400l89 40q-93 -110 -165 -110q-33 0 -48 19t-6 56l9 35q-98 -110 -169 -110q-115 0 -74 164l58 229zM204 589q8 31 33 51t56 20
t45.5 -20t6.5 -51q-8 -30 -32.5 -50t-55.5 -20q-30 0 -45 20t-8 50zM394 589q8 31 33 51t56 20t45.5 -20t6.5 -51q-8 -30 -32.5 -50t-55.5 -20q-30 0 -45 20t-8 50z" />
    <glyph glyph-name="yacute" unicode="&#xfd;" horiz-adv-x="478" 
d="M145 -96l79 106l-96 372q-22 10 -68 30q33 8 98.5 24t98.5 24l70 -305q62 90 82 137q7 16 -4.5 32.5t-25 35.5t-10.5 41q3 26 22 42.5t45 16.5q48 0 59 -39.5t-17 -88.5q-21 -39 -49.5 -82t-67 -98t-56.5 -82l-122 -171q-46 -64 -76 -88t-61 -24q-30 0 -49.5 19.5
t-15.5 51.5q4 29 22 44t42 15q21 0 35.5 -19.5t22.5 -20.5q20 -3 42 27zM304 501l48 189h159z" />
    <glyph glyph-name="thorn" unicode="&#xfe;" horiz-adv-x="497" 
d="M-70 -200l68 45l182 728l-54 29l203 48l-77 -306q79 116 151 116q66 0 97 -61.5t5 -163.5q-27 -115 -98 -180t-150 -65q-54 0 -82 35l-46 -180l50 -45h-249zM375 242q13 70 2 110t-42 40q-15 0 -42 -21.5t-47 -53.5l-53 -219q-11 -40 6 -59.5t44 -17.5q45 4 80 68t52 153
z" />
    <glyph glyph-name="ydieresis" unicode="&#xff;" horiz-adv-x="478" 
d="M145 -96l79 106l-96 372q-22 10 -68 30q33 8 98.5 24t98.5 24l70 -305q62 90 82 137q7 16 -4.5 32.5t-25 35.5t-10.5 41q3 26 22 42.5t45 16.5q48 0 59 -39.5t-17 -88.5q-21 -39 -49.5 -82t-67 -98t-56.5 -82l-122 -171q-46 -64 -76 -88t-61 -24q-30 0 -49.5 19.5
t-15.5 51.5q4 29 22 44t42 15q21 0 35.5 -19.5t22.5 -20.5q20 -3 42 27zM194 589q8 31 33 51t56 20t45.5 -20t6.5 -51q-8 -30 -32.5 -50t-55.5 -20q-30 0 -45 20t-8 50zM384 589q8 31 33 51t56 20t45.5 -20t6.5 -51q-8 -30 -32.5 -50t-55.5 -20q-30 0 -45 20t-8 50z" />
    <glyph glyph-name="Abreve" unicode="&#x102;" 
d="M-10 0l113 79l385 586l122 -620l59 -45h-284l70 42l-24 123h-229l-62 -92l54 -73h-204zM379 434l-155 -234h199zM508 737q-58 0 -84.5 35t-19.5 92q27 -57 122 -57t150 57q-22 -57 -66.5 -92t-101.5 -35z" />
    <glyph glyph-name="abreve" unicode="&#x103;" horiz-adv-x="513" 
d="M305 106q-39 -57 -71 -86.5t-70 -29.5q-72 0 -99.5 60.5t-2.5 164.5q29 116 105.5 180.5t169.5 64.5q26 0 46.5 -14t26.5 -30l113 44q-16 -66 -49 -200t-49 -200l89 40q-93 -110 -165 -110q-63 0 -54 75q1 1 5.5 20.5t4.5 20.5zM195 205q-33 -157 27 -154q38 1 89 82
l61 249q0 6 1 17t-8 21.5t-26 10.5q-42 -1 -83.5 -67.5t-60.5 -158.5zM348 537q-58 0 -84.5 35t-19.5 92q27 -57 122 -57t150 57q-22 -57 -66.5 -92t-101.5 -35z" />
    <glyph glyph-name="Aogonek" unicode="&#x104;" 
d="M-10 0l114 79l387 586l120 -620l58 -45h-120q-39 -39 -48 -65q-19 -59 34 -59q43 0 71 54q-1 -42 -33.5 -88t-84.5 -46q-37 0 -54.5 23.5t-6.5 68.5q15 60 82 112h-124l70 42l-23 123h-229l-61 -92l52 -73h-204zM381 434l-156 -234h199z" />
    <glyph glyph-name="aogonek" unicode="&#x105;" horiz-adv-x="513" 
d="M305 106q-39 -57 -71 -86.5t-70 -29.5q-72 0 -99.5 60.5t-2.5 164.5q29 116 105.5 180.5t169.5 64.5q26 0 46.5 -14t26.5 -30l113 44q-16 -66 -49 -200t-49 -200l89 40q-1 -1 -26 -24t-36.5 -35.5t-27.5 -35t-21 -40.5q-15 -57 26 -57q40 0 67 52q-1 -42 -33.5 -88
t-85.5 -46q-32 0 -48.5 21t-7.5 55q12 48 62 94q-17 -6 -34 -6q-63 0 -54 75q1 1 5.5 20.5t4.5 20.5zM195 205q-33 -157 27 -154q38 1 89 82l61 249q0 6 1 17t-8 21.5t-26 10.5q-42 -1 -83.5 -67.5t-60.5 -158.5z" />
    <glyph glyph-name="Cacute" unicode="&#x106;" horiz-adv-x="613" 
d="M721 665l-60 -245q-19 112 -50 162t-89 50q-86 0 -149.5 -80t-96.5 -216q-31 -125 3.5 -202t126.5 -77q68 0 130.5 51.5t90.5 118.5q-30 -105 -111 -171t-183 -66q-137 0 -199 94.5t-24 242.5q36 149 142.5 243.5t243.5 94.5q89 0 135 -45zM454 701l68 189h159z" />
    <glyph glyph-name="cacute" unicode="&#x107;" horiz-adv-x="438" 
d="M189 209q-4 -79 28.5 -108.5t78.5 -22.5q80 13 136 104q-27 -87 -89 -139.5t-138 -52.5q-89 0 -129.5 65t-15.5 170t100 170t170 65q67 0 100 -27t26 -75q-3 -25 -23 -47t-50 -22q-27 0 -36 19t-3 39q12 43 5.5 65t-34.5 22q-44 0 -82 -68t-44 -157zM254 501l78 189h159z
" />
    <glyph glyph-name="Ccaron" unicode="&#x10c;" horiz-adv-x="613" 
d="M721 665l-60 -245q-19 112 -50 162t-89 50q-86 0 -149.5 -80t-96.5 -216q-31 -125 3.5 -202t126.5 -77q68 0 130.5 51.5t90.5 118.5q-30 -105 -111 -171t-183 -66q-137 0 -199 94.5t-24 242.5q36 149 142.5 243.5t243.5 94.5q89 0 135 -45zM531 815l144 50l-170 -155
l-94 155z" />
    <glyph glyph-name="ccaron" unicode="&#x10d;" horiz-adv-x="438" 
d="M189 209q-4 -79 28.5 -108.5t78.5 -22.5q80 13 136 104q-27 -87 -89 -139.5t-138 -52.5q-89 0 -129.5 65t-15.5 170t100 170t170 65q67 0 100 -27t26 -75q-3 -25 -23 -47t-50 -22q-27 0 -36 19t-3 39q12 43 5.5 65t-34.5 22q-44 0 -82 -68t-44 -157zM347 605l137 60
l-160 -155l-84 155z" />
    <glyph glyph-name="Dcaron" unicode="&#x10e;" horiz-adv-x="673" 
d="M178 650h306q148 0 212 -84.5t27 -238.5q-39 -154 -144.5 -240.5t-252.5 -86.5h-306l80 44l138 562zM453 615h-59l-142 -580h59q167 0 241 292q70 288 -99 288zM481 815l144 50l-170 -155l-94 155z" />
    <glyph glyph-name="dcaron" unicode="&#x10f;" horiz-adv-x="654" 
d="M315 106q-79 -116 -151 -116t-99.5 60.5t-2.5 164.5q28 114 103 179.5t155 65.5q42 0 74 -35l40 163q-9 5 -27 14.5t-27 14.5q34 8 101.5 24t101.5 24l-148 -605l89 40q-93 -110 -165 -110q-63 0 -54 75zM198 205q-15 -71 -9 -112.5t39 -41.5q40 0 95 82l53 219
q10 40 -4.5 60.5t-37.5 19.5q-44 -2 -82 -68t-54 -159zM618 594q8 31 33 51t59 20q38 0 54.5 -28.5t3.5 -82.5q-13 -51 -64 -102.5t-116 -75.5q53 26 85.5 71.5t37.5 87.5q-20 -11 -41 -11q-33 0 -46.5 19.5t-5.5 50.5z" />
    <glyph glyph-name="Dcroat" unicode="&#x110;" horiz-adv-x="683" 
d="M57 310l8 32h120l66 264l-59 44h306q148 0 211.5 -84.5t24.5 -238.5t-145 -240.5t-253 -86.5h-306l80 44l67 266h-120zM466 615h-59l-68 -273h116l-8 -32h-116l-69 -275h59q84 0 145.5 74.5t96.5 217.5q72 288 -97 288z" />
    <glyph glyph-name="dcroat" unicode="&#x111;" horiz-adv-x="523" 
d="M312 520l8 32h105l9 36q-9 5 -27 14.5t-27 14.5q34 8 101.5 24t101.5 24l-28 -113h97l-8 -32h-97l-112 -460l89 40q-93 -110 -165 -110q-63 0 -54 75l10 41q-79 -116 -151 -116t-99.5 60.5t-2.5 164.5q28 114 103 179.5t155 65.5q42 0 74 -35l23 95h-105zM198 205
q-15 -71 -9 -112.5t39 -41.5q40 0 95 82l53 219q10 40 -4.5 60.5t-37.5 19.5q-44 -2 -82 -68t-54 -159z" />
    <glyph glyph-name="Eogonek" unicode="&#x118;" horiz-adv-x="614" 
d="M20 0l80 44l141 562l-59 44h539l-55 -220l-79 185h-190l-65 -260h86l115 103l-60 -240l-63 102h-87l-71 -285h199l177 185l-54 -220h-35q-39 -39 -48 -65q-19 -59 34 -59q43 0 71 54q-1 -42 -33.5 -88t-84.5 -46q-37 0 -54.5 23.5t-6.5 68.5q15 60 82 112h-479z" />
    <glyph glyph-name="eogonek" unicode="&#x119;" horiz-adv-x="456" 
d="M341 460q67 0 102.5 -26t31.5 -73q-8 -88 -152 -99l-129 -10q-4 -28 -5 -43q-5 -74 25.5 -105t81.5 -28q87 4 139 106q-10 -40 -33 -72.5t-62 -73.5q-40 -44 -49 -71q-9 -25 -2 -41t28 -16q40 0 67 52q-1 -42 -33.5 -88t-85.5 -46q-32 0 -48.5 21t-7.5 55q6 23 19.5 44
t21.5 29.5t29 27.5q-37 -13 -74 -13q-94 0 -132 67t-13 168q24 99 104.5 167t176.5 68zM202 279l67 6q77 5 84 78q3 35 -9 52.5t-29 17.5q-36 0 -67 -44.5t-46 -109.5z" />
    <glyph glyph-name="Ecaron" unicode="&#x11a;" horiz-adv-x="614" 
d="M20 0l80 44l138 562l-60 44h539l-54 -220l-79 185h-190l-64 -260h86l115 103l-60 -240l-62 102h-87l-70 -285h199l177 185l-54 -220h-554zM501 815l144 50l-170 -155l-94 155z" />
    <glyph glyph-name="ecaron" unicode="&#x11b;" horiz-adv-x="456" 
d="M341 460q67 0 102.5 -26t31.5 -73q-8 -88 -152 -99l-129 -10q-4 -28 -5 -43q-5 -74 25.5 -105t81.5 -28q87 4 139 106q-20 -81 -84 -136.5t-146 -55.5q-94 0 -132 67t-13 168q24 99 104.5 167t176.5 68zM202 279l67 6q77 5 84 78q3 35 -9 52.5t-29 17.5q-36 0 -67 -44.5
t-46 -109.5zM347 605l137 60l-160 -155l-84 155z" />
    <glyph glyph-name="Lacute" unicode="&#x139;" horiz-adv-x="617" 
d="M631 220l-54 -220h-557l80 44l138 562l-60 44h314l-102 -54l-138 -561h202zM324 701l68 189h159z" />
    <glyph glyph-name="lacute" unicode="&#x13a;" horiz-adv-x="271" 
d="M53 65l129 523l-54 29l203 48l-148 -605l89 40q-93 -110 -165 -110q-32 0 -47.5 18.5t-6.5 56.5zM234 701l78 189h159z" />
    <glyph glyph-name="Lcaron" unicode="&#x13d;" horiz-adv-x="617" 
d="M631 220l-54 -220h-557l80 44l138 562l-60 44h314l-102 -54l-138 -561h202zM371 815l144 50l-170 -155l-94 155z" />
    <glyph glyph-name="lcaron" unicode="&#x13e;" horiz-adv-x="404" 
d="M53 65l129 523l-54 29l203 48l-148 -605l89 40q-93 -110 -165 -110q-32 0 -47.5 18.5t-6.5 56.5zM378 594q8 31 33 51t59 20q38 0 54.5 -28.5t3.5 -82.5q-13 -51 -64 -102.5t-116 -75.5q53 26 85.5 71.5t37.5 87.5q-20 -11 -41 -11q-33 0 -46.5 19.5t-5.5 50.5z" />
    <glyph glyph-name="Lslash" unicode="&#x141;" horiz-adv-x="637" 
d="M68 205l-10 27l125 63l78 311l-59 44h314l-104 -54l-53 -212l125 63l9 -27l-143 -73l-78 -312h202l177 185l-54 -220h-557l80 44l54 214z" />
    <glyph glyph-name="lslash" unicode="&#x142;" horiz-adv-x="365" 
d="M39 215l-9 27l113 56l72 290l-54 29l203 48l-72 -294l93 46l10 -27l-112 -55l-67 -275l89 40q-93 -110 -165 -110q-32 0 -47.5 18.5t-6.5 56.5l48 197z" />
    <glyph glyph-name="Nacute" unicode="&#x143;" horiz-adv-x="719" 
d="M179 84l80 -84h-239l110 84l116 473l-68 93h191l251 -398l78 314l-70 84h229l-110 -84l-142 -581l-322 521zM474 701l68 189h159z" />
    <glyph glyph-name="nacute" unicode="&#x144;" horiz-adv-x="539" 
d="M293 460l-27 -113q99 113 168 113q114 0 74 -164l-58 -236l89 40q-93 -110 -165 -110q-32 0 -47.5 18.5t-6.5 56.5l53 218q17 61 15 89t-28 28q-35 0 -102 -83l-77 -317h-131l94 383l-54 29zM284 501l78 189h159z" />
    <glyph glyph-name="Ncaron" unicode="&#x147;" horiz-adv-x="719" 
d="M179 84l80 -84h-239l110 84l116 473l-68 93h191l251 -398l78 314l-70 84h229l-110 -84l-142 -581l-322 521zM541 815l144 50l-170 -155l-94 155z" />
    <glyph glyph-name="ncaron" unicode="&#x148;" horiz-adv-x="539" 
d="M293 460l-27 -113q99 113 168 113q114 0 74 -164l-58 -236l89 40q-93 -110 -165 -110q-32 0 -47.5 18.5t-6.5 56.5l53 218q17 61 15 89t-28 28q-35 0 -102 -83l-77 -317h-131l94 383l-54 29zM377 605l137 60l-160 -155l-84 155z" />
    <glyph glyph-name="Ohungarumlaut" unicode="&#x150;" 
d="M110 327q36 149 142.5 243.5t243.5 94.5q138 0 198.5 -94.5t24.5 -243.5q-38 -149 -145 -243t-244 -94t-197.5 94t-22.5 243zM282 327q-18 -73 -25.5 -124t-4.5 -94.5t24.5 -65t62.5 -21.5q78 0 125 77t84 228q18 73 25 124.5t4 95t-25 65t-63 21.5t-73 -21.5
t-56.5 -65.5t-42 -94.5t-35.5 -124.5zM374 701l68 189h159zM564 701l68 189h159z" />
    <glyph glyph-name="ohungarumlaut" unicode="&#x151;" horiz-adv-x="482" 
d="M60 225q28 109 104.5 172t169.5 63t139.5 -63t18.5 -172q-26 -109 -103.5 -172t-170.5 -63t-138.5 63t-19.5 172zM202 210q-28 -188 34 -188q42 0 70.5 60.5t43.5 157.5q28 188 -34 188q-41 0 -70 -61t-44 -157zM204 501l78 189h159zM384 501l78 189h159z" />
    <glyph glyph-name="OE" unicode="&#x152;" horiz-adv-x="913" 
d="M509 650h511l-55 -220l-79 185h-170l-65 -260h76l115 103l-60 -240l-63 102h-77l-71 -285h179l177 185l-54 -220h-526q-147 0 -211 86.5t-25 240.5t144.5 238.5t253.5 84.5zM562 615h-39q-169 0 -241 -288q-36 -142 -11.5 -217t107.5 -75h39z" />
    <glyph glyph-name="oe" unicode="&#x153;" horiz-adv-x="760" 
d="M60 225q28 109 104.5 172t169.5 63q96 0 140 -64q80 64 171 64q67 0 102.5 -26t31.5 -73q-8 -88 -152 -99l-129 -10q-4 -28 -5 -43q-5 -74 25.5 -105t81.5 -28q87 4 139 106q-20 -81 -84 -136.5t-146 -55.5q-87 0 -127 58q-73 -58 -164 -58q-93 0 -138.5 63t-19.5 172z
M202 210q-28 -188 34 -188q42 0 70.5 60.5t43.5 157.5q28 188 -34 188q-41 0 -70 -61t-44 -157zM506 279l67 6q77 5 84 78q3 35 -9 52.5t-29 17.5q-36 0 -67 -44.5t-46 -109.5z" />
    <glyph glyph-name="Racute" unicode="&#x154;" horiz-adv-x="677" 
d="M178 650h317q113 0 170 -42.5t34 -134.5q-17 -71 -75 -112t-146 -52q58 -13 83.5 -49t39.5 -96l19 -111l57 -53h-214l-29 200q-11 49 -31.5 72.5t-64.5 23.5h-22l-62 -252l60 -44h-294l80 44l138 562zM394 615l-70 -284h56q55 0 100 37t62 105q17 74 -10.5 108t-84.5 34
h-53zM434 701l68 189h159z" />
    <glyph glyph-name="racute" unicode="&#x155;" horiz-adv-x="434" 
d="M181 0h-131l94 383l-54 29l203 48l-28 -112l46 56q25 31 47 43.5t52 12.5q33 0 50.5 -18t11.5 -50q-6 -31 -26.5 -49t-47.5 -18q-51 0 -44 59q3 29 -10 29q-10 0 -24 -18l-63 -78zM264 501l78 189h159z" />
    <glyph glyph-name="Rcaron" unicode="&#x158;" horiz-adv-x="677" 
d="M178 650h317q113 0 170 -42.5t34 -134.5q-17 -71 -75 -112t-146 -52q58 -13 83.5 -49t39.5 -96l19 -111l57 -53h-214l-29 200q-11 49 -31.5 72.5t-64.5 23.5h-22l-62 -252l60 -44h-294l80 44l138 562zM394 615l-70 -284h56q55 0 100 37t62 105q17 74 -10.5 108t-84.5 34
h-53zM491 815l144 50l-170 -155l-94 155z" />
    <glyph glyph-name="rcaron" unicode="&#x159;" horiz-adv-x="434" 
d="M181 0h-131l94 383l-54 29l203 48l-28 -112l46 56q25 31 47 43.5t52 12.5q33 0 50.5 -18t11.5 -50q-6 -31 -26.5 -49t-47.5 -18q-51 0 -44 59q3 29 -10 29q-10 0 -24 -18l-63 -78zM347 605l137 60l-160 -155l-84 155z" />
    <glyph glyph-name="Sacute" unicode="&#x15a;" horiz-adv-x="557" 
d="M641 665l-58 -235q-14 53 -25 84.5t-29.5 62t-44.5 43.5t-63 13q-51 0 -95.5 -24t-55.5 -70q-8 -31 6 -49.5t53 -36.5l158 -72q121 -53 84 -194q-21 -85 -91 -141t-177 -56q-44 0 -83 16t-53 33l-109 -49l60 245q14 -48 23.5 -74.5t26 -57t35 -45.5t47.5 -25.5t68 -10.5
q58 0 98 27.5t51 68.5q9 40 -7 62.5t-51 40.5l-153 73q-112 52 -84 169q25 101 97.5 151.5t156.5 50.5q38 0 72.5 -11.5t50.5 -25.5zM404 701l48 189h159z" />
    <glyph glyph-name="sacute" unicode="&#x15b;" horiz-adv-x="409" 
d="M371 436l58 24l-46 -172q-25 140 -108 140q-34 0 -57 -14t-29 -37q-8 -27 4 -44.5t46 -34.5l63 -32q43 -22 64 -61.5t8 -91.5q-31 -123 -180 -123q-26 0 -54.5 9t-42.5 22l-77 -31l44 174q18 -75 49 -108.5t80 -33.5q28 0 48 14t25 37q9 36 -13.5 57.5t-66.5 38.5
q-53 21 -76.5 60t-11.5 92q17 72 67 105.5t116 33.5q62 0 90 -24zM274 501l48 189h159z" />
    <glyph glyph-name="Scaron" unicode="&#x160;" horiz-adv-x="557" 
d="M641 665l-58 -235q-14 53 -25 84.5t-29.5 62t-44.5 43.5t-63 13q-51 0 -95.5 -24t-55.5 -70q-8 -31 6 -49.5t53 -36.5l158 -72q121 -53 84 -194q-21 -85 -91 -141t-177 -56q-44 0 -83 16t-53 33l-109 -49l60 245q14 -48 23.5 -74.5t26 -57t35 -45.5t47.5 -25.5t68 -10.5
q58 0 98 27.5t51 68.5q9 40 -7 62.5t-51 40.5l-153 73q-112 52 -84 169q25 101 97.5 151.5t156.5 50.5q38 0 72.5 -11.5t50.5 -25.5zM471 815l144 50l-170 -155l-94 155z" />
    <glyph glyph-name="scaron" unicode="&#x161;" horiz-adv-x="409" 
d="M371 436l58 24l-46 -172q-25 140 -108 140q-34 0 -57 -14t-29 -37q-8 -27 4 -44.5t46 -34.5l63 -32q43 -22 64 -61.5t8 -91.5q-31 -123 -180 -123q-26 0 -54.5 9t-42.5 22l-77 -31l44 174q18 -75 49 -108.5t80 -33.5q28 0 48 14t25 37q9 36 -13.5 57.5t-66.5 38.5
q-53 21 -76.5 60t-11.5 92q17 72 67 105.5t116 33.5q62 0 90 -24zM307 605l137 60l-160 -155l-84 155z" />
    <glyph glyph-name="Tcommaaccent" unicode="&#x162;" horiz-adv-x="658" 
d="M786 650l-54 -220l-85 185h-91l-138 -561l78 -54h-334l102 54l138 561h-91l-177 -185l54 220h598zM214 -140q8 31 33.5 51t59.5 20q38 0 54.5 -28.5t2.5 -82.5q-12 -51 -63 -102.5t-116 -75.5q53 26 85.5 71.5t37.5 87.5q-20 -11 -41 -11q-33 0 -47 19.5t-6 50.5z" />
    <glyph glyph-name="tcommaaccent" unicode="&#x163;" horiz-adv-x="337" 
d="M101 423l237 169l-34 -142h73l-8 -27h-73l-78 -321q-10 -40 22 -38q37 3 81 44l4 4q-33 -54 -82 -88t-90 -34q-93 0 -67 104l80 329h-65zM54 -140q8 31 33.5 51t59.5 20q38 0 54.5 -28.5t2.5 -82.5q-12 -51 -63 -102.5t-116 -75.5q53 26 85.5 71.5t37.5 87.5
q-20 -11 -41 -11q-33 0 -47 19.5t-6 50.5z" />
    <glyph glyph-name="Tcaron" unicode="&#x164;" horiz-adv-x="658" 
d="M786 650l-54 -220l-85 185h-91l-138 -561l78 -54h-334l102 54l138 561h-91l-177 -185l54 220h598zM521 815l144 50l-170 -155l-94 155z" />
    <glyph glyph-name="tcaron" unicode="&#x165;" horiz-adv-x="424" 
d="M338 592l-237 -169h65l-80 -329q-26 -104 67 -104q41 0 90 34t82 88q-43 -42 -81 -47q-31 -5 -28 26q1 5 2 11l78 321h73l8 27h-73zM398 594q8 31 33 51t59 20q38 0 54.5 -28.5t3.5 -82.5q-13 -51 -64 -102.5t-116 -75.5q53 26 85.5 71.5t37.5 87.5q-20 -11 -41 -11
q-33 0 -46.5 19.5t-5.5 50.5z" />
    <glyph glyph-name="Uring" unicode="&#x16e;" horiz-adv-x="692" 
d="M168 650l60 -44l-84 -338q-68 -278 203 -278q63 0 117 23.5t91 63t61.5 85.5t37.5 97l76 307l110 84h-229l70 -84l-76 -312q-9 -37 -25 -71.5t-41.5 -67t-63.5 -52t-84 -19.5q-37 0 -61 13.5t-34.5 34t-12 51.5t2.5 58.5t12 61.5l84 343l80 44h-294zM469 783
q8 34 37.5 58t64.5 24q34 0 52 -23.5t10 -58.5q-9 -35 -39 -58.5t-64 -23.5q-35 0 -52.5 24t-8.5 58zM508 783q-4 -17 5.5 -30t26.5 -13t32.5 13t20.5 30q4 17 -5.5 29.5t-26.5 12.5t-33 -12.5t-20 -29.5z" />
    <glyph glyph-name="uring" unicode="&#x16f;" horiz-adv-x="524" 
d="M76 412l203 48l-72 -293q-16 -61 -14 -89t29 -28q19 0 47.5 25.5t52.5 57.5l63 250q-9 5 -27 14.5t-27 14.5q34 8 101.5 24t101.5 24l-98 -400l89 40q-93 -110 -165 -110q-33 0 -48 19t-6 56l9 35q-98 -110 -169 -110q-115 0 -74 164l58 229zM281 583q8 34 37.5 58
t64.5 24q34 0 52 -23.5t10 -58.5q-9 -35 -39 -58.5t-64 -23.5q-35 0 -52.5 24t-8.5 58zM320 583q-4 -17 5.5 -30t26.5 -13t32.5 13t20.5 30q4 17 -5.5 29.5t-26.5 12.5t-33 -12.5t-20 -29.5z" />
    <glyph glyph-name="Uhungarumlaut" unicode="&#x170;" horiz-adv-x="692" 
d="M228 606l-60 44h294l-80 -44l-84 -343q-8 -34 -12 -61.5t-2.5 -58.5t12 -51.5t34.5 -34t61 -13.5q46 0 84 19.5t63.5 52t41.5 67t25 71.5l76 312l-70 84h229l-110 -84l-76 -307q-13 -51 -37.5 -97t-61.5 -85.5t-91 -63t-117 -23.5q-271 0 -203 278zM364 701l68 189h159z
M554 701l68 189h159z" />
    <glyph glyph-name="uhungarumlaut" unicode="&#x171;" horiz-adv-x="524" 
d="M76 412l203 48l-72 -293q-16 -61 -14 -89t29 -28q19 0 47.5 25.5t52.5 57.5l63 250q-9 5 -27 14.5t-27 14.5q34 8 101.5 24t101.5 24l-98 -400l89 40q-93 -110 -165 -110q-33 0 -48 19t-6 56l9 35q-98 -110 -169 -110q-115 0 -74 164l58 229zM194 501l78 189h159z
M374 501l78 189h159z" />
    <glyph glyph-name="Ydieresis" unicode="&#x178;" horiz-adv-x="710" 
d="M455 650l-59 -38l105 -267l206 242l-48 63h209l-122 -73l-229 -274l-64 -259l60 -44h-294l80 44l58 238l-127 324l-62 44h287zM394 798q8 31 33 51t56 20t45.5 -20t6.5 -51q-8 -30 -32.5 -50t-55.5 -20q-30 0 -45 20t-8 50zM614 798q8 31 33 51t56 20t45.5 -20t6.5 -51
q-8 -30 -32.5 -50t-55.5 -20q-30 0 -45 20t-8 50z" />
    <glyph glyph-name="Zacute" unicode="&#x179;" horiz-adv-x="582" 
d="M150 430l54 220h496l-483 -615h202l177 185l-54 -220h-522l482 615h-175zM424 701l48 189h159z" />
    <glyph glyph-name="zacute" unicode="&#x17a;" horiz-adv-x="429" 
d="M-10 -10l332 353h-177l-62 -77l59 184h337l-321 -335q17 5 34 5q12 0 51 -9.5t66 -9.5q33 0 68.5 17t54.5 42q-40 -90 -78 -130t-90 -40q-23 0 -72.5 10t-79.5 10q-66 0 -122 -20zM264 501l48 189h159z" />
    <glyph glyph-name="Zdotaccent" unicode="&#x17b;" horiz-adv-x="582" 
d="M150 430l54 220h496l-483 -615h202l177 185l-54 -220h-522l482 615h-175zM400 789q7 31 32.5 51t56.5 20t45.5 -20t6.5 -51q-8 -30 -33 -50t-56 -20q-30 0 -45 20t-7 50z" />
    <glyph glyph-name="zdotaccent" unicode="&#x17c;" horiz-adv-x="429" 
d="M-10 -10q56 20 122 20q30 0 79.5 -10t72.5 -10q52 0 90 40t78 130q-19 -25 -54.5 -42t-68.5 -17q-27 0 -66 9.5t-51 9.5q-17 0 -34 -5l321 335h-337l-59 -184l62 77h177zM254 589q7 31 32.5 51t56.5 20t45.5 -20t6.5 -51q-8 -30 -33 -50t-56 -20q-30 0 -45 20t-7 50z" />
    <glyph glyph-name="Zcaron" unicode="&#x17d;" horiz-adv-x="582" 
d="M491 815l144 50l-170 -155l-94 155zM150 430l54 220h496l-483 -615h202l177 185l-54 -220h-522l482 615h-175z" />
    <glyph glyph-name="zcaron" unicode="&#x17e;" horiz-adv-x="429" 
d="M-10 -10l332 353h-177l-62 -77l59 184h337l-321 -335q17 5 34 5q12 0 51 -9.5t66 -9.5q33 0 68.5 17t54.5 42q-40 -90 -78 -130t-90 -40q-23 0 -72.5 10t-79.5 10q-66 0 -122 -20zM327 605l137 60l-160 -155l-84 155z" />
    <glyph glyph-name="Scommaaccent" unicode="&#x218;" horiz-adv-x="557" 
d="M641 665l-58 -235q-14 53 -25 84.5t-29.5 62t-44.5 43.5t-63 13q-51 0 -95.5 -24t-55.5 -70q-8 -31 6 -49.5t53 -36.5l158 -72q121 -53 84 -194q-21 -85 -91 -141t-177 -56q-44 0 -83 16t-53 33l-109 -49l60 245q14 -48 23.5 -74.5t26 -57t35 -45.5t47.5 -25.5t68 -10.5
q58 0 98 27.5t51 68.5q9 40 -7 62.5t-51 40.5l-153 73q-112 52 -84 169q25 101 97.5 151.5t156.5 50.5q38 0 72.5 -11.5t50.5 -25.5zM174 -140q8 31 33.5 51t59.5 20q38 0 54.5 -28.5t2.5 -82.5q-12 -51 -63 -102.5t-116 -75.5q53 26 85.5 71.5t37.5 87.5q-20 -11 -41 -11
q-33 0 -47 19.5t-6 50.5z" />
    <glyph glyph-name="scommaaccent" unicode="&#x219;" horiz-adv-x="409" 
d="M371 436l58 24l-46 -172q-25 140 -108 140q-34 0 -57 -14t-29 -37q-8 -27 4 -44.5t46 -34.5l63 -32q43 -22 64 -61.5t8 -91.5q-31 -123 -180 -123q-26 0 -54.5 9t-42.5 22l-77 -31l44 174q18 -75 49 -108.5t80 -33.5q28 0 48 14t25 37q9 36 -13.5 57.5t-66.5 38.5
q-53 21 -76.5 60t-11.5 92q17 72 67 105.5t116 33.5q62 0 90 -24zM64 -140q8 31 33.5 51t59.5 20q38 0 54.5 -28.5t2.5 -82.5q-12 -51 -63 -102.5t-116 -75.5q53 26 85.5 71.5t37.5 87.5q-20 -11 -41 -11q-33 0 -47 19.5t-6 50.5z" />
    <glyph glyph-name="afii10023" unicode="&#x401;" horiz-adv-x="614" 
d="M20 0l80 44l138 562l-60 44h539l-54 -220l-79 185h-190l-64 -260h86l115 103l-60 -240l-62 102h-87l-70 -285h199l177 185l-54 -220h-554zM304 798q8 31 33 51t56 20t45.5 -20t6.5 -51q-8 -30 -32.5 -50t-55.5 -20q-30 0 -45 20t-8 50zM524 798q8 31 33 51t56 20
t45.5 -20t6.5 -51q-8 -30 -32.5 -50t-55.5 -20q-30 0 -45 20t-8 50z" />
    <glyph glyph-name="afii10051" unicode="&#x402;" horiz-adv-x="808" 
d="M819 236l-5 -23q-25 -99 -90.5 -161t-144.5 -62q-51 0 -81 21t-24 61q6 32 28 53t52 21q57 0 38 -74q-10 -42 -4 -49q4 -4 11 -4t13 2.5t11.5 8t10 12t8.5 18t7.5 21.5t8 27t7.5 30t8.5 35.5t9.5 39.5l2 10q18 61 1.5 94t-72.5 33q-36 0 -76 -18t-61 -45l-58 -233l47 -54
h-304l103 54l140 561h-91l-177 -185l55 220h598l-55 -220l-85 185h-91l-74 -298q101 93 204 93q90 0 120 -47t10 -127z" />
    <glyph glyph-name="afii10052" unicode="&#x403;" horiz-adv-x="574" 
d="M702 650l-54 -220l-85 185h-169l-138 -561l78 -54h-314l80 44l138 562l-60 44h524zM414 701l48 189h159z" />
    <glyph glyph-name="afii10053" unicode="&#x404;" horiz-adv-x="613" 
d="M721 665l-60 -245q-19 112 -50 162t-89 50q-83 0 -145.5 -74.5t-96.5 -202.5h136l109 103l-68 -240l-50 102h-135q-25 -119 10 -191t124 -72q68 0 130.5 51.5t90.5 118.5q-30 -105 -111 -171t-183 -66q-137 0 -199 94.5t-24 242.5q36 149 142.5 243.5t243.5 94.5
q89 0 135 -45z" />
    <glyph glyph-name="afii10054" unicode="&#x405;" horiz-adv-x="557" 
d="M641 665l-58 -235q-14 53 -25 84.5t-29.5 62t-44.5 43.5t-63 13q-51 0 -95.5 -24t-55.5 -70q-8 -31 6 -49.5t53 -36.5l158 -72q121 -53 84 -194q-21 -85 -91 -141t-177 -56q-44 0 -83 16t-53 33l-109 -49l60 245q14 -48 23.5 -74.5t26 -57t35 -45.5t47.5 -25.5t68 -10.5
q58 0 98 27.5t51 68.5q9 40 -7 62.5t-51 40.5l-153 73q-112 52 -84 169q25 101 97.5 151.5t156.5 50.5q38 0 72.5 -11.5t50.5 -25.5z" />
    <glyph glyph-name="uni0406" unicode="&#x406;" horiz-adv-x="334" 
d="M472 650l-80 -44l-138 -562l60 -44h-294l80 44l138 562l-60 44h294z" />
    <glyph glyph-name="afii10056" unicode="&#x407;" horiz-adv-x="334" 
d="M472 650l-80 -44l-138 -562l60 -44h-294l80 44l138 562l-60 44h294zM200 789q7 31 32.5 51t56.5 20t45.5 -20t6.5 -51q-8 -30 -33 -50t-56 -20q-30 0 -45 20t-7 50zM380 789q7 31 32.5 51t56.5 20t45.5 -20t6.5 -51q-8 -30 -33 -50t-56 -20q-30 0 -45 20t-7 50z" />
    <glyph glyph-name="afii10057" unicode="&#x408;" horiz-adv-x="466" 
d="M614 650l-80 -44l-92 -376q-28 -116 -99 -178t-171 -62q-86 0 -119 33.5t-23 81.5q10 42 37 65.5t57 23.5q39 0 50 -25t-6 -60q-14 -35 -16 -55t5.5 -26t22.5 -6q45 0 75 87q12 37 37 141l88 356l-60 44h294z" />
    <glyph glyph-name="afii10058" unicode="&#x409;" horiz-adv-x="958" 
d="M585 615h-187l-84 -335q-72 -290 -223 -290q-38 0 -59 20t-15 59q5 36 30.5 53.5t52.5 17.5q23 0 33.5 -12t10.5 -26t4 -24t16 -7q28 7 57.5 78t48.5 151l77 306l-79 44h550l-81 -44l-54 -216h106q115 0 168 -50t29 -145q-24 -96 -101.5 -145.5t-192.5 -49.5h-330l80 44z
M594 35h46q64 0 114 40.5t69 119.5q20 79 -9.5 119.5t-93.5 40.5h-46z" />
    <glyph glyph-name="afii10059" unicode="&#x40a;" horiz-adv-x="996" 
d="M621 606l-59 44h294l-81 -44l-54 -216h106q115 0 168 -50t29 -145q-24 -96 -101.5 -145.5t-192.5 -49.5h-330l80 44l69 276h-226l-69 -276l60 -44h-294l80 44l141 562l-59 44h294l-81 -44l-63 -251h226zM632 35h46q64 0 114 40.5t69 119.5q20 79 -9.5 119.5t-93.5 40.5
h-46z" />
    <glyph glyph-name="afii10060" unicode="&#x40b;" horiz-adv-x="795" 
d="M586 65l42 168q16 61 7 89t-51 28q-58 0 -107 -63q-10 -39 -29.5 -116.5t-28.5 -116.5q13 -9 38.5 -27t38.5 -27h-334q17 9 51.5 27t51.5 27q24 93 70.5 280t69.5 281h-91q-30 -31 -89 -92.5t-88 -92.5q9 36 27.5 109.5t27.5 110.5h598q-9 -37 -27.5 -110.5t-27.5 -109.5
q-14 31 -42.5 92.5t-42.5 92.5h-91q-13 -49 -37.5 -148.5t-36.5 -149.5q59 55 86 70q42 23 88 23q56 0 84 -20.5t29.5 -57t-10.5 -86.5q-8 -37 -26 -107.5t-20 -78.5q15 7 44.5 20t44.5 20q-93 -110 -165 -110q-32 0 -47.5 18.5t-6.5 56.5z" />
    <glyph glyph-name="afii10061" unicode="&#x40c;" horiz-adv-x="687" 
d="M472 650l-80 -44l-62 -251h40q41 1 67.5 25t57.5 79l66 118q49 88 138 88q42 0 64 -21.5t12 -59.5q-8 -36 -35 -54.5t-55 -18.5q-29 0 -39.5 16.5t-13.5 33t-14 16.5q-14 0 -30 -25l-66 -114q-44 -73 -75 -90q52 -13 87.5 -44t53.5 -107l34 -152l55 -45h-214l-31 205
q-12 65 -32.5 90t-59.5 25h-18l-68 -276l60 -44h-294l80 44l138 562l-60 44h294zM454 701l48 189h159z" />
    <glyph glyph-name="afii10062" unicode="&#x40e;" horiz-adv-x="635" 
d="M783 650l-104 -80l-347 -486q-36 -49 -67.5 -71.5t-71.5 -22.5q-39 0 -58 22t-10 56q7 31 30 50.5t48 19.5q19 0 30.5 -8.5t14.5 -19t9.5 -19t17.5 -8.5q17 0 37 29l45 63l-142 428l-47 47h264l-58 -36l94 -282l175 246l-50 72h190zM419 891q27 0 43 -19.5t10 -45.5
q-5 -20 -19.5 -38t-13.5 -26q1 -24 65 -24q63 0 77 24q5 8 -0.5 26t-0.5 38q6 27 31 46t55 19q35 0 48.5 -21t5.5 -51q-12 -48 -75 -76.5t-147 -28.5t-133 28.5t-37 76.5q8 31 32 51.5t59 20.5z" />
    <glyph glyph-name="afii10145" unicode="&#x40f;" horiz-adv-x="714" 
d="M302 -200l-26 200h-256l80 44l141 562l-59 44h294l-91 -44l-143 -571h236l143 571l-59 44h294l-81 -44l-141 -562l60 -44h-266z" />
    <glyph glyph-name="afii10017" unicode="&#x410;" 
d="M-10 0l113 79l385 586l122 -620l59 -45h-284l70 42l-24 123h-229l-62 -92l54 -73h-204zM379 434l-155 -234h199z" />
    <glyph glyph-name="afii10018" unicode="&#x411;" horiz-adv-x="616" 
d="M693 650l-41 -200l-99 165h-159l-56 -225h106q115 0 168.5 -49.5t29.5 -145.5t-100.5 -145.5t-191.5 -49.5h-330l80 44l138 562l-60 44h515zM376 355h-46l-78 -320h46q64 0 113 40.5t68 119.5q20 79 -9.5 119.5t-93.5 40.5z" />
    <glyph glyph-name="afii10019" unicode="&#x412;" horiz-adv-x="626" 
d="M238 606l-60 44h300q121 0 177.5 -34.5t34.5 -125.5q-17 -65 -70 -104.5t-132 -45.5q90 -5 132.5 -46t24.5 -112q-44 -182 -295 -182h-330l80 44zM322 320l-70 -285h66q127 0 164 145q18 75 -14.5 107.5t-89.5 32.5h-56zM394 615l-64 -260h40q131 4 163 134
q18 75 -11 100.5t-92 25.5h-36z" />
    <glyph glyph-name="afii10020" unicode="&#x413;" horiz-adv-x="574" 
d="M702 650l-54 -220l-85 185h-169l-138 -561l78 -54h-314l80 44l138 562l-60 44h524z" />
    <glyph glyph-name="afii10021" unicode="&#x414;" horiz-adv-x="676" 
d="M-48 -200l56 235h34q25 0 47.5 11.5t39.5 27.5t34 45t27.5 51t23.5 59.5t18.5 56t15.5 54.5l74 266l-90 44h582l-80 -44l-140 -571h90l-58 -235l-89 200h-398zM582 615h-215l-81 -295q-65 -230 -147 -285h301z" />
    <glyph glyph-name="afii10022" unicode="&#x415;" horiz-adv-x="614" 
d="M20 0l80 44l138 562l-60 44h539l-54 -220l-79 185h-190l-64 -260h86l115 103l-60 -240l-62 102h-87l-70 -285h199l177 185l-54 -220h-554z" />
    <glyph glyph-name="afii10024" unicode="&#x416;" horiz-adv-x="1020" 
d="M521 650h294l-80 -44l-62 -251h30q41 0 65.5 23t59.5 81l66 118q56 88 138 88q42 0 63.5 -21t11.5 -60q-9 -37 -34.5 -56.5t-58.5 -19.5q-29 0 -39.5 17t-12.5 34.5t-11 17.5q-15 0 -30 -25l-66 -114q-25 -42 -41 -61.5t-34 -28.5q54 -11 88.5 -44.5t52.5 -106.5l34 -152
l55 -45h-214l-30 205q-12 65 -33 90t-60 25h-8l-68 -276l60 -44h-294l80 44l68 276h-8q-40 0 -74 -25.5t-75 -89.5l-130 -205h-214l75 45l110 152q91 128 213 151q-25 18 -31 90l-10 114q-3 25 -18 25q-8 0 -16 -11t-15.5 -23.5t-24 -23.5t-39.5 -11q-33 0 -49.5 19.5
t-7.5 56.5q10 39 41.5 60t73.5 21q85 0 94 -88l10 -118q4 -31 6.5 -45t10 -30.5t21 -22.5t35.5 -6h30l62 251z" />
    <glyph glyph-name="afii10025" unicode="&#x417;" horiz-adv-x="542" 
d="M159 410l62 255l71 -46q66 46 142 46q104 0 153 -41t26 -133q-15 -57 -63 -97.5t-107 -50.5q66 -2 100 -47t18 -110q-24 -95 -104 -145.5t-199 -50.5q-101 0 -145.5 54.5t-24.5 151.5q1 -66 39.5 -101t110.5 -35q67 0 111 40t59 99q12 52 -7 86.5t-80 34.5h-50l8 35h34
q53 2 92 36t56 102q19 75 -3 107t-66 32q-14 0 -28 -3.5t-28 -12.5t-26 -18t-26.5 -25t-24.5 -27t-26 -32.5t-24.5 -33t-25.5 -36t-24 -34.5z" />
    <glyph glyph-name="afii10026" unicode="&#x418;" horiz-adv-x="729" 
d="M20 0l80 44l138 562l-60 44h294l-80 -44l-116 -471l351 445l6 26l-60 44h294l-80 -44l-138 -562l60 -44h-294l80 44l114 464l-351 -445l-4 -19l60 -44h-294z" />
    <glyph glyph-name="afii10027" unicode="&#x419;" horiz-adv-x="729" 
d="M459 891q27 0 43 -19.5t10 -45.5q-5 -20 -19.5 -38t-13.5 -26q1 -24 65 -24q63 0 77 24q5 8 -0.5 26t-0.5 38q6 27 31 46t55 19q35 0 48.5 -21t5.5 -51q-12 -48 -75 -76.5t-147 -28.5t-133 28.5t-37 76.5q8 31 32 51.5t59 20.5zM20 0l80 44l138 562l-60 44h294l-80 -44
l-116 -471l351 445l6 26l-60 44h294l-80 -44l-138 -562l60 -44h-294l80 44l114 464l-351 -445l-4 -19l60 -44h-294z" />
    <glyph glyph-name="afii10028" unicode="&#x41a;" horiz-adv-x="687" 
d="M472 650l-80 -44l-62 -251h40q41 1 67.5 25t57.5 79l66 118q49 88 138 88q42 0 64 -21.5t12 -59.5q-8 -36 -35 -54.5t-55 -18.5q-29 0 -39.5 16.5t-13.5 33t-14 16.5q-14 0 -30 -25l-66 -114q-44 -73 -75 -90q52 -13 87.5 -44t53.5 -107l34 -152l55 -45h-214l-31 205
q-12 65 -32.5 90t-59.5 25h-18l-68 -276l60 -44h-294l80 44l138 562l-60 44h294z" />
    <glyph glyph-name="afii10029" unicode="&#x41b;" horiz-adv-x="696" 
d="M344 606l-80 44h570l-80 -44l-138 -562l60 -44h-294l80 44l140 571h-207l-82 -335q-71 -290 -223 -290q-39 0 -61.5 20.5t-12.5 58.5q8 36 32.5 53.5t51.5 17.5q23 0 33.5 -12t10 -26t3.5 -24t16 -7q28 7 57.5 78t47.5 151z" />
    <glyph glyph-name="afii10030" unicode="&#x41c;" horiz-adv-x="857" 
d="M10 0l108 74l128 522l-68 54h232l75 -422l271 422h239l-80 -44l-138 -562l60 -44h-294l80 44l128 526l-370 -585l-100 558l-114 -469l72 -74h-229z" />
    <glyph glyph-name="afii10031" unicode="&#x41d;" horiz-adv-x="734" 
d="M20 0l80 44l138 562l-60 44h294l-80 -44l-62 -251h246l62 251l-60 44h294l-80 -44l-138 -562l60 -44h-294l80 44l68 276h-246l-68 -276l60 -44h-294z" />
    <glyph glyph-name="afii10032" unicode="&#x41e;" 
d="M110 327q36 149 142.5 243.5t243.5 94.5q138 0 198.5 -94.5t24.5 -243.5q-38 -149 -145 -243t-244 -94t-197.5 94t-22.5 243zM282 327q-18 -73 -25.5 -124t-4.5 -94.5t24.5 -65t62.5 -21.5q78 0 125 77t84 228q18 73 25 124.5t4 95t-25 65t-63 21.5t-73 -21.5
t-56.5 -65.5t-42 -94.5t-35.5 -124.5z" />
    <glyph glyph-name="afii10033" unicode="&#x41f;" horiz-adv-x="724" 
d="M20 0l80 44l138 562l-60 44h684l-80 -44l-138 -562l60 -44h-294l90 44l140 571h-246l-140 -571l60 -44h-294z" />
    <glyph glyph-name="afii10034" unicode="&#x420;" horiz-adv-x="616" 
d="M20 0l80 44l138 562l-60 44h330q115 0 168.5 -49.5t29.5 -145.5t-101.5 -145.5t-192.5 -49.5h-106l-52 -216l60 -44h-294zM394 615l-78 -320h46q64 0 113 40.5t68 119.5q20 79 -9.5 119.5t-93.5 40.5h-46z" />
    <glyph glyph-name="afii10035" unicode="&#x421;" horiz-adv-x="613" 
d="M721 665l-60 -245q-19 112 -50 162t-89 50q-86 0 -149.5 -80t-96.5 -216q-31 -125 3.5 -202t126.5 -77q68 0 130.5 51.5t90.5 118.5q-30 -105 -111 -171t-183 -66q-137 0 -199 94.5t-24 242.5q36 149 142.5 243.5t243.5 94.5q89 0 135 -45z" />
    <glyph glyph-name="afii10036" unicode="&#x422;" horiz-adv-x="658" 
d="M786 650l-54 -220l-85 185h-91l-138 -561l78 -54h-334l102 54l138 561h-91l-177 -185l54 220h598z" />
    <glyph glyph-name="afii10037" unicode="&#x423;" horiz-adv-x="635" 
d="M783 650l-104 -80l-347 -486q-36 -49 -67.5 -71.5t-71.5 -22.5q-39 0 -58 22t-10 56q7 31 30 50.5t48 19.5q19 0 30.5 -8.5t14.5 -19t9.5 -19t17.5 -8.5q17 0 37 29l45 63l-142 428l-47 47h264l-58 -36l94 -282l175 246l-50 72h190z" />
    <glyph glyph-name="afii10038" unicode="&#x424;" horiz-adv-x="762" 
d="M686 650l-80 -44l-14 -56h68q100 0 148.5 -58.5t23.5 -161.5t-102.5 -161.5t-177.5 -58.5h-68l-16 -66l60 -44h-294l80 44l16 66h-68q-100 0 -148.5 58.5t-23.5 161.5t102.5 161.5t177.5 58.5h68l14 56l-60 44h294zM584 520l-92 -380h8q56 0 103.5 48.5t70.5 141.5
t-1.5 141.5t-80.5 48.5h-8zM330 140h8l92 380h-8q-56 0 -103.5 -48.5t-70.5 -141.5t1.5 -141.5t80.5 -48.5z" />
    <glyph glyph-name="afii10039" unicode="&#x425;" horiz-adv-x="696" 
d="M685 576l-189 -203l127 -329l63 -44h-287l58 37l-85 221l-187 -195l58 -63h-223l125 73l213 222l-118 310l-62 45h287l-59 -37l77 -202l163 176l-47 63h213z" />
    <glyph glyph-name="afii10040" unicode="&#x426;" horiz-adv-x="744" 
d="M20 0l80 44l138 562l-60 44h294l-80 -44l-140 -571h256l140 571l-60 44h294l-80 -44l-140 -571h90l-58 -235l-89 200h-585z" />
    <glyph glyph-name="afii10041" unicode="&#x427;" horiz-adv-x="694" 
d="M462 650l-80 -44l-28 -117q-26 -105 -13.5 -145t68.5 -40q63 0 123 34l66 268l-60 44h294l-80 -44l-138 -562l60 -44h-304l92 49l62 259q-70 -55 -178 -55q-99 0 -140.5 49t-11.5 170l34 134l-60 44h294z" />
    <glyph glyph-name="afii10042" unicode="&#x428;" horiz-adv-x="1024" 
d="M1162 650l-80 -44l-138 -562l60 -44h-984l80 44l138 562l-60 44h294l-80 -44l-140 -571h191l140 571l-60 44h294l-80 -44l-140 -571h191l140 571l-60 44h294z" />
    <glyph glyph-name="afii10043" unicode="&#x429;" horiz-adv-x="1024" 
d="M1032 35l-58 -235l-89 200h-865l80 44l138 562l-60 44h294l-80 -44l-140 -571h191l140 571l-60 44h294l-80 -44l-140 -571h191l140 571l-60 44h294l-80 -44l-140 -571h90z" />
    <glyph glyph-name="afii10044" unicode="&#x42a;" horiz-adv-x="719" 
d="M120 410l58 240h397l-80 -44l-54 -216h106q115 0 168.5 -49.5t29.5 -145.5t-100.5 -145.5t-191.5 -49.5h-330l80 44l140 571h-10q-52 0 -109 -55t-104 -150zM355 35h46q64 0 113 40.5t68 119.5q20 79 -9.5 119.5t-93.5 40.5h-46z" />
    <glyph glyph-name="afii10045" unicode="&#x42b;" horiz-adv-x="917" 
d="M603 0l80 44l138 562l-60 44h294l-80 -44l-138 -562l60 -44h-294zM178 650l60 -44l-138 -562l-80 -44h317q115 0 191.5 49.5t100.5 145.5t-29.5 145.5t-168.5 49.5h-93l54 216l80 44h-294zM285 35h-33l78 320h33q64 0 93.5 -40.5t9.5 -119.5q-19 -79 -68 -119.5
t-113 -40.5z" />
    <glyph glyph-name="afii10046" unicode="&#x42c;" horiz-adv-x="616" 
d="M238 606l-60 44h294l-80 -44l-54 -216h106q115 0 168.5 -49.5t29.5 -145.5t-100.5 -145.5t-191.5 -49.5h-330l80 44zM252 35h46q64 0 113 40.5t68 119.5q20 79 -9.5 119.5t-93.5 40.5h-46z" />
    <glyph glyph-name="afii10047" unicode="&#x42d;" horiz-adv-x="619" 
d="M520 319v1h-141l-105 -102l60 240l54 -103h141q33 106 7.5 189.5t-99.5 87.5t-143.5 -58t-140.5 -174l64 265l70 -45q69 45 163 45q74 0 126.5 -26.5t76.5 -72.5t29.5 -107.5t-13.5 -131.5q-35 -142 -147.5 -239.5t-248.5 -97.5q-101 0 -156 73.5t-24 193.5
q-4 -92 39 -136t121 -44q92 0 167.5 73.5t99.5 168.5z" />
    <glyph glyph-name="afii10048" unicode="&#x42e;" horiz-adv-x="979" 
d="M20 0l80 44l138 562l-60 44h294l-80 -44l-62 -251h107q42 138 143 224t231 86q137 0 195.5 -94t22.5 -244q-38 -150 -142.5 -243.5t-241.5 -93.5q-134 0 -192.5 92.5t-24.5 237.5h-106l-68 -276l60 -44h-294zM602 327q-18 -72 -25 -124t-4 -94.5t23.5 -64.5t57.5 -22
q72 0 120 79t84 226q17 71 24 124t3.5 95.5t-24 64.5t-57.5 22q-49 0 -88 -41t-64.5 -104.5t-49.5 -160.5z" />
    <glyph glyph-name="afii10049" unicode="&#x42f;" horiz-adv-x="657" 
d="M478 650h317l-80 -44l-138 -562l60 -44h-294l80 44l62 252h-22q-44 0 -77.5 -24t-66.5 -72l-125 -200h-214l81 53l75 111q44 61 85.5 96.5t105.5 48.5q-81 11 -118 52t-19 112q44 177 288 177zM493 331l70 284h-53q-58 0 -102 -34t-61 -108q-17 -68 9 -105t81 -37h56z
" />
    <glyph glyph-name="afii10065" unicode="&#x430;" horiz-adv-x="513" 
d="M305 106q-39 -57 -71 -86.5t-70 -29.5q-72 0 -99.5 60.5t-2.5 164.5q29 116 105.5 180.5t169.5 64.5q26 0 46.5 -14t26.5 -30l113 44q-16 -66 -49 -200t-49 -200l89 40q-93 -110 -165 -110q-63 0 -54 75q1 1 5.5 20.5t4.5 20.5zM195 205q-33 -157 27 -154q38 1 89 82
l61 249q0 6 1 17t-8 21.5t-26 10.5q-42 -1 -83.5 -67.5t-60.5 -158.5z" />
    <glyph glyph-name="afii10066" unicode="&#x431;" horiz-adv-x="474" 
d="M473 215q-21 -103 -96 -164t-173 -61q-100 0 -134.5 84t-5.5 211q31 131 105.5 225.5t180.5 111.5l163 26l61 47q-7 -31 -15 -54t-25 -54.5t-46.5 -51t-68.5 -23.5l-116 -12q-76 -8 -112 -44q-24 -26 -36.5 -50t-32.5 -76q76 100 192 104q90 3 135 -56t24 -163zM193 206
q-20 -186 34 -186q78 0 102 216q21 166 -37 166q-42 0 -66 -56.5t-33 -139.5z" />
    <glyph glyph-name="afii10067" unicode="&#x432;" horiz-adv-x="447" 
d="M463 347q-11 -41 -50 -69.5t-91 -34.5v-3q61 -1 89.5 -38.5t16.5 -86.5q-9 -37 -36 -63.5t-63.5 -39t-70 -17.5t-68.5 -5q-202 0 -131 249q19 68 48.5 114t67.5 68t73.5 30.5t80.5 8.5q39 0 71.5 -9.5t53 -36.5t9.5 -67zM288 115q5 26 5.5 52.5t-15.5 42t-48 8.5l-46 -6
l-8 -29q-23 -73 -20 -117t42 -44q32 0 56 26.5t34 66.5zM327 334q26 94 -23 94q-34 0 -58 -40.5t-46 -119.5l-8 -29l50 7q24 6 49.5 29.5t35.5 58.5z" />
    <glyph glyph-name="afii10068" unicode="&#x433;" horiz-adv-x="400" 
d="M105 345q49 115 175 115q67 0 107 -34.5t31 -94.5q-3 -17 -12.5 -31.5t-18.5 -23.5t-29.5 -18.5t-31.5 -13.5t-40 -13.5t-40 -13.5q-38 -13 -56 -35t-22 -59t15.5 -61.5t58.5 -24.5q81 0 143 101q-55 -148 -196 -148q-71 0 -114 31t-33 96q7 45 42.5 69.5t108.5 50.5
q39 14 62 34t27 61q3 35 -12 58t-54 23q-60 0 -111 -68z" />
    <glyph glyph-name="afii10069" unicode="&#x434;" horiz-adv-x="486" 
d="M48 235q22 102 91 163.5t145 61.5q67 0 89 -51q3 121 -54 186.5t-164 54.5q64 15 104 15q138 -1 204.5 -112.5t32.5 -277.5q-27 -131 -103 -208t-186 -77q-92 0 -137.5 66t-21.5 179zM192 210q-13 -89 -6.5 -138.5t39.5 -49.5q43 0 72 60.5t43 157.5q27 188 -36 188
q-41 0 -69.5 -60.5t-42.5 -157.5z" />
    <glyph glyph-name="afii10070" unicode="&#x435;" horiz-adv-x="456" 
d="M341 460q67 0 102.5 -26t31.5 -73q-8 -88 -152 -99l-129 -10q-4 -28 -5 -43q-5 -74 25.5 -105t81.5 -28q87 4 139 106q-20 -81 -84 -136.5t-146 -55.5q-94 0 -132 67t-13 168q24 99 104.5 167t176.5 68zM202 279l67 6q77 5 84 78q3 35 -9 52.5t-29 17.5q-36 0 -67 -44.5
t-46 -109.5z" />
    <glyph glyph-name="afii10072" unicode="&#x436;" horiz-adv-x="939" 
d="M62 268q24 89 75.5 140.5t123.5 51.5q71 0 101 -56.5t13 -151.5h61l49 198h130l-48 -198h60q30 96 91.5 152t141.5 56q112 0 96 -102q-4 -26 -23.5 -47.5t-49.5 -21.5q-27 0 -36 19t-3 39q17 70 13 79q-3 5 -10 5q-35 0 -68 -65.5t-47 -156.5q-19 -134 72 -134
q67 0 123 107q-24 -89 -75.5 -140.5t-123.5 -51.5q-76 0 -104.5 62.5t-4.5 167.5h-60l-54 -220h-131l54 220h-60q-27 -105 -91 -167.5t-148 -62.5q-112 0 -96 102q4 26 23.5 47.5t49.5 21.5q27 0 36 -19t3 -39q-17 -70 -13 -79q3 -5 10 -5q35 0 68 65.5t47 156.5
q19 134 -72 134q-67 0 -123 -107z" />
    <glyph glyph-name="afii10073" unicode="&#x437;" horiz-adv-x="408" 
d="M161 252h22q37 0 65.5 24.5t38.5 62.5q25 90 -46 90q-69 0 -157 -148l44 179l44 -36q46 36 116 36t105 -28.5t21 -87.5q-11 -45 -47 -70t-85 -32v-3q53 -2 81.5 -37t16.5 -86q-30 -126 -209 -126q-67 0 -109 40t-28 108q4 -45 34.5 -69t74.5 -24q39 0 69 21.5t39 62.5
q8 40 -9.5 65.5t-54.5 25.5h-32z" />
    <glyph glyph-name="afii10074" unicode="&#x438;" horiz-adv-x="524" 
d="M76 412l203 48l-72 -293q-16 -61 -14 -89t29 -28q19 0 47.5 25.5t52.5 57.5l63 250q-9 5 -27 14.5t-27 14.5q34 8 101.5 24t101.5 24l-98 -400l89 40q-93 -110 -165 -110q-33 0 -48 19t-6 56l9 35q-98 -110 -169 -110q-115 0 -74 164l58 229z" />
    <glyph glyph-name="afii10075" unicode="&#x439;" horiz-adv-x="534" 
d="M306 655q24 0 34.5 -13.5t5.5 -33.5q-3 -14 -16.5 -28t-12.5 -23q2 -27 45 -27q47 0 58 27q3 9 -2.5 22.5t-2.5 28.5q5 20 22.5 33.5t41.5 13.5q31 0 41.5 -19t4.5 -40q-11 -45 -60 -66t-109 -21q-59 0 -96 20.5t-28 66.5q4 22 23.5 40.5t50.5 18.5zM76 412l203 48
l-72 -293q-16 -61 -14 -89t29 -28q19 0 47.5 25.5t52.5 57.5l63 250q-9 5 -27 14.5t-27 14.5q34 8 101.5 24t101.5 24l-98 -400l89 40q-93 -110 -165 -110q-33 0 -48 19t-6 56l9 35q-98 -110 -169 -110q-115 0 -74 164l58 229z" />
    <glyph glyph-name="afii10076" unicode="&#x43a;" horiz-adv-x="526" 
d="M241 252h13q31 0 52 17.5t55 75.5q3 5 12 21t13.5 23t14 20.5t17.5 20.5t18.5 15t23 11.5t26.5 3.5q23 0 41.5 -12.5t17.5 -40.5q-1 -31 -20 -50t-48 -19q-17 0 -28.5 12.5t-15.5 21t-15 -0.5t-31 -46q-40 -73 -78 -87q61 -8 81.5 -41.5t48.5 -148.5q13 5 39.5 16
t40.5 17q-56 -91 -146 -91q-30 0 -46.5 19.5t-25.5 59.5q-3 12 -6.5 31.5t-6 31.5t-6.5 27.5t-7.5 25t-9 18.5t-12 13t-14.5 4h-4q-9 -37 -27 -110t-27 -110h-131q16 64 47 191.5t47 191.5q-9 5 -27 14.5t-27 14.5q34 8 101.5 24t101.5 24q-8 -35 -26 -104t-26 -104z" />
    <glyph glyph-name="afii10077" unicode="&#x43b;" horiz-adv-x="537" 
d="M311 65l87 353h-115l-49 -195q-27 -108 -50 -150q-43 -83 -114 -83q-28 0 -45.5 16.5t-13.5 47.5q4 33 24 46t41 13q19 0 31.5 -17.5t26.5 -16.5q9 1 17 11.5t15.5 32t12 37t11.5 45.5t9 38l35 140l-63 67h366l-96 -390l89 40q-93 -110 -165 -110q-32 0 -47.5 19t-6.5 56
z" />
    <glyph glyph-name="afii10078" unicode="&#x43c;" horiz-adv-x="723" 
d="M497 65l66 266l-244 -346q-12 57 -31 168.5t-31 168.5l-24 -99q-28 -117 -58 -165q-42 -68 -106 -68q-28 0 -45 17.5t-12 49.5q9 56 64 56q21 0 32 -18t25 -15q5 1 10 5t9.5 11.5t8.5 15.5t8 20t6.5 21t6.5 23.5t6 23t5.5 23t4.5 20.5l31 127l-65 42l207 48l45 -280
l196 270h111l-96 -390l89 40q-93 -110 -165 -110q-32 0 -47.5 18.5t-6.5 56.5z" />
    <glyph glyph-name="afii10079" unicode="&#x43d;" horiz-adv-x="549" 
d="M323 65l39 155h-127l-54 -220h-131l94 383l-54 29l203 48l-52 -208h127l50 198h131l-96 -390l89 40q-93 -110 -165 -110q-32 0 -47.5 18.5t-6.5 56.5z" />
    <glyph glyph-name="afii10080" unicode="&#x43e;" horiz-adv-x="472" 
d="M50 225q28 109 104.5 172t169.5 63t139.5 -63t18.5 -172q-26 -109 -103.5 -172t-170.5 -63t-138.5 63t-19.5 172zM192 210q-28 -188 34 -188q42 0 70.5 60.5t43.5 157.5q28 188 -34 188q-41 0 -70 -61t-44 -157z" />
    <glyph glyph-name="afii10081" unicode="&#x43f;" horiz-adv-x="539" 
d="M293 460l-27 -113q99 113 168 113q114 0 74 -164l-58 -236l89 40q-93 -110 -165 -110q-32 0 -47.5 18.5t-6.5 56.5l53 218q17 61 15 89t-28 28q-35 0 -102 -83l-77 -317h-131l94 383l-54 29z" />
    <glyph glyph-name="afii10082" unicode="&#x440;" horiz-adv-x="497" 
d="M-70 -200l68 45l134 538l-54 29l203 48l-29 -116q79 116 151 116q66 0 97 -61.5t5 -163.5q-27 -115 -98 -180t-150 -65q-54 0 -82 35l-46 -180l50 -45h-249zM375 242q13 70 2 110t-42 40q-15 0 -42 -21.5t-47 -53.5l-53 -219q-11 -40 6 -59.5t44 -17.5q45 4 80 68t52 153
z" />
    <glyph glyph-name="afii10083" unicode="&#x441;" horiz-adv-x="438" 
d="M189 209q-4 -79 28.5 -108.5t78.5 -22.5q80 13 136 104q-27 -87 -89 -139.5t-138 -52.5q-89 0 -129.5 65t-15.5 170t100 170t170 65q67 0 100 -27t26 -75q-3 -25 -23 -47t-50 -22q-27 0 -36 19t-3 39q12 43 5.5 65t-34.5 22q-44 0 -82 -68t-44 -157z" />
    <glyph glyph-name="afii10084" unicode="&#x442;" horiz-adv-x="772" 
d="M553 65l53 218q16 61 15.5 89t-23.5 28q-18 0 -40 -20.5t-56 -62.5q-2 -15 -4 -21l-72 -296h-131l68 283q16 61 15.5 89t-23.5 28q-30 0 -97 -83l-77 -317h-131l94 383l-54 29l203 48l-27 -113q90 113 158 113q51 0 69 -30t13 -88q27 35 43 53.5t49.5 41.5t63.5 23
q68 0 84.5 -45t-5.5 -119l-58 -236l89 40q-93 -110 -165 -110q-32 0 -47.5 18.5t-6.5 56.5z" />
    <glyph glyph-name="afii10085" unicode="&#x443;" horiz-adv-x="478" 
d="M145 -96l79 106l-96 372q-22 10 -68 30q33 8 98.5 24t98.5 24l70 -305q62 90 82 137q7 16 -4.5 32.5t-25 35.5t-10.5 41q3 26 22 42.5t45 16.5q48 0 59 -39.5t-17 -88.5q-21 -39 -49.5 -82t-67 -98t-56.5 -82l-122 -171q-46 -64 -76 -88t-61 -24q-30 0 -49.5 19.5
t-15.5 51.5q4 29 22 44t42 15q21 0 35.5 -19.5t22.5 -20.5q20 -3 42 27z" />
    <glyph glyph-name="afii10086" unicode="&#x444;" horiz-adv-x="713" 
d="M162 -200l70 45l50 197q-36 -52 -106 -52q-79 0 -109.5 63t-3.5 172q28 112 86 173.5t143 61.5q69 0 80 -52l40 170l-50 34l203 48l-62 -252q35 52 105 52q79 0 109 -63t3 -172q-28 -112 -85.5 -173.5t-142.5 -61.5q-32 0 -53.5 13.5t-25.5 38.5l-50 -197l50 -45h-251z
M561 424q-24 0 -42 -14.5t-24 -32.5l-76 -305q-1 -19 10 -33t34 -14q70 0 119 200q21 70 19 134.5t-40 64.5zM323 424q-39 0 -70.5 -58t-51.5 -141q-21 -70 -18 -135t42 -65q23 0 39.5 14t23.5 33l76 305q0 47 -41 47z" />
    <glyph glyph-name="afii10087" unicode="&#x445;" horiz-adv-x="527" 
d="M380 331l-33 -46l84 -235l81 46q-71 -106 -157 -106q-25 0 -41 12t-22 25t-15 41l-3 9l-25 72l-68 -94q-26 -36 -46 -50.5t-48 -14.5q-24 0 -41.5 16t-14.5 45t21.5 46t47.5 17q14 0 33.5 -9.5t33.5 -8t29 22.5l43 59l-69 198l-83 36l197 48l52 -147l59 82q26 36 46 50.5
t48 14.5q26 0 43.5 -15.5t13.5 -44.5t-24 -46.5t-49 -17.5q-14 0 -34 8t-33 6.5t-26 -19.5z" />
    <glyph glyph-name="afii10088" unicode="&#x446;" horiz-adv-x="534" 
d="M76 412q34 8 101.5 24t101.5 24q-12 -49 -36 -146.5t-36 -146.5q-16 -61 -14 -89t29 -28q19 0 47.5 25.5t52.5 57.5q10 42 31 125.5t32 124.5q-9 5 -27 14.5t-27 14.5q34 8 101.5 24t101.5 24q-16 -67 -49 -200.5t-49 -199.5q15 7 44.5 20t44.5 20q-3 -5 -19 -34
q-19 -39 -21 -72q-1 -12 1 -34q7 -51 5 -65q-5 -36 -31.5 -57t-75.5 -38q23 39 26 81q1 13 -2 38t0 40q5 35 33 60q-43 -29 -81 -29q-22 0 -36 8q-31 18 -18 67q2 6 5 17.5t4 17.5q-98 -110 -169 -110q-115 0 -74 164q9 38 28.5 114.5t29.5 114.5q-9 5 -27 14.5t-27 14.5z
" />
    <glyph glyph-name="afii10089" unicode="&#x447;" horiz-adv-x="505" 
d="M277 65l34 138q-54 -43 -119 -43q-14 0 -26.5 1.5t-29.5 6.5t-28 14.5t-21.5 25.5t-9.5 40t7 57l20 78l-54 29l203 48l-36 -147q-16 -56 -10.5 -83.5t42.5 -27.5q36 0 68 26l39 155l-54 29l203 48l-98 -400l89 40q-93 -110 -165 -110q-32 0 -47.5 18.5t-6.5 56.5z" />
    <glyph glyph-name="afii10090" unicode="&#x448;" horiz-adv-x="787" 
d="M329 412l203 48l-72 -293q-29 -117 15 -117q19 0 47.5 25.5t52.5 57.5l63 250l-54 29q34 8 101.5 24t101.5 24l-98 -400l89 40q-93 -110 -165 -110q-33 0 -48 19t-6 56l9 35q-3 -3 -15.5 -17.5t-16.5 -18.5t-15 -16t-16.5 -16.5t-15.5 -13t-17 -12t-16.5 -8.5t-18.5 -6.5
t-18 -1.5q-52 0 -79 31.5t-22 85.5q-42 -56 -79 -86.5t-75 -30.5q-135 0 -94 164l58 229l-54 29l203 48l-72 -293q-29 -117 15 -117q35 0 100 83q1 3 2.5 10t2.5 11l58 229z" />
    <glyph glyph-name="afii10091" unicode="&#x449;" horiz-adv-x="787" 
d="M329 412q34 8 101.5 24t101.5 24q-12 -49 -36 -146.5t-36 -146.5q-29 -117 15 -117q19 0 47.5 25.5t52.5 57.5q11 41 32 124.5t31 125.5q-9 5 -27 14.5t-27 14.5q34 8 101.5 24t101.5 24q-16 -67 -48.5 -200t-49.5 -200q15 7 44.5 20t44.5 20q-3 -5 -19 -34
q-19 -39 -21 -72q-1 -17 3.5 -50t2.5 -49q-5 -36 -31.5 -57t-75.5 -38q23 39 26 81q1 12 -2.5 38t0.5 40q5 33 37 63q-46 -32 -85 -32q-22 0 -36 8q-31 18 -18 67q1 6 4 17.5t5 17.5q-3 -3 -15.5 -17.5t-16.5 -18.5t-15 -16t-16.5 -16.5t-15.5 -13t-17 -12t-16.5 -8.5
t-18.5 -6.5t-18 -1.5q-52 0 -79 31.5t-22 85.5q-42 -56 -79 -86.5t-75 -30.5q-135 0 -94 164q10 38 29.5 114.5t28.5 114.5q-9 5 -27 14.5t-27 14.5q34 8 101.5 24t101.5 24q-12 -49 -36 -146.5t-36 -146.5q-29 -117 15 -117q35 0 100 83q8 49 33.5 142t29.5 108
q-9 5 -27 14.5t-27 14.5z" />
    <glyph glyph-name="afii10092" unicode="&#x44a;" horiz-adv-x="492" 
d="M176 423q-71 0 -136 -123l38 150q44 1 121 5t122 5l-53 -197q41 34 94 34q80 0 115.5 -41t18.5 -113q-18 -78 -89 -114.5t-151 -37.5q-51 0 -85.5 17t-47 45t-15.5 63t9 70l64 237h-5zM333 273q-64 0 -91 -112q-15 -53 -8.5 -100.5t39.5 -47.5q56 0 83 111q15 53 11 101
t-34 48z" />
    <glyph glyph-name="afii10093" unicode="&#x44b;" horiz-adv-x="713" 
d="M485 65l79 318l-54 29l203 48l-98 -400l89 40q-93 -110 -165 -110q-32 0 -47.5 18.5t-6.5 56.5zM70 412l203 48l-53 -197q41 34 94 34q80 0 115.5 -41t18.5 -113q-18 -78 -89 -114.5t-151 -37.5q-51 0 -85.5 17t-47 45t-15 63t8.5 70l55 197zM285 273q-64 0 -91 -112
q-15 -53 -8.5 -100.5t39.5 -47.5q56 0 83 111q15 53 11 101t-34 48z" />
    <glyph glyph-name="afii10094" unicode="&#x44c;" horiz-adv-x="444" 
d="M70 412l203 48l-53 -197q41 34 94 34q80 0 115.5 -41t18.5 -113q-18 -78 -89 -114.5t-151 -37.5q-51 0 -85.5 17t-47 45t-15 63t8.5 70l55 197zM285 273q-64 0 -91 -112q-15 -53 -8.5 -100.5t39.5 -47.5q56 0 83 111q15 53 11 101t-34 48z" />
    <glyph glyph-name="afii10095" unicode="&#x44d;" horiz-adv-x="432" 
d="M182 228l8 32h134q20 79 4.5 124t-58.5 45q-82 0 -170 -148l44 179l44 -36q50 36 117 36q92 0 126.5 -63.5t9.5 -171.5q-24 -102 -95.5 -168.5t-173.5 -66.5q-75 0 -108.5 52t-18.5 140q5 -106 91 -114q50 -4 96 29t75 112l7 19h-132z" />
    <glyph glyph-name="afii10096" unicode="&#x44e;" horiz-adv-x="707" 
d="M293 460l-54 -221l70 5q32 102 102 159t157 57q92 0 134 -62.5t14 -172.5q-26 -110 -99 -172.5t-165 -62.5q-88 0 -129 58.5t-21 163.5l-71 -5l-50 -207h-131l94 383l-54 29zM441 210q-22 -199 44 -188q41 6 61 60.5t33 157.5q25 195 -43 188q-40 -4 -61 -60t-34 -158z
" />
    <glyph glyph-name="afii10097" unicode="&#x44f;" horiz-adv-x="542" 
d="M316 65l33 133h-10q-33 -2 -55.5 -18t-42.5 -54l-35 -66q-20 -37 -42.5 -53.5t-62.5 -16.5q-63 0 -101 91l61 -37l49 88q41 75 119 82q-53 9 -79.5 39t-16.5 77q26 120 199 120h210l-96 -390l89 40q-93 -110 -165 -110q-32 0 -47.5 18.5t-6.5 56.5zM332 230h25l46 188
h-24q-44 0 -73.5 -25.5t-37.5 -67.5q-9 -44 3.5 -69.5t60.5 -25.5z" />
    <glyph glyph-name="afii10071" unicode="&#x451;" horiz-adv-x="456" 
d="M341 460q67 0 102.5 -26t31.5 -73q-8 -88 -152 -99l-129 -10q-4 -28 -5 -43q-5 -74 25.5 -105t81.5 -28q87 4 139 106q-20 -81 -84 -136.5t-146 -55.5q-94 0 -132 67t-13 168q24 99 104.5 167t176.5 68zM202 279l67 6q77 5 84 78q3 35 -9 52.5t-29 17.5q-36 0 -67 -44.5
t-46 -109.5zM184 589q8 31 33 51t56 20t45.5 -20t6.5 -51q-8 -30 -32.5 -50t-55.5 -20q-30 0 -45 20t-8 50zM374 589q8 31 33 51t56 20t45.5 -20t6.5 -51q-8 -30 -32.5 -50t-55.5 -20q-30 0 -45 20t-8 50z" />
    <glyph glyph-name="afii10099" unicode="&#x452;" horiz-adv-x="569" 
d="M129 496l237 169q-6 -24 -17.5 -71.5t-17.5 -70.5h73q-1 -5 -3.5 -14t-3.5 -13h-73q-8 -30 -22.5 -89.5t-21.5 -89.5q59 55 86 70q42 23 88 23t67 -20.5t19.5 -57t-13.5 -86.5l-58 -233q-26 -105 -89 -164t-143 -59q-50 0 -79 21.5t-25 62.5q3 33 23 52.5t50 19.5
q29 0 39.5 -21.5t3.5 -52.5q-1 -4 -2.5 -11t-2 -11t-1.5 -9.5t-0.5 -8.5t1.5 -6.5t4 -5t7 -1.5q7 0 13 2.5t11.5 8t9.5 12t8.5 18t8 21t7.5 27t7 30.5t8.5 36t9.5 39l55 220q8 33 11.5 53t3 35.5t-7.5 22t-21 6.5q-58 0 -107 -63q-12 -48 -36 -143.5t-36 -143.5h-130
q21 83 62.5 248t61.5 248h-65z" />
    <glyph glyph-name="afii10100" unicode="&#x453;" horiz-adv-x="400" 
d="M105 345q49 115 175 115q67 0 107 -34.5t31 -94.5q-3 -17 -12.5 -31.5t-18.5 -23.5t-29.5 -18.5t-31.5 -13.5t-40 -13.5t-40 -13.5q-38 -13 -56 -35t-22 -59t15.5 -61.5t58.5 -24.5q81 0 143 101q-55 -148 -196 -148q-71 0 -114 31t-33 96q7 45 42.5 69.5t108.5 50.5
q39 14 62 34t27 61q3 35 -12 58t-54 23q-60 0 -111 -68zM244 501l48 189h159z" />
    <glyph glyph-name="afii10101" unicode="&#x454;" horiz-adv-x="438" 
d="M189 209q-4 -79 28.5 -108.5t78.5 -22.5q80 13 136 104q-27 -87 -89 -139.5t-138 -52.5q-89 0 -129.5 65t-15.5 170t100 170t170 65q67 0 100 -27t26 -75q-3 -25 -23 -47t-50 -22q-27 0 -36 19t-3 39q12 43 5.5 65t-34.5 22q-38 0 -72 -50t-48 -124h124l-7 -32h-122
q0 -4 -0.5 -10t-0.5 -9z" />
    <glyph glyph-name="afii10102" unicode="&#x455;" horiz-adv-x="409" 
d="M371 436l58 24l-46 -172q-25 140 -108 140q-34 0 -57 -14t-29 -37q-8 -27 4 -44.5t46 -34.5l63 -32q43 -22 64 -61.5t8 -91.5q-31 -123 -180 -123q-26 0 -54.5 9t-42.5 22l-77 -31l44 174q18 -75 49 -108.5t80 -33.5q28 0 48 14t25 37q9 36 -13.5 57.5t-66.5 38.5
q-53 21 -76.5 60t-11.5 92q17 72 67 105.5t116 33.5q62 0 90 -24z" />
    <glyph glyph-name="afii10103" unicode="&#x456;" horiz-adv-x="304" 
d="M180 589q7 31 32.5 51t56.5 20t45.5 -20t6.5 -51q-8 -30 -33 -50t-56 -20q-30 0 -45 20t-7 50zM63 65l79 318l-54 29l203 48l-98 -400l89 40q-93 -110 -165 -110q-32 0 -47.5 18.5t-6.5 56.5z" />
    <glyph glyph-name="afii10104" unicode="&#x457;" horiz-adv-x="304" 
d="M90 589q7 31 32.5 51t56.5 20t45.5 -20t6.5 -51q-8 -30 -33 -50t-56 -20q-30 0 -45 20t-7 50zM63 65l79 318l-54 29l203 48l-98 -400l89 40q-93 -110 -165 -110q-32 0 -47.5 18.5t-6.5 56.5zM270 589q7 31 32.5 51t56.5 20t45.5 -20t6.5 -51q-8 -30 -33 -50t-56 -20
q-30 0 -45 20t-7 50z" />
    <glyph glyph-name="afii10105" unicode="&#x458;" horiz-adv-x="310" 
d="M124 412l54 -29l-92 -370q-4 -16 -9.5 -39t-8.5 -36t-7 -30.5t-7.5 -27t-8 -21t-8.5 -18t-9.5 -12t-11.5 -8t-13 -2.5q-4 0 -7 1.5t-4 5t-1.5 6.5t0.5 8.5t1.5 9.5t2 11t2.5 11q7 31 -3.5 52.5t-39.5 21.5q-30 0 -50 -19.5t-23 -52.5q-4 -41 25 -62.5t79 -21.5
q80 0 143 59t89 164l110 447zM216 589q7 31 32.5 51t56.5 20t45.5 -20t6.5 -51q-8 -30 -33 -50t-56 -20q-30 0 -45 20t-7 50z" />
    <glyph glyph-name="afii10106" unicode="&#x459;" horiz-adv-x="711" 
d="M336 186l62 232h-115l-49 -195q-27 -108 -50 -150q-43 -83 -114 -83q-28 0 -45.5 16.5t-13.5 47.5q4 33 24 46t41 13q19 0 31.5 -17.5t26.5 -16.5q9 1 17 11.5t15.5 32t12 37t11.5 45.5t9 38l35 140l-63 67h366l-50 -187q41 34 94 34q80 0 115.5 -41t18.5 -113
q-18 -78 -89 -114.5t-151 -37.5q-51 0 -85.5 17t-47 45t-15 63t8.5 70zM552 273q-64 0 -91 -112q-15 -53 -8.5 -100.5t39.5 -47.5q56 0 83 111q15 53 11 101t-34 48z" />
    <glyph glyph-name="afii10107" unicode="&#x45a;" horiz-adv-x="718" 
d="M539 450l-45 -187q41 34 94 34q80 0 115.5 -41t18.5 -113q-18 -78 -89 -114.5t-151 -37.5q-51 0 -85 17t-46 44.5t-15 62.5t8 71l8 34h-117q-9 -37 -27 -110t-27 -110h-131q16 64 47 191.5t47 191.5q-9 5 -27 14.5t-27 14.5q34 8 101.5 24t101.5 24q-8 -35 -26 -104
t-26 -104h117l50 198h131zM559 273q-64 0 -91 -112q-15 -53 -8.5 -100.5t39.5 -47.5q56 0 83 111q15 53 11 101t-34 48z" />
    <glyph glyph-name="afii10108" unicode="&#x45b;" horiz-adv-x="569" 
d="M129 496l237 169q-6 -24 -17.5 -71.5t-17.5 -70.5h73q-1 -5 -3.5 -14t-3.5 -13h-73q-8 -30 -22.5 -89.5t-21.5 -89.5q59 55 86 70q42 23 88 23t67 -20.5t19.5 -57t-13.5 -86.5l-47 -186l89 40q-96 -110 -164 -110q-36 0 -50 20.5t-5 54.5l43 168q8 33 11.5 53t3 35.5
t-7.5 22t-21 6.5q-58 0 -107 -63q-12 -48 -36 -143.5t-36 -143.5h-130q21 83 62.5 248t61.5 248h-65z" />
    <glyph glyph-name="afii10109" unicode="&#x45c;" horiz-adv-x="526" 
d="M241 252h13q31 0 52 17.5t55 75.5q3 5 12 21t13.5 23t14 20.5t17.5 20.5t18.5 15t23 11.5t26.5 3.5q23 0 41.5 -12.5t17.5 -40.5q-1 -31 -20 -50t-48 -19q-17 0 -28.5 12.5t-15.5 21t-15 -0.5t-31 -46q-40 -73 -78 -87q61 -8 81.5 -41.5t48.5 -148.5q13 5 39.5 16
t40.5 17q-56 -91 -146 -91q-30 0 -46.5 19.5t-25.5 59.5q-3 12 -6.5 31.5t-6 31.5t-6.5 27.5t-7.5 25t-9 18.5t-12 13t-14.5 4h-4q-9 -37 -27 -110t-27 -110h-131q16 64 47 191.5t47 191.5q-9 5 -27 14.5t-27 14.5q34 8 101.5 24t101.5 24q-8 -35 -26 -104t-26 -104z
M314 501l48 189h159z" />
    <glyph glyph-name="afii10110" unicode="&#x45e;" horiz-adv-x="478" 
d="M145 -96l79 106l-96 372q-22 10 -68 30q33 8 98.5 24t98.5 24l70 -305q62 90 82 137q7 16 -4.5 32.5t-25 35.5t-10.5 41q3 26 22 42.5t45 16.5q48 0 59 -39.5t-17 -88.5q-21 -39 -49.5 -82t-67 -98t-56.5 -82l-122 -171q-46 -64 -76 -88t-61 -24q-30 0 -49.5 19.5
t-15.5 51.5q4 29 22 44t42 15q21 0 35.5 -19.5t22.5 -20.5q20 -3 42 27zM276 655q24 0 34.5 -13.5t5.5 -33.5q-3 -14 -16.5 -28t-12.5 -23q2 -27 45 -27q48 0 58 27q3 9 -2.5 22.5t-2.5 28.5q5 20 22.5 33.5t41.5 13.5q31 0 41.5 -19t4.5 -40q-11 -45 -60 -66t-109 -21
q-59 0 -96 20.5t-28 66.5q4 22 23.5 40.5t50.5 18.5z" />
    <glyph glyph-name="afii10193" unicode="&#x45f;" horiz-adv-x="524" 
d="M76 412l203 48l-72 -293q-16 -61 -14 -89t29 -28q19 0 47.5 25.5t52.5 57.5l63 250q-9 5 -27 14.5t-27 14.5q34 8 101.5 24t101.5 24l-98 -400l89 40q-93 -110 -165 -110q-33 0 -48 19t-6 56l9 35q-8 -9 -32 -30.5t-35 -40t-13 -45.5q-1 -17 3.5 -50t2.5 -49
q-5 -36 -31.5 -57t-75.5 -38q23 39 26 81q1 13 -2 38t0 40q4 28 19 46q-18 -5 -31 -5q-115 0 -74 164l58 229z" />
    <glyph glyph-name="afii10050" unicode="&#x490;" horiz-adv-x="574" 
d="M731 770l-64 -260l-104 105h-169l-138 -561l78 -54h-314l80 44l138 562l-60 44h394z" />
    <glyph glyph-name="afii10098" unicode="&#x491;" horiz-adv-x="400" 
d="M105 345q7 16 15 33.5t12 26t8 20.5t5 26q1 17 -3.5 50t-2.5 49q5 36 31.5 57t75.5 38q-23 -39 -26 -81q-1 -13 2 -38t0 -40q-5 -26 -23 -44q33 18 81 18q67 0 107 -34.5t31 -94.5q-3 -17 -12.5 -31.5t-18.5 -23.5t-29.5 -18.5t-31.5 -13.5t-40 -13.5t-40 -13.5
q-38 -13 -56 -35t-22 -59t15.5 -61.5t58.5 -24.5q81 0 143 101q-55 -148 -196 -148q-71 0 -114 31t-33 96q7 45 42.5 69.5t108.5 50.5q39 14 62 34t27 61q3 35 -12 58t-54 23q-60 0 -111 -68z" />
    <glyph glyph-name="endash" unicode="&#x2013;" horiz-adv-x="490" 
d="M84 220l8 32h430l-8 -32h-430z" />
    <glyph glyph-name="emdash" unicode="&#x2014;" horiz-adv-x="619" 
d="M54 220l8 32h619l-8 -32h-619z" />
    <glyph glyph-name="quoteleft" unicode="&#x2018;" horiz-adv-x="260" 
d="M322 452q-8 -31 -33.5 -51t-59.5 -20q-38 0 -54.5 28.5t-2.5 82.5q13 51 64 102.5t116 75.5q-53 -26 -85.5 -71.5t-37.5 -87.5q20 11 41 11q33 0 46.5 -19.5t5.5 -50.5z" />
    <glyph glyph-name="quoteright" unicode="&#x2019;" horiz-adv-x="260" 
d="M198 594q8 31 33 51t59 20q38 0 54.5 -28.5t3.5 -82.5q-13 -51 -64 -102.5t-116 -75.5q53 26 85.5 71.5t37.5 87.5q-20 -11 -41 -11q-33 0 -46.5 19.5t-5.5 50.5z" />
    <glyph glyph-name="quotesinglbase" unicode="&#x201a;" horiz-adv-x="260" 
d="M64 60q8 31 33.5 51t59.5 20q38 0 54.5 -28.5t2.5 -82.5q-12 -51 -63 -102.5t-116 -75.5q53 26 85.5 71.5t37.5 87.5q-20 -11 -41 -11q-33 0 -47 19.5t-6 50.5z" />
    <glyph glyph-name="quotedblleft" unicode="&#x201c;" horiz-adv-x="450" 
d="M512 452q-8 -31 -33.5 -51t-59.5 -20q-38 0 -54.5 28.5t-2.5 82.5q13 51 64 102.5t116 75.5q-53 -26 -85.5 -71.5t-37.5 -87.5q20 11 41 11q33 0 46.5 -19.5t5.5 -50.5zM322 452q-8 -31 -33.5 -51t-59.5 -20q-38 0 -54.5 28.5t-2.5 82.5q13 51 64 102.5t116 75.5
q-53 -26 -85.5 -71.5t-37.5 -87.5q20 11 41 11q33 0 46.5 -19.5t5.5 -50.5z" />
    <glyph glyph-name="quotedblright" unicode="&#x201d;" horiz-adv-x="450" 
d="M198 594q8 31 33 51t59 20q38 0 54.5 -28.5t3.5 -82.5q-13 -51 -64 -102.5t-116 -75.5q53 26 85.5 71.5t37.5 87.5q-20 -11 -41 -11q-33 0 -46.5 19.5t-5.5 50.5zM388 594q8 31 33 51t59 20q38 0 54.5 -28.5t3.5 -82.5q-13 -51 -64 -102.5t-116 -75.5q53 26 85.5 71.5
t37.5 87.5q-20 -11 -41 -11q-33 0 -46.5 19.5t-5.5 50.5z" />
    <glyph glyph-name="quotedblbase" unicode="&#x201e;" horiz-adv-x="450" 
d="M64 60q8 31 33.5 51t59.5 20q38 0 54.5 -28.5t2.5 -82.5q-12 -51 -63 -102.5t-116 -75.5q53 26 85.5 71.5t37.5 87.5q-20 -11 -41 -11q-33 0 -47 19.5t-6 50.5zM254 60q8 31 33.5 51t59.5 20q38 0 54.5 -28.5t2.5 -82.5q-12 -51 -63 -102.5t-116 -75.5q53 26 85.5 71.5
t37.5 87.5q-20 -11 -41 -11q-33 0 -47 19.5t-6 50.5z" />
    <glyph glyph-name="dagger" unicode="&#x2020;" horiz-adv-x="410" 
d="M463 547q16 0 31 -13.5t8 -43.5t-34 -47q-17 -11 -34 -11q-18 0 -40 12q-9 5 -30.5 21t-36.5 25q19 9 51 26t50.5 24t34.5 7zM248 175q-31 0 -39.5 20t-2.5 43q10 40 51 119q4 7 31 57.5t39 75.5q-1 -28 1 -88q3 -114 -2 -146q-14 -81 -78 -81zM152 490q7 31 29 44.5
t38 13.5q18 0 40 -12q9 -5 31 -21t37 -25q-19 -9 -49 -24.5t-42 -20.5q-29 -12 -46 -12q-16 0 -31 13.5t-7 43.5zM418 622q-4 -16 -16 -33.5t-35.5 -46.5t-39.5 -52q-4 21 -12.5 50.5t-12 47t0.5 34.5q2 10 12.5 24.5t27.5 22.5q12 6 30 6q31 0 40 -18.5t5 -34.5z" />
    <glyph glyph-name="daggerdbl" unicode="&#x2021;" horiz-adv-x="410" 
d="M418 622q-4 -15 -14.5 -31t-33.5 -44t-36 -46l-2 -9q17 8 48.5 24.5t49 23.5t33.5 7t31 -13.5t8 -43.5q-8 -31 -30 -44.5t-38 -13.5t-29.5 6t-38 24t-35.5 25l-37 -148q17 8 48.5 24.5t49 23.5t33.5 7t31 -13.5t8 -43.5q-8 -31 -30 -44.5t-38 -13.5t-29.5 6t-38 24
t-35.5 25l-2 -9q4 -19 13 -48.5t9.5 -37.5t-0.5 -34q-5 -17 -23 -35t-48 -18q-31 0 -40 18.5t-4 34.5q4 15 14.5 31t32.5 43.5t36 46.5l2 8l-39 -19.5l-36 -18t-28.5 -11.5t-27.5 -5q-16 0 -31 13.5t-7 43.5q7 31 29 44.5t38 13.5t30 -6.5t37.5 -24t35.5 -25.5l37 148
l-39 -19.5l-36 -18t-28.5 -11.5t-27.5 -5q-16 0 -31 13.5t-7 43.5q7 31 29 44.5t38 13.5t30 -6.5t37.5 -24t35.5 -25.5l2 9q-4 19 -13 49.5t-9.5 38t1.5 33.5q4 16 22 34.5t48 18.5q31 0 40 -18.5t5 -34.5z" />
    <glyph glyph-name="bullet" unicode="&#x2022;" horiz-adv-x="350" 
d="M227 453q51 0 87 -36.5t36 -85.5q0 -51 -37 -87t-86 -36q-51 0 -86.5 36.5t-35.5 86.5q0 51 36.5 86.5t85.5 35.5z" />
    <glyph glyph-name="ellipsis" unicode="&#x2026;" horiz-adv-x="621" 
d="M54 60q8 31 33 51t56 20t45.5 -20t6.5 -51q-8 -30 -32.5 -50t-55.5 -20q-30 0 -45 20t-8 50zM254 60q8 31 33 51t56 20t45.5 -20t6.5 -51q-8 -30 -32.5 -50t-55.5 -20q-30 0 -45 20t-8 50zM454 60q8 31 33 51t56 20t45.5 -20t6.5 -51q-8 -30 -32.5 -50t-55.5 -20
q-30 0 -45 20t-8 50z" />
    <glyph glyph-name="perthousand" unicode="&#x2030;" horiz-adv-x="1048" 
d="M703 665h52l-587 -675h-53zM153 497q21 82 73 125t112 43t90.5 -43t9.5 -125t-72.5 -125.5t-111.5 -43.5t-91 43.5t-10 125.5zM340 497q37 143 -8 143q-44 0 -81 -143q-34 -144 10 -144q45 0 79 144zM432 159q21 82 73 125t112 43t90.5 -43t9.5 -125t-72.5 -125.5
t-111.5 -43.5t-91 43.5t-10 125.5zM619 159q37 143 -8 143q-44 0 -81 -143q-37 -144 9 -144q43 0 80 144zM772 159q21 82 73 125t112 43t90.5 -43t9.5 -125t-72.5 -125.5t-111.5 -43.5t-91 43.5t-10 125.5zM959 159q37 143 -8 143q-44 0 -81 -143q-37 -144 9 -144
q43 0 80 144z" />
    <glyph glyph-name="guilsinglleft" unicode="&#x2039;" horiz-adv-x="261" 
d="M210 236l34 -180l-156 180l246 180z" />
    <glyph glyph-name="guilsinglright" unicode="&#x203a;" horiz-adv-x="261" 
d="M43 56l124 180l-34 180l156 -180z" />
    <glyph glyph-name="Euro" unicode="&#x20ac;" horiz-adv-x="530" 
d="M94 378l8 32h76q47 116 130.5 185.5t180.5 69.5q63 0 94 -21l61 21l-61 -245q-3 114 -19 163t-59 49q-50 0 -94.5 -59.5t-77.5 -162.5h134l-8 -32h-136q-8 -28 -11 -42q-5 -21 -8 -36h135l-8 -32h-133q-15 -98 8 -154.5t82 -56.5q46 0 85 38t66 92q-26 -90 -85.5 -143.5
t-139.5 -53.5q-102 0 -147.5 75.5t-27.5 202.5h-73l8 32h71q1 3 2 8.5t2 10t2 8.5q6 25 15 51h-72z" />
    <glyph glyph-name="afii61352" unicode="&#x2116;" horiz-adv-x="965" 
d="M753 417q21 82 73 125t112 43t90.5 -43t9.5 -125q-20 -82 -72 -125.5t-112 -43.5t-90.5 43.5t-10.5 125.5zM940 417q37 143 -8 143q-44 0 -81 -143q-34 -144 10 -144q45 0 79 144zM688 156l8 32h285l-8 -32h-285zM189 84l80 -84h-239l110 84l118 473l-66 93h211l198 -363
l70 279l-69 84h229l-111 -84l-145 -581l-280 521z" />
    <glyph glyph-name="trademark" unicode="&#x2122;" horiz-adv-x="650" 
d="M349 400l47 42l41 166l-16 22h-64l-51 -204l27 -26h-148l41 26l51 204h-39l-68 -68l22 88h350l27 -139l95 139h118l-32 -21l-51 -207l20 -22h-132l32 22l49 196l-156 -224l-47 214l-41 -166l25 -42h-100z" />
    <glyph glyph-name="percent" horiz-adv-x="708" 
d="M703 665h52l-587 -675h-53zM153 497q21 82 73 125t112 43t90.5 -43t9.5 -125t-72.5 -125.5t-111.5 -43.5t-91 43.5t-10 125.5zM340 497q37 143 -8 143q-44 0 -81 -143q-34 -144 10 -144q45 0 79 144zM432 159q21 82 73 125t112 43t90.5 -43t9.5 -125t-72.5 -125.5
t-111.5 -43.5t-91 43.5t-10 125.5zM619 159q37 143 -8 143q-44 0 -81 -143q-37 -144 9 -144q43 0 80 144z" />
    </font>
</defs>
</svg>
