<svg width="35" height="32" viewBox="0 0 35 32" fill="none" xmlns="http://www.w3.org/2000/svg">
<path d="M0.795647 1.53259e-05C0.356211 1.53259e-05 -3.58682e-08 0.358187 -3.58682e-08 0.800015C-3.58682e-08 1.24184 0.356211 1.60002 0.795647 1.60002H4.92306L9.11262 21.5C9.21426 21.9917 9.54088 22.4052 9.94558 22.4H29.8367C30.2571 22.406 30.6437 22.0228 30.6437 21.6C30.6437 21.1774 30.2571 20.7941 29.8367 20.8H10.592L9.92072 17.6H31.428C31.7843 17.596 32.1209 17.3246 32.1988 16.975L34.9836 4.97504C35.0871 4.51075 34.686 4.00344 34.2128 4.00004H7.06136L6.35276 0.625015C6.27391 0.271423 5.92991 -0.00307667 5.56953 1.53259e-05H0.795647ZM7.39705 5.60004H14.446L15.1794 10H8.32942L7.39705 5.60004ZM16.0497 5.60004H24.5283L23.7948 10H16.7832L16.0497 5.60004ZM26.132 5.60004H33.2182L32.1988 10H25.3986L26.132 5.60004ZM8.66507 11.6H15.4405L16.174 16H9.58507L8.66507 11.6ZM17.0567 11.6H23.5213L22.8002 16H17.7777L17.0567 11.6ZM25.1375 11.6H31.8259L30.794 16H24.404L25.1375 11.6ZM14.3216 24.8C12.3537 24.8 10.7412 26.4212 10.7412 28.4C10.7412 30.3788 12.3537 32 14.3216 32C16.2896 32 17.902 30.3788 17.902 28.4C17.902 26.4212 16.2896 24.8 14.3216 24.8ZM25.4607 24.8C23.4927 24.8 21.8803 26.4212 21.8803 28.4C21.8803 30.3788 23.4927 32 25.4607 32C27.4287 32 29.0411 30.3788 29.0411 28.4C29.0411 26.4212 27.4287 24.8 25.4607 24.8ZM14.3216 26.4C15.4296 26.4 16.3108 27.286 16.3108 28.4C16.3108 29.514 15.4296 30.4 14.3216 30.4C13.2137 30.4 12.3325 29.514 12.3325 28.4C12.3325 27.286 13.2137 26.4 14.3216 26.4ZM25.4607 26.4C26.5687 26.4 27.4498 27.286 27.4498 28.4C27.4498 29.514 26.5687 30.4 25.4607 30.4C24.3528 30.4 23.4716 29.514 23.4716 28.4C23.4716 27.286 24.3528 26.4 25.4607 26.4Z" fill="white"/>
</svg>
