<svg width="15" height="16" viewBox="0 0 15 16" fill="none" xmlns="http://www.w3.org/2000/svg">
<path d="M6.67745 10.5446C7.46317 9.75893 7.85603 8.81548 7.85603 7.71429C7.85603 6.6131 7.46317 5.67262 6.67745 4.89286C5.89769 4.10714 4.95722 3.71429 3.85603 3.71429C2.75484 3.71429 1.81138 4.10714 1.02567 4.89286C0.245908 5.67262 -0.143973 6.6131 -0.143973 7.71429C-0.143973 8.81548 0.245908 9.75893 1.02567 10.5446C1.81138 11.3244 2.75484 11.7143 3.85603 11.7143C4.95722 11.7143 5.89769 11.3244 6.67745 10.5446ZM12.4275 15.1429C12.4275 15.4524 12.3144 15.7202 12.0882 15.9464C11.862 16.1726 11.5941 16.2857 11.2846 16.2857C10.9632 16.2857 10.6953 16.1726 10.481 15.9464L7.41853 12.8929C6.35305 13.631 5.16555 14 3.85603 14C3.00484 14 2.18936 13.8363 1.4096 13.5089C0.635789 13.1756 -0.0338541 12.7292 -0.59933 12.1696C-1.15885 11.6042 -1.60528 10.9345 -1.93862 10.1607C-2.266 9.38095 -2.42969 8.56548 -2.42969 7.71429C-2.42969 6.8631 -2.266 6.0506 -1.93862 5.27679C-1.60528 4.49702 -1.15885 3.82738 -0.59933 3.26786C-0.0338541 2.70238 0.635789 2.25595 1.4096 1.92857C2.18936 1.59524 3.00484 1.42857 3.85603 1.42857C4.70722 1.42857 5.51972 1.59524 6.29353 1.92857C7.07329 2.25595 7.74293 2.70238 8.30245 3.26786C8.86793 3.82738 9.31436 4.49702 9.64174 5.27679C9.97507 6.0506 10.1417 6.8631 10.1417 7.71429C10.1417 9.02381 9.77269 10.2113 9.0346 11.2768L12.0971 14.3393C12.3173 14.5595 12.4275 14.8274 12.4275 15.1429Z" transform="translate(2.42969 -1)" fill="black"/>
</svg>
