<svg width="14" height="12" viewBox="0 0 14 12" version="1.1" xmlns="http://www.w3.org/2000/svg" xmlns:xlink="http://www.w3.org/1999/xlink">
<g id="Canvas" fill="none">
<g id="Group">
<g id="Vector (Stroke)">
<path fill-rule="evenodd" clip-rule="evenodd" d="M 10.6115 0.288294C 10.9907 0.665176 10.9819 1.26776 10.5919 1.63419L 1.67141 9.8058C 1.28143 10.1722 0.657917 10.1638 0.278746 9.78689C -0.100424 9.41001 -0.091664 8.80743 0.298313 8.441L 9.21882 0.269385C 9.6088 -0.0970535 10.2323 -0.0885874 10.6115 0.288294Z" transform="matrix(0.980328 -0.197375 0.209992 0.977703 2.20828 2.14941)" fill="#E71938"/>
</g>
<g id="Vector (Stroke)_2">
<path fill-rule="evenodd" clip-rule="evenodd" d="M 0.279031 0.287971C 0.658652 -0.0884302 1.28298 -0.0969511 1.6735 0.268939L 5.65892 4.00294C 6.04945 4.36883 6.05829 4.97058 5.67867 5.34698C 5.29905 5.72338 4.67472 5.7319 4.28419 5.36601L 0.298777 1.63201C -0.0917485 1.26612 -0.100589 0.664373 0.279031 0.287971Z" transform="translate(0 6.18579)" fill="#E71938"/>
</g>
</g>
</g>
</svg>

