<svg width="15" height="24" viewBox="0 0 15 24" fill="none" xmlns="http://www.w3.org/2000/svg">
<path d="M1.19272 0C-0.177802 0 0.00851404 1.1288 0.00851404 2.52V2.7C0.00851404 4.092 -0.177802 4.7064 1.19272 4.7064C2.56009 4.7064 2.37694 4.092 2.37694 2.7V2.52C2.37694 1.1288 2.56009 0 1.19272 0Z" transform="translate(6.30725 4.5)" fill="black"/>
<path d="M7.5 0C3.41921 0 0 3.3648 0 7.5V16.5C0 20.6352 3.41921 24 7.5 24C11.5808 24 15 20.6352 15 16.5V7.5C15 3.3648 11.5808 0 7.5 0ZM13.4211 16.5C13.4211 19.8088 10.7653 22.5 7.5 22.5C4.23474 22.5 1.57895 19.8088 1.57895 16.5V7.5C1.57895 4.192 4.23474 1.5 7.5 1.5C10.7653 1.5 13.4211 4.192 13.4211 7.5V16.5Z" fill="black"/>
</svg>
